<svg width="252" height="184" viewBox="0 0 252 184" fill="none" xmlns="http://www.w3.org/2000/svg">
<path fill-rule="evenodd" clip-rule="evenodd" d="M250.893 69.8063C247.782 92.9994 244.271 105.251 223.777 129.539C203.282 153.828 109.498 169.806 74.8259 169.806C40.154 169.806 -2.57526 143.07 0.121509 112.093C2.81828 81.115 16.8877 55.796 50.5635 52.6792C84.9785 49.494 115.209 64.2443 148.996 56.3333C178.207 49.494 187.145 23.4246 207.207 15.1998C247.783 -1.43419 253.009 54.0281 250.893 69.8063Z" fill="#5B60FD"/>
<path d="M230.018 81.1336C228.872 83.0766 214.361 92.9084 205.558 94.3635C203.855 94.645 201.995 94.7417 200.515 93.8523C199.641 93.3269 198.99 92.5075 198.371 91.6968C196.956 89.8432 195.607 87.94 194.326 85.9918C193.652 84.968 192.985 83.8993 192.756 82.6955C192.15 79.5078 194.72 76.6447 197.259 74.6249C203.097 69.9821 209.931 66.5998 217.163 64.7751C218.444 64.4521 219.801 64.1786 221.069 64.5455C223.128 65.141 224.359 67.2238 225.144 69.2176C225.929 71.2113 226.542 73.392 228.112 74.8505C228.47 75.1836 231.165 79.1906 230.018 81.1336Z" fill="#F1F3F8"/>
<path fill-rule="evenodd" clip-rule="evenodd" d="M152.043 165.837C137.959 168.246 144.672 158.01 146.614 145.198C149.805 124.145 153.741 92.1527 153.741 92.1527C153.741 92.1527 156.307 140.902 156.307 152.772C156.307 164.642 153.74 165.547 152.043 165.837Z" fill="#F1F3F8"/>
<path d="M136.995 154.239C137.354 157.629 137.733 161.091 139.174 164.18C138.388 157.184 137.602 150.187 136.816 143.191C136.719 142.327 136.747 141.227 137.542 140.875C138.215 148.775 139.218 156.647 140.547 164.464C140.705 165.392 139.311 165.922 138.528 165.399C137.745 164.877 137.495 163.859 137.317 162.935C136.019 156.199 135.306 149.351 135.188 142.493C133.536 142.818 132.378 144.419 132.044 146.069C131.71 147.719 132.032 149.422 132.353 151.075C133.389 156.393 134.425 161.711 135.461 167.029C135.945 169.517 136.43 172.087 135.895 174.565C133.839 165.179 132.187 155.706 130.943 146.179C115.17 155.824 94.8463 157.617 77.6279 150.884C73.8673 149.413 70.1326 147.464 67.6488 144.281C65.6922 141.773 64.6481 138.659 64.1011 135.526C62.1585 124.397 66.1394 113.045 71.5426 103.124C73.5927 99.3601 75.9276 95.4394 75.7622 91.1561C75.7052 89.6814 75.3872 88.0486 76.2484 86.8501C76.3703 87.072 70.6109 45.8736 72.9213 36.7607C78.4835 14.822 96.5525 11.8508 108.121 12.1214C115.884 12.303 165.087 22.0812 172.195 35.3785C181.539 52.8549 179.555 67.5481 177.896 77.2364C177.402 80.1215 153.748 91.9401 153.741 91.9998C152.389 104.571 143.314 131.964 135.703 142.06C136.134 146.12 136.564 150.179 136.995 154.239Z" fill="#F1F3F8"/>
<path fill-rule="evenodd" clip-rule="evenodd" d="M23.4218 103.087C18.9859 101.316 13.6995 101.841 9.70024 104.45C9.31306 104.703 8.7564 104.421 8.56473 104.001C8.37306 103.581 8.44475 103.092 8.54279 102.641C9.82009 96.7628 14.9085 92.2652 20.5672 90.1983C26.2259 88.1315 32.4156 88.1257 38.4309 88.479C39.0277 88.5141 39.6516 88.5607 40.1607 88.8736C40.6698 89.1865 41.0124 89.8555 40.7586 90.3959C38.3924 95.4347 36.6099 100.746 35.458 106.191C35.2713 107.074 34.3564 107.66 33.4554 107.733C32.5544 107.807 31.6716 107.475 30.8539 107.09C28.3056 105.89 26.0378 104.131 23.4218 103.087" fill="#F1F3F8"/>
<path fill-rule="evenodd" clip-rule="evenodd" d="M159.77 14.3525C159.991 10.9806 159.736 7.57805 159.018 4.27631L159.002 4.20593C158.88 3.64765 158.755 3.0734 158.867 2.51467C159.116 1.27898 160.488 0.535201 161.748 0.561143C163.009 0.587084 164.176 1.18865 165.291 1.77612C170.639 4.59344 176.084 7.48187 180.294 11.8187C180.427 15.3298 179.599 18.7946 178.782 22.215L178.706 22.5365C175.295 36.8325 172.503 51.2758 170.339 65.8126C170.131 67.2059 169.738 68.8495 168.416 69.3375C167.468 69.6875 166.366 69.2402 165.693 68.4868C165.019 67.7334 164.697 66.733 164.473 65.7477C163.919 63.3169 163.852 60.7759 164.278 58.3193C164.538 56.8171 164.978 55.3558 165.419 53.8941C165.814 52.5818 166.209 51.2692 166.475 49.9264C166.74 48.5836 166.874 47.2187 167.004 45.8561C167.694 38.6104 168.279 31.3547 168.76 24.0921C168.828 23.0658 168.889 22.0072 168.553 21.0352C167.955 19.3063 166.214 18.2136 164.454 17.7125C164.151 17.6262 163.843 17.5527 163.535 17.4793L163.535 17.4793C162.818 17.3084 162.102 17.1376 161.448 16.8044C160.513 16.3281 159.702 15.3995 159.77 14.3525ZM163.038 14.0754C165.525 14.6001 167.956 15.3926 170.274 16.4346C170.741 16.6444 171.232 16.89 171.484 17.3354C171.69 17.6991 171.702 18.1371 171.708 18.555C171.781 23.4637 171.796 28.3854 171.276 33.2671C170.965 36.1903 170.463 39.088 169.961 41.9854L169.96 41.9875C169.802 42.9038 169.643 43.8201 169.49 44.7372C168.734 49.2791 168.125 53.8455 167.665 58.4269C167.331 61.751 167.087 65.1868 168.121 68.3635C168.652 68.2666 168.856 67.6277 168.956 67.0979L178.512 16.7311C178.743 15.5108 178.975 14.2491 178.702 13.0373C178.224 10.9158 176.341 9.44067 174.526 8.24373C171.031 5.93954 167.311 3.9771 163.435 2.39346C163.113 6.27787 162.98 10.178 163.038 14.0754ZM167.952 47.1541C169.701 38.1719 170.492 29.0031 170.305 19.854C170.291 19.1629 170.254 18.4204 169.832 17.8735C169.522 17.4727 169.049 17.238 168.586 17.031C166.851 16.2535 165.026 15.6749 163.159 15.3103C162.619 15.2047 161.824 15.3191 161.848 15.8691L168.558 18.6417C168.951 18.8043 169.37 18.9883 169.593 19.3514C169.811 19.7076 169.79 20.155 169.761 20.5717L167.952 47.1541ZM161.709 1.50507C161.155 1.13837 160.356 1.51637 160.048 2.10416C159.74 2.69194 159.787 3.39559 159.857 4.05555C159.959 5.02385 160.094 5.99265 160.229 6.96159C160.603 9.6498 160.978 12.3391 160.66 15.0217C161.167 15.1958 161.733 14.8382 161.98 14.3615C162.226 13.8848 162.232 13.3249 162.233 12.7884L162.25 3.11453C162.251 2.52329 162.201 1.83176 161.709 1.50507ZM166.677 68.1454C166.372 65.7548 166.292 63.3355 166.438 60.9299C166.517 59.6436 166.659 58.3619 166.802 57.0805L166.802 57.0803L166.802 57.0799C166.991 55.3853 167.179 53.6911 167.219 51.9874C165.825 56.1351 165.299 60.572 165.684 64.9307C165.784 66.0645 165.97 67.2533 166.677 68.1454ZM167.443 49.5371C167.667 49.4366 167.762 49.1216 167.629 48.9145C167.402 49.0268 167.305 49.3447 167.432 49.5648L167.443 49.5371ZM165.36 28.7636C154.27 21.9241 141.73 17.8263 129.189 14.2904C125.18 13.1601 121.138 12.077 116.999 11.6132C104.734 10.2392 92.3003 14.4709 82.1022 21.4215C78.0122 24.209 74.0661 27.6379 72.299 32.2613C70.9879 35.6917 70.9969 39.4682 71.1234 43.1385C71.5595 55.7967 73.1837 68.3804 74.8061 80.9418C76.0744 80.713 76.1997 78.9588 76.016 77.6831C74.3291 65.9687 73.3832 54.1476 73.186 42.314C73.1307 38.9957 73.1481 35.5937 74.2964 32.48C76.3752 26.8434 81.7367 23.1571 86.9975 20.2561C93.6237 16.6022 100.827 13.5306 108.392 13.3676C117.555 13.1701 126.241 17.2349 134.246 21.6992C138.709 24.188 143.234 26.9673 146.073 31.216C148.651 35.0738 149.588 39.7755 150.265 44.3658C152.411 58.9349 152.49 73.7196 152.565 88.4458C152.568 89.0415 152.531 89.7242 152.064 90.0945C151.745 90.3477 151.31 90.3794 150.903 90.4006L135.953 91.1787C142.919 93.1817 150.647 92.3917 157.064 89.0205L173.676 80.2939C175.226 79.4794 176.827 78.6239 177.895 77.2365C179.366 75.327 179.576 72.7581 179.646 70.3489C179.902 61.451 179.012 52.5206 177.006 43.8482C177.701 53.2297 177.798 62.6556 177.294 72.0495C177.208 73.6536 177.08 75.3367 176.207 76.6857C175.276 78.1266 173.656 78.9427 172.112 79.6928L154.185 88.406C154.927 74.4769 154.352 60.4778 152.469 46.6565C151.836 42.0079 151.028 37.2942 148.9 33.1126C143.873 23.2307 132.745 18.3424 122.461 14.2003C137.837 18.6987 153.388 23.2715 167.221 31.3527C167.401 30.2363 166.322 29.3572 165.36 28.7636ZM222.652 71.2827C223.449 73.337 224.57 75.5267 226.63 76.3097C227.118 76.3474 227.409 75.7004 227.249 75.238C227.115 74.8518 226.801 74.5705 226.492 74.2942L226.491 74.2936C226.46 74.2653 226.428 74.237 226.397 74.2086L226.368 74.1832C226.349 74.1657 226.33 74.1481 226.311 74.1305C225.001 72.9128 224.357 71.1917 223.723 69.4963C223.598 69.161 223.473 68.8267 223.343 68.4975C222.558 66.5038 221.327 64.4209 219.269 63.8255C218 63.4586 216.643 63.7321 215.363 64.0551C208.131 65.8797 201.296 69.262 195.459 73.9049C192.919 75.9247 190.35 78.7878 190.955 81.9755C191.184 83.1793 191.852 84.248 192.525 85.2718C193.806 87.22 195.156 89.1232 196.57 90.9768C197.189 91.7875 197.84 92.6069 198.714 93.1323C200.194 94.0217 202.054 93.925 203.757 93.6435C212.56 92.1884 220.094 86.7178 227.263 81.4067C227.636 81.1303 228.025 80.8358 228.218 80.4136C228.411 79.9914 228.329 79.4041 227.919 79.1861C227.449 78.9363 226.894 79.2813 226.475 79.6094C219.804 84.8326 212.677 89.9365 204.406 91.7714C202.837 92.1192 201.109 92.3241 199.698 91.5563C198.643 90.9818 197.93 89.949 197.257 88.9534L193.084 82.7791C192.732 82.259 192.368 81.7001 192.355 81.0725C192.342 80.445 192.849 79.7663 193.472 79.8472C199.321 80.6079 205.198 81.1547 211.087 81.4862C211.556 81.5125 212.046 81.5338 212.473 81.3387C213.024 81.0873 213.359 80.5309 213.652 80.0019C216.146 75.5074 218.05 70.6867 219.302 65.7017C220.966 66.8949 221.743 68.916 222.484 70.8444L222.486 70.8513L222.587 71.1124L222.652 71.2827ZM217.504 65.3071C216.39 69.4761 214.741 73.502 212.612 77.2552C212.255 77.8843 211.858 78.5323 211.234 78.8978C210.44 79.3629 209.451 79.2752 208.537 79.1732L193.967 77.5474C196.384 74.353 199.975 72.2798 203.563 70.4985C206.96 68.8123 210.446 67.3082 214.003 65.9947C215.13 65.5789 216.311 65.176 217.504 65.3071ZM136.995 154.239C137.354 157.629 137.733 161.091 139.174 164.18L136.816 143.191C136.719 142.327 136.747 141.227 137.542 140.875C138.215 148.775 139.217 156.647 140.547 164.464C140.705 165.392 139.311 165.922 138.528 165.399C137.745 164.877 137.495 163.859 137.317 162.935C136.019 156.199 135.306 149.351 135.188 142.493C133.536 142.818 132.378 144.419 132.044 146.069C131.71 147.719 132.032 149.422 132.353 151.075L135.461 167.029C135.945 169.517 136.43 172.087 135.895 174.565C133.839 165.179 132.187 155.706 130.943 146.179C115.17 155.824 94.8463 157.617 77.6279 150.884C73.8673 149.413 70.1326 147.464 67.6487 144.281C65.6921 141.773 64.648 138.659 64.101 135.526C62.1584 124.397 66.1393 113.045 71.5425 103.124C71.6832 102.866 71.8252 102.607 71.9677 102.347L71.9679 102.347C73.9015 98.82 75.9162 95.1453 75.7621 91.1562C75.7519 90.8927 75.7334 90.6242 75.7148 90.3541L75.7148 90.3539V90.3538V90.3538V90.3537V90.3536V90.3536C75.6292 89.1116 75.5411 87.8344 76.2483 86.8502C77.1969 88.5759 77.5582 90.6177 77.2593 92.5642C93.5885 91.8613 109.942 91.7198 126.281 92.1398C126.471 92.891 125.383 93.24 124.608 93.2285C109.36 93.001 94.1053 93.2608 78.8741 94.0072C78.3917 94.0309 77.8854 94.0622 77.4764 94.3191C77.0463 94.5893 76.7957 95.0633 76.5645 95.5156C72.2417 103.974 67.9046 112.555 65.8152 121.821C64.7406 126.586 64.3291 131.802 66.5314 136.162C67.3668 137.816 68.5485 139.277 69.8678 140.578C76.9505 147.564 87.5565 149.706 97.5035 149.539C103.852 149.432 110.187 148.519 116.307 146.83C122.796 145.038 129.267 142.215 133.696 137.146C136.297 134.169 138.064 130.564 139.612 126.927C142.568 119.982 144.836 112.744 146.37 105.354C147.331 105.556 147.345 106.915 147.123 107.872C144.379 119.707 141.191 132.322 132.155 140.443C123.993 147.778 112.493 150.053 101.538 150.666C95.2093 151.021 88.7811 150.91 82.6515 149.297C76.5219 147.684 70.6693 144.456 66.7779 139.453C67.9128 143.78 71.7573 146.869 75.7598 148.868C86.2688 154.115 98.6786 153.838 110.283 152.014C118.012 150.799 125.946 148.804 131.962 143.801C137.104 139.523 140.381 133.415 142.847 127.198C145.578 120.316 147.472 113.103 148.474 105.768C149.099 105.373 149.562 106.477 149.483 107.211C148.13 119.783 143.314 131.964 135.703 142.06L136.995 154.239ZM129.686 175.736C129.016 174.604 128.584 173.331 128.427 172.024L127.464 175.289L125.033 166.017C124.844 165.297 124.385 164.397 123.658 164.552C122.95 164.702 122.871 165.672 122.976 166.388C123.506 169.985 124.516 173.511 125.972 176.843L123.386 174.574C123.26 175.654 123.545 176.777 124.169 177.667C122.823 176.675 121.016 176.337 119.402 176.775C120.555 178.378 122.121 179.681 123.907 180.524L121.723 177.474C123.488 178.494 125.339 179.367 127.248 180.083L125.397 177.762L127.684 178.396C125.934 174.414 124.151 170.28 124.193 165.931C124.856 169.469 125.826 172.95 127.088 176.32C127.302 176.892 127.54 177.482 127.996 177.888C128.451 178.293 129.192 178.446 129.67 178.066C130.041 177.771 130.149 177.262 130.233 176.796L131.263 171.083L132.395 178.168C133.253 176.001 136.043 175.458 138.374 175.443C141.451 175.424 144.552 175.763 147.644 176.101L147.645 176.101C153.219 176.711 158.768 177.317 164.11 175.818C163.953 176.644 163.679 177.447 163.297 178.196C167.608 177.569 171.969 177.294 176.324 177.374C178.163 177.408 180.007 177.505 181.852 177.602H181.852H181.852H181.853H181.853H181.853H181.853H181.853H181.853C186.73 177.857 191.607 178.113 196.385 177.208L164.673 176.929C165.268 176.895 165.725 176.202 165.522 175.641C165.319 175.08 164.525 174.84 164.045 175.194C163.733 174.203 162.331 173.762 161.508 174.397C161.985 172.925 162.929 171.609 164.17 170.684C162.769 170.609 161.347 171.038 160.222 171.874L163.633 156.088C163.345 155.84 162.864 156.006 162.65 156.322C162.44 156.634 162.416 157.03 162.394 157.407L162.393 157.419C162.074 162.809 160.173 168.096 156.987 172.456L155.736 168.837L153.943 173.161C153.13 172.531 151.977 172.372 151.025 172.758C151.268 173.683 152.007 174.461 152.918 174.75L153.343 173.613L156.144 175.49C155.073 174.368 154.841 172.532 155.599 171.179L157.294 174.022L160.58 167.524C160.599 170.133 159.48 172.599 158.384 174.967C159.576 174.034 160.6 172.888 161.393 171.6C162.16 172.956 161.323 174.776 159.99 175.583C158.658 176.391 157.01 176.435 155.453 176.369C153.078 176.269 150.684 175.97 148.294 175.672C142.926 175.003 137.572 174.336 132.473 175.916L131.738 169.136C130.614 171.166 129.911 173.427 129.686 175.736ZM161.68 175.917C161.565 175.779 161.566 175.558 161.682 175.421L161.775 175.456C161.93 175.084 162.585 175.114 162.706 175.5C162.404 175.718 162.049 175.862 161.68 175.917ZM179.006 103.881C175.313 102.014 170.918 102.518 166.818 103.08C165.66 103.239 164.479 103.405 163.429 103.921C162.38 104.437 161.466 105.371 161.285 106.526C151.272 105.276 141.677 100.869 134.205 94.0876C132.583 92.6158 130.928 90.5201 131.657 88.4551C131.887 87.806 132.333 87.2582 132.797 86.7496C136.28 82.9301 141.084 80.6329 145.76 78.4279C140.46 78.8927 135.375 81.4703 131.868 85.4701C131.064 86.3867 130.323 87.4109 130.046 88.5983C129.362 91.5301 131.639 94.2805 133.918 96.2474C141.19 102.524 150.337 106.599 159.866 107.809C160.437 107.882 160.467 108.685 160.415 109.259C160.182 111.811 161.573 114.301 163.501 115.989C165.429 117.676 167.844 118.69 170.24 119.598C177.66 122.408 185.361 124.478 193.19 125.767C193.707 125.852 194.418 125.812 194.527 125.299C192.72 124.104 190.545 123.648 188.419 123.203L188.075 123.131C182.684 121.996 177.365 120.518 172.161 118.708C170.027 117.966 167.887 117.155 166.025 115.873C164.164 114.591 162.583 112.78 161.988 110.6C161.694 109.523 162.093 107.916 163.201 108.051C167.712 108.603 172.347 109.147 176.751 108.029C177.748 107.775 178.787 107.393 179.394 106.564C180.002 105.734 179.924 104.345 179.006 103.881ZM167.628 106.862C166.08 106.595 164.498 106.524 162.932 106.65C163.693 105.204 165.552 104.824 167.17 104.603C170.688 104.124 174.352 103.657 177.723 104.773C177.946 104.846 178.183 104.94 178.304 105.142C178.462 105.406 178.346 105.767 178.121 105.978C177.896 106.189 177.589 106.285 177.291 106.368C174.16 107.244 170.833 107.413 167.628 106.862ZM116.388 179.789C118.98 179.716 121.587 180.289 123.909 181.441C123.288 182.334 122.041 182.458 120.955 182.5L92.5686 183.577C92.3084 183.545 92.2594 183.143 92.4437 182.957C92.628 182.77 92.9161 182.746 93.1779 182.733L120.888 181.382C119.287 181.235 117.725 180.682 116.388 179.789ZM61.7605 85.9102C61.356 87.8448 62.9926 89.9087 64.9636 90.0551C61.7406 94.9123 55.9348 97.3095 50.3565 99.0016C46.8749 100.058 43.0129 100.925 39.6939 99.4348C39.282 99.6864 39.7212 100.306 40.1561 100.516C43.386 102.072 47.2154 101.205 50.6511 100.18C55.6894 98.676 60.8829 96.7326 64.3113 92.7461C64.4517 92.5828 64.5916 92.4147 64.7324 92.2454C65.6148 91.1849 66.535 90.079 67.8617 89.8336C72.133 89.0437 75.6904 86.3684 79.2056 83.7249L79.2056 83.7249C80.0029 83.1253 80.7981 82.5273 81.5989 81.9534C86.4659 78.4651 91.8641 75.7191 97.5495 73.8396C98.0516 73.6737 98.6623 73.3655 98.6176 72.8386C91.5687 73.4856 85.4074 77.6891 79.7262 81.9115L79.5367 82.0523C75.6756 84.9228 71.6409 87.9222 66.89 88.6336C68.4419 87.4097 68.1143 84.5815 66.3634 83.6646C64.6126 82.7477 62.165 83.9756 61.7605 85.9102ZM63.0759 87.0925C62.7591 86.154 63.2481 85.0377 64.1171 84.5624C64.3638 84.4274 64.6398 84.3376 64.921 84.3373C65.849 84.3364 66.5268 85.329 66.5329 86.257C66.539 87.185 66.0685 88.041 65.6113 88.8485C64.5418 88.6848 63.422 88.1176 63.0759 87.0925ZM168.553 66.4136C168.29 66.1211 168.371 65.727 168.454 65.3189C168.514 65.0304 168.574 64.735 168.516 64.4633C168.465 64.2277 168.328 64.0271 168.19 63.8258C168.068 63.6477 167.946 63.4692 167.883 63.2654C167.897 62.9961 168.258 62.858 168.503 62.9697C168.749 63.0814 168.886 63.3449 168.972 63.6005C169.284 64.5336 169.124 65.612 168.553 66.4136ZM144.79 45.9387C145.447 44.3816 146.749 43.0007 148.409 42.6846C148.947 42.5823 148.93 41.6966 148.459 41.4181C147.989 41.1397 147.384 41.3043 146.89 41.5393C144.59 42.6342 143.138 45.0441 142.569 47.5272C142 50.0103 142.188 52.5963 142.379 55.1365L143.396 68.6388C143.431 69.0979 143.473 69.5799 143.729 69.9629C144.249 70.7428 145.366 70.7672 146.302 70.7078L151.038 70.4069C149.986 69.5819 148.573 69.2346 147.258 69.4775C146.489 69.6194 145.718 69.1127 145.311 68.4461C144.904 67.7794 144.785 66.9816 144.684 66.207C144.024 61.1396 143.781 56.0178 143.96 50.9108C144.02 49.2218 144.133 47.4959 144.79 45.9387ZM156.885 165.789C156.616 165.985 156.346 165.54 156.307 165.21C154.477 149.823 154.201 134.298 153.927 118.805L153.742 108.36C153.737 108.062 153.741 107.736 153.932 107.508C154.261 107.116 154.954 107.296 155.241 107.72C155.529 108.144 155.529 108.693 155.52 109.205C155.238 124.451 155.423 139.727 156.883 154.906C156.9 155.091 156.918 155.275 156.936 155.46C157.271 158.908 157.611 162.408 156.885 165.789ZM141.666 68.7969C141.265 68.5767 140.771 68.7014 140.332 68.8311C120.038 74.8334 99.7904 81.0223 79.841 88.0862C79.4676 88.2184 79.0405 88.4089 78.9548 88.7956C78.8641 89.2052 79.2497 89.5966 79.6623 89.6725C80.0749 89.7484 80.4922 89.6009 80.886 89.4561C100.878 82.1015 121.172 75.5649 141.698 69.8683C142.139 69.7459 142.067 69.0171 141.666 68.7969Z" fill="#00160A"/>
<path fill-rule="evenodd" clip-rule="evenodd" d="M213.971 160.611C213.499 160.819 212.987 161.012 212.479 160.925C211.97 160.837 211.494 160.36 211.596 159.854C212.53 155.229 211.358 150.221 208.467 146.491C207.455 145.184 206.249 144.034 205.262 142.707C204.64 141.871 204.087 140.82 204.402 139.827C204.851 138.413 206.658 138.07 208.138 137.969C211.576 137.735 215.015 137.5 218.454 137.266C220.039 137.158 221.864 137.142 222.921 138.326C225.866 141.624 231.604 141.846 234.794 138.785C235.288 138.311 235.909 139.254 235.89 139.938C235.828 142.088 234.942 144.205 233.453 145.757C233.102 146.123 232.653 146.482 232.148 146.43C231.643 146.377 231.271 145.652 231.673 145.343C232.537 144.68 233.416 144 234.022 143.095C234.627 142.19 234.921 141.004 234.508 139.996C232.286 142.806 230.044 145.6 227.78 148.376C223.855 153.19 219.658 158.113 213.971 160.611M220.174 146.446C219.609 146.603 219.007 146.483 218.443 146.323C214.384 145.176 210.645 142.005 206.493 142.747C211.334 146.646 213.904 153.184 213.015 159.336C216.205 158.653 218.724 156.271 220.983 153.918C224.327 150.435 227.502 146.79 230.493 143C228.343 142.983 226.201 142.363 224.374 141.229C222.117 141.787 222.415 145.827 220.174 146.446M223.122 140.043C221.777 138.458 219.361 138.507 217.29 138.689C214.59 138.926 211.889 139.163 209.188 139.4C208.092 139.497 206.832 139.689 206.261 140.63C210.935 141.608 215.492 143.145 219.804 145.198C220.359 143.456 221.471 141.896 222.936 140.803C223.101 140.68 223.29 140.522 223.268 140.317C223.256 140.213 223.19 140.123 223.122 140.043V140.043Z" fill="#FFB61D"/>
<path fill-rule="evenodd" clip-rule="evenodd" d="M22.8985 102.245C18.8308 100.618 13.9833 101.1 10.316 103.497C9.96091 103.729 9.45047 103.47 9.27471 103.084C9.09895 102.698 9.16469 102.249 9.25459 101.835C10.4259 96.4348 15.0918 92.303 20.2808 90.4042C25.4698 88.5055 31.1457 88.5001 36.6616 88.8247C37.209 88.8569 37.781 88.8998 38.2479 89.1872C38.7147 89.4746 39.0289 90.0893 38.7962 90.5857C36.6263 95.2146 34.9918 100.094 33.9356 105.096C33.7643 105.907 32.9254 106.445 32.0992 106.513C31.273 106.581 30.4634 106.275 29.7136 105.922C27.3769 104.82 25.2973 103.204 22.8985 102.245M23.3635 96.7806C23.001 97.0752 22.4344 96.9196 22.0932 96.6005C21.7521 96.2814 21.5578 95.8398 21.2896 95.4574C19.8514 93.4057 16.5509 93.576 14.5945 95.1413C12.6381 96.7067 11.6914 99.1802 10.8294 101.533C16.5689 99.0397 23.6381 99.9344 28.5756 103.779C29.2497 104.303 29.9187 104.895 30.7488 105.097C31.5789 105.299 32.6247 104.936 32.835 104.108C33.9583 99.6839 35.3425 95.3263 36.978 91.0652C33.8398 94.9659 27.2492 93.6237 23.3635 96.7806M22.1145 94.4235C22.4368 94.8285 23.022 94.9359 23.5314 94.8445C24.0409 94.7531 24.5037 94.4994 24.9783 94.2931C26.6125 93.5828 28.4225 93.4243 30.1745 93.0995C31.9265 92.7746 33.7336 92.2249 34.967 90.9389C32.1842 90.9305 29.4014 90.9222 26.6187 90.9138C23.8221 90.9054 20.8085 90.9646 18.5618 92.63C19.9295 92.6799 21.2622 93.3528 22.1145 94.4235Z" fill="#FFB61D"/>
<path fill-rule="evenodd" clip-rule="evenodd" d="M153.586 101.872C153.579 99.4239 153.573 96.9762 153.566 94.5284C153.564 93.8255 153.562 93.1226 153.56 92.4197C153.559 91.9349 153.64 91.3284 154.101 91.1776C154.449 91.0636 154.833 91.314 154.996 91.6425C155.159 91.9709 155.157 92.3536 155.151 92.7202C155.101 96.136 155.05 99.5518 154.999 102.968C154.992 103.459 154.909 104.063 154.449 104.236C153.682 103.801 153.588 102.753 153.586 101.872H153.586Z" fill="#00160A"/>
<path fill-rule="evenodd" clip-rule="evenodd" d="M148.698 99.6062C148.344 99.7616 148.161 99.1778 148.216 98.7948C148.412 97.4241 148.608 96.0506 148.942 94.7068C149.15 93.8701 149.449 92.9897 150.14 92.4745C150.831 91.9592 152.017 92.0494 152.355 92.8423C152.519 93.2264 152.451 93.6652 152.376 94.0759C151.911 96.6187 151.284 99.132 150.501 101.596C150.468 101.7 150.431 101.809 150.352 101.885C150.16 102.07 149.812 101.946 149.679 101.714C149.545 101.483 149.562 101.198 149.584 100.932C149.902 100.909 150.05 100.535 150.127 100.225C150.439 98.9601 150.751 97.6952 151.063 96.4302C151.306 95.4459 151.527 94.3251 150.962 93.4833C150.382 93.8407 150.164 94.5637 149.991 95.2231C149.643 96.5497 149.296 97.8763 148.948 99.2029C148.907 99.3615 148.849 99.5403 148.698 99.6062L148.698 99.6062Z" fill="#00160A"/>
</svg>
