<svg width="68" height="69" viewBox="0 0 68 69" fill="none" xmlns="http://www.w3.org/2000/svg">
<g filter="url(#filter0_d)">
<rect x="10" y="6" width="44" height="45" rx="22" fill="white"/>
</g>
<path d="M43.3385 29.1206C43.339 28.3216 43.2721 27.5242 43.1385 26.7372H32.3945V31.2549H38.5485C38.4223 31.9765 38.1553 32.6644 37.7638 33.277C37.3723 33.8896 36.8643 34.4142 36.2705 34.8191V37.7534H39.9425C41.0642 36.6395 41.946 35.2954 42.531 33.8083C43.116 32.3212 43.3912 30.7241 43.3385 29.1206Z" fill="black"/>
<path d="M32.3944 40.5826C35.1705 40.6629 37.8718 39.65 39.9474 37.7503L36.2754 34.8191C35.3912 35.4017 34.3898 35.7692 33.3471 35.8938C32.3043 36.0185 31.2477 35.8969 30.2575 35.5384C29.2672 35.1798 28.3692 34.5937 27.6318 33.8246C26.8944 33.0555 26.3368 32.1235 26.0014 31.0994H22.2124V34.1211C23.1617 36.0634 24.6164 37.6961 26.4142 38.8371C28.2121 39.978 30.2824 40.5823 32.3944 40.5826Z" fill="black"/>
<path d="M25.9974 31.1014C25.5203 29.6448 25.5203 28.0672 25.9974 26.6105V23.5857H22.2124C21.4152 25.2202 21 27.0239 21 28.8529C21 30.6819 21.4152 32.4856 22.2124 34.1201L25.9974 31.1014Z" fill="black"/>
<path d="M32.3944 21.7624C34.0192 21.7357 35.5891 22.3676 36.7654 23.5219L40.0184 20.1728C37.9555 18.1796 35.2233 17.0856 32.3944 17.1202C30.2818 17.1199 28.2108 17.7244 26.4127 18.8662C24.6147 20.008 23.1604 21.642 22.2124 23.5858L25.9974 26.6106C26.4383 25.2155 27.2928 23.9978 28.4408 23.1287C29.5888 22.2596 30.9725 21.7829 32.3974 21.7655L32.3944 21.7624Z" fill="black"/>
<defs>
<filter id="filter0_d" x="0" y="0" width="68" height="69" filterUnits="userSpaceOnUse" color-interpolation-filters="sRGB">
<feFlood flood-opacity="0" result="BackgroundImageFix"/>
<feColorMatrix in="SourceAlpha" type="matrix" values="0 0 0 0 0 0 0 0 0 0 0 0 0 0 0 0 0 0 127 0"/>
<feOffset dx="2" dy="6"/>
<feGaussianBlur stdDeviation="6"/>
<feColorMatrix type="matrix" values="0 0 0 0 0 0 0 0 0 0 0 0 0 0 0 0 0 0 0.15 0"/>
<feBlend mode="normal" in2="BackgroundImageFix" result="effect1_dropShadow"/>
<feBlend mode="normal" in="SourceGraphic" in2="effect1_dropShadow" result="shape"/>
</filter>
</defs>
</svg>
