<svg width="24" height="21" viewBox="0 0 24 21" fill="none" xmlns="http://www.w3.org/2000/svg">
<path d="M12.2607 3.2466C12.1909 3.17984 12.098 3.14258 12.0015 3.14258C11.9049 3.14258 11.812 3.17984 11.7422 3.2466L3.11255 11.4905C3.0759 11.5256 3.04674 11.5677 3.02684 11.6143C3.00694 11.661 2.99671 11.7112 2.99677 11.7619L2.99536 19.4991C2.99536 19.8969 3.1534 20.2784 3.4347 20.5597C3.71601 20.8411 4.09754 20.9991 4.49536 20.9991H9.00005C9.19896 20.9991 9.38972 20.9201 9.53037 20.7794C9.67103 20.6388 9.75005 20.448 9.75005 20.2491V13.8741C9.75005 13.7746 9.78955 13.6793 9.85988 13.6089C9.93021 13.5386 10.0256 13.4991 10.125 13.4991H13.875C13.9745 13.4991 14.0699 13.5386 14.1402 13.6089C14.2105 13.6793 14.25 13.7746 14.25 13.8741V20.2491C14.25 20.448 14.3291 20.6388 14.4697 20.7794C14.6104 20.9201 14.8011 20.9991 15 20.9991H19.5029C19.9007 20.9991 20.2822 20.8411 20.5635 20.5597C20.8448 20.2784 21.0029 19.8969 21.0029 19.4991V11.7619C21.0029 11.7112 20.9927 11.661 20.9728 11.6143C20.9529 11.5677 20.9237 11.5256 20.8871 11.4905L12.2607 3.2466Z" fill="#758296"/>
<path d="M23.0119 9.94453L19.5056 6.59015V1.5C19.5056 1.30109 19.4266 1.11032 19.286 0.96967C19.1453 0.829017 18.9546 0.75 18.7556 0.75H16.5057C16.3067 0.75 16.116 0.829017 15.9753 0.96967C15.8347 1.11032 15.7557 1.30109 15.7557 1.5V3L13.0407 0.404062C12.7866 0.147187 12.4088 0 12.0005 0C11.5936 0 11.2167 0.147188 10.9627 0.404531L0.992381 9.94359C0.700819 10.2248 0.664256 10.6875 0.929568 10.9922C0.996192 11.0691 1.07777 11.1316 1.16933 11.176C1.2609 11.2204 1.36053 11.2457 1.46218 11.2503C1.56383 11.255 1.66536 11.2389 1.76059 11.2031C1.85582 11.1672 1.94277 11.1124 2.01613 11.0419L11.7427 1.7475C11.8125 1.68074 11.9053 1.64348 12.0019 1.64348C12.0985 1.64348 12.1913 1.68074 12.2611 1.7475L21.9886 11.0419C22.1319 11.1793 22.3238 11.2543 22.5223 11.2504C22.7208 11.2465 22.9097 11.1641 23.0475 11.0212C23.3353 10.7231 23.3114 10.2309 23.0119 9.94453Z" fill="#758296"/>
</svg>
