<svg width="13" height="16" viewBox="0 0 13 16" fill="none" xmlns="http://www.w3.org/2000/svg">
<path d="M10.8828 10.8828L6.375 15.3906L1.86717 10.8828C0.975618 9.99121 0.368465 8.8553 0.122491 7.61867C-0.123483 6.38204 0.00276735 5.10025 0.485278 3.93537C0.967789 2.7705 1.78489 1.77487 2.83325 1.07438C3.88161 0.373885 5.11415 0 6.375 0C7.63586 0 8.86839 0.373885 9.91675 1.07438C10.9651 1.77487 11.7822 2.7705 12.2647 3.93537C12.7472 5.10025 12.8735 6.38204 12.6275 7.61867C12.3815 8.8553 11.7744 9.99121 10.8828 10.8828ZM6.375 7.79161C6.75073 7.79161 7.11106 7.64236 7.37674 7.37668C7.64241 7.111 7.79167 6.75067 7.79167 6.37494C7.79167 5.99922 7.64241 5.63889 7.37674 5.37321C7.11106 5.10753 6.75073 4.95828 6.375 4.95828C5.99928 4.95828 5.63894 5.10753 5.37327 5.37321C5.10759 5.63889 4.95834 5.99922 4.95834 6.37494C4.95834 6.75067 5.10759 7.111 5.37327 7.37668C5.63894 7.64236 5.99928 7.79161 6.375 7.79161Z" fill="#5B60FD"/>
</svg>
