<svg width="20" height="22" viewBox="0 0 20 22" fill="none" xmlns="http://www.w3.org/2000/svg">
<path d="M18.4172 4.88897C18.4455 4.87246 18.469 4.84882 18.4853 4.8204C18.5016 4.79198 18.5102 4.75979 18.5102 4.72702C18.5102 4.69425 18.5016 4.66205 18.4853 4.63364C18.469 4.60522 18.4455 4.58158 18.4172 4.56507L11.2575 0.405379C10.7994 0.139842 10.2793 0 9.74975 0C9.22024 0 8.70013 0.139842 8.24202 0.405379L1.08374 4.56507C1.05543 4.58158 1.03195 4.60522 1.01563 4.63364C0.999311 4.66205 0.990723 4.69425 0.990723 4.72702C0.990723 4.75979 0.999311 4.79198 1.01563 4.8204C1.03195 4.84882 1.05543 4.87246 1.08374 4.88897L9.65623 9.93178C9.68507 9.94877 9.71792 9.95772 9.75139 9.95772C9.78485 9.95772 9.81771 9.94877 9.84655 9.93178L18.4172 4.88897Z" fill="white"/>
<path d="M0.281254 6.16386C0.252661 6.14735 0.220216 6.13868 0.187199 6.13873C0.154183 6.13879 0.121765 6.14756 0.0932257 6.16416C0.064686 6.18076 0.0410358 6.2046 0.0246667 6.23327C0.00829749 6.26195 -0.000210224 6.29443 3.94589e-06 6.32745V14.4785C0.00071162 14.8713 0.104239 15.2571 0.300291 15.5975C0.496343 15.9379 0.778087 16.221 1.1175 16.4187L8.71875 20.9763C8.74724 20.9928 8.77956 21.0015 8.81245 21.0015C8.84535 21.0015 8.87767 20.9928 8.90617 20.9764C8.93467 20.96 8.95834 20.9363 8.97481 20.9078C8.99128 20.8794 8.99997 20.8471 9 20.8142V11.3571C8.99997 11.3243 8.99129 11.292 8.97483 11.2635C8.95838 11.235 8.93473 11.2114 8.90625 11.1949L0.281254 6.16386Z" fill="white"/>
<path d="M10.4998 11.39V20.8119C10.4998 20.8448 10.5085 20.8771 10.5249 20.9056C10.5414 20.9341 10.5651 20.9577 10.5936 20.9741C10.6221 20.9906 10.6544 20.9992 10.6873 20.9992C10.7202 20.9992 10.7525 20.9905 10.781 20.9741L18.3818 16.4164C18.7209 16.219 19.0026 15.9363 19.1987 15.5963C19.3948 15.2564 19.4986 14.8711 19.4998 14.4786V6.32753C19.4996 6.29467 19.4909 6.26242 19.4744 6.23401C19.4579 6.2056 19.4342 6.18202 19.4057 6.16564C19.3772 6.14926 19.3449 6.14066 19.3121 6.14069C19.2792 6.14072 19.247 6.14938 19.2185 6.16581L10.5935 11.2283C10.5651 11.2447 10.5415 11.2683 10.525 11.2966C10.5086 11.325 10.4999 11.3572 10.4998 11.39V11.39Z" fill="white"/>
</svg>
