<svg width="18" height="21" viewBox="0 0 18 21" fill="none" xmlns="http://www.w3.org/2000/svg">
<path d="M8.99945 21C9.5965 20.9994 10.169 20.7729 10.5914 20.3699C11.0139 19.9669 11.252 19.4204 11.2534 18.85H6.74986C6.74972 19.1323 6.8078 19.4119 6.92079 19.6727C7.03378 19.9336 7.19946 20.1706 7.40837 20.3702C7.61727 20.5699 7.86532 20.7283 8.13832 20.8363C8.41132 20.9444 8.70394 21 8.99945 21V21ZM15.7493 14.5522V9.17626C15.7493 5.87722 13.904 3.11567 10.6864 2.38406V1.65349C10.6921 1.43835 10.6527 1.2243 10.5705 1.02394C10.4882 0.823582 10.3649 0.640974 10.2076 0.486878C10.0503 0.332781 9.86237 0.210315 9.65479 0.126697C9.4472 0.0430786 9.22419 0 8.99891 0C8.77362 0 8.55061 0.0430786 8.34303 0.126697C8.13544 0.210315 7.94748 0.332781 7.79022 0.486878C7.63295 0.640974 7.50957 0.823582 7.42735 1.02394C7.34512 1.2243 7.30571 1.43835 7.31144 1.65349V2.38406C4.08291 3.11463 2.2485 5.86574 2.2485 9.17626V14.5491L0 16.7011V17.7761H18V16.7011L15.7493 14.5522Z" fill="#758296"/>
</svg>
