<svg width="288" height="279" viewBox="0 0 288 279" fill="none" xmlns="http://www.w3.org/2000/svg">
<path fill-rule="evenodd" clip-rule="evenodd" d="M144.127 29.9421C228.418 44.0621 287.2 92.0379 287.2 168.637C287.2 260.449 214.175 165.054 163.821 218.583C113.467 272.113 6.18675 273.63 1.055 168.637C-3.74896 70.3502 59.8364 15.822 144.127 29.9421Z" fill="#5B60FD"/>
<path fill-rule="evenodd" clip-rule="evenodd" d="M101.04 178.368L123.338 149.606L123.85 150.01C127.143 152.591 129.754 154.293 131.684 155.114L132.255 155.355C141.525 159.244 147.9 160.565 146.876 161.478L145.607 162.615C137.413 169.991 126.195 180.717 111.951 194.793C110 196.889 107.371 198.234 104.532 198.593L101.594 198.943C72.7615 202.346 54.2638 202.64 47.4854 201.143C46.0698 200.831 41.7125 201.647 38.4228 204.942C33.4881 209.885 26.4314 221.791 25.2463 221.791C23.5235 221.791 25.1469 213.905 30.1166 198.133L30.6418 196.3C32.9571 188.295 34.6227 183.562 35.6386 182.101C36.7298 180.532 40.4157 183.303 46.6962 190.412L46.5259 191.337C47.341 190.394 48.3073 189.39 49.4249 188.327L52.3922 187.973C62.8755 186.704 70.8441 185.543 76.2977 184.491L76.872 184.379C82.7808 183.211 90.8369 181.207 101.04 178.368Z" fill="white"/>
<path fill-rule="evenodd" clip-rule="evenodd" d="M239.891 148.571L248.181 154.8C249.772 155.994 250.939 157.668 251.507 159.572L253.078 164.818C253.817 166.404 253.171 168.289 251.612 169.092L248.684 171.259C246.801 172.228 244.506 171.178 244.011 169.121L242.363 163.276C242.363 163.276 235.377 161.159 234.447 152.867L239.891 148.571Z" fill="white"/>
<path fill-rule="evenodd" clip-rule="evenodd" d="M199.931 46.249C205.596 46.4788 208.443 54.2204 210.295 58.0472C210.926 59.3508 206.489 97.8785 205.039 107.737C202.457 125.295 194.653 130.862 189.754 132.057C189.754 132.057 190.048 152.018 187.996 156.986C183.453 167.987 125.942 160.603 120.322 142.217C116.479 129.648 130.758 128.183 136.117 120.604C145.939 106.715 146.448 93.7893 157.028 84.5422C161.038 80.1604 165.693 75.7623 169.708 70.4739L171.341 68.3307C181.553 54.9892 189.329 46.1374 199.399 46.2355L199.931 46.249Z" fill="white"/>
<path fill-rule="evenodd" clip-rule="evenodd" d="M167.749 148.117C166.607 148.678 165.001 147.628 163.78 146.847C160.588 144.805 156.129 144.164 152.836 145.258L152.651 145.321C152.214 145.477 151.845 145.561 151.524 145.59C150.747 145.223 150.012 144.905 149.32 144.635L149.134 144.564L148.807 144.318C148.352 143.986 147.935 143.813 146.019 143.601L145.914 143.593C145.345 143.555 143.509 143.55 142.724 143.871L142.641 143.908C141.499 144.47 139.893 143.419 138.672 142.638C135.48 140.597 129.381 140.477 126.088 141.571L125.903 141.634L125.668 141.72C122.57 142.879 122.544 143.992 125.625 142.976L125.781 142.923C128.663 141.894 134.14 141.715 137.231 143.195C138.974 144.124 140.243 144.678 141.037 144.855C143.086 145.312 143.164 144.54 145.896 144.89C148.629 145.239 151.463 147.116 153.171 146.407C156.342 145.533 160.433 146.159 163.461 148.012L164.103 148.419C165.25 149.141 166.619 149.901 167.627 149.405C170.805 147.842 177.5 151.242 178.958 150.974L178.462 150.711C173.301 148.007 169.73 147.142 167.749 148.117Z" fill="#FFB61D"/>
<path fill-rule="evenodd" clip-rule="evenodd" d="M151.471 100.686C152.161 101.54 153.505 100.971 154.523 100.556C157.234 99.4504 160.578 100.104 162.669 102.149C164.774 104.207 168.466 101.182 171.184 102.319C172.788 102.989 174.131 105.071 175.702 104.471L175.807 104.427C177.128 103.824 180.179 104.925 184.96 107.73C183.125 107.908 177.824 104.775 175.777 105.636L175.632 105.699C174.016 106.437 172.648 104.276 171.01 103.591C168.291 102.454 164.599 105.479 162.494 103.421C160.445 101.417 157.193 100.749 154.512 101.764L153.977 101.979C153.023 102.357 151.905 102.711 151.296 101.958C149.375 99.5824 143.972 101.01 142.999 100.352C147.411 99.0463 150.235 99.1578 151.471 100.686Z" fill="#FFB61D"/>
<path fill-rule="evenodd" clip-rule="evenodd" d="M149.576 110.206C150.306 111.06 151.728 110.491 152.805 110.076C155.673 108.97 159.21 109.624 161.423 111.669C163.649 113.727 167.555 110.702 170.431 111.839C172.127 112.509 173.549 114.591 175.21 113.991L175.321 113.947C176.719 113.344 179.947 114.445 185.005 117.25C183.064 117.428 177.455 114.295 175.29 115.156L175.136 115.219C173.427 115.957 171.98 113.796 170.246 113.111C167.37 111.974 163.464 114.999 161.238 112.941C159.069 110.937 155.629 110.269 152.793 111.284L152.227 111.499C151.218 111.877 150.036 112.231 149.391 111.478C147.358 109.102 141.642 110.53 140.613 109.872C145.281 108.566 148.268 108.678 149.576 110.206Z" fill="#FFB61D"/>
<path fill-rule="evenodd" clip-rule="evenodd" d="M145.197 120.678C146.037 121.532 147.673 120.963 148.912 120.548C152.212 119.442 156.281 120.096 158.827 122.141C161.388 124.199 165.882 121.174 169.191 122.311C171.143 122.981 172.779 125.063 174.69 124.463L174.818 124.419C176.426 123.816 180.14 124.917 185.959 127.722C183.726 127.9 177.273 124.766 174.782 125.628L174.605 125.691C172.638 126.429 170.974 124.268 168.979 123.583C165.669 122.446 161.176 125.471 158.614 123.413C156.119 121.409 152.161 120.741 148.898 121.756L148.247 121.97C147.086 122.349 145.725 122.703 144.984 121.95C142.645 119.574 136.068 121.002 134.885 120.344C140.255 119.038 143.692 119.15 145.197 120.678Z" fill="#FFB61D"/>
<path fill-rule="evenodd" clip-rule="evenodd" d="M139.289 128.77C140.232 129.624 142.066 129.055 143.456 128.64C147.157 127.534 151.721 128.188 154.575 130.233C157.448 132.291 162.488 129.266 166.199 130.403C168.388 131.073 170.222 133.155 172.366 132.555L172.509 132.511C174.313 131.908 178.478 133.009 185.005 135.814C182.499 135.992 175.263 132.859 172.469 133.72L172.271 133.783C170.065 134.521 168.198 132.36 165.961 131.675C162.249 130.538 157.21 133.563 154.337 131.505C151.539 129.501 147.1 128.833 143.44 129.848L142.71 130.063C141.408 130.441 139.882 130.795 139.051 130.042C136.428 127.666 129.052 129.094 127.725 128.436C133.747 127.13 137.602 127.242 139.289 128.77Z" fill="#FFB61D"/>
<path fill-rule="evenodd" clip-rule="evenodd" d="M134.994 135.91C135.936 136.764 137.77 136.195 139.16 135.78C142.792 134.695 147.256 135.304 150.119 137.261L150.28 137.373C150.656 137.643 150.988 137.825 151.289 137.941C152.137 137.801 152.931 137.698 153.671 137.629L153.87 137.612C154.654 137.313 154.807 137.148 157.13 137.543C157.537 137.612 159.647 138.181 160.292 138.766C161.235 139.62 163.069 139.051 164.458 138.636C168.091 137.551 173.987 139.112 176.85 141.069L177.01 141.181C179.883 143.239 179.654 144.416 176.907 142.547L176.772 142.453C174.285 140.672 169.07 138.994 165.69 139.567C165.69 139.567 162.791 140.189 161.573 140.117C159.476 139.993 159.614 139.23 156.892 138.815C154.169 138.4 150.925 139.425 149.479 138.274C146.673 136.562 142.568 136.039 139.144 136.988L138.414 137.203C137.112 137.581 135.586 137.935 134.755 137.182C132.132 134.806 124.756 136.234 123.429 135.576C129.451 134.27 133.306 134.382 134.994 135.91Z" fill="#FFB61D"/>
<path fill-rule="evenodd" clip-rule="evenodd" d="M160.736 89.6632C161.393 90.5425 162.758 90.026 163.791 89.6501C166.543 88.649 169.858 89.4302 171.87 91.5536C173.893 93.6904 177.699 90.809 180.372 92.0491C181.983 92.7966 183.267 95.0081 184.91 94.3331C186.925 93.505 189.399 93.9467 191.018 95.396L191.012 95.8526L191.005 96.8599C189.396 95.253 186.791 94.7326 184.686 95.5976C183.043 96.2726 181.76 94.0611 180.148 93.3136C177.475 92.0735 173.67 94.9548 171.646 92.8181C169.675 90.7372 166.451 89.9453 163.733 90.8567L163.191 91.0506C162.223 91.3927 161.092 91.7035 160.513 90.9276C158.684 88.4801 155.012 87.6221 152.283 89.0047L152.636 87.6768L152.797 87.603C155.491 86.4198 158.972 87.3015 160.736 89.6632Z" fill="#FFB61D"/>
<path fill-rule="evenodd" clip-rule="evenodd" d="M168.727 79.3192C169.216 80.2358 170.589 80.0957 171.527 79.6446L172.187 79.3153L172.411 79.2065C173.085 78.8873 173.78 78.6471 174.464 78.8762C175.525 79.2317 175.935 80.5238 176.838 81.1829C178.069 82.0808 179.768 81.5831 181.288 81.4592C182.776 81.3379 184.712 82.1642 184.553 83.6048L184.54 83.6976C184.394 84.5578 185.273 85.2921 186.139 85.4235C187.004 85.5548 187.876 85.2939 188.75 85.236C190.492 85.1206 192.271 85.8704 193.403 87.1949L193.205 88.4898C193.185 88.7183 193.162 88.9473 193.137 89.1768C193.074 88.1134 192.301 87.1169 191.32 86.6357C190.179 86.0755 188.831 86.0978 187.583 86.3453L187.053 86.4532C186.52 86.557 185.979 86.6245 185.478 86.4383C183.784 85.8082 183.925 82.9284 182.224 82.317C180.87 81.8305 179.442 83.2051 178.029 82.933C176.396 82.6186 175.737 80.3351 174.103 80.0285C172.679 79.7614 171.38 81.168 169.938 81.0269C168.441 80.8805 167.63 79.222 166.359 78.4212C164.644 77.3418 162.41 77.969 160.493 78.6262C162.491 76.046 167.191 76.4417 168.727 79.3192Z" fill="#FFB61D"/>
<path fill-rule="evenodd" clip-rule="evenodd" d="M198.104 52.0447C206.157 52.0723 212.513 58.8854 211.97 66.9061C211.97 66.9061 202.579 107.646 207.339 122.127C209.18 127.729 235.766 145.162 234.643 146.953L230.891 155.917C229.558 158.039 188.752 130.819 188.752 130.819C184.837 127.72 184.109 66.105 184.109 66.105C184.032 58.3451 190.329 52.0175 198.104 52.0447Z" fill="white"/>
<path d="M240.373 148.57L235.577 158.417L235.481 158.681C235.082 159.701 233.557 160.325 233.361 160.376L233.332 160.375L230.5 158.704C230.176 158.433 229.998 156.908 230.341 155.49L230.422 155.192C230.422 155.192 232.667 147.327 234.527 145.341C235.611 144.183 241.875 145.341 240.373 148.57Z" fill="white"/>
<path fill-rule="evenodd" clip-rule="evenodd" d="M172.057 239.381H160.609C160.609 239.381 174.045 204.594 174.045 195.466C174.045 192.634 163.483 196.9 165.016 192.634C167.122 186.769 174.413 176.279 172.617 171.014C170.739 165.507 163.735 163.512 157.635 161.28C156.466 160.853 177.788 162.329 183.636 157.69C191.351 151.571 185.087 138.056 187.159 142.821C189.658 148.571 205.901 162.993 202.681 178.612C199.545 193.827 172.057 239.381 172.057 239.381Z" fill="white"/>
<path fill-rule="evenodd" clip-rule="evenodd" d="M168.088 246.088L166.983 245.722C166.9 245.695 166.89 245.581 166.967 245.539L168.025 244.967V243.642C168.025 243.556 168.126 243.51 168.191 243.566L169.066 244.334L170.51 243.576C170.598 243.53 170.692 243.625 170.644 243.712L169.823 245.206L171.404 246.853C171.475 246.927 171.403 247.047 171.304 247.018L169.128 246.392L168.275 247.89C168.224 247.979 168.088 247.943 168.088 247.841V247.153V246.088Z" fill="#FFB61D"/>
<path fill-rule="evenodd" clip-rule="evenodd" d="M139.065 169.316C138.567 169.831 138.076 170.352 137.584 170.874L137.584 170.874C136.653 171.86 135.723 172.845 134.753 173.791C132.938 175.561 131.105 177.321 129.179 178.967C126.789 181.009 124.341 182.989 121.837 184.889C119.003 187.039 116.101 189.102 113.187 191.142C113.032 191.25 112.878 191.36 112.723 191.469C111.237 192.52 109.751 193.571 107.841 193.896C107.296 193.988 106.785 194.261 106.272 194.536L106.272 194.536C105.863 194.755 105.452 194.974 105.02 195.105C102.041 196.006 99.0464 196.863 96.0331 197.641C94.1831 198.119 92.2942 198.46 90.4098 198.787C89.2369 198.991 82.519 200.056 78.0499 200.702C73.5808 201.349 58.8003 201.349 55.1102 201.273C53.0395 201.23 50.9692 201.158 48.8995 201.079L48.7926 201.075C48.3708 201.06 47.9227 201.044 47.5562 200.879C45.5235 199.96 43.9506 200.96 42.3567 201.974L42.242 202.047C40.1494 203.376 38.8687 205.376 37.6032 207.424C36.931 208.512 36.2187 209.576 35.5065 210.639L35.5064 210.639L35.5061 210.64L35.5059 210.64C34.7393 211.784 33.9728 212.929 33.2562 214.104C32.3076 215.659 31.4615 217.278 30.6164 218.896L30.6162 218.896C30.4642 219.187 30.3123 219.478 30.1598 219.768C29.0425 221.895 27.3662 223.133 24.9613 223.59C23.766 223.818 22.742 223.464 21.7205 223.111C21.342 222.98 20.9638 222.849 20.5774 222.748C19.821 222.551 19.2113 220.513 19.481 219.706C20.2686 217.351 21.0577 214.997 21.8469 212.643C23.4956 207.725 25.1443 202.806 26.7786 197.883C27.92 194.444 29.0345 190.997 30.149 187.55L30.1503 187.546C30.4646 186.573 30.779 185.601 31.0939 184.629C31.244 184.166 31.3866 183.7 31.5292 183.234L31.5294 183.233C31.7659 182.46 32.0023 181.688 32.273 180.927C32.3616 180.678 32.7286 180.371 32.9781 180.361C34.7813 180.289 36.5125 180.729 38.1573 181.402C41.267 182.675 43.6599 184.821 45.4164 187.679C45.8821 188.436 46.695 188.709 47.7203 188.528C48.2149 188.441 48.7141 188.376 49.213 188.31C49.9751 188.209 50.7367 188.109 51.4808 187.933C53.1357 187.541 54.8109 187.528 56.4856 187.515H56.4861C57.5642 187.506 58.6421 187.498 59.7143 187.388C60.4514 187.313 61.1924 187.27 61.9332 187.227C62.9222 187.17 63.9109 187.112 64.8895 186.978C66.6703 186.734 68.4424 186.426 70.2146 186.118L70.2194 186.117C71.0575 185.971 71.8955 185.826 72.7346 185.687C73.4153 185.574 74.0972 185.468 74.7791 185.362L74.7796 185.361L74.7801 185.361L74.7806 185.361L74.7811 185.361L74.7816 185.361L74.782 185.361L74.7825 185.361C76.0959 185.156 77.4092 184.951 78.714 184.701C80.3835 184.382 82.0401 183.992 83.6958 183.602L83.6961 183.602L83.6972 183.602L84.2968 183.461C86.0479 183.05 87.7959 182.626 89.5439 182.202C90.2785 182.023 91.0132 181.845 91.7482 181.668C91.8267 181.649 91.9049 181.629 91.9832 181.609L92.0932 181.581C92.0722 181.569 92.0511 181.558 92.03 181.547L91.9733 181.518L91.9728 181.518C91.8861 181.473 91.7995 181.429 91.7167 181.378C91.4622 181.221 91.2002 181.073 90.9382 180.925L90.9381 180.925C90.3399 180.587 89.7416 180.249 89.2323 179.809C88.0874 178.818 88.4788 177.173 89.9341 176.734C91.0434 176.4 92.1867 176.065 93.3323 175.988C94.8753 175.885 96.2811 175.374 97.6885 174.862L97.6887 174.862C98.2541 174.656 98.8198 174.451 99.3947 174.272C100.751 173.848 101.565 173.052 102.247 171.834C102.575 171.247 103.055 170.75 103.538 170.25L103.539 170.249L103.539 170.249C103.878 169.898 104.219 169.545 104.509 169.159C106.009 167.159 107.467 165.127 108.888 163.07C109.19 162.633 109.432 162.155 109.675 161.677C109.86 161.311 110.045 160.945 110.258 160.597C110.756 159.78 111.263 158.953 111.879 158.226L111.96 158.13C113.371 156.461 114.787 154.786 116.323 153.234C117.16 152.387 118.084 151.627 119.008 150.866C119.445 150.506 119.881 150.147 120.309 149.778C120.525 149.592 120.732 149.391 120.913 149.172C121.225 148.796 121.353 148.483 120.883 148.039C120.761 147.923 120.637 147.807 120.514 147.692C119.287 146.541 118.048 145.38 117.377 143.787L117.304 143.614L117.23 143.44L117.165 143.286C116.626 142.019 116.083 140.739 115.776 139.412C115.364 137.626 115.53 135.807 116.064 134.006C116.812 131.487 118.376 129.578 120.495 128.208C121.803 127.363 123.178 126.624 124.554 125.885L124.555 125.885C125.574 125.337 126.594 124.789 127.587 124.197C128.354 123.74 129.011 123.075 129.651 122.426L129.652 122.424L129.735 122.341L129.834 122.24C132.717 119.332 134.725 115.813 136.727 112.306L136.727 112.306C136.939 111.934 137.152 111.561 137.366 111.19C139.3 107.824 141.036 104.34 142.766 100.863C143.264 99.861 143.691 98.8244 144.118 97.7875L144.119 97.7872L144.119 97.7869C144.496 96.8704 144.874 95.9537 145.301 95.0609C145.638 94.3553 146.054 93.6878 146.47 93.0199L146.471 93.0198C146.776 92.5289 147.083 92.0378 147.358 91.531C147.653 90.9867 147.923 90.4273 148.193 89.8682L148.193 89.8679C148.602 89.0212 149.01 88.1751 149.507 87.3835C149.861 86.8178 150.376 86.3514 150.89 85.8856C151.105 85.6906 151.32 85.4957 151.524 85.2937C151.777 85.0421 152.034 84.795 152.291 84.5479L152.292 84.5473C152.561 84.2893 152.829 84.0313 153.093 83.7683C153.558 83.3047 154.017 82.8347 154.463 82.3526C155.319 81.4256 156.18 80.5027 157.041 79.5799C159.164 77.3044 161.288 75.0289 163.34 72.6919C165.746 69.9537 168.034 67.1087 170.282 64.2386C171.175 63.0976 171.981 61.8878 172.786 60.678L172.786 60.6778L172.786 60.6776L172.786 60.6773C173.145 60.1385 173.504 59.5997 173.87 59.067C173.891 59.0369 173.908 59.0039 173.925 58.971C173.949 58.924 173.974 58.8773 174.008 58.8394C174.59 58.2002 175.166 57.5548 175.742 56.9095C177.094 55.3944 178.446 53.8793 179.877 52.4421C182 50.3095 184.431 48.5412 187.071 47.0685C187.473 46.8439 187.861 46.5889 188.249 46.3343C188.86 45.9331 189.469 45.5328 190.131 45.2535C190.288 45.1875 190.445 45.12 190.604 45.0521C191.869 44.51 193.195 43.9417 194.501 43.915C197.257 43.8587 200.122 43.8898 202.436 45.8324C202.874 46.2005 202.991 46.1137 203.032 45.6214C203.072 45.1513 203.152 44.6672 203.232 44.1829C203.418 43.0548 203.605 41.9257 203.28 40.9709C203.083 40.3937 203.014 39.8112 202.946 39.2337V39.2336C202.869 38.5803 202.793 37.9335 202.534 37.3081C201.666 35.2177 200.892 33.0881 200.118 30.9596L200.118 30.9593L200.118 30.9591C200.001 30.6386 199.885 30.3182 199.768 29.9979C199.525 29.3335 199.329 28.6357 199.239 27.9368C199.174 27.4373 199.153 26.9323 199.131 26.4272C199.109 25.9089 199.087 25.3906 199.019 24.8784C198.776 23.0565 199.409 21.4557 200.045 19.8484C200.161 19.555 200.277 19.2613 200.388 18.9661C201.74 15.3699 204.271 12.6501 207.005 10.0961C209.358 7.89711 213.257 7.20525 216.409 6.66298C217.574 6.46268 225.748 6.2711 230.065 6.16994C231.473 6.13692 232.471 6.11354 232.681 6.10262C233.532 6.05823 234.109 5.6633 234.685 5.23928C235.876 4.36408 236.181 3.00672 236.482 1.67104C236.511 1.53936 236.541 1.4079 236.571 1.27713C236.579 1.24587 236.585 1.21528 236.592 1.18544L236.592 1.18394C236.67 0.833697 236.724 0.588191 237.253 0.605878C239.015 0.664908 239.922 1.81283 240.785 3.12454C241.757 4.60163 242.544 6.14181 242.815 7.90243C243.144 10.0462 242.967 12.0375 241.438 13.8029C240.195 15.2387 238.748 16.336 237.113 17.2569C236.896 17.3791 236.759 18.0265 236.879 18.303C238.111 21.1367 238.203 24.1241 238.082 27.1232C238.053 27.8512 237.935 28.5753 237.816 29.2996C237.704 29.9859 237.592 30.6723 237.556 31.3624C237.451 33.3414 237.857 35.2448 238.653 37.0853C239.193 38.3338 238.814 39.5163 237.908 40.4976C237.753 40.6657 237.56 40.8064 237.368 40.9459C237.098 41.1422 236.832 41.3361 236.68 41.6005C236.336 42.1987 236.096 42.9185 236.04 43.6046C235.998 44.1296 236.054 44.6615 236.111 45.1947L236.111 45.1952C236.146 45.5263 236.181 45.8578 236.193 46.1885C236.237 47.4621 235.751 48.5513 235.096 49.6386C233.911 51.6059 232.346 53.0534 230.075 53.5272C228.129 53.9333 226.109 53.9574 224.23 53.3188C222.097 52.5938 220.017 51.6659 218.01 50.6394C217.44 50.348 216.989 49.8243 216.538 49.3009L216.538 49.3008C216.336 49.0667 216.135 48.8327 215.922 48.6195C215.608 48.3039 215.449 48.2122 215.032 48.6533C213.54 50.2291 212.455 52.0192 211.579 53.9956C211.095 55.0863 211.409 55.9828 211.743 56.9379L211.782 57.0502L211.849 57.2431L211.877 57.3228C212.34 58.6449 212.801 59.9606 212.765 61.4073C212.748 62.1243 212.762 62.8434 212.776 63.5622V63.5627C212.798 64.6982 212.82 65.8328 212.716 66.9568C212.606 68.1592 212.335 69.3473 212.065 70.5349L212.064 70.5351L212.064 70.5354C211.956 71.0133 211.847 71.4911 211.748 71.9697C211.644 72.478 211.541 72.9869 211.439 73.4957C211.13 75.0347 210.82 76.5738 210.45 78.0981C210.279 78.8037 210.044 79.4934 209.808 80.1834L209.808 80.1837C209.616 80.7484 209.423 81.3132 209.265 81.8871C209.083 82.5518 208.898 83.2161 208.713 83.8804L208.712 83.8818L208.712 83.8823C207.992 86.4666 207.273 89.0518 206.69 91.6671C206.191 93.9066 205.903 96.2106 205.735 98.5014C205.631 99.9334 205.646 101.374 205.662 102.815V102.815V102.815V102.815V102.815V102.816V102.816V102.816V102.818C205.671 103.614 205.68 104.41 205.668 105.206C205.659 105.807 205.628 106.408 205.597 107.01L205.597 107.01C205.557 107.775 205.517 108.539 205.524 109.304C205.525 109.446 205.526 109.588 205.527 109.731L205.53 110.219C205.544 112.238 205.557 114.26 205.735 116.265C205.912 118.267 206.293 120.26 206.733 122.224C207.094 123.837 208.203 125.083 209.304 126.252C209.877 126.861 210.512 127.41 211.147 127.96C211.592 128.344 212.037 128.729 212.46 129.134C212.751 129.412 213.012 129.721 213.273 130.03C213.598 130.414 213.922 130.798 214.3 131.119C215.536 132.167 216.793 133.191 218.049 134.214C219.003 134.991 219.956 135.767 220.901 136.554C221.747 137.261 222.582 137.982 223.416 138.703L223.417 138.704C224.26 139.433 225.103 140.161 225.959 140.874C227.129 141.849 228.316 142.811 229.556 143.694C230.14 144.11 230.751 144.487 231.362 144.865C231.994 145.255 232.626 145.646 233.228 146.079C233.95 146.598 234.51 146.306 235.067 146.015C235.259 145.915 235.451 145.815 235.648 145.748C237.254 145.207 238.524 145.411 239.126 146.951C239.247 147.26 239.431 147.537 239.616 147.816C239.953 148.324 240.294 148.837 240.265 149.554C240.256 149.778 240.741 150.046 241.157 150.275C241.256 150.329 241.352 150.382 241.435 150.431C242.658 151.151 243.896 151.846 245.135 152.539C245.399 152.687 245.672 152.822 245.946 152.957L245.946 152.957C246.471 153.216 246.996 153.475 247.453 153.824C247.918 154.18 248.34 154.592 248.762 155.004C249.186 155.416 249.609 155.829 250.076 156.186C251.037 156.919 251.581 157.929 252.123 158.932L252.123 158.933L252.123 158.933L252.123 158.934C252.322 159.302 252.52 159.669 252.738 160.021C253.341 160.996 253.689 162.192 253.89 163.335C254.16 164.875 254.27 166.46 254.264 168.025C254.261 168.679 253.863 169.381 253.498 169.971C253.104 170.606 252.514 170.696 251.946 170.083C251.899 170.032 251.834 169.999 251.768 169.966L251.737 169.951C251.728 169.946 251.718 169.941 251.708 169.935L251.696 169.929L251.679 169.919C251.674 169.967 251.669 170.015 251.664 170.063C251.658 170.116 251.652 170.169 251.646 170.222L251.643 170.242L251.638 170.283C251.601 170.546 251.572 170.811 251.543 171.076C251.472 171.729 251.401 172.382 251.217 173.001C251.094 173.417 250.559 173.965 250.189 173.983C249.904 173.996 249.604 173.732 249.308 173.47C249.189 173.365 249.07 173.261 248.953 173.175C248.827 173.082 248.721 172.958 248.616 172.84C248.556 172.773 248.503 172.7 248.45 172.627L248.434 172.605L248.408 172.569L248.389 172.544L248.378 172.53L248.363 172.563L248.339 172.614L248.325 172.644C248.308 172.681 248.29 172.719 248.272 172.756C248.251 172.801 248.229 172.846 248.207 172.89C248.153 172.995 248.107 173.108 248.06 173.22C247.955 173.472 247.85 173.724 247.668 173.896C246.969 174.561 246.027 174.302 245.739 173.368C245.589 172.884 245.464 172.39 245.34 171.897L245.34 171.896C245.167 171.213 244.994 170.53 244.755 169.871C244.656 169.599 244.575 169.322 244.493 169.044L244.493 169.044C244.255 168.233 244.016 167.42 243.345 166.736C242.863 166.244 242.568 165.565 242.274 164.889C242.159 164.626 242.045 164.364 241.92 164.112C241.168 162.602 239.926 161.615 238.49 160.818C238.099 160.602 237.71 160.363 237.371 160.076C236.617 159.437 236.096 159.785 235.638 160.435C234.881 161.508 233.626 161.903 232.459 161.285C230.671 160.338 229.21 159.094 228.724 156.962C228.634 156.568 228.051 156.22 227.623 155.98C226.335 155.255 225.039 154.545 223.744 153.834L223.744 153.834L223.743 153.834L223.743 153.834L223.743 153.834L223.743 153.833L223.743 153.833L223.743 153.833C221.595 152.655 219.447 151.476 217.335 150.237C214.7 148.691 212.133 147.027 209.568 145.365L209.567 145.364L208.793 144.862C204.745 142.241 200.712 139.596 196.679 136.951L195.208 135.987L194.321 135.405C193.437 134.826 192.559 134.238 191.682 133.649L191.68 133.648C191.067 133.237 190.455 132.827 189.84 132.419C189.595 132.256 189.335 132.11 189.068 131.984C188.273 131.61 188.04 131.745 187.976 132.595C187.974 132.626 187.976 132.658 187.976 132.69L187.926 136.235C187.879 139.532 187.833 142.83 187.784 146.127C187.768 147.177 188.32 147.981 188.863 148.774L188.863 148.774L188.863 148.774L188.864 148.775C188.973 148.935 189.083 149.095 189.187 149.256C191.103 152.216 193.059 155.15 195.034 158.07C195.576 158.872 196.138 159.66 196.7 160.448C197.547 161.638 198.394 162.827 199.173 164.06C199.568 164.685 199.804 165.41 200.04 166.136C200.144 166.454 200.247 166.772 200.364 167.082C200.417 167.223 200.473 167.363 200.53 167.504L200.53 167.505C200.682 167.884 200.833 168.263 200.929 168.656C201.698 171.831 201.351 174.98 200.591 178.096C200.541 178.302 200.491 178.507 200.441 178.713L200.439 178.722C199.966 180.669 199.492 182.624 198.803 184.495C198.25 185.996 197.56 187.446 196.87 188.896C196.538 189.594 196.206 190.293 195.888 190.997C195.335 192.227 194.799 193.466 194.27 194.706C193.373 196.81 192.481 198.916 191.599 201.026C191.279 201.791 190.969 202.562 190.66 203.333L190.66 203.333C190.04 204.876 189.421 206.419 188.716 207.922C187.702 210.088 186.574 212.201 185.448 214.313L185.447 214.315L185.445 214.318L185.179 214.817L184.963 215.222C184.259 216.545 183.538 217.858 182.817 219.171C182.119 220.443 181.421 221.714 180.738 222.994C180.116 224.161 179.511 225.337 178.905 226.513L178.904 226.515C178.257 227.772 177.61 229.028 176.942 230.274C175.994 232.044 175 233.791 173.977 235.519C173.126 236.958 173.372 237.628 174.358 238.953C175.426 240.389 177.085 240.869 178.731 241.244C183.243 242.271 187.765 243.257 192.286 244.243L192.293 244.244L192.524 244.295C192.98 244.394 193.441 244.468 193.902 244.542L193.903 244.542H193.903C194.422 244.626 194.94 244.709 195.451 244.828C197.999 245.423 199.278 247.292 199.96 249.612C200.396 251.096 200.525 252.689 199.34 253.922C198.892 254.388 198.075 254.734 197.424 254.736C189.043 254.764 180.661 254.769 172.279 254.773C167.001 254.776 161.723 254.779 156.445 254.788C155.83 254.789 155.786 254.605 155.739 254.066C155.692 253.517 155.594 252.969 155.496 252.422L155.496 252.422L155.496 252.422C155.352 251.618 155.209 250.817 155.227 250.018C155.312 246.175 156.662 242.734 159.024 239.712C159.195 239.494 159.471 239.35 159.744 239.207C160.048 239.049 160.347 238.893 160.49 238.641C161.178 237.426 161.769 236.134 162.222 234.812C162.947 232.695 163.667 230.558 164.133 228.375C164.346 227.372 164.655 226.4 164.964 225.427L164.964 225.427C165.348 224.217 165.732 223.007 165.936 221.734C166.15 220.389 166.71 219.094 167.267 217.807L167.268 217.806C167.44 217.407 167.613 217.009 167.774 216.611C168.326 215.249 168.896 213.894 169.465 212.54L169.466 212.539L169.466 212.539L169.466 212.539L169.466 212.538L169.466 212.538L169.466 212.538L169.466 212.537L169.466 212.537C170.352 210.433 171.237 208.329 172.054 206.199C172.637 204.68 173.119 203.123 173.602 201.566C173.878 200.677 174.154 199.789 174.448 198.907C175.071 197.041 175.703 195.176 176.417 193.344C176.577 192.932 176.487 192.925 176.262 192.907C176.22 192.904 176.173 192.9 176.123 192.894C173.113 192.495 170.148 192.53 167.342 193.866C166.727 194.158 166.294 194.098 165.887 193.588C165.471 193.067 165.687 192.688 166.055 192.21C168.249 189.361 169.611 186.116 170.656 182.693C170.766 182.336 170.878 181.979 170.99 181.622L170.991 181.619C171.67 179.462 172.347 177.312 172.329 175.019C172.315 173.283 171.885 171.725 170.688 170.272C170.425 169.953 170.183 169.619 169.943 169.286C169.224 168.292 168.516 167.311 167.284 166.799C166.661 166.54 166.047 166.26 165.433 165.981L165.432 165.981L165.431 165.981L165.431 165.98L165.43 165.98L165.429 165.98L165.429 165.979L165.428 165.979L165.428 165.979L165.427 165.979L165.427 165.978C164.787 165.688 164.147 165.397 163.497 165.128C163.003 164.924 162.509 164.718 162.016 164.512C160.071 163.701 158.125 162.89 156.141 162.188C154.936 161.762 153.688 161.458 152.44 161.153L152.44 161.153L152.439 161.153L152.439 161.153L152.438 161.153L152.438 161.152L152.437 161.152L152.437 161.152C151.87 161.014 151.304 160.876 150.742 160.726C150.685 160.711 150.628 160.694 150.572 160.677C150.519 160.661 150.466 160.644 150.413 160.627C150.352 160.608 150.291 160.588 150.23 160.57C150.203 160.562 150.176 160.554 150.15 160.546C148.867 160.181 147.747 160.245 146.876 161.479C146.494 162.02 145.969 162.461 145.419 162.923L145.419 162.923C145.31 163.015 145.2 163.107 145.089 163.202C143.017 165.24 141.038 167.274 139.065 169.316ZM186.323 133.375L186.323 133.375C186.434 132.824 186.544 132.272 186.604 131.715L186.621 131.56C186.75 130.367 186.881 129.156 186.796 127.968C186.752 127.353 186.587 126.749 186.423 126.143C186.29 125.652 186.156 125.161 186.086 124.662C185.718 122.041 185.386 119.412 185.131 116.777C184.909 114.487 184.76 112.189 184.612 109.892L184.612 109.891L184.565 109.159L184.55 108.925C184.4 106.631 184.262 104.336 184.172 102.039C184.086 99.8384 184.043 97.6356 184 95.4331V95.4324L183.982 94.5044C183.979 94.3656 184.027 94.2268 184.074 94.0871C184.105 93.9979 184.135 93.9084 184.153 93.8182C184.173 93.7164 184.198 93.6139 184.222 93.5112C184.29 93.2276 184.359 92.9423 184.334 92.6666C184.306 92.3633 184.237 92.061 184.169 91.7597L184.169 91.7596C184.076 91.3509 183.984 90.9438 183.995 90.5376C184.062 87.8464 184.184 85.1564 184.306 82.4667L184.306 82.4659C184.324 82.0682 184.342 81.6704 184.36 81.2727C184.386 80.6945 184.461 80.1162 184.549 79.5436C184.797 77.936 185.055 76.33 185.313 74.724L185.313 74.7203L185.314 74.7165L185.315 74.7122L185.315 74.7079L185.316 74.7036L185.317 74.6993L185.317 74.6944L185.499 73.5607C185.52 73.4291 185.549 73.2987 185.577 73.1683C185.59 73.1079 185.603 73.0475 185.616 72.987C185.618 73.006 185.62 73.0249 185.623 73.0438C185.625 73.0667 185.629 73.0896 185.632 73.1125L185.642 73.189C185.663 73.3336 185.683 73.4781 185.686 73.623C185.746 76.6483 185.802 79.6736 185.858 82.6988V82.6995V82.7002V82.701V82.7017V82.7024V82.7027V82.7031L185.879 83.8231C185.898 84.8363 185.918 85.8495 185.937 86.8627C185.984 89.2812 186.03 91.6997 186.068 94.1184C186.093 95.7187 186.113 97.3191 186.133 98.9195V98.9197V98.9199V98.92V98.9202V98.9203V98.9205V98.9207C186.169 101.83 186.205 104.74 186.274 107.649C186.325 109.819 186.464 111.991 186.656 114.153C186.798 115.74 187.005 117.321 187.212 118.902L187.212 118.904C187.278 119.404 187.343 119.905 187.406 120.406C187.495 121.104 187.591 121.801 187.688 122.498L187.688 122.501L187.688 122.504L187.689 122.507L187.689 122.508C187.858 123.732 188.027 124.955 188.153 126.183C188.314 127.744 189.067 129.007 190.151 130.008C190.942 130.738 191.834 131.36 192.725 131.982L192.725 131.982L192.726 131.982L192.726 131.982C193.078 132.228 193.43 132.473 193.775 132.725C194.498 133.252 195.217 133.784 195.936 134.316L195.937 134.316C197.742 135.65 199.547 136.984 201.401 138.244C203.059 139.371 204.765 140.426 206.471 141.482L206.473 141.483C207.298 141.994 208.124 142.504 208.943 143.023C209.732 143.522 210.518 144.026 211.304 144.53C212.699 145.425 214.095 146.32 215.508 147.188L215.775 147.352C218.365 148.943 220.957 150.535 223.608 152.018C224.868 152.723 226.204 153.296 227.538 153.867L227.539 153.867C227.881 154.014 228.223 154.16 228.563 154.309C228.761 154.395 229.217 154.296 229.311 154.139C229.533 153.767 229.677 153.345 229.821 152.927C229.849 152.844 229.878 152.76 229.907 152.677C230.464 151.092 231.17 149.611 232.373 148.376C233.281 147.444 233.153 147.164 231.892 146.635C231.821 146.605 231.75 146.576 231.68 146.546L231.679 146.546C231.152 146.327 230.621 146.105 230.142 145.804C229.253 145.245 228.388 144.638 227.557 143.994C226.82 143.423 226.08 142.853 225.341 142.284L225.34 142.284L225.34 142.283L225.339 142.283L225.339 142.283L225.338 142.282L225.338 142.282L225.337 142.281C222.845 140.362 220.351 138.443 217.927 136.441C215.67 134.577 213.524 132.567 211.423 130.525C211.13 130.241 210.835 129.959 210.539 129.677C208.751 127.973 206.955 126.261 205.821 124C205.666 123.69 205.486 123.392 205.307 123.093L205.307 123.093C204.785 122.226 204.263 121.36 204.34 120.221C204.387 119.525 204.294 118.818 204.2 118.113C204.167 117.858 204.133 117.602 204.106 117.348C204.033 116.66 203.946 115.973 203.859 115.285C203.681 113.881 203.503 112.476 203.443 111.066C203.362 109.162 203.381 107.254 203.399 105.346C203.407 104.525 203.415 103.703 203.415 102.882C203.415 102.69 203.409 102.496 203.404 102.303C203.391 101.88 203.379 101.458 203.426 101.043C203.652 99.0191 203.883 96.9944 204.188 94.9817C204.248 94.5885 204.306 94.1947 204.364 93.8007L204.364 93.8004C204.649 91.8729 204.934 89.9413 205.404 88.0584C205.815 86.4164 206.319 84.7983 206.823 83.1798L206.824 83.1787C207.223 81.8987 207.621 80.6185 207.974 79.3262C208.228 78.3966 208.507 77.4736 208.786 76.5504L208.786 76.5503L208.786 76.5501L208.786 76.5499L208.786 76.5497L208.786 76.5495L208.787 76.5493L208.787 76.5492C209.486 74.2376 210.186 71.9254 210.483 69.5074C210.548 68.9805 210.681 68.4557 210.815 67.9326L210.815 67.9323C211.011 67.1627 211.206 66.3972 211.179 65.6351C211.081 62.8818 210.312 60.2287 209.537 57.5802C208.38 53.6238 206.374 50.324 202.903 47.9753C200.9 46.6202 198.802 45.628 196.317 45.9468C195.416 46.0625 194.524 46.2478 193.631 46.4333C193.202 46.5224 192.773 46.6116 192.343 46.6931C189.901 47.1551 187.741 48.2298 185.795 49.7404C184.656 50.6247 183.544 51.5471 182.462 52.5005C181.38 53.4539 180.299 54.4181 179.314 55.4673C178.397 56.4432 177.545 57.4797 176.693 58.5154C176.579 58.6535 176.466 58.7915 176.352 58.9294C176.28 59.0166 176.208 59.1038 176.136 59.1908C174.672 60.9597 173.211 62.7323 171.779 64.5269C171.152 65.3124 170.538 66.1083 169.923 66.9041L169.923 66.9047L169.922 66.9059L169.922 66.9063L169.921 66.9065L169.921 66.9067L169.921 66.9068L169.921 66.907L169.921 66.9072L169.921 66.9073C168.992 68.1104 168.064 69.3134 167.091 70.4803C165.328 72.5973 163.496 74.6608 161.639 76.6966C159.086 79.4941 156.488 82.2511 153.89 85.0074C153.669 85.2423 153.414 85.4473 153.16 85.6519L153.159 85.6521C152.854 85.8975 152.55 86.1423 152.304 86.4377C150.424 88.7016 148.653 91.0629 147.395 93.7298C146.236 96.1889 145.119 98.6679 144.002 101.147C142.998 103.375 141.994 105.603 140.96 107.817C139.283 111.405 137.437 114.9 135.209 118.2L135.046 118.442C133.852 120.212 132.659 121.983 130.977 123.272C128.784 124.953 126.502 126.518 124.221 128.082L124.218 128.084C123.624 128.492 123.029 128.9 122.436 129.309C120.511 130.639 118.988 132.317 118.24 134.528C117.32 137.242 117.79 139.937 119.074 142.411C120.654 145.456 123.155 147.783 125.708 150.001C128.541 152.462 131.833 154.227 135.386 155.361C139.952 156.819 144.544 158.235 149.373 158.648C150.636 158.756 151.894 158.921 153.153 159.087L153.153 159.087C154.556 159.271 155.958 159.455 157.367 159.56C160.483 159.792 163.613 159.92 166.737 159.938C168.142 159.945 169.546 159.848 170.952 159.751H170.952H170.952H170.952H170.952H170.952H170.953L170.953 159.751C171.846 159.689 172.738 159.627 173.631 159.592C176.058 159.497 178.357 158.861 180.621 158.058C182.143 157.519 183.551 156.776 184.107 155.138C184.43 154.184 184.591 153.163 184.724 152.159L184.758 151.901C185.039 149.781 185.321 147.658 185.48 145.527C185.627 143.564 185.704 141.596 185.784 139.555C185.814 138.787 185.845 138.008 185.879 137.215C185.899 136.961 185.915 136.705 185.93 136.45C185.966 135.874 186.001 135.297 186.08 134.727C186.143 134.274 186.233 133.825 186.323 133.375ZM105.36 192.516C105.462 192.607 105.694 192.666 105.808 192.615C106.329 192.378 106.859 192.155 107.389 191.932L107.39 191.932C108.682 191.388 109.976 190.843 111.141 190.099C113.221 188.77 115.25 187.363 117.279 185.956L117.28 185.956L117.28 185.956L117.281 185.955L117.282 185.954L117.283 185.953L117.285 185.952L117.286 185.952L117.286 185.952L117.286 185.952C118.877 184.848 120.468 183.745 122.083 182.68C125.611 180.353 128.703 177.52 131.797 174.687L131.797 174.687C132.399 174.135 133.002 173.583 133.608 173.034C134.548 172.184 135.432 171.271 136.316 170.359L136.316 170.358L136.316 170.358L136.316 170.358L136.316 170.358L136.317 170.358L136.317 170.358L136.317 170.358C136.508 170.16 136.7 169.963 136.891 169.766C137.941 168.689 138.98 167.604 140.02 166.518L140.021 166.516L140.022 166.515L140.023 166.514L140.024 166.513L140.026 166.512L140.027 166.51L140.029 166.508C140.481 166.036 140.933 165.564 141.386 165.093C141.711 164.754 142.036 164.417 142.362 164.079C143.545 162.853 144.727 161.628 145.873 160.369C146.008 160.22 145.839 159.479 145.684 159.433C145.035 159.236 144.373 159.076 143.712 158.916L143.711 158.916C142.873 158.712 142.035 158.509 141.221 158.233L140.807 158.092L140.807 158.092L140.806 158.092C137.439 156.949 134.068 155.804 130.774 154.476C127.756 153.259 124.961 151.587 122.462 149.467C122.424 149.434 122.244 149.477 122.225 149.524C121.503 151.263 120.16 152.447 118.813 153.636L118.812 153.637L118.812 153.637L118.812 153.637C118.505 153.908 118.197 154.179 117.897 154.457C116.482 155.767 115.078 157.11 113.838 158.58C113.037 159.53 112.355 160.581 111.674 161.631L111.674 161.631L111.674 161.631L111.674 161.631L111.674 161.631L111.674 161.631L111.674 161.632L111.674 161.632C111.423 162.018 111.173 162.404 110.916 162.785C110.627 163.215 110.321 163.639 110.015 164.063L110.015 164.063C109.264 165.103 108.513 166.143 107.998 167.289C106.851 169.845 105.072 171.881 103.215 173.865C101.39 175.816 98.9024 176.542 96.4461 177.259L96.4459 177.259C96.2175 177.326 95.9893 177.392 95.7619 177.46C94.8593 177.728 93.9307 177.908 93.0018 178.088L93.0011 178.088L93.0004 178.088L92.9997 178.088L92.9991 178.088L92.9984 178.089L92.9977 178.089L92.997 178.089C92.4894 178.187 91.9816 178.286 91.478 178.398C91.3498 178.427 91.2344 178.513 91.1191 178.599C91.0657 178.639 91.0123 178.679 90.9576 178.713C91.0168 178.784 91.0776 178.875 91.1383 178.966C91.2693 179.163 91.4002 179.36 91.5167 179.351C92.7024 179.267 93.5883 179.875 94.4588 180.473C94.691 180.632 94.9221 180.79 95.1576 180.935C96.3055 181.64 97.4328 182.399 98.1016 183.711C98.5354 184.562 99.1188 185.339 99.7005 186.114C99.879 186.352 100.057 186.589 100.231 186.829C100.946 187.813 101.693 188.775 102.507 189.821L102.68 190.044L102.853 190.205L103.014 190.354L103.289 190.61L103.291 190.612L103.292 190.612L103.292 190.613L103.292 190.613L103.292 190.613L103.292 190.613L103.292 190.613C103.978 191.251 104.664 191.889 105.36 192.516ZM163.91 163.017C164.636 163.403 165.409 163.696 166.183 163.989C167.707 164.568 169.232 165.146 170.395 166.428C170.748 166.817 171.155 167.156 171.562 167.496L171.562 167.496L171.563 167.496C171.827 167.717 172.092 167.938 172.342 168.173C173.171 168.95 173.458 169.989 173.743 171.023C173.784 171.173 173.826 171.324 173.869 171.473C174.652 174.189 174.474 177 173.787 179.604L173.654 180.109C172.739 183.59 171.81 187.121 169.865 190.244C169.64 190.607 169.522 190.801 170.142 190.818C171.81 190.866 173.477 190.928 175.145 190.991H175.145H175.145H175.145H175.145H175.146H175.146H175.146C176.982 191.059 178.818 191.128 180.655 191.177C181.808 191.208 182.961 191.2 184.115 191.193C184.91 191.188 185.705 191.183 186.499 191.19C188.581 191.21 190.603 190.91 192.497 190.029C192.573 189.994 192.651 189.958 192.73 189.922C193.377 189.628 194.11 189.294 194.402 188.764C195.146 187.415 195.674 185.929 196.154 184.455C196.857 182.297 197.554 180.126 198.044 177.914C198.462 176.026 198.674 174.078 198.805 172.145C198.844 171.563 198.745 170.974 198.646 170.383L198.646 170.383L198.646 170.383C198.567 169.914 198.488 169.443 198.478 168.974C198.438 167.133 197.564 165.635 196.689 164.135C196.638 164.047 196.587 163.96 196.536 163.872C196.332 163.521 196.071 163.205 195.81 162.888L195.81 162.887C195.606 162.64 195.402 162.392 195.224 162.127C193.82 160.034 192.422 157.936 191.024 155.838L191.01 155.817C190.026 154.342 189.043 152.866 188.057 151.392C187.962 151.25 187.84 151.126 187.717 151.002L187.717 151.002L187.716 151.001L187.658 150.942C187.621 150.904 187.584 150.866 187.548 150.827C187.493 150.911 187.429 150.993 187.364 151.074C187.223 151.253 187.082 151.432 187.041 151.631C186.945 152.094 186.881 152.563 186.818 153.033C186.764 153.433 186.71 153.833 186.636 154.229C186.205 156.524 185.103 158.288 182.934 159.422C179.943 160.987 176.73 161.655 173.446 162.031C171.553 162.248 169.624 162.283 167.717 162.221C166.571 162.184 165.428 162.043 164.285 161.902L164.284 161.902C163.665 161.825 163.046 161.749 162.426 161.689C162.259 161.673 162.086 161.723 161.912 161.773C161.832 161.797 161.752 161.82 161.672 161.837C161.721 161.876 161.77 161.915 161.818 161.955C161.94 162.055 162.063 162.155 162.19 162.247C162.201 162.254 162.212 162.261 162.224 162.268C162.242 162.278 162.262 162.287 162.285 162.298C162.344 162.326 162.421 162.362 162.53 162.44C162.675 162.5 162.823 162.557 162.97 162.613C163.29 162.735 163.61 162.858 163.91 163.017ZM203.441 16.8685C202.233 18.6313 201.503 20.6414 201.135 22.7546C200.761 24.9018 200.708 27.0733 201.339 29.1693C201.712 30.4068 202.133 31.6298 202.555 32.8527C203.043 34.2682 203.531 35.6835 203.943 37.1209C204.197 38.0084 204.773 38.4239 205.409 38.6473C208.411 39.7019 211.673 38.4195 213.537 35.6669C214.043 34.9198 213.752 34.6131 213.237 34.0907C212.541 33.3837 211.932 32.5647 211.413 31.7156C210.64 30.4482 210.967 29.1561 211.853 28.1326C212.74 27.1083 214.072 26.8807 215.311 27.3098C216.726 27.8002 217.745 28.8797 218.471 30.2016C218.506 30.2636 218.53 30.3308 218.554 30.3981L218.57 30.4403C218.576 30.4574 218.582 30.4744 218.589 30.4913C218.597 30.4743 218.606 30.4576 218.614 30.4409C218.632 30.4051 218.65 30.3692 218.663 30.3315C218.769 30.0081 218.871 29.6828 218.974 29.3574L218.974 29.3563L218.974 29.3552L218.975 29.3537L218.975 29.352L218.976 29.3501L218.977 29.3484C219.519 27.6248 220.063 25.8966 221.159 24.426C222.014 23.2797 222.934 22.1366 224.019 21.2217C224.831 20.5376 225.832 20.0617 226.815 19.5948C226.959 19.5265 227.102 19.4584 227.244 19.3899C227.58 19.2285 227.914 19.0637 228.249 18.8988L228.25 18.8983C229.657 18.2053 231.07 17.5096 232.552 17.0465C232.801 16.9688 232.927 16.9304 232.985 16.9126C233.018 16.9025 233.03 16.899 233.03 16.8987C233.03 16.8986 233.027 16.8993 233.022 16.9004C232.944 16.9177 232.442 17.0292 237.341 15.2674C244.18 12.8076 240.661 5.05872 238.636 3.35408C238.486 3.22712 238.246 3.09078 238.084 3.12573C237.938 3.15714 237.753 3.41043 237.738 3.5795C237.586 5.27343 235.096 7.90209 229.183 7.49396C225.135 7.21462 225.048 7.23069 224.854 7.26617C224.765 7.28253 224.653 7.30301 224.12 7.30056C222.845 7.29471 218.431 7.70464 217.538 7.95629C217.214 8.04771 216.79 8.13608 216.291 8.24005C213.913 8.73549 209.835 9.58528 206.751 12.8076C206.409 13.2217 206.058 13.6291 205.707 14.0366C204.915 14.9554 204.123 15.8742 203.441 16.8685ZM219.614 33.687C219.614 34.5437 219.442 35.3867 219.27 36.2295C219.187 36.6347 219.105 37.0398 219.041 37.4465C219.031 37.5106 218.997 37.5711 218.964 37.6316C218.948 37.6598 218.933 37.6879 218.919 37.7164C218.915 37.7009 218.911 37.6855 218.907 37.6701L218.898 37.6342C218.882 37.5757 218.866 37.5173 218.855 37.4579C218.776 37.0429 218.703 36.6267 218.63 36.2105C218.465 35.269 218.3 34.3274 218.075 33.4006C217.804 32.2894 217.504 31.157 217.004 30.1377C216.427 28.9592 214.008 28.4031 212.817 29.0213C212.139 29.3739 211.813 30.2189 212.253 30.8328C212.67 31.4135 213.181 32.0072 213.788 32.3528C214.786 32.9203 215.11 33.8667 215.191 34.7944C215.343 36.5389 213.508 38.9919 211.724 39.433C210.102 39.8341 208.449 40.1131 206.798 40.3918L206.798 40.3918L206.796 40.3921C206.407 40.4578 206.018 40.5235 205.629 40.5908L205.565 40.6017L205.509 40.6108C204.99 40.6964 204.576 40.7645 204.741 41.5239C205.188 43.5854 205.334 45.6623 204.959 47.7592C204.936 47.8866 205.168 48.0863 205.316 48.2124C205.505 48.3734 205.704 48.5249 205.902 48.6764L205.902 48.6767C206.268 48.9554 206.632 49.2337 206.934 49.5692C207.43 50.1205 207.892 50.7018 208.355 51.2832C208.672 51.6824 208.99 52.0818 209.318 52.4716C209.404 52.5733 209.749 52.6158 209.832 52.537C210.253 52.1355 210.664 51.7224 211.074 51.3094C211.555 50.8257 212.035 50.3421 212.534 49.877C213.737 48.7529 214.971 47.6598 216.22 46.5858C216.382 46.4467 216.604 46.3785 216.827 46.3104C216.93 46.2789 217.033 46.2475 217.13 46.2091C217.089 46.3021 217.05 46.3956 217.01 46.4892C216.902 46.7449 216.794 47.0005 216.666 47.2459C216.643 47.2887 216.579 47.306 216.511 47.3243C216.453 47.3399 216.393 47.3562 216.354 47.3899C216.333 47.4079 216.313 47.4254 216.293 47.4426C216.052 47.6472 215.875 47.7977 216.409 48.0516C216.974 48.32 217.498 48.6758 218.021 49.0315C218.24 49.1802 218.458 49.3289 218.68 49.4712C222.096 51.663 225.775 52.6922 229.849 52.0262C232.153 51.6495 233.734 50.4271 234.436 48.1661C235.109 46.0003 234.83 45.3701 232.754 44.4997C232.708 44.4804 232.662 44.4612 232.616 44.4421L232.542 44.4114C231.447 43.9574 230.36 43.5065 230.073 42.1688C229.955 41.6185 230.956 41.0322 231.2 41.5394C231.202 41.5433 231.203 41.5472 231.204 41.5512C231.426 42.56 232.194 42.9085 233.003 43.2719C234.492 43.9404 234.674 43.8469 234.674 42.3225C234.674 41.2988 234.674 40.8002 234.911 40.4735C235.136 40.1632 235.575 40.0079 236.43 39.7051C237.446 39.345 237.61 38.9928 237.148 38.0079C236.45 36.5205 235.995 35.0051 236.188 33.3233C236.426 31.2508 236.624 29.1716 236.755 27.0899C236.839 25.7522 236.919 24.3833 236.727 23.0683C236.604 22.2262 236.303 21.41 236.001 20.594C235.872 20.2429 235.742 19.8919 235.626 19.5389C235.355 18.7096 234.702 18.3764 233.849 18.6831C233.316 18.8747 232.779 19.0595 232.243 19.2442C230.75 19.7587 229.255 20.2735 227.831 20.9373C226.332 21.636 224.815 22.5027 223.649 23.6447C222.602 24.6708 219.614 29.8396 219.614 33.687ZM96.5026 195.186C97.1352 195.045 97.7681 194.905 98.401 194.765C99.776 194.462 101.151 194.158 102.523 193.842C102.721 193.797 102.905 193.695 103.09 193.594C103.175 193.547 103.26 193.499 103.347 193.458C103.274 193.415 103.2 193.374 103.126 193.332L103.126 193.332C102.954 193.236 102.782 193.14 102.624 193.025C102.45 192.897 102.302 192.73 102.158 192.567L102.15 192.558C101.739 192.093 101.321 191.633 100.904 191.173L100.903 191.172L100.903 191.172L100.903 191.172C99.8861 190.051 98.869 188.929 97.9401 187.739C97.0214 186.562 96.291 185.228 95.5706 183.912L95.5526 183.879C95.1976 183.231 94.7945 182.957 94.1118 183.195C91.2084 184.206 88.2025 184.758 85.1968 185.31L85.1959 185.31C83.6282 185.598 82.0605 185.885 80.5074 186.238C77.9614 186.817 65.1445 189.015 64.0284 189.095C63.486 189.134 62.9435 189.189 62.4012 189.244L62.4008 189.244L62.4003 189.244L62.3999 189.244L62.3994 189.244L62.3989 189.244L62.3984 189.244L62.3979 189.244L62.3976 189.244C61.3414 189.351 60.2856 189.458 59.2308 189.446C56.5349 189.416 53.8923 189.706 51.2519 190.217C50.4197 190.378 49.5755 190.48 48.7315 190.582L48.7309 190.582H48.7307C47.7668 190.699 46.8033 190.815 45.8582 191.019C42.8149 191.677 41.7953 194.268 42.5794 196.8C42.7299 197.286 43.2678 197.834 43.7505 198.005C45.9521 198.781 48.2566 198.983 50.586 199.001C51.7859 199.011 52.9854 199.066 54.1848 199.122H54.1851H54.1854H54.1857H54.186H54.1863H54.1866C54.6437 199.143 55.1008 199.164 55.558 199.183C57.261 199.252 58.9639 199.322 60.6668 199.393L60.7194 199.395L60.7203 199.395L60.7213 199.395L60.7222 199.396L60.7231 199.396L60.724 199.396L60.725 199.396C62.0631 199.451 63.4013 199.507 64.7395 199.562C64.8346 199.566 64.9299 199.564 65.0252 199.563C65.1206 199.561 65.216 199.56 65.3112 199.564C65.7807 199.583 66.251 199.615 66.7212 199.647L66.7228 199.647H66.7229H66.7231H66.7232H66.7234H66.7235H66.7236H66.7238C67.7536 199.717 68.7833 199.787 69.8049 199.724C71.4078 199.625 73.0051 199.436 74.6025 199.247L74.6031 199.247C75.3449 199.16 76.0867 199.072 76.8291 198.993C77.2832 198.945 77.7385 198.906 78.1938 198.866L78.1944 198.866L78.1949 198.866L78.1955 198.866L78.196 198.866L78.1966 198.866L78.1974 198.866C79.0249 198.794 79.8523 198.723 80.6717 198.599L81.085 198.536C83.179 198.22 85.2769 197.902 87.3427 197.448C88.9472 197.095 90.5405 196.691 92.1686 196.278L92.1708 196.278L92.1743 196.277L92.1756 196.276L92.1772 196.276L92.1802 196.275C93.3684 195.974 94.5751 195.668 95.8182 195.374C95.8903 195.354 95.9623 195.333 96.0342 195.312C96.1896 195.266 96.3449 195.221 96.5026 195.186ZM169.133 239.205C170.119 237.793 171.052 236.341 171.957 234.875C172.779 233.542 173.548 232.176 174.316 230.81C175.004 229.588 175.719 228.381 176.433 227.173C178.09 224.371 179.747 221.569 181.078 218.579C181.844 216.857 182.732 215.189 183.619 213.52C184.042 212.725 184.466 211.93 184.876 211.128C184.981 210.923 185.086 210.719 185.193 210.515C185.282 210.343 185.372 210.172 185.462 210L185.463 209.998L185.463 209.998L185.463 209.998L185.464 209.997L185.464 209.997L185.464 209.997L185.464 209.996L185.464 209.996C186.004 208.966 186.543 207.936 187.007 206.873C187.357 206.068 187.665 205.243 187.972 204.418C188.444 203.15 188.915 201.883 189.542 200.697C190.549 198.791 191.217 196.778 191.886 194.763L191.886 194.763C192.103 194.109 192.32 193.455 192.548 192.804C192.584 192.703 192.607 192.597 192.629 192.492C192.64 192.443 192.65 192.394 192.662 192.345C192.632 192.351 192.601 192.357 192.571 192.362L192.499 192.374C192.38 192.394 192.262 192.415 192.147 192.448C191.918 192.516 191.689 192.599 191.461 192.682L191.461 192.682C190.987 192.854 190.514 193.026 190.03 193.064C188.221 193.206 186.402 193.267 184.587 193.266C183.464 193.266 182.342 193.222 181.219 193.178C180.495 193.149 179.771 193.121 179.046 193.104C178.912 193.101 178.701 193.269 178.647 193.406C178.585 193.563 178.522 193.72 178.46 193.878L178.454 193.892L178.448 193.907C177.995 195.047 177.541 196.189 177.145 197.35C176.158 200.241 175.201 203.143 174.255 206.048C173.055 209.736 171.577 213.295 169.949 216.827C168.44 220.102 167.315 223.588 166.6 227.177C166.267 228.853 165.773 230.498 165.28 232.141C165.162 232.537 165.043 232.933 164.926 233.329C164.561 234.571 164.158 235.802 163.755 237.033L163.755 237.033L163.754 237.035C163.608 237.48 163.463 237.925 163.319 238.371C162.989 239.391 163.279 240.344 164.083 240.468C164.98 240.606 165.905 240.556 166.914 240.493C167.83 240.366 168.615 239.946 169.133 239.205ZM37.38 204.122C38.375 202.49 39.3999 201.012 41.4226 200.571C42.1735 200.407 42.215 200.017 41.7174 199.39C41.6082 199.253 41.4929 199.116 41.3771 198.978C40.9612 198.484 40.5375 197.98 40.358 197.408C40.164 196.789 40.2019 196.089 40.239 195.402C40.2486 195.225 40.2581 195.049 40.2637 194.876C40.3296 192.799 40.9175 191.028 42.979 190.019C43.5906 189.72 43.9579 189.269 43.3443 188.387C41.9618 186.398 40.1296 184.99 38.1095 183.77C37.3176 183.292 36.5885 183.577 36.2738 184.411C36.1369 184.774 35.9985 185.136 35.8601 185.498C35.4226 186.643 34.985 187.789 34.597 188.95C34.1709 190.226 33.7656 191.509 33.3603 192.791C32.9325 194.145 32.5047 195.499 32.0525 196.844C31.6791 197.955 31.3504 199.079 31.0216 200.203C30.4275 202.235 29.833 204.267 28.9737 206.228C26.995 210.745 25.3957 215.415 24.6389 220.322C24.5989 220.582 24.6546 221.027 24.8086 221.105C25.0427 221.224 25.4426 221.181 25.6987 221.056C26.1257 220.848 26.5742 220.587 26.8731 220.232C27.8114 219.114 28.6843 217.942 29.5825 216.601C30.3263 215.414 31.073 214.229 31.8196 213.044L31.8197 213.044C33.6878 210.079 35.556 207.113 37.38 204.122ZM177.443 242.589C177.263 242.544 177.082 242.5 176.901 242.456C175.243 242.054 173.597 241.654 172.637 239.946C172.184 239.14 171.788 239.202 171.33 240.087C170.934 240.854 170.443 241.528 169.661 241.928C169.244 242.141 168.803 242.313 168.361 242.469C166.167 243.245 164.033 243.343 162.109 241.774C161.171 241.01 160.865 241.08 160.134 242.031C158.95 243.57 158.343 245.365 157.74 247.152L157.688 247.304C157.037 249.228 157.39 249.63 159.441 249.63H196.223C196.3 249.63 196.381 249.637 196.461 249.644C196.645 249.66 196.829 249.676 196.976 249.608C197.164 249.522 197.416 249.111 197.385 249.076C197.25 248.929 197.118 248.772 196.985 248.616C196.581 248.136 196.17 247.651 195.65 247.388C194.612 246.863 193.449 246.552 192.31 246.264C188.108 245.203 183.894 244.189 179.494 243.158C179.282 243.099 179.071 243.039 178.86 242.978L178.853 242.976C178.384 242.843 177.915 242.709 177.443 242.589ZM249.376 172.109C249.419 172.27 249.612 172.39 249.805 172.511C249.894 172.566 249.983 172.622 250.057 172.681C250.105 172.613 250.165 172.546 250.226 172.478C250.357 172.331 250.488 172.184 250.496 172.031C250.506 171.827 250.519 171.621 250.533 171.415C250.587 170.613 250.641 169.802 250.482 169.04C250.171 167.55 249.683 166.083 249.128 164.662C248.99 164.307 249.155 164.138 249.31 163.979C249.423 163.863 249.53 163.753 249.513 163.582C249.613 163.646 249.719 163.704 249.826 163.763C250.07 163.896 250.313 164.029 250.473 164.229C250.615 164.405 250.68 164.639 250.745 164.876L250.745 164.876C250.785 165.017 250.824 165.158 250.88 165.289L250.97 165.501L251.111 165.833L251.114 165.841L251.114 165.841L251.114 165.842L251.114 165.842L251.114 165.842L251.114 165.842L251.114 165.842L251.114 165.842C251.493 166.737 251.873 167.633 252.311 168.498C252.389 168.652 252.624 168.727 252.858 168.801C252.966 168.836 253.074 168.87 253.166 168.912C253.206 168.825 253.256 168.738 253.306 168.65C253.416 168.459 253.526 168.267 253.524 168.077C253.516 167.215 253.447 166.351 253.345 165.494C253.329 165.359 253.314 165.223 253.3 165.086C253.235 164.468 253.169 163.839 252.93 163.292C252.202 161.625 251.43 159.965 250.502 158.405C249.915 157.418 249.116 156.494 248.23 155.763C247.443 155.114 246.537 154.605 245.634 154.098C245.393 153.962 245.152 153.826 244.913 153.688C243.458 152.846 241.982 152.038 240.502 151.238C240.486 151.229 240.47 151.22 240.454 151.21C240.281 151.112 240.076 150.996 239.895 151.392C239.552 152.138 239.189 152.875 238.826 153.612L238.826 153.612C238.259 154.762 237.692 155.912 237.206 157.095C237.198 157.114 237.19 157.133 237.182 157.153L237.173 157.174C236.982 157.626 236.645 158.424 237.677 158.865C238.785 159.338 239.874 160.019 240.747 160.844C243.318 163.272 244.477 166.518 245.628 169.741L245.718 169.993C245.94 170.614 246.099 171.257 246.258 171.9C246.333 172.205 246.409 172.51 246.491 172.813C246.521 172.923 246.556 173.031 246.591 173.14L246.614 173.209C246.622 173.237 246.631 173.264 246.64 173.291L246.657 173.279C246.665 173.273 246.672 173.268 246.68 173.263C246.693 173.255 246.705 173.247 246.718 173.239C246.729 173.232 246.74 173.226 246.752 173.219C246.774 173.206 246.796 173.193 246.819 173.18C246.954 173.103 247.09 173.026 247.137 172.912C247.623 171.75 247.769 170.581 247.407 169.317C247.12 168.313 247.016 167.25 246.914 166.204V166.204L246.904 166.108C246.892 165.98 247.071 165.834 247.249 165.687C247.332 165.619 247.415 165.552 247.478 165.486C247.521 165.542 247.571 165.597 247.621 165.652C247.73 165.77 247.838 165.889 247.877 166.027C247.958 166.321 248.034 166.616 248.112 166.916C248.252 167.463 248.397 168.026 248.589 168.627C248.617 168.755 248.644 168.883 248.672 169.012C248.709 169.188 248.747 169.364 248.784 169.54C248.966 170.4 249.148 171.261 249.376 172.109ZM238.117 151.731L238.117 151.731C238.514 150.966 238.91 150.201 238.932 149.238C238.952 148.356 238.792 147.883 238.079 147.449C237.323 146.989 236.463 146.712 235.79 147.241C234.263 148.442 232.853 149.837 232.037 151.624C231.522 152.749 231.152 153.941 230.781 155.131L230.781 155.131L230.781 155.131L230.781 155.132L230.781 155.132L230.781 155.132L230.781 155.132L230.781 155.132C230.654 155.54 230.527 155.949 230.394 156.354C230.319 156.585 230.355 156.872 230.404 157.121C230.699 158.607 231.812 159.342 233.049 159.965C233.702 160.294 234.185 160.131 234.479 159.487C234.679 159.047 234.877 158.606 235.077 158.161C235.493 157.233 235.917 156.287 236.39 155.301C236.52 155.034 236.655 154.768 236.79 154.503C237.093 153.905 237.397 153.308 237.653 152.691C237.79 152.362 237.954 152.046 238.117 151.731ZM22.5442 219.802C23.2261 218.182 23.8737 216.541 24.4199 214.872C24.7852 213.755 25.1073 212.625 25.4294 211.494C25.7211 210.47 26.0128 209.446 26.3366 208.433C26.8449 206.842 27.3779 205.259 27.9109 203.676C28.4091 202.197 28.9073 200.717 29.3852 199.232C30.28 196.45 31.1527 193.661 32.0255 190.872C32.4176 189.619 32.8098 188.365 33.204 187.113C33.3078 186.783 33.4131 186.454 33.5184 186.124L33.5186 186.124C33.7984 185.249 34.0783 184.374 34.3292 183.49C34.3664 183.359 34.2907 183.196 34.215 183.033C34.18 182.957 34.1449 182.882 34.1211 182.81C34.0436 182.861 33.9539 182.906 33.8643 182.952C33.6704 183.05 33.4765 183.148 33.4057 183.303C32.7346 184.768 32.0788 186.242 31.4997 187.745C30.9666 189.128 30.4908 190.534 30.0151 191.939L30.0147 191.94L30.0142 191.942L30.0138 191.943C29.9346 192.177 29.8554 192.411 29.776 192.645C29.6875 192.905 29.5986 193.166 29.5098 193.426C29.0105 194.89 28.511 196.354 28.0665 197.834C27.6063 199.367 27.1701 200.907 26.734 202.446L26.7339 202.447C26.4146 203.574 26.0952 204.701 25.7664 205.826C25.6457 206.239 25.5262 206.652 25.4066 207.065L25.4065 207.065C24.9038 208.802 24.4009 210.54 23.8153 212.249C23.4505 213.314 23.0648 214.371 22.6777 215.432C22.1371 216.914 21.5937 218.404 21.1003 219.932C21.8158 220.874 22.0894 220.882 22.5442 219.802ZM184.164 253.152C184.597 253.122 185.03 253.091 185.463 253.059C186.418 252.988 187.374 252.918 188.33 252.871C189.592 252.81 190.855 252.755 192.117 252.7H192.118C193.786 252.627 195.454 252.555 197.121 252.467C197.252 252.46 197.378 252.33 197.503 252.199L197.503 252.199C197.561 252.138 197.619 252.077 197.678 252.029C197.627 251.998 197.578 251.965 197.528 251.932C197.414 251.854 197.299 251.777 197.172 251.734C197.074 251.701 196.961 251.709 196.848 251.717L196.811 251.72L196.79 251.721C196.778 251.722 196.766 251.723 196.755 251.723C196.736 251.724 196.718 251.724 196.7 251.724H158.805C158.746 251.724 158.68 251.717 158.614 251.709C158.47 251.693 158.326 251.676 158.246 251.74C157.974 251.958 157.73 252.238 157.565 252.542C157.531 252.606 157.86 252.99 158.064 253.036C158.627 253.161 159.212 253.238 159.789 253.239C167.882 253.251 175.975 253.247 184.164 253.152ZM238.772 256.09L238.77 256.09C235.87 257.227 232.987 258.358 230.143 259.578C228.2 260.411 226.254 260.539 224.23 260.48C224.058 260.474 223.887 260.436 223.716 260.397C223.532 260.356 223.349 260.314 223.165 260.315C223.017 260.315 222.869 260.397 222.72 260.478L222.72 260.478C222.654 260.515 222.587 260.551 222.521 260.581C222.555 260.635 222.587 260.693 222.619 260.751C222.689 260.878 222.759 261.006 222.862 261.098C223.154 261.359 223.459 261.626 223.803 261.806C226.426 263.176 227.941 266.915 227.015 269.72C226.56 271.097 226.009 272.56 225.088 273.632C224.339 274.504 223.032 275.079 221.866 275.381C220.026 275.858 218.104 275.873 216.248 275.201C214.625 274.614 213.46 273.528 212.601 272.06C210.513 268.494 211.371 265.4 213.591 262.52C213.883 262.142 214.352 261.904 214.826 261.664C215.091 261.53 215.357 261.395 215.594 261.235C215.762 261.121 215.892 260.953 216.022 260.784C216.059 260.736 216.096 260.688 216.133 260.642C216.157 260.613 216.18 260.585 216.204 260.558C216.099 260.533 215.995 260.502 215.891 260.471C215.652 260.401 215.413 260.331 215.171 260.321C215.005 260.314 214.837 260.356 214.669 260.399C214.512 260.439 214.355 260.479 214.199 260.479L208.27 260.483C194.899 260.491 181.529 260.499 168.158 260.478C164.928 260.473 161.698 260.425 158.468 260.377C156.566 260.349 154.664 260.32 152.762 260.301C151.357 260.286 149.952 260.29 148.547 260.294C147.908 260.296 147.268 260.297 146.629 260.297L146.495 260.297C146.402 260.297 146.309 260.296 146.216 260.296C145.834 260.294 145.453 260.292 145.072 260.306C144.992 260.309 144.915 260.363 144.837 260.417C144.811 260.436 144.784 260.454 144.758 260.47C144.749 260.476 144.739 260.482 144.73 260.487C144.746 260.499 144.762 260.51 144.779 260.522L144.832 260.561C144.905 260.614 144.979 260.667 145.056 260.715C145.376 260.914 145.712 261.097 146.048 261.28L146.048 261.28C146.771 261.674 147.493 262.067 148.06 262.619C151.938 266.392 150.687 273.853 144.885 275.347C140.19 276.557 136.042 275 134.648 269.441C133.789 266.014 136.086 261.927 139.561 260.856C139.711 260.81 139.841 260.697 139.97 260.584C140.031 260.531 140.091 260.479 140.154 260.433C140.12 260.415 140.087 260.394 140.053 260.372C140.023 260.353 139.992 260.332 139.962 260.311C139.825 260.216 139.688 260.122 139.551 260.122C134.971 260.104 130.678 258.775 126.468 257.188C120.814 255.055 115.316 252.567 110.226 249.284L110.128 249.222C109.188 248.616 108.218 247.992 107.886 246.726C107.264 244.355 108.466 242.527 110.685 241.926C113.048 241.287 115.314 241.96 117.546 242.674C121.421 243.913 125.293 245.162 129.165 246.41C131.315 247.103 133.466 247.797 135.617 248.488L135.897 248.578L135.897 248.578L135.898 248.579L135.898 248.579L135.898 248.579L135.899 248.579L135.9 248.579L135.9 248.579C137.067 248.955 138.235 249.331 139.412 249.673C139.844 249.799 140.309 249.862 140.76 249.864C142.698 249.871 144.636 249.872 146.574 249.873H146.588C148.522 249.874 150.455 249.875 152.389 249.882C152.676 249.883 153.168 249.963 153.21 250.108C153.3 250.42 153.299 250.758 153.298 251.096C153.298 251.228 153.297 251.36 153.302 251.49C153.274 251.481 153.245 251.468 153.217 251.455C153.155 251.427 153.092 251.398 153.033 251.404C152.814 251.424 152.595 251.45 152.377 251.477L152.376 251.477L152.376 251.477L152.375 251.477L152.375 251.477L152.375 251.477L152.374 251.477L152.374 251.478C152.049 251.517 151.725 251.557 151.4 251.574C150.27 251.632 149.14 251.684 148.009 251.737L148.001 251.737C146.485 251.807 144.97 251.878 143.456 251.962C140.776 252.112 138.25 251.359 135.746 250.613L135.723 250.606C133.779 250.027 131.86 249.367 129.941 248.707L129.939 248.706L129.937 248.705L129.934 248.704L129.932 248.703L129.929 248.703L129.927 248.702L129.926 248.702C128.846 248.33 127.767 247.959 126.683 247.602C125.319 247.153 123.952 246.715 122.585 246.277L122.582 246.276C121.007 245.771 119.432 245.267 117.863 244.746C117.467 244.614 117.08 244.438 116.694 244.263L116.694 244.263L116.694 244.263L116.694 244.263L116.694 244.263L116.694 244.263L116.694 244.263L116.694 244.263C116.079 243.983 115.467 243.705 114.824 243.61C113.642 243.435 112.377 243.529 111.198 243.761C110.738 243.852 110.222 244.583 110.077 245.115C109.883 245.826 110.015 246.526 110.849 247.054C114.719 249.508 118.799 251.543 122.989 253.389C126.796 255.066 130.726 256.373 134.74 257.439C135.384 257.61 136.081 257.624 136.755 257.637C138.293 257.666 139.832 257.685 141.37 257.704C143.968 257.736 146.566 257.768 149.162 257.847C152.037 257.934 154.911 258.073 157.784 258.213C159.121 258.277 160.458 258.342 161.794 258.401C162.978 258.454 164.163 258.505 165.347 258.556C167.065 258.63 168.783 258.704 170.501 258.784C170.872 258.801 171.243 258.832 171.613 258.862C172.266 258.917 172.917 258.971 173.567 258.95C174.136 258.932 174.703 258.853 175.27 258.775H175.271H175.271H175.271H175.272H175.272H175.272H175.272C175.763 258.706 176.254 258.638 176.747 258.609C177.08 258.59 177.417 258.639 177.753 258.688L177.754 258.689C178.027 258.729 178.301 258.769 178.574 258.772C178.8 258.775 179.025 258.779 179.251 258.782L179.56 258.787H179.561H179.561H179.562H179.562H179.563H179.563H179.564C181.077 258.812 182.592 258.836 184.102 258.764C185.406 258.702 186.708 258.6 188.01 258.497C189.266 258.398 190.521 258.3 191.778 258.237C192.152 258.218 192.529 258.311 192.908 258.404L192.908 258.404C193.241 258.485 193.574 258.567 193.907 258.574C196.194 258.621 198.483 258.616 200.77 258.585C203 258.554 205.231 258.495 207.459 258.389C207.9 258.368 208.344 258.292 208.787 258.215C209.442 258.103 210.093 257.99 210.729 258.059C213.277 258.335 215.834 258.405 218.388 258.475H218.388C220.143 258.523 221.896 258.571 223.644 258.685C226.801 258.892 229.598 258.14 232.366 257.012C236.114 255.484 239.832 253.866 243.479 252.116C245.759 251.021 247.935 249.702 250.103 248.389L250.499 248.149C251.881 247.312 252.935 246.131 253.369 244.509C253.588 243.691 253.131 243.065 252.308 243.047C249.757 242.991 247.427 243.874 245.11 244.764C241.742 246.056 238.387 247.387 235.044 248.743C233.692 249.291 232.35 249.865 231.008 250.439C230.004 250.869 228.999 251.298 227.99 251.717C227.638 251.864 227.233 251.946 226.851 251.947C223.66 251.96 220.468 251.959 217.277 251.958C216.401 251.958 215.526 251.958 214.65 251.958L213.153 251.958L212.017 251.958C209.643 251.959 207.269 251.959 204.894 251.955C204.082 251.954 203.269 251.927 202.457 251.896C202.405 251.895 202.321 251.765 202.316 251.691C202.309 251.586 202.313 251.48 202.317 251.375V251.375V251.374V251.374C202.322 251.226 202.328 251.077 202.302 250.935C202.191 250.327 202.452 250.234 203.014 250.237C207.018 250.264 211.021 250.276 215.025 250.244C215.423 250.241 215.822 250.238 216.22 250.235H216.221C219.61 250.211 223 250.186 226.382 250.014C227.455 249.959 228.535 249.494 229.562 249.052L229.565 249.05L229.654 249.012L229.824 248.939C235.685 246.432 241.605 244.08 247.704 242.213C248.809 241.875 249.986 241.748 251.151 241.622H251.151C251.309 241.605 251.465 241.588 251.622 241.57C251.685 241.563 251.748 241.556 251.81 241.549C252.605 241.458 253.447 241.4 254.218 241.563C255.442 241.822 255.949 242.993 255.575 244.217C254.895 246.441 253.536 248.133 251.558 249.334C250.148 250.191 248.732 251.041 247.309 251.895L247.306 251.897C245.994 252.684 244.676 253.475 243.349 254.279C241.821 254.894 240.294 255.493 238.772 256.09ZM223.854 264.562C221.626 262.143 219.051 261.699 215.982 263.468C214.208 264.49 213.429 266.894 213.578 268.418C213.739 270.058 214.561 271.418 215.817 272.484C217.324 273.761 219.085 273.764 220.9 273.375C224.931 272.511 226.14 267.291 223.854 264.562ZM136.906 267.733L136.906 267.735C136.9 268.109 136.893 268.484 136.918 268.856C137.122 271.928 140.697 274.314 143.85 273.411C146.094 272.767 147.388 271.431 147.847 269.084C148.55 265.484 146.308 262.891 143.211 262.444C140.152 262.002 137.636 263.686 136.913 267.216C136.913 267.388 136.91 267.561 136.906 267.733ZM161.518 278.111H168.506H203.686C205.337 278.111 206.988 278.111 208.64 278.111C216.497 278.113 224.353 278.114 232.21 278.087C232.723 278.085 233.287 277.79 233.71 277.501C233.823 277.423 233.582 276.806 233.348 276.541C233.189 276.361 232.758 276.296 232.449 276.296C207.454 276.289 182.459 276.287 157.464 276.285H157.071C147.239 276.285 137.407 276.284 127.575 276.283C127.212 276.283 126.848 276.259 126.484 276.234L126.482 276.234H126.481H126.481L126.404 276.229C126.363 276.226 126.323 276.224 126.282 276.221C126.218 276.217 126.154 276.213 126.091 276.209C125.487 276.174 124.705 276.975 124.954 277.435C125.312 278.096 126.046 278.112 126.765 278.112C138.331 278.111 149.897 278.111 161.518 278.111ZM98.5342 278.581L93.7771 278.581H93.769H93.7609H93.7529H93.7448H93.7368C86.7431 278.582 79.8008 278.582 72.8585 278.578C72.7855 278.578 72.7114 278.581 72.6373 278.583C72.1687 278.599 71.7012 278.614 71.5143 278.005C71.2978 277.301 71.5946 276.788 72.3832 276.696C72.5328 276.679 72.6856 276.684 72.8384 276.688C72.9085 276.69 72.9785 276.692 73.0483 276.692L80.2947 276.693H80.6849C92.9108 276.693 105.137 276.693 117.363 276.69C117.403 276.69 117.444 276.69 117.484 276.69C118.123 276.686 118.728 276.683 118.701 277.544C118.678 278.257 118.254 278.581 117.268 278.581C112.635 278.581 108.003 278.581 103.33 278.581H103.313H103.296H103.279H103.262H98.5342ZM264.451 278.584L269.381 278.584H269.996L272.576 278.585H272.585H272.595H272.604H272.613C276.67 278.585 280.679 278.586 284.688 278.577C285.106 278.576 285.53 278.492 285.937 278.398C286.049 278.372 286.161 278.176 286.188 278.045C286.394 277.028 286.063 276.696 284.869 276.696C270.1 276.696 255.332 276.696 240.564 276.696L240.525 276.696C240.468 276.695 240.411 276.693 240.353 276.69C240.2 276.683 240.046 276.677 239.899 276.702C239.086 276.839 238.795 277.402 239.119 278.083C239.366 278.605 239.825 278.595 240.287 278.585C240.351 278.584 240.415 278.582 240.478 278.582C248.332 278.584 256.187 278.584 264.093 278.584H264.097H264.451ZM229.92 26.4305C230.086 26.4136 230.865 26.5345 231.825 26.6836C233.139 26.8875 234.792 27.144 235.679 27.1724C236.566 27.2009 235.724 28.1492 235.577 28.1554C233.618 28.2384 229.372 26.9483 229.92 26.4305ZM232.781 33.9106C231.952 33.5974 232.348 31.0627 233.171 31.0627C233.983 31.0627 233.591 34.2164 232.781 33.9106ZM220.828 266.323C221.546 267.946 221.497 268.61 220.642 269.493C220.059 270.095 219.002 270.198 218.339 269.716C217.632 269.201 217.304 267.984 217.645 267.139C218.245 265.654 219.565 265.291 220.828 266.323ZM143.994 266.448C142.88 265.419 141.769 265.477 140.406 266.809C139.909 267.956 140.153 269.17 141.994 269.494C142.985 269.668 143.572 269.376 144.12 268.784C144.69 268.169 144.527 266.94 143.994 266.448Z" fill="#00160A"/>
<path fill-rule="evenodd" clip-rule="evenodd" d="M208.666 59.7526C207.009 59.2675 206.615 56.761 204.944 56.328C203.29 55.8996 201.701 57.8528 200.052 57.4068C198.93 57.1035 198.406 55.8688 197.785 54.8897C197.181 53.937 195.909 53.0771 195 53.692L194.925 53.7467C193.665 54.7377 191.774 54.1117 190.505 53.1316C189.235 52.1515 188.159 50.8305 186.635 50.3263C187.435 49.5387 188.821 50.1102 189.596 50.9228C190.371 51.7354 191.001 52.806 192.078 53.1311C193.727 53.6291 195.585 52.1018 197.141 52.8386C198.11 53.2969 198.503 54.4289 199.083 55.3274C199.662 56.2259 200.923 56.979 201.746 56.2949C203.743 54.6345 207.312 55.6871 208.081 58.1634C208.304 58.8816 209.291 59.9354 208.666 59.7526Z" fill="#E7EAEE"/>
<path fill-rule="evenodd" clip-rule="evenodd" d="M109.802 247.955C114.407 250.66 128.831 258.629 139.405 258.893L226.864 259.168C226.864 259.168 272.852 243.04 239.229 249.125C237.326 249.47 231.876 252.72 223.113 253.428C207.094 254.723 139.405 253.896 139.405 253.896C139.405 253.896 108.59 247.243 109.802 247.955Z" fill="#E7EAEE"/>
<path fill-rule="evenodd" clip-rule="evenodd" d="M34.6914 194.299C34.7991 194.18 34.9298 194.095 35.0108 194.128C35.9319 194.508 36.4632 194.178 36.743 193.271C36.7894 193.12 37.0259 193.027 37.1746 192.908C37.3113 193.09 37.5631 193.271 37.5637 193.454C37.5656 194.059 37.8289 194.343 38.4053 194.523C38.651 194.599 38.7964 194.992 38.9874 195.24C38.795 195.285 38.5049 195.269 38.4308 195.386C38.2803 195.625 38.2015 195.932 38.1788 196.218C38.1594 196.461 38.2815 196.711 38.3029 196.961C38.3309 197.29 38.278 197.531 37.8896 197.2C37.1143 196.539 36.4414 196.787 35.7792 197.41C35.6186 197.561 35.3361 197.585 35.1096 197.668C35.1511 197.462 35.1634 197.246 35.2388 197.053C35.6338 196.045 35.3609 195.179 34.6914 194.299Z" fill="#FFB61D"/>
<ellipse cx="224.669" cy="40.112" rx="3.34134" ry="3.332" fill="#FFB61D"/>
<path fill-rule="evenodd" clip-rule="evenodd" d="M191.056 84.7965L191.332 84.8772C191.702 84.99 191.981 85.1563 192.306 85.4305L192.466 85.5713L192.67 85.7565C192.769 85.8461 192.846 85.9134 192.925 85.9779C193.466 86.4202 194.079 86.6946 195.102 86.8565C195.787 86.9651 196.271 86.8564 197.104 86.4692L197.405 86.3261C198.752 85.678 199.535 85.4974 200.797 85.7868C201.876 86.0341 202.372 86.4505 202.775 87.2341L202.877 87.4419C203.214 88.1442 204.865 88.7529 204.829 89.0134C204.794 89.2739 202.517 88.8528 202.064 87.9514L201.966 87.7492C201.671 87.1439 201.402 86.9024 200.584 86.7146C199.623 86.4945 199.041 86.6097 197.969 87.1126L197.669 87.256C196.581 87.7774 195.914 87.9492 194.952 87.7968C193.762 87.6084 192.992 87.2635 192.32 86.7142C192.274 86.676 192.228 86.6377 192.181 86.5965L191.781 86.2371C191.501 85.9882 191.31 85.866 191.053 85.7877L190.895 85.7402C189.811 85.4235 186.453 86.9591 186.303 86.7431C186.178 86.5635 189.729 84.4407 191.056 84.7965Z" fill="#FFB61D"/>
<path fill-rule="evenodd" clip-rule="evenodd" d="M190.894 92.0313L191.15 92.1023C191.493 92.2014 191.752 92.3476 192.053 92.5885L192.202 92.7123L192.391 92.875C192.483 92.9537 192.554 93.0129 192.628 93.0696C193.129 93.4583 193.698 93.6994 194.646 93.8417C195.282 93.9371 195.73 93.8416 196.503 93.5013L196.781 93.3756C198.031 92.806 198.757 92.6473 199.928 92.9017C200.928 93.119 201.388 93.4849 201.761 94.1735L201.856 94.3561C202.168 94.9733 203.7 95.5082 203.667 95.7372C203.634 95.9661 201.522 95.596 201.102 94.8038L201.011 94.6262C200.738 94.0943 200.489 93.882 199.729 93.717C198.839 93.5236 198.299 93.6248 197.305 94.0667L197.026 94.1928C196.017 94.651 195.4 94.8019 194.507 94.668C193.404 94.5024 192.69 94.1994 192.066 93.7166C192.023 93.6831 191.981 93.6494 191.937 93.6132L191.567 93.2974C191.307 93.0787 191.13 92.9713 190.891 92.9025L190.745 92.8607C189.74 92.5824 186.626 93.9318 186.486 93.742C186.37 93.5842 189.663 91.7187 190.894 92.0313Z" fill="#FFB61D"/>
<path fill-rule="evenodd" clip-rule="evenodd" d="M191.125 99.6473L191.367 99.7183C191.692 99.8174 191.936 99.9635 192.22 100.205L192.361 100.328L192.539 100.491C192.626 100.57 192.694 100.629 192.763 100.686C193.237 101.074 193.773 101.315 194.669 101.458C195.269 101.553 195.693 101.458 196.423 101.117L196.686 100.992C197.866 100.422 198.551 100.263 199.657 100.518C200.602 100.735 201.036 101.101 201.389 101.79L201.478 101.972C201.774 102.589 203.22 103.124 203.189 103.353C203.158 103.582 201.163 103.212 200.767 102.42L200.681 102.242C200.423 101.71 200.187 101.498 199.47 101.333C198.629 101.14 198.119 101.241 197.18 101.683L196.917 101.809C195.964 102.267 195.381 102.418 194.538 102.284C193.496 102.118 192.821 101.815 192.233 101.333C192.192 101.299 192.152 101.265 192.111 101.229L191.761 100.913C191.515 100.695 191.348 100.587 191.123 100.518L190.985 100.477C190.035 100.198 187.094 101.548 186.963 101.358C186.853 101.2 189.963 99.3347 191.125 99.6473Z" fill="#FFB61D"/>
<path fill-rule="evenodd" clip-rule="evenodd" d="M191.125 108.691L191.367 108.762C191.692 108.861 191.936 109.007 192.22 109.248L192.361 109.372L192.539 109.535C192.626 109.614 192.694 109.673 192.763 109.73C193.237 110.118 193.773 110.359 194.669 110.502C195.269 110.597 195.693 110.501 196.423 110.161L196.686 110.036C197.866 109.466 198.551 109.307 199.657 109.562C200.602 109.779 201.036 110.145 201.389 110.833L201.478 111.016C201.774 111.633 203.22 112.168 203.189 112.397C203.158 112.626 201.163 112.256 200.767 111.464L200.681 111.286C200.423 110.754 200.187 110.542 199.47 110.377C198.629 110.184 198.119 110.285 197.18 110.727L196.917 110.853C195.964 111.311 195.381 111.462 194.538 111.328C193.496 111.162 192.821 110.859 192.233 110.377C192.192 110.343 192.152 110.309 192.111 110.273L191.761 109.957C191.515 109.739 191.348 109.631 191.123 109.562L190.985 109.521C190.035 109.242 187.094 110.592 186.963 110.402C186.853 110.244 189.963 108.379 191.125 108.691Z" fill="#FFB61D"/>
<path fill-rule="evenodd" clip-rule="evenodd" d="M191.848 117.735L192.104 117.806C192.447 117.905 192.706 118.051 193.007 118.292L193.156 118.416L193.345 118.579C193.437 118.658 193.509 118.717 193.582 118.773C194.084 119.162 194.652 119.403 195.6 119.546C196.236 119.641 196.684 119.545 197.457 119.205L197.736 119.079C198.985 118.51 199.711 118.351 200.882 118.606C201.882 118.823 202.342 119.189 202.716 119.877L202.81 120.06C203.123 120.677 204.654 121.212 204.621 121.441C204.588 121.67 202.476 121.3 202.056 120.508L201.965 120.33C201.692 119.798 201.443 119.586 200.684 119.421C199.793 119.227 199.253 119.329 198.259 119.771L197.98 119.897C196.971 120.355 196.354 120.506 195.461 120.372C194.358 120.206 193.644 119.903 193.021 119.42C192.977 119.387 192.935 119.353 192.891 119.317L192.521 119.001C192.261 118.783 192.084 118.675 191.845 118.606L191.699 118.565C190.694 118.286 187.58 119.636 187.44 119.446C187.325 119.288 190.617 117.423 191.848 117.735Z" fill="#FFB61D"/>
<path fill-rule="evenodd" clip-rule="evenodd" d="M194.45 126.104L194.714 126.129C195.07 126.167 195.35 126.267 195.688 126.452L195.857 126.548L196.071 126.675C196.175 126.737 196.256 126.783 196.338 126.826C196.9 127.122 197.502 127.261 198.46 127.237C199.103 127.221 199.528 127.049 200.23 126.58L200.482 126.408C201.613 125.631 202.301 125.349 203.498 125.397C204.521 125.437 205.038 125.718 205.525 126.332L205.65 126.495C206.066 127.049 207.667 127.31 207.674 127.542C207.682 127.773 205.538 127.774 204.986 127.066L204.865 126.907C204.504 126.431 204.221 126.265 203.445 126.234C202.534 126.198 202.02 126.391 201.118 126.998L200.866 127.17C199.952 127.796 199.37 128.052 198.467 128.075C197.352 128.103 196.596 127.928 195.898 127.56L195.753 127.481L195.333 127.234C195.039 127.064 194.846 126.989 194.599 126.962L194.448 126.946C193.409 126.846 190.578 128.714 190.407 128.552C190.266 128.416 193.183 126.009 194.45 126.104Z" fill="#FFB61D"/>
<path fill-rule="evenodd" clip-rule="evenodd" d="M200.26 132.288L200.472 132.267C200.757 132.243 200.99 132.275 201.28 132.362L201.425 132.408L201.61 132.471C201.7 132.501 201.769 132.523 201.839 132.543C202.319 132.679 202.811 132.693 203.565 132.533C204.071 132.425 204.386 132.235 204.884 131.783L205.062 131.617C205.861 130.873 206.37 130.561 207.322 130.419C208.135 130.297 208.577 130.429 209.037 130.812L209.156 130.914C209.551 131.263 210.848 131.22 210.882 131.39C210.916 131.56 209.222 131.88 208.7 131.437L208.586 131.337C208.242 131.037 207.999 130.956 207.382 131.048C206.658 131.156 206.275 131.376 205.636 131.961L205.458 132.126C204.812 132.726 204.383 133.002 203.673 133.153C202.795 133.34 202.177 133.322 201.581 133.153L201.456 133.116L201.094 132.995C200.841 132.912 200.68 132.885 200.482 132.902L200.36 132.913C199.528 132.993 197.518 134.8 197.363 134.704C197.235 134.625 199.247 132.406 200.26 132.288Z" fill="#FFB61D"/>
<path fill-rule="evenodd" clip-rule="evenodd" d="M205.51 136.572L205.722 136.551C206.007 136.527 206.24 136.559 206.53 136.646L206.675 136.692L206.86 136.755C206.95 136.785 207.019 136.807 207.089 136.827C207.569 136.963 208.061 136.977 208.815 136.817C209.321 136.709 209.636 136.519 210.134 136.067L210.312 135.902C211.111 135.157 211.62 134.846 212.572 134.703C213.385 134.581 213.827 134.713 214.287 135.096L214.406 135.198C214.801 135.547 216.098 135.504 216.132 135.674C216.166 135.844 214.472 136.164 213.95 135.721L213.836 135.621C213.492 135.321 213.249 135.24 212.632 135.332C211.908 135.441 211.525 135.66 210.886 136.245L210.708 136.41C210.062 137.01 209.633 137.286 208.923 137.437C208.045 137.624 207.427 137.606 206.831 137.437L206.706 137.4L206.344 137.279C206.091 137.196 205.93 137.169 205.732 137.186L205.61 137.197C204.778 137.277 202.768 139.084 202.613 138.988C202.485 138.909 204.497 136.69 205.51 136.572Z" fill="#FFB61D"/>
<path fill-rule="evenodd" clip-rule="evenodd" d="M212.276 141.229L212.442 141.183C212.667 141.123 212.858 141.116 213.102 141.145L213.224 141.162L213.381 141.186C213.457 141.197 213.516 141.205 213.574 141.211C213.977 141.252 214.373 141.194 214.953 140.96C215.342 140.803 215.567 140.607 215.901 140.175L216.02 140.018C216.554 139.311 216.916 138.99 217.657 138.742C218.29 138.531 218.662 138.574 219.084 138.815L219.193 138.881C219.559 139.104 220.589 138.887 220.64 139.018C220.692 139.15 219.383 139.643 218.903 139.362L218.797 139.298C218.48 139.107 218.274 139.076 217.794 139.237C217.231 139.425 216.956 139.655 216.527 140.212L216.408 140.369C215.977 140.94 215.673 141.221 215.127 141.441C214.451 141.714 213.954 141.787 213.454 141.735L213.349 141.723L213.043 141.677C212.829 141.647 212.696 141.648 212.54 141.689L212.444 141.715C211.79 141.896 210.439 143.623 210.302 143.568C210.188 143.523 211.483 141.465 212.276 141.229Z" fill="#FFB61D"/>
<path fill-rule="evenodd" clip-rule="evenodd" d="M217.581 145.075L217.748 145.029C217.973 144.969 218.164 144.962 218.408 144.991L218.53 145.007L218.687 145.031C218.763 145.043 218.821 145.051 218.88 145.057C219.283 145.098 219.678 145.04 220.259 144.806C220.648 144.649 220.873 144.452 221.206 144.021L221.326 143.864C221.859 143.156 222.222 142.836 222.963 142.588C223.596 142.377 223.968 142.42 224.389 142.661L224.499 142.726C224.864 142.95 225.895 142.733 225.946 142.864C225.997 142.995 224.688 143.489 224.209 143.208L224.103 143.144C223.786 142.953 223.58 142.922 223.099 143.083C222.536 143.271 222.261 143.5 221.833 144.058L221.714 144.215C221.282 144.785 220.979 145.066 220.432 145.287C219.757 145.559 219.26 145.632 218.76 145.581L218.655 145.569L218.349 145.523C218.135 145.492 218.002 145.493 217.846 145.535L217.75 145.561C217.096 145.742 215.744 147.468 215.608 147.414C215.494 147.368 216.789 145.311 217.581 145.075Z" fill="#FFB61D"/>
<path fill-rule="evenodd" clip-rule="evenodd" d="M223.785 148.883L223.952 148.837C224.177 148.777 224.368 148.77 224.612 148.799L224.734 148.815L224.891 148.839C224.967 148.851 225.025 148.859 225.084 148.865C225.487 148.906 225.882 148.848 226.463 148.614C226.852 148.457 227.077 148.26 227.411 147.829L227.53 147.672C228.063 146.964 228.426 146.644 229.167 146.396C229.8 146.185 230.172 146.228 230.594 146.469L230.703 146.534C231.068 146.758 232.099 146.541 232.15 146.672C232.201 146.804 230.892 147.297 230.413 147.016L230.307 146.952C229.99 146.761 229.784 146.73 229.304 146.891C228.74 147.079 228.465 147.309 228.037 147.866L227.918 148.023C227.487 148.594 227.183 148.875 226.636 149.095C225.961 149.367 225.464 149.44 224.964 149.389L224.859 149.377L224.553 149.331C224.339 149.3 224.206 149.301 224.05 149.343L223.954 149.369C223.3 149.55 221.949 151.276 221.812 151.222C221.698 151.176 222.993 149.119 223.785 148.883Z" fill="#FFB61D"/>
</svg>
