<svg width="241" height="333" viewBox="0 0 241 333" fill="none" xmlns="http://www.w3.org/2000/svg">
<path fill-rule="evenodd" clip-rule="evenodd" d="M32.2123 89.6895C40.8238 82.1767 52.354 79.2297 62.9478 74.9436C93.5957 62.5438 117.663 38.1175 146.231 21.4764C160.369 13.2412 177.204 6.80975 192.862 11.5548C203.759 14.8572 212.823 23.6855 216.412 34.4919C223.186 54.8939 210.928 76.0446 204.051 96.4122C190.927 135.28 197.585 178.4 212.038 216.793C215.199 225.188 218.745 233.532 220.221 242.38C223.652 262.947 215.151 284.402 200.746 299.478C186.341 314.553 166.643 323.759 146.366 328.619C121.514 334.576 95.2137 334.392 70.4475 328.087C57.897 324.892 45.5559 320.044 35.3804 312.033C25.2049 304.021 17.3344 292.565 15.5036 279.744C12.7468 260.438 23.5942 241.873 25.507 222.465C26.3581 213.829 25.4225 205.126 24.4232 196.505C22.9405 183.715 21.3157 170.942 19.5491 158.188C17.8843 146.169 16.0895 134.022 17.2968 121.948C18.5041 109.874 23.0687 97.6663 32.2123 89.6895Z" fill="#5FF1E0"/>
<path d="M143.465 246.086C143.619 248.087 143.722 250.162 143.016 252.041C141.782 255.324 138.433 257.23 135.328 258.86C117.091 268.432 98.6512 277.855 79.04 284.148C78.1672 282.729 73.5991 274.898 76.871 272.098C83.9467 266.044 120.668 241.499 120.668 241.499C120.668 241.499 116.445 233.314 118.815 230.914C123.367 226.305 136.731 225.564 139.648 226.159C141.6 226.556 143.346 244.546 143.465 246.086Z" fill="white"/>
<path fill-rule="evenodd" clip-rule="evenodd" d="M87.0869 269.718C87.0869 269.718 87.746 271.162 89.8204 271.162C91.8948 271.162 95.7882 263.173 97.8922 258.928C100.018 254.639 99.8936 254.589 103.643 245.534C107.393 236.478 99.9834 222.9 99.9834 222.9C99.9834 222.9 87.8646 221.285 85.804 222.9C82.5749 225.43 84.6361 241.587 84.6361 241.587L87.0869 269.718Z" fill="white"/>
<path d="M145.193 138.386C138.921 136.129 130.665 135.176 124.808 131.992C125.048 131.959 123.556 127.715 124.93 123.364C126.463 118.512 184.268 146.86 187.532 150.057C187.875 150.394 195.907 159.68 192.816 160.306C190.938 160.686 189.739 159.401 182.907 155.647C176.076 151.893 177.21 158.365 176.076 158.515C175.095 158.645 174.711 157.008 174.724 157.243C166.445 148.868 156.274 142.373 145.193 138.386Z" fill="white"/>
<path fill-rule="evenodd" clip-rule="evenodd" d="M176.69 52.9911C178.829 56.3729 179.327 58.4977 179.872 62.4632C176.659 65.075 139.728 88.536 112.967 99.272L113.465 99.2342C117.99 98.872 121.341 98.0769 122.26 96.9643C126.833 113.965 126.73 132.199 121.964 149.147C121.294 151.532 124.077 153.292 126.409 154.201L126.529 154.247C143.06 160.527 158.754 169.003 173.07 179.383C164.853 183.325 157.325 188.702 150.93 195.197L150.25 195.893C147.986 198.227 145.72 200.642 142.779 201.992C139.545 203.477 135.176 203.239 133.041 200.391L136.918 207.558C128.381 212.585 118.76 215.759 108.908 216.803L108.389 216.856C107.332 216.96 106.177 217.015 105.304 216.411C104.678 215.977 104.307 215.276 103.976 214.586L90.9326 187.207C88.5559 182.204 86.2344 177.108 85.3352 171.651C83.3846 159.815 87.8231 147.673 86.0268 135.812C84.1039 123.115 74.903 112.91 69.4357 101.291C67.3306 96.8169 64.2282 90.2838 66.8319 83.1807C69.4357 76.0776 98.964 76.9429 121.964 70.8815C151.665 63.0544 176.31 52.3905 176.69 52.9911Z" fill="white"/>
<ellipse cx="93.4123" cy="56.1757" rx="17.5735" ry="21.2329" fill="white"/>
<path d="M117.335 122.542C116.749 125.077 113.68 126.692 111.245 125.776C110.921 125.654 110.776 125.286 110.669 124.956C109.275 120.63 108.354 116.152 107.928 111.626C107.851 110.807 107.793 109.964 108.027 109.176C108.537 107.458 110.573 106.366 112.286 106.891C113.453 107.248 114.353 108.219 114.902 109.309C115.451 110.399 115.696 111.613 115.935 112.809C116.33 114.785 116.726 116.76 117.121 118.736C117.372 119.992 117.623 121.294 117.335 122.542Z" fill="white"/>
<path d="M105.826 231.492C105.443 231.261 102.446 224.192 103.787 223.382C109.408 219.987 153.312 203.677 158.455 200.66C163.598 197.642 157.371 194.073 157.701 191.748C158.224 188.07 169.547 185.354 169.571 183.488C176.944 188.286 183.946 192.777 189 199.977C190.883 202.66 192.807 207.924 190.979 210.644C189.896 212.255 187.124 213.064 185.273 213.649C170.422 218.343 102.909 236.171 105.826 231.492Z" fill="white"/>
<path d="M79.5664 287.468C78.3221 297.845 75.652 308.051 71.6546 317.708C70.9262 319.468 70.0619 321.318 68.4329 322.304C66.8039 323.291 64.2118 322.872 63.6239 321.06C59.0652 307.014 56.8072 292.224 56.9669 277.457C56.9734 276.858 56.992 276.229 57.2959 275.712C57.7584 274.926 58.7306 274.63 59.6161 274.412C64.1481 273.297 68.764 272.522 73.4118 272.098C73.9272 272.342 72.4321 285.142 79.5664 287.468Z" fill="white"/>
<circle cx="196.457" cy="72.8078" r="24.3521" fill="#FFB61D"/>
<path fill-rule="evenodd" clip-rule="evenodd" d="M180.803 51.4072C181.503 54.4946 182.611 57.5852 185.21 57.1115C188.587 56.4959 181.691 55.2774 227.343 51.0461C227.865 50.9978 226.949 49.9839 226.494 49.7243C224.094 48.3551 221.564 47.1942 218.963 46.264C214.743 44.755 180.403 49.64 180.803 51.4072Z" fill="white"/>
<path fill-rule="evenodd" clip-rule="evenodd" d="M174.724 157.243C166.445 148.867 156.274 142.373 145.193 138.386C138.921 136.129 132.319 134.644 126.463 131.46C126.966 131.391 127.422 131.05 127.633 130.589C143.816 136.147 160.574 142.053 172.797 154.027C173.712 154.923 174.649 155.965 174.724 157.243Z" fill="#00160A"/>
<path fill-rule="evenodd" clip-rule="evenodd" d="M126.387 113.126C128.854 114.039 130.774 115.971 132.795 117.655C143.884 126.894 159.278 129.384 170.867 137.988C169.812 137.71 168.809 137.266 167.811 136.824C157.242 132.137 146.652 127.44 136.599 121.727C132.685 119.503 128.71 116.982 126.387 113.126L126.387 113.126Z" fill="#00160A"/>
<path fill-rule="evenodd" clip-rule="evenodd" d="M74.6607 50.7775C73.5766 46.4763 72.6367 41.9209 73.8513 37.6547C75.0659 33.3885 79.1459 29.6121 83.5328 30.2686C86.5048 30.7133 89.4114 29.3678 92.1434 28.1031L92.2558 28.0511C95.8101 26.4061 99.5713 24.8532 103.485 25.0013C107.399 25.1493 111.496 27.4673 112.489 31.256C112.916 32.8855 112.742 34.6045 112.566 36.2798L111.097 50.2264C110.512 55.7838 109.828 61.6124 106.605 66.1776C103.382 70.7427 96.7228 73.3985 92.028 70.3677C91.3813 72.1806 92.816 74.2021 94.6108 74.8972C96.4057 75.5923 98.4116 75.3212 100.315 75.0321C122.751 71.6231 145.881 66.7209 163.959 53.0024C163.607 50.6284 164.854 48.0987 166.951 46.9311L167.149 46.8204C168.534 46.0462 170.656 44.8605 172.104 45.1616C173.789 45.5123 174.976 47.18 176.068 48.7152C176.34 49.098 176.606 49.4726 176.873 49.8165C179.174 52.7818 179.939 56.6229 180.637 60.311C180.857 61.4754 180.754 63.1272 179.579 63.2834C186.06 63.3927 192.531 64.1207 198.874 65.4543L200.374 61.4701C196.476 55.3263 185.656 55.8897 182.417 62.4051C181.426 61.2227 183.013 59.6284 184.382 58.9178C184.381 58.9163 184.381 58.9149 184.38 58.9135C184.38 58.9135 184.38 58.9135 184.38 58.9136C182.31 55.1997 180.786 51.1827 179.871 47.0309C179.871 47.0312 179.871 47.0315 179.871 47.0317C179.871 47.0315 179.871 47.0312 179.871 47.0309L179.917 47.1299C180.733 48.8805 181.597 50.322 182.461 51.7634C183.341 53.232 184.221 54.7005 185.051 56.496C191.67 53.434 198.609 52.7743 205.863 52.0846L206.079 52.064C206.079 52.0641 206.079 52.0641 206.079 52.0641C206.079 52.0641 206.079 52.0641 206.08 52.0641C203.223 53.1328 201.478 56.546 202.285 59.4873C205.701 59.4157 209.09 58.3363 211.919 56.419C210.13 55.5652 208.759 53.8801 208.287 51.9546C211.682 53.669 214.065 55.5455 212.77 57.0569C210.96 59.169 204.113 60.6742 201.751 60.9648L200.416 65.8616C206.142 67.4553 211.562 70.1394 216.3 73.7275C219.291 75.9921 222.049 80.6317 219.167 83.0329L237.251 83.2937C238.439 83.3108 240.121 84.0925 239.539 85.1285L161.833 85.1689C160.763 85.1695 159.313 83.9666 160.263 83.475C164.611 83.7083 168.981 83.5156 173.291 82.9006C171.562 79.0896 170.978 74.7675 171.635 70.6342C172.628 64.3812 169.535 57.6723 164.136 54.3662C140.444 71.2476 110.145 75.0862 81.2079 78.0716C77.6945 78.4341 73.9329 78.8954 71.2808 81.2282C68.5144 83.6614 67.601 87.6958 68.088 91.3477C68.5749 94.9996 70.2623 98.3699 72.0005 101.618C73.0162 103.517 74.063 105.418 75.1134 107.325L75.1135 107.325C81.6564 119.206 88.3395 131.341 88.5409 144.751C88.5931 148.232 88.1976 151.705 87.8024 155.175C87.3085 159.511 86.8153 163.843 87.1977 168.177C87.8422 175.481 90.9277 182.316 93.969 188.989L104.675 212.477C105.087 213.381 105.535 214.329 106.353 214.892C107.714 215.828 109.553 215.38 111.133 214.898L128.989 209.445C130.74 208.91 132.819 207.991 132.964 206.165C133.044 205.16 132.468 204.232 131.916 203.388L126.987 195.855L138.224 200.141C139.017 200.443 139.851 200.75 140.691 200.634C141.727 200.49 142.557 199.736 143.323 199.025C151.443 191.485 160.315 184.755 169.763 178.967C155.002 167.89 138.234 159.497 120.519 154.321C124.518 135.952 124.625 116.746 120.832 98.334L95.8172 106.287C95.6969 109.35 96.472 112.343 97.2445 115.327L97.2445 115.327L97.2445 115.327L97.2446 115.327C97.4485 116.115 97.6522 116.901 97.8392 117.689C98.7347 121.458 99.222 125.573 97.5883 129.086C95.9546 132.599 91.5066 135.028 88.0597 133.259C92.1612 134.602 96.5381 130.968 97.6293 126.792C98.7205 122.616 97.4858 118.225 96.2586 114.087L93.6703 105.361C121.407 97.1281 147.593 83.6988 170.463 65.9772C156.721 79.3572 139.383 88.3235 122.259 96.9643C126.833 113.965 126.729 132.199 121.964 149.147C121.282 151.573 124.173 153.353 126.528 154.247C143.059 160.527 158.754 169.003 173.07 179.383C164.852 183.325 157.324 188.702 150.93 195.197C150.606 195.526 150.283 195.859 149.96 196.192L149.959 196.193L149.958 196.194C147.79 198.432 145.593 200.7 142.779 201.992C139.544 203.477 135.175 203.239 133.041 200.391L136.918 207.558C128.231 212.673 118.421 215.87 108.388 216.856C107.331 216.96 106.176 217.015 105.303 216.411C104.636 215.948 104.258 215.181 103.909 214.448L91.3517 188.089C88.8333 182.803 86.2867 177.429 85.3346 171.651C84.3484 165.667 85.1224 159.604 85.8967 153.54C86.6538 147.609 87.4113 141.676 86.5232 135.812C85.2601 127.472 80.8569 120.207 76.4342 112.91C74.1238 109.099 71.8082 105.278 69.9321 101.291C67.827 96.8168 66.2424 91.8538 67.0425 86.9745C67.8426 82.0951 71.6273 77.4348 76.5544 77.02C75.3127 70.8422 75.8035 64.3257 77.9565 58.4036C78.0256 64.7419 77.711 71.0844 77.0148 77.3848L93.2801 75.931L88.6621 68.5696C94.5125 72.8152 103.39 69.1617 107.083 62.9478C110.777 56.7339 110.673 49.0465 110.205 41.833C105.449 44.7467 99.2456 45.1491 94.1521 42.8744C91.7875 41.8184 88.9078 43.2406 87.4617 45.3889C86.0155 47.5372 85.6509 50.2114 85.3245 52.7805C84.1979 52.3519 83.9318 51.1461 83.6549 49.891C83.4604 49.0098 83.2606 48.1044 82.754 47.4267C80.9454 45.0074 76.6404 47.6255 76.7489 50.6442C76.8575 53.6628 79.4321 55.9458 81.8768 57.72C78.33 59.0702 75.5883 54.4575 74.6607 50.7775ZM184.38 58.9136C184.294 58.9607 184.291 58.9652 184.382 58.9177C184.381 58.9163 184.38 58.915 184.38 58.9136ZM173.393 47.6677C172.929 47.1282 172.381 46.5725 171.674 46.4912C170.896 46.4016 170.19 46.9119 169.573 47.395L167.29 49.1843C166.51 49.7956 165.707 50.4332 165.243 51.3089C164.779 52.1846 164.746 53.3703 165.435 54.0826C167.796 56.5223 170.192 59.0121 171.721 62.0434C173.249 65.0746 173.804 68.7863 172.363 71.86C171.616 73.453 172.579 75.4484 174.086 76.3565C175.593 77.2647 177.462 77.3158 179.212 77.1345C182.411 76.8029 185.495 75.7909 188.55 74.7853L194.875 72.7032C197.067 71.9815 198.61 69.6481 198.416 67.3482C198.698 66.8727 197.986 66.4394 197.442 66.3404C193.341 65.5947 189.205 65.0434 185.052 64.6889C181.178 64.3582 176.894 64.3213 173.885 66.7834C175.186 64.5274 177.392 62.8108 179.898 62.1049C179.17 56.8032 176.882 51.7252 173.393 47.6677ZM197.712 72.8484C199.79 73.5603 201.234 75.4587 202.228 77.4177C202.585 78.1203 202.902 78.8445 203.218 79.5683C203.784 80.8624 204.349 82.1552 205.141 83.3204C208.464 83.446 211.793 83.4221 215.114 83.2489C215.997 83.2029 216.9 83.1415 217.711 82.7899C218.523 82.4383 219.237 81.7361 219.36 80.8604C219.388 80.6573 219.385 80.4498 219.381 80.243C219.377 79.9386 219.372 79.6355 219.468 79.3494C219.499 79.2582 219.539 79.163 219.579 79.0666C219.725 78.718 219.877 78.3543 219.63 78.1094C214.487 73.0259 208.038 69.2757 201.076 67.3209C200.681 67.21 200.215 67.1181 199.896 67.3765C199.717 67.5218 199.629 67.7482 199.548 67.9642L197.712 72.8484ZM175.683 83.1763L190.011 83.221C190.927 83.2239 191.538 82.3072 191.973 81.5008L196.273 73.5422C193.801 74.0184 191.439 74.8941 189.074 75.7707C187.633 76.3051 186.19 76.8398 184.722 77.2845C180.844 78.4586 176.495 78.9605 172.857 77.1783C172.912 78.8775 173.59 80.5496 174.735 81.8064C174.425 81.9255 174.252 82.316 174.372 82.6255C174.554 83.0972 175.178 83.1747 175.683 83.1763ZM192.206 83.1688C194.908 82.9087 197.629 82.9956 200.342 83.0829L203.381 83.1806C202.509 80.3689 201.162 77.705 199.415 75.3357C199.081 74.883 198.708 74.4215 198.184 74.216C197.661 74.0105 196.953 74.1703 196.739 74.6906C195.521 77.6609 194 80.5065 192.206 83.1688ZM199.701 59.3032C199.939 59.4226 200.208 59.5408 200.462 59.4629C200.836 59.3485 200.964 58.8941 201.034 58.5094L201.774 54.4083C201.815 54.1806 201.851 53.9273 201.725 53.7335C201.525 53.4277 201.059 53.4667 200.73 53.624C200.646 53.6641 200.563 53.7099 200.48 53.7557C200.237 53.8895 199.994 54.0236 199.722 54.0193C197.752 53.9884 195.777 54.4296 194.008 55.2956C195.694 56.9026 197.619 58.258 199.701 59.3032ZM108.766 48.5037L105.579 49.9575C105.323 50.0743 105.023 50.1912 104.772 50.064C104.452 49.9015 104.43 49.417 104.638 49.124C104.846 48.8309 105.199 48.6833 105.532 48.5499L106.921 47.9951C107.278 47.8523 107.654 47.7069 108.036 47.7553C108.417 47.8037 108.794 48.1201 108.766 48.5037ZM97.6502 51.6692C98.1252 51.6347 98.605 51.162 98.4254 50.7209L96.5088 50.3187C94.8975 49.9805 93.0088 49.7107 91.7877 50.815C91.3915 51.1733 91.131 51.853 91.5302 52.2078C92.7931 51.0786 94.6929 50.7166 96.2826 51.3022C96.374 51.3358 96.4654 51.3725 96.5569 51.4093C96.913 51.5524 97.2723 51.6967 97.6502 51.6692ZM103.059 52.9438L102.692 52.3045C102.527 52.2176 102.299 52.2837 102.207 52.4451C101.542 54.4354 101.852 56.7264 103.021 58.4688C103.309 58.8979 102.81 59.5037 102.293 59.5012C101.776 59.4987 101.344 59.1212 100.994 58.7401C100.589 59.4149 101.288 60.3626 102.075 60.3538C102.863 60.3449 103.507 59.6291 103.67 58.8587C103.833 58.0883 103.617 57.2888 103.332 56.5547C103.261 56.3721 103.186 56.1907 103.11 56.0092C102.883 55.4611 102.655 54.9126 102.551 54.3302C102.457 53.8021 102.554 53.1249 103.059 52.9438ZM89.6593 61.612C89.4363 60.565 89.3842 59.1648 90.3731 58.7551C91.1088 58.4503 91.9624 58.9929 92.3339 59.6973C92.6165 60.2332 92.7067 60.8386 92.7966 61.4425L92.7967 61.4427C92.8249 61.6325 92.8532 61.8222 92.8874 62.0095C93.0304 62.7929 93.3378 63.6242 94.0284 64.0208C96.1389 65.2326 98.572 65.8765 101.006 65.8672C98.6489 66.9035 95.9637 65.683 93.6846 64.4854L88.4951 61.7585C88.1582 61.5815 87.764 61.2176 87.9704 60.8978C88.5656 61.0473 89.1375 61.2891 89.6593 61.612ZM91.2088 60.9141C91.326 61.4318 91.3573 61.9688 91.3011 62.4966C91.7382 62.5634 92.1528 62.7697 92.4695 63.0782C92.3576 61.9123 92.0598 60.7645 91.5908 59.6913C91.3332 59.102 90.3309 59.3282 90.1006 59.9287C89.8703 60.5293 90.1569 61.1974 90.4841 61.7512C90.5009 61.3532 90.8174 60.9877 91.2088 60.9141ZM94.6843 160.932C103.183 159.781 111.916 158.554 119.387 154.343C119.71 154.161 120.063 153.724 119.776 153.489C111.494 157.507 102.396 159.832 93.202 160.279C93.2098 160.894 94.0752 161.015 94.6843 160.932ZM102.467 246.511C102.941 245.483 103.312 244.407 103.573 243.306L97.0003 241.839C97.134 241.295 97.8759 241.231 98.4313 241.305C100.245 241.548 102.032 241.997 103.745 242.641L104.967 237.549C105.227 237.407 105.548 237.384 105.826 237.486C104.989 242.167 103.656 246.76 101.858 251.163C101.597 251.802 101.174 252.544 100.483 252.538C100.434 252.131 100.5 251.711 100.671 251.339C99.0164 251.435 97.1716 251.469 95.9292 250.372C97.5582 250.161 99.2234 250.233 100.828 250.583C101.481 249.58 101.982 248.48 102.31 247.329C100.405 247.237 98.516 246.815 96.7526 246.088C96.9335 245.564 97.6681 245.569 98.2121 245.676L102.467 246.511ZM66.521 319.958C62.9942 306.68 60.8309 293.041 60.0759 279.324C60.0103 278.132 60.0011 276.803 60.8007 275.917C61.3524 289.611 63.2899 303.249 66.5742 316.555C66.8536 317.688 67.1243 318.96 66.521 319.958ZM71.5074 296.087C73.4011 295.659 75.3995 295.703 77.2725 296.214L78.1201 292.929C75.8146 292.741 73.5331 292.261 71.3474 291.504C73.679 291.07 76.1428 291.378 78.2964 292.371C77.9282 290.659 78.4136 288.786 79.5664 287.468C78.3221 297.845 75.652 308.051 71.6546 317.708C70.9262 319.468 70.0619 321.318 68.4329 322.305C66.8039 323.291 64.2118 322.872 63.6239 321.06C59.0652 307.014 56.8072 292.224 56.9669 277.458C56.9734 276.858 56.992 276.229 57.2959 275.712C57.7584 274.926 58.7306 274.63 59.6161 274.412C64.1481 273.297 68.764 272.523 73.4118 272.098C73.9272 272.342 73.2506 273.047 72.69 273.153L57.6323 275.986C57.7913 291.044 60.0843 306.077 64.4213 320.497C64.59 321.058 64.7882 321.656 65.2584 322.005C66.4719 322.906 68.0341 321.463 68.8029 320.162C72.3216 314.207 74.8069 307.643 76.115 300.851C74.5163 301.557 72.5815 301.445 71.0746 300.56C72.7827 300.106 74.6037 300.084 76.3225 300.495L77.1773 297.432L71.5074 296.087ZM158.454 197.296C158.458 196.847 158.261 196.42 158.025 196.037C157.416 195.047 156.516 194.24 155.467 193.741C155.01 194.448 155.633 195.33 156.146 195.997C156.659 196.665 157.006 197.796 156.273 198.21L144.015 205.139C143.609 205.368 143.148 205.868 143.462 206.212C146.279 205.859 148.796 204.34 151.216 202.855L156.613 199.545C157.477 199.014 158.445 198.311 158.454 197.296ZM112.034 159.457C112.362 159.363 111.981 158.888 111.641 158.852C111.301 158.817 110.826 158.505 111.084 158.281L112.515 158.338C113.139 158.599 112.933 159.647 112.319 159.931C111.705 160.216 110.987 159.994 110.348 159.77C110.27 160.561 109.412 161.177 108.638 160.999C107.864 160.82 107.362 159.89 107.638 159.145C108.087 158.759 108.759 158.655 109.303 158.886C109.357 159.117 109.118 159.189 108.859 159.266C108.71 159.311 108.554 159.358 108.443 159.439C107.994 159.766 108.644 160.526 109.165 160.333C109.686 160.139 109.893 159.527 110.035 158.99C110.625 159.359 111.34 159.526 112.034 159.457ZM97.3483 53.4906C98.2066 53.3582 98.5813 54.677 98.115 55.4096C97.7175 56.0341 96.8707 56.4273 96.2091 56.0952C96.0183 55.3791 96.1766 54.5785 96.6254 53.9889C96.8072 53.7501 97.0517 53.5363 97.3483 53.4906ZM106.821 54.5863C107.662 54.1225 107.359 52.8569 106.943 51.9912C105.78 52.1384 105.033 53.6427 105.62 54.6582C106.023 54.7316 106.463 54.784 106.821 54.5863ZM103.787 223.382L109.243 220.899C109.688 219.582 109.168 218.001 108.029 217.204C107.996 218.136 108.199 219.076 108.614 219.911C106.26 221.049 103.84 222.047 101.369 222.9C102.74 226.203 103.744 229.658 104.358 233.181C107.656 233.29 110.966 233.037 114.209 232.429L118.018 240.691L102.511 252.223C97.3297 256.076 94.8516 262.485 92.6261 268.547C94.5986 266.736 95.6612 264.196 96.719 261.667C97.8825 258.886 99.04 256.119 101.396 254.351L117.178 242.511C117.749 242.083 118.358 241.6 118.531 240.908C118.693 240.258 118.43 239.586 118.173 238.969L115.316 232.117C123.582 230.858 131.735 228.861 139.647 226.159L141.711 245.462C141.979 247.974 142.199 250.709 140.836 252.836C139.856 254.365 138.212 255.317 136.626 256.2C118.185 266.466 98.9523 275.308 79.1541 282.621L75.4741 273.077C79.0028 270.465 82.6692 268.039 86.4529 265.813C86.4271 267.148 86.4198 268.56 87.0864 269.718C87.7531 270.875 89.3517 271.607 90.4715 270.878C91.7216 270.065 91.5509 268.218 91.2575 266.755C88.4636 252.829 88.0165 238.553 87.5783 224.355C86.4675 239.277 87.5585 254.361 90.8052 268.967C91.0253 269.957 89.4937 270.55 88.6703 269.957C87.8469 269.365 87.6393 268.248 87.5025 267.243C85.6536 253.661 84.8276 239.94 85.0338 226.234C85.0477 225.309 85.1324 224.247 85.8754 223.695C86.3648 223.331 87.0155 223.293 87.6249 223.269L100.499 222.765C96.0594 222.121 91.5409 222.022 87.0776 222.473C86.3537 222.546 85.5809 222.655 85.0401 223.142C84.333 223.778 84.2485 224.839 84.2194 225.79C83.8502 237.83 84.514 249.902 86.2013 261.829C86.5084 264 84.8557 265.989 82.9991 267.155C82.2189 267.645 81.386 268.048 80.554 268.451L80.5539 268.451C79.4061 269.006 78.2601 269.561 77.2568 270.341C75.5263 271.688 74.2825 274.09 75.2197 276.072L79.0386 284.148C98.6498 277.855 117.09 268.432 135.326 258.86C138.432 257.23 141.781 255.324 143.015 252.041C143.721 250.162 143.618 248.087 143.463 246.086C142.94 239.297 141.937 232.546 140.465 225.898C155.482 221.764 170.422 217.349 185.273 212.654C187.124 212.069 189.113 211.379 190.195 209.768C192.024 207.047 190.323 203.396 188.44 200.714C183.386 193.513 176.943 187.292 169.571 182.494C169.547 184.36 171.25 185.719 172.741 186.841C177.956 190.767 182.56 195.504 186.336 200.829C187.94 203.091 189.367 206.301 187.594 208.432C186.798 209.388 185.552 209.819 184.369 210.206C158.357 218.702 131.952 225.995 105.267 232.052L103.787 223.382ZM223.452 157.96C224.032 159.087 224.936 160.456 226.174 160.187C223.553 154.789 219.854 149.916 215.358 145.94L228.273 134.298L227.089 154.265C227.005 155.693 226.934 157.195 227.564 158.479C228.771 158.08 228.983 156.492 228.991 155.221C229.148 132.236 233.064 109.28 240.534 87.5428C239.754 86.4378 238.191 86.3117 236.838 86.3052C230.673 86.2759 224.512 86.557 218.351 86.8381C211.47 87.152 204.59 87.466 197.705 87.3472C194.415 87.2904 191.118 87.1354 187.821 86.9805L187.821 86.9804L187.821 86.9804C178.97 86.5644 170.119 86.1483 161.414 87.6317C161.282 87.6542 161.146 87.6789 161.036 87.7547C160.702 87.9848 160.801 88.4941 160.936 88.8763C166.31 104.091 170.015 119.895 171.964 135.913C172.246 138.235 174.299 139.875 176.19 141.252L183.709 146.726C184.777 147.503 186.616 148.101 187.124 146.881C187.486 146.012 188.582 145.641 189.507 145.818C190.432 145.996 191.216 146.59 191.937 147.195C196.152 150.73 199.529 155.258 201.716 160.306L214.096 146.886C217.995 149.811 221.22 153.628 223.452 157.96ZM195.363 97.5795C201.78 97.7144 208.22 95.4651 213.157 91.3644C213.898 90.7493 214.609 90.0905 215.196 89.3279C215.709 88.6618 216.592 87.8371 217.219 88.3975C216.618 90.8643 216.524 93.4535 216.946 95.9572C217.266 97.8565 215.576 99.4375 214.054 100.618L209.448 104.192C208.298 105.084 207.117 105.992 205.731 106.435C204.345 106.877 202.688 106.766 201.617 105.781L193.626 98.4308C193.023 97.8761 192.404 97.2992 192.072 96.5499C191.804 95.9437 191.744 95.2686 191.7 94.6071C191.563 92.5299 191.548 90.4446 191.655 88.3656C194.102 88.8268 196.614 88.7532 199.103 88.6778L205.522 88.4835C205.956 88.4704 206.398 88.4583 206.814 88.58C207.199 88.6926 207.542 88.9141 207.879 89.1326L211.734 91.6346C210.73 91.5618 209.958 92.2643 209.179 92.9736L209.179 92.9737C208.835 93.2866 208.49 93.6007 208.123 93.8503C207.364 94.3663 206.459 94.6165 205.568 94.8364C204.149 95.1866 202.716 95.4815 201.274 95.7203C198.523 96.1758 195.686 96.4238 192.96 95.8356C192.669 96.9447 194.217 97.5554 195.363 97.5795ZM186.569 122.034C186.987 121.711 187.434 121.376 187.959 121.313C188.493 121.248 189.015 121.476 189.495 121.719C194.626 124.31 198.327 128.99 201.857 133.527C198.203 135.503 194.896 138.121 192.134 141.224L192.067 141.299C191.62 141.803 191.159 142.321 190.545 142.592C189.9 142.876 189.029 142.789 188.641 142.201C185.451 137.36 181.432 133.067 176.811 129.566L186.569 122.034ZM190.16 119.472C193.923 116.52 197.813 113.728 201.814 111.107C202.224 110.839 202.656 110.565 203.143 110.522C203.674 110.475 204.186 110.71 204.659 110.957C209.158 113.303 212.77 117.304 214.646 122.019C210.516 124.496 206.811 127.679 203.739 131.388C203.39 131.809 202.718 132.247 202.386 131.812C198.869 127.191 194.748 123.031 190.16 119.472ZM220.226 126.612C222.613 128.74 225.187 130.659 227.907 132.341C222.725 135.681 218.133 139.933 214.407 144.844C211.756 140.77 208.509 137.084 204.801 133.941C204.618 133.785 204.42 133.609 204.387 133.37C204.351 133.104 204.532 132.862 204.704 132.656C208.294 128.363 212.719 124.77 217.657 122.138C217.515 123.918 218.893 125.425 220.226 126.612ZM174.721 88.4211C175.71 88.3836 176.838 88.4146 177.493 89.1572C180.942 93.0707 185.663 95.8455 190.76 96.9559C187.346 100.372 183.478 103.334 179.29 105.738C178.611 106.128 177.785 105.61 177.185 105.109C171.73 100.55 166.874 95.2748 162.782 89.4617C166.741 88.9199 170.728 88.5725 174.721 88.4211ZM191.863 145.08C194.139 141.002 197.866 137.753 202.216 136.053C203.672 135.484 205.197 136.628 206.305 137.732C208.702 140.122 210.898 142.714 212.861 145.472C212.971 145.626 213.083 145.791 213.094 145.979C213.118 146.394 212.669 146.655 212.299 146.845C210.1 147.978 208.623 149.989 207.136 152.014C205.988 153.577 204.834 155.148 203.337 156.332C203.188 156.45 203.025 156.568 202.836 156.586C202.518 156.616 202.252 156.361 202.036 156.126L191.863 145.08ZM218.022 99.9354C221.514 103.701 225.59 106.924 230.058 109.455C225.528 112.346 221.378 115.833 217.749 119.797C217.226 120.368 216.325 119.709 215.847 119.1C212.721 115.117 208.98 111.619 204.798 108.766C209.569 106.936 213.8 103.725 216.848 99.6236C217.125 99.2498 217.705 99.5939 218.022 99.9354ZM203.105 108.877C197.808 110.839 193.034 114.193 189.392 118.512C186.602 114.313 182.65 111.044 178.757 107.841C183.443 105.461 187.797 102.428 191.652 98.8562C195.208 102.48 199.04 105.833 203.105 108.877ZM230.067 90.6224C231.699 89.4785 233.414 88.301 235.388 88.0312C236.451 87.886 237.529 88.0145 238.593 88.1494C236.053 94.9959 233.993 102.02 232.433 109.154C227.737 106.295 223.355 102.922 219.391 99.1141C219.278 99.0055 219.16 98.8882 219.123 98.736C219.043 98.4113 219.352 98.1336 219.626 97.9418L230.067 90.6224ZM176.315 128.339C175.511 127.187 174.426 126.232 173.181 125.583L173.097 125.539C172.822 125.398 172.541 125.253 172.356 125.008C172.198 124.798 172.128 124.537 172.061 124.283C171.49 122.11 170.914 119.855 171.296 117.641C171.801 114.71 173.886 112.336 175.938 110.183C176.19 109.918 176.465 109.641 176.823 109.561C177.203 109.476 177.591 109.633 177.944 109.799C182.173 111.794 185.313 115.522 187.99 119.357C183.488 121.42 179.463 124.517 176.315 128.339ZM218.959 122.361C219.21 120.445 220.519 118.845 221.898 117.491C224.782 114.658 228.218 112.389 231.955 110.847L228.764 131.091C224.907 128.95 221.532 125.945 218.959 122.361ZM175.219 129.214C175.298 129.548 175.016 129.848 174.76 130.075L173.52 131.172C173.568 131.472 174.001 131.515 174.273 131.38C174.355 131.34 174.435 131.29 174.514 131.241C174.698 131.125 174.882 131.011 175.094 131.012C175.291 131.014 175.472 131.118 175.64 131.221C180.539 134.205 184.694 138.401 187.631 143.329C187.816 143.639 188.002 143.971 187.997 144.332C187.991 144.852 187.601 145.276 187.236 145.645C186.411 146.478 185.061 147.34 184.206 146.538C181.434 143.937 178.338 141.68 175.013 139.836C174.292 139.436 174.102 138.505 173.987 137.69L172.461 126.885C173.357 127.42 174.188 128.062 174.932 128.794C175.054 128.915 175.18 129.047 175.219 129.214ZM165.86 96.1564C169.431 99.9436 173.128 103.612 176.942 107.155C174.369 109.614 171.716 112.194 170.479 115.531L165.239 95.9316C165.466 95.9043 165.703 95.9903 165.86 96.1564ZM218.197 94.4578C218.029 92.3489 217.901 90.0688 219.041 88.2862L231.409 88.5977L218.454 97.6806L218.197 94.4578ZM190.415 95.9275L187.986 94.856L188.044 94.1987C187.679 94.5255 187.259 94.2259 186.811 93.9071C186.412 93.6228 185.992 93.3233 185.571 93.4395C185.47 93.4673 185.357 93.511 185.243 93.5552C184.885 93.6936 184.513 93.8372 184.471 93.5129C184.453 93.3815 184.544 93.2631 184.63 93.1619L187.702 89.5284C188.064 89.1008 188.456 88.6528 188.991 88.4892C189.527 88.3257 190.232 88.5949 190.316 89.1486C190.654 91.39 190.688 93.6772 190.415 95.9275ZM185.821 88.7154C186.036 88.4747 186.484 88.5179 186.649 88.7952C186.084 90.2425 185.069 91.5106 183.782 92.3797C183.412 92.6289 182.754 92.7443 182.656 92.3096C182.54 91.7922 181.935 91.6834 181.375 91.5826C181.257 91.5612 181.14 91.5402 181.031 91.5158C179.8 91.2413 178.934 89.8642 179.22 88.6361C180.523 87.9994 182.034 88.0024 183.485 88.0184C184.323 88.0277 185.269 88.0837 185.821 88.7154ZM214.13 88.8575C213.671 89.1515 213.35 89.6508 213.272 90.19C211.734 90.2041 210.202 89.5396 209.161 88.407C210.24 88.1985 211.394 88.4045 212.334 88.9733C212.748 88.436 213.65 88.3779 214.13 88.8575ZM227.377 51.305C226.058 48.9953 218.737 45.4637 213.421 44.377C202.211 42.0854 190.399 42.8057 179.55 46.4426C188.499 42.1994 199.269 41.6425 209.492 42.6567C218.653 43.5653 231.261 51.4296 228.154 52.1288C225.553 52.7143 214.861 52.1288 209.16 50.754C212.202 49.8595 218.535 50.595 222.874 51.099C225.623 51.4182 227.571 51.6445 227.377 51.305Z" fill="#00160A"/>
<path fill-rule="evenodd" clip-rule="evenodd" d="M68.0211 291.983C68.3699 292.724 68.5165 293.559 68.4409 294.374C67.6392 293.778 66.9029 293.095 66.2495 292.339C65.613 292.871 64.8307 293.227 64.0115 293.357C63.9286 292.515 64.4314 291.647 65.2029 291.3C64.2155 290.967 63.0069 290.27 63.2389 289.254C64.191 289.264 65.1412 289.434 66.0372 289.756C66.0285 288.872 66.4802 287.996 67.2054 287.491C67.4141 288.428 67.6228 289.365 67.8315 290.302C68.3796 290.537 68.9552 290.708 69.5428 290.81C69.2251 291.387 68.6601 291.823 68.0211 291.983L68.0211 291.983Z" fill="#FFB61D"/>
<path fill-rule="evenodd" clip-rule="evenodd" d="M93.921 242.785C93.0377 242.544 92.2394 242.002 91.6898 241.27C91.1061 241.709 90.3801 241.956 89.6496 241.964C89.8628 241.398 90.1908 240.877 90.6076 240.44C89.9649 239.868 89.3735 239.239 88.8428 238.562C89.7299 237.915 91.2285 239.421 91.9507 238.594C92.1737 238.338 92.1825 237.966 92.3002 237.648C92.4179 237.33 92.7928 237.034 93.0726 237.226C93.411 237.827 93.5515 238.537 93.4674 239.222C93.9604 239.378 94.4533 239.534 94.9463 239.691C94.9284 240.265 94.2722 240.721 93.7279 240.538C93.7923 241.287 93.8566 242.036 93.921 242.785H93.921Z" fill="#FFB61D"/>
<path fill-rule="evenodd" clip-rule="evenodd" d="M182.104 149.116C182.598 148.684 183.363 149.022 183.903 149.394C187.543 151.895 190.329 155.425 193.056 158.9C193.324 159.241 193.607 159.637 193.542 160.066C193.477 160.494 192.828 160.777 192.604 160.406C190.241 156.485 187.083 153.046 183.377 150.359C182.892 150.007 182.38 149.648 182.104 149.116L182.104 149.116Z" fill="#00160A"/>
<path fill-rule="evenodd" clip-rule="evenodd" d="M91.2091 60.9142C91.3262 61.4319 91.3576 61.9689 91.3014 62.4967C91.7384 62.5634 92.153 62.7698 92.4697 63.0782C92.3579 61.9124 92.0601 60.7645 91.591 59.6913C91.3334 59.102 90.3311 59.3282 90.1008 59.9288C89.8705 60.5293 90.1571 61.1975 90.4843 61.7512C90.5011 61.3532 90.8176 60.9877 91.2091 60.9142Z" fill="#FFB61D"/>
<path fill-rule="evenodd" clip-rule="evenodd" d="M190.028 159.02C186.718 157.142 183.262 155.522 179.702 154.18C178.919 153.885 177.944 154.248 177.546 154.984C177.05 154.623 177.343 153.752 177.908 153.514C178.473 153.277 179.118 153.463 179.698 153.66C182.796 154.706 185.814 155.988 188.718 157.49C189.351 157.817 190.07 158.309 190.028 159.02H190.028Z" fill="#00160A"/>
<path fill-rule="evenodd" clip-rule="evenodd" d="M175.439 148.532C176.495 151.465 176.892 154.634 176.591 157.737C176.558 158.078 176.418 158.513 176.076 158.515C175.68 158.517 175.584 157.968 175.612 157.573C175.836 154.319 175.408 151.022 174.36 147.934C174.64 147.502 175.264 148.047 175.439 148.532H175.439Z" fill="#00160A"/>
<path fill-rule="evenodd" clip-rule="evenodd" d="M191.79 155.647C190.086 153.653 188.383 151.659 186.679 149.664C186.475 149.425 186.263 149.079 186.448 148.825C188.692 150.68 190.528 153.024 191.79 155.647Z" fill="#00160A"/>
<path fill-rule="evenodd" clip-rule="evenodd" d="M1.02305 157.803C0.748209 157.637 0.596072 157.29 0.660019 156.975C0.838782 156.789 1.17639 156.794 1.34955 156.985C1.51504 157.292 1.3592 157.727 1.03616 157.859L1.02305 157.803Z" fill="#00160A"/>
<path fill-rule="evenodd" clip-rule="evenodd" d="M182.927 0.658955C182.725 0.689614 182.523 0.720272 182.321 0.75093C182.21 0.567003 182.167 0.343113 182.202 0.13124C182.377 0.0173587 182.597 -0.0253583 182.802 0.0147192C182.917 0.187715 182.958 0.408166 182.912 0.610722L182.927 0.658955Z" fill="#00160A"/>
<path fill-rule="evenodd" clip-rule="evenodd" d="M126.924 138.517C125.745 143.617 119.571 146.867 114.671 145.024C114.019 144.779 113.726 144.038 113.513 143.375C110.707 134.671 108.854 125.659 107.997 116.554C107.842 114.905 107.724 113.209 108.195 111.622C109.221 108.166 113.318 105.968 116.765 107.024C119.113 107.744 120.924 109.697 122.028 111.89C123.133 114.084 123.626 116.526 124.108 118.934C124.903 122.909 125.698 126.884 126.494 130.859C126.999 133.386 127.504 136.006 126.924 138.517ZM115.887 143.321C116.656 143.988 117.78 144.083 118.782 143.903C123.074 143.132 125.43 138.189 125.29 133.831C125.149 129.472 123.275 125.378 122.323 121.122C121.66 118.158 121.408 115.004 119.825 112.412C118.242 109.821 114.682 108.069 112.112 109.688C109.518 111.322 109.544 115.055 109.957 118.092C111.006 125.811 112.588 133.457 114.688 140.958C114.93 141.822 115.21 142.734 115.887 143.321Z" fill="#FFB61D"/>
<path fill-rule="evenodd" clip-rule="evenodd" d="M118.735 135.909C117.829 136.49 116.556 136.101 115.818 135.318C115.079 134.535 114.748 133.462 114.455 132.425C112.721 126.28 111.518 119.984 110.865 113.632C110.776 112.761 110.702 111.847 111.041 111.04C111.38 110.232 112.27 109.585 113.112 109.825C113.934 110.059 114.336 110.963 114.622 111.768C116.986 118.42 118.667 125.315 119.632 132.308C119.811 133.606 119.837 135.2 118.735 135.909ZM112.268 110.979C112.434 118.622 113.861 126.235 116.474 133.419C116.772 134.24 117.605 135.232 118.304 134.708C117.805 126.513 115.745 118.417 112.268 110.979Z" fill="#FFB61D"/>
<path fill-rule="evenodd" clip-rule="evenodd" d="M200.373 61.4699L198.874 65.4541C198.536 65.3831 198.139 65.2965 197.691 65.1988L197.691 65.1987L197.691 65.1986L197.691 65.1986C193.641 64.3149 185.463 62.5301 179.898 63.3138C174.517 64.0714 172.097 67.7239 171.634 70.634C170.978 74.7672 171.562 79.0894 173.291 82.9004C172.642 82.993 173.365 83.0626 175.04 83.1139C175.248 83.1621 175.476 83.1756 175.683 83.1762L178.904 83.1862C185.426 83.2629 196.222 83.2442 205.058 83.1973L205.083 83.2344C205.102 83.2631 205.121 83.2918 205.141 83.3204C208.464 83.4459 211.793 83.4221 215.113 83.2489C215.61 83.223 216.113 83.1923 216.602 83.1078C219.18 83.0776 220.327 83.0494 219.166 83.0327C222.048 80.6315 219.29 75.9919 216.3 73.7273C211.562 70.1392 206.141 67.4551 200.416 65.8614L201.75 60.9646C205.803 60.466 209.752 59.1346 213.279 57.0771C214.316 59.4408 216.296 55.9993 208.287 51.9543C208.758 53.8799 210.129 55.565 211.918 56.4188C209.09 58.3361 205.701 59.4155 202.285 59.4871C201.478 56.5458 203.223 53.1326 206.079 52.0639C201.23 52.0639 190.726 54.9674 185.291 57.8498C182.362 59.4031 182.07 61.9908 182.417 62.4049C185.655 55.8895 196.476 55.3261 200.373 61.4699ZM216.602 83.1078C216.983 83.0421 217.356 82.9438 217.711 82.7899C218.522 82.4383 219.237 81.736 219.359 80.8604C219.388 80.6572 219.385 80.4498 219.381 80.2429C219.376 79.9385 219.371 79.6354 219.468 79.3494C219.499 79.2582 219.539 79.163 219.579 79.0667L219.579 79.0666L219.579 79.0666C219.725 78.7179 219.877 78.3543 219.629 78.1094C214.487 73.0259 208.038 69.2757 201.076 67.3208C200.681 67.21 200.215 67.1181 199.896 67.3764C199.717 67.5218 199.628 67.7482 199.547 67.9641L197.711 72.8483C199.79 73.5602 201.234 75.4587 202.228 77.4176C202.585 78.1202 202.901 78.8444 203.218 79.5682C203.764 80.8169 204.309 82.0644 205.058 83.1973C209.785 83.1721 213.95 83.1389 216.602 83.1078ZM178.904 83.1862L190.01 83.2209C190.927 83.2237 191.537 82.3071 191.973 81.5007L196.272 73.5421C193.801 74.0183 191.439 74.894 189.074 75.7706L189.074 75.7706C187.632 76.305 186.19 76.8397 184.721 77.2844C180.844 78.4585 176.495 78.9604 172.856 77.1782C172.911 78.8773 173.59 80.5494 174.735 81.8063C174.425 81.9254 174.252 82.3159 174.372 82.6253C174.479 82.9035 174.74 83.0446 175.04 83.1139C176.026 83.1441 177.342 83.1679 178.904 83.1862ZM174.086 76.3564C172.579 75.4483 171.615 73.4529 172.362 71.8599C175.457 65.2618 177.79 64.0689 185.051 64.6888C189.204 65.0433 193.341 65.5946 197.441 66.3403C197.986 66.4393 198.698 66.8726 198.415 67.348C198.61 69.648 197.067 71.9814 194.874 72.7031L188.549 74.7852C185.495 75.7908 182.411 76.8028 179.212 77.1343C177.462 77.3157 175.593 77.2646 174.086 76.3564ZM192.204 83.1687C194.906 82.9085 197.627 82.9955 200.34 83.0828L203.379 83.1805C202.507 80.3688 201.16 77.7049 199.413 75.3355C199.079 74.8829 198.706 74.4214 198.182 74.2159C197.659 74.0103 196.95 74.1702 196.737 74.6905C195.519 77.6608 193.998 80.5064 192.204 83.1687ZM200.462 59.4628C200.207 59.5407 199.938 59.4225 199.7 59.3031C197.619 58.2579 195.694 56.9025 194.008 55.2955C195.777 54.4295 197.752 53.9883 199.721 54.0192C199.993 54.0235 200.237 53.8894 200.479 53.7556C200.562 53.7098 200.645 53.664 200.73 53.6239C201.059 53.4666 201.525 53.4276 201.725 53.7334C201.851 53.9272 201.815 54.1805 201.773 54.4082L201.033 58.5092C200.964 58.894 200.836 59.3484 200.462 59.4628Z" fill="white"/>
</svg>
