<svg width="337" height="244" viewBox="0 0 337 244" fill="none" xmlns="http://www.w3.org/2000/svg">
<path fill-rule="evenodd" clip-rule="evenodd" d="M318.85 178.614C294.487 227.745 189.057 270.036 84.2877 224.629C24.026 198.511 1.23077 135.576 0.0371524 106.466C-0.901501 83.574 16.1646 59.167 26.4674 48.6805C48.3672 26.3902 165.244 -1.37314 191.94 0.0527579C229.628 -1.00465 253.139 31.7038 282.804 33.2634C303.896 34.3724 367.056 81.4021 318.85 178.614Z" fill="#FF565E"/>
<path fill-rule="evenodd" clip-rule="evenodd" d="M171.991 102.922C171.868 104.749 172.018 106.593 172.434 108.376C172.609 109.128 173.737 109.267 174.324 108.765C174.91 108.263 175.066 107.428 175.129 106.659C175.223 105.521 175.193 104.374 175.04 103.243C174.961 102.658 174.84 102.055 174.488 101.582C174.135 101.11 173.491 100.807 172.94 101.018C172.239 101.287 172.041 102.173 171.991 102.922Z" fill="white"/>
<path fill-rule="evenodd" clip-rule="evenodd" d="M83.2644 58.0979C89.7034 54.9091 97.3926 54.3378 104.232 56.5401C105.951 53.2383 108.482 50.3634 111.54 48.2408C112.13 47.8313 112.974 47.4615 113.505 47.9452C113.291 51.3381 113.077 54.7412 113.277 58.135C113.434 60.7767 113.84 63.4033 113.878 66.0494C113.985 73.6969 110.987 81.1043 106.908 87.5744C116.7 94.1601 124.082 104.249 127.395 115.575C126.01 116.29 89.7507 117.55 70.1376 115.982C69.6834 116.29 69.2584 115.546 69.2065 115C68.6816 109.474 68.387 103.848 69.5334 98.417C70.6799 92.9861 73.4199 87.7073 77.9463 84.4947C73.7455 75.3488 75.3791 64.1287 70.2544 55.4667C69.9501 54.9524 69.6939 54.1501 70.2267 53.8793C70.4242 53.7789 70.6603 53.81 70.8788 53.8471C74.4522 54.4533 77.8571 56.0248 80.6367 58.3508C81.3537 58.9507 82.4266 58.5128 83.2644 58.0979Z" fill="white"/>
<path fill-rule="evenodd" clip-rule="evenodd" d="M222.21 115.015C222.185 115.015 225.933 109.396 228.231 106.782C230.329 104.396 231.559 101.261 231.644 98.0845C224.389 97.7977 217.169 96.5989 210.21 94.5253C209.145 94.2079 208.047 93.8477 207.239 93.084C205.354 91.3009 205.82 88.1915 206.793 85.7856C207.973 82.8653 209.687 80.162 211.826 77.8498C212.557 77.0593 213.35 76.2959 213.829 75.3314C214.308 74.3669 214.409 73.1261 213.763 72.2646C212.674 70.813 212.444 68.9062 212.331 67.0951C212.218 65.284 212.166 63.4011 211.343 61.7836C210.521 60.1661 208.652 58.9088 206.917 59.4391C206.496 58.7965 207.328 58.0548 208.06 57.8222C210.824 56.9439 213.921 57.7129 216.344 59.307C218.767 60.9011 220.606 63.2386 222.185 65.6716C222.802 66.6216 223.845 67.7373 224.85 67.2153C231.714 63.651 240.092 63.1315 247.344 65.8205C248.352 66.1942 249.902 66.3543 250.107 65.2991C251.131 60.044 255.516 55.6055 260.759 54.5194C258.699 55.9969 258.574 59.0027 258.986 61.5043C259.399 64.0059 260.125 66.6709 259.097 68.9882C258.267 70.8587 260.358 72.617 262.051 73.7661C264.608 75.5015 266.895 77.6347 268.804 80.0655C270.692 82.4705 272.266 85.5613 271.403 88.495C270.274 92.3354 265.755 93.8556 261.866 94.8037C258.069 95.7293 254.273 96.6549 250.476 97.5804C250.406 101.284 251.729 104.998 254.123 107.824C256.044 110.091 258.836 112.427 258.225 115.335C259.504 117.363 247.499 117.256 222.21 115.015Z" fill="white"/>
<path fill-rule="evenodd" clip-rule="evenodd" d="M231.322 165.1C232.63 165.91 234.08 166.879 235.576 166.518C239.039 165.683 242.746 165.893 246.093 167.113C247.502 167.627 248.779 166.17 249.661 164.958C252.224 161.44 255.575 158.5 259.397 156.416C262.031 160.742 259.362 166.727 261.653 171.244C265.199 178.234 264.257 187.263 259.345 193.371C264.5 198.408 268.005 205.107 269.204 212.214C268.591 212.394 237.192 216.289 219.951 211.616C219.76 206.607 221.566 201.55 224.886 197.795C219.957 191.989 217.552 184.112 218.399 176.543C218.487 175.755 218.6 174.915 218.249 174.205C216.41 170.48 215.143 166.474 214.507 162.369C214.469 162.124 214.437 161.855 214.567 161.644C214.739 161.363 215.114 161.302 215.443 161.275C220.962 160.825 226.613 162.187 231.322 165.1Z" fill="white"/>
<path fill-rule="evenodd" clip-rule="evenodd" d="M81.9883 212.894C82.6157 209.139 83.2431 205.383 83.8705 201.627C84.0333 200.652 84.0105 199.346 83.0706 199.041C80.1395 198.088 77.6627 195.823 76.4536 192.988C76.0727 192.095 74.8973 191.777 73.9626 192.039C73.028 192.302 72.2823 192.99 71.5751 193.655C71.9784 192.078 73.4272 190.826 75.0457 190.655C75.5952 189.729 74.8084 188.45 73.7659 188.181C72.7233 187.912 71.6254 188.382 70.7548 189.015C70.6869 188.012 71.908 187.521 72.8333 187.127C73.7586 186.732 74.6622 185.487 73.8733 184.863C73.5295 184.592 73.0405 184.64 72.6065 184.702C71.3519 184.881 70.0974 185.061 68.8428 185.24C68.9854 184.23 70.298 183.971 71.3152 183.893C72.3324 183.815 73.6457 183.319 73.5325 182.305C73.0965 178.398 74.0425 174.436 75.6215 170.836C76.9297 167.854 73.08 164.866 73.3327 161.619C73.3522 161.368 73.412 161.093 73.6149 160.942C73.8571 160.763 74.1961 160.835 74.4839 160.924C76.4658 161.535 78.3035 162.609 79.8092 164.036C80.5401 164.728 81.7175 164.256 82.6368 163.846C86.0277 162.332 90.002 162.176 93.5016 163.417C96.6617 164.538 99.4646 159.13 102.596 160.328C101.797 162.959 100.998 165.59 100.198 168.22C99.9777 168.946 99.7691 169.779 100.17 170.423C101.521 172.593 102.34 175.091 102.536 177.639C102.674 179.434 103.022 181.859 104.816 182C104.035 182.343 103.173 182.772 102.902 183.582C102.631 184.392 103.556 185.46 104.257 184.972C104.861 184.55 105.838 184.902 106.035 185.612C104.999 185.511 103.876 185.624 103.066 186.278C102.257 186.931 101.939 188.254 102.625 189.036C104.131 188.416 105.909 188.497 107.352 189.252C106.492 189.884 105.311 189.697 104.246 189.634C103.18 189.57 101.883 189.816 101.506 190.815C100.248 194.147 97.1556 196.718 93.6499 197.348C91.9229 197.658 91.646 199.994 91.7884 201.742C92.087 205.411 92.3857 209.08 92.6843 212.748C92.0692 213.332 84.9279 214.142 81.9883 212.894Z" fill="white"/>
<path fill-rule="evenodd" clip-rule="evenodd" d="M34.1976 197.138C34.0752 198.965 34.225 200.809 34.6406 202.592C34.8159 203.344 35.9441 203.483 36.5305 202.981C37.1169 202.479 37.2732 201.644 37.3364 200.874C37.4298 199.737 37.3998 198.59 37.2472 197.459C37.1684 196.874 37.0472 196.271 36.6948 195.798C36.3423 195.326 35.6979 195.023 35.1472 195.234C34.4458 195.503 34.2478 196.389 34.1976 197.138Z" fill="white"/>
<path fill-rule="evenodd" clip-rule="evenodd" d="M176.027 207.207C176.245 207.33 176.214 207.683 176.03 207.852C175.845 208.022 175.578 208.059 175.329 208.088C174.459 208.188 173.503 208.268 172.783 207.771C173.149 207.51 173.515 207.249 173.881 206.987C173.651 206.657 173.199 206.59 172.8 206.542C172.4 206.493 171.945 206.397 171.75 206.045C171.556 205.692 171.98 205.132 172.3 205.376C173.287 206.132 174.738 206.218 175.808 205.584C176.512 205.167 177.178 204.443 177.981 204.6C177.42 205.693 176.308 206.485 175.092 206.658C175.12 207.083 175.642 207.39 176.027 207.207Z" fill="#00160A"/>
<path fill-rule="evenodd" clip-rule="evenodd" d="M36.4314 206.638C35.5612 206.739 34.6036 206.819 33.883 206.321C34.252 206.059 34.6211 205.797 34.9901 205.535C34.7359 205.214 34.2797 205.159 33.8736 205.103C33.4675 205.047 33.0055 204.922 32.8373 204.548C32.6691 204.175 33.1722 203.652 33.4591 203.944C34.1643 204.664 35.3359 204.709 36.2888 204.383C37.2416 204.056 38.0549 203.426 38.9237 202.917C38.9459 204.202 37.4404 204.879 36.2013 205.223C36.2301 205.642 36.7489 205.942 37.1265 205.758C37.3458 205.879 37.3158 206.232 37.1316 206.402C36.9474 206.572 36.6804 206.609 36.4314 206.638Z" fill="#00160A"/>
<path fill-rule="evenodd" clip-rule="evenodd" d="M34.5309 204.099C33.1696 203.592 32.8955 201.82 32.8395 200.368C32.8025 199.408 32.7655 198.448 32.7285 197.487C32.7078 196.95 32.6886 196.4 32.8474 195.886C33.1123 195.028 33.8993 194.355 34.7878 194.227C35.6764 194.099 36.6214 194.522 37.1179 195.27C37.4016 195.697 37.5399 196.203 37.6484 196.705C37.8797 197.774 37.9952 198.868 37.9923 199.962C37.9895 201.023 37.859 202.13 37.2705 203.012C36.6821 203.894 35.5244 204.469 34.5309 204.099H34.5309ZM35.7506 203.3C36.4551 203.078 36.714 202.228 36.8139 201.496C36.9872 200.225 37.0018 198.933 36.8572 197.66C36.7844 197.018 36.6593 196.353 36.2648 195.842C35.8702 195.331 35.1319 195.033 34.5563 195.325C33.8425 195.687 33.7604 196.656 33.7738 197.457C33.7912 198.5 33.8086 199.543 33.826 200.585C33.8368 201.234 33.8542 201.91 34.1548 202.485C34.4553 203.06 35.1317 203.495 35.7506 203.3Z" fill="#00160A"/>
<path fill-rule="evenodd" clip-rule="evenodd" d="M172.726 195.453C173.694 194.835 175.065 195.279 175.794 196.166C176.523 197.053 176.741 198.251 176.808 199.397C176.847 200.062 176.844 200.728 176.799 201.392C176.736 202.324 176.577 203.284 176.061 204.063C175.544 204.841 174.591 205.393 173.678 205.193C172.893 205.021 172.301 204.337 172.017 203.586C171.733 202.835 171.706 202.015 171.682 201.212C171.659 200.448 171.636 199.684 171.613 198.919C171.574 197.647 171.654 196.138 172.726 195.453ZM173.877 204.314C174.405 204.445 174.964 204.121 175.265 203.668C175.565 203.214 175.657 202.657 175.714 202.116C175.838 200.925 175.824 199.719 175.67 198.531C175.592 197.923 175.466 197.294 175.092 196.808C174.717 196.323 174.027 196.03 173.47 196.287C172.802 196.595 172.651 197.464 172.618 198.2C172.556 199.592 172.602 200.99 172.753 202.376C172.84 203.169 173.103 204.123 173.877 204.314Z" fill="#00160A"/>
<path fill-rule="evenodd" clip-rule="evenodd" d="M172.609 198.099C172.486 199.926 172.636 201.771 173.052 203.553C173.227 204.305 174.355 204.444 174.942 203.942C175.528 203.44 175.684 202.605 175.748 201.836C175.841 200.698 175.811 199.551 175.658 198.42C175.58 197.835 175.458 197.232 175.106 196.76C174.753 196.287 174.109 195.984 173.558 196.195C172.857 196.464 172.659 197.35 172.609 198.099Z" fill="white"/>
<path fill-rule="evenodd" clip-rule="evenodd" d="M170.672 110.17C170.772 109.842 171.195 109.723 171.528 109.801C171.862 109.879 172.146 110.092 172.461 110.227C173.637 110.731 174.983 110.076 175.983 109.278C176.318 109.01 176.858 108.74 177.111 109.087C176.509 110.11 175.436 110.843 174.263 111.032C174.299 111.452 174.813 111.751 175.196 111.576C175.413 111.699 175.38 112.049 175.197 112.217C175.013 112.385 174.748 112.422 174.501 112.45C173.638 112.551 172.693 112.633 171.968 112.153C172.355 111.849 172.741 111.545 173.128 111.241C172.231 111.12 171.37 110.745 170.672 110.17Z" fill="#00160A"/>
<path fill-rule="evenodd" clip-rule="evenodd" d="M215.443 161.275C220.962 160.825 226.613 162.187 231.322 165.1C232.63 165.91 234.08 166.879 235.576 166.518C239.039 165.683 242.746 165.893 246.093 167.113C247.502 167.627 248.779 166.17 249.661 164.958C252.224 161.44 255.575 158.5 259.397 156.416C262.031 160.742 259.362 166.727 261.653 171.244C265.199 178.234 264.257 187.263 259.345 193.371C264.5 198.408 268.005 205.107 269.204 212.214C268.591 212.394 268.189 211.594 268.041 210.973C266.718 205.419 264.091 200.181 260.432 195.799C259.575 194.773 258.174 193.71 257.044 194.423C248.063 200.094 236.677 201.807 226.424 199.029C224.732 198.571 223.532 200.625 222.989 202.291C221.976 205.4 220.963 208.508 219.951 211.616C219.76 206.607 221.566 201.55 224.886 197.795C219.957 191.989 217.552 184.112 218.399 176.543C218.487 175.755 218.6 174.915 218.249 174.205C216.41 170.48 215.143 166.474 214.507 162.369C214.469 162.124 214.437 161.855 214.567 161.644C214.739 161.363 215.114 161.302 215.443 161.275ZM237.827 171.225C235.877 173.015 234.27 175.176 233.116 177.558C232.434 175.274 232.804 172.699 234.1 170.699C232.347 171.354 230.724 172.356 229.351 173.628C229.353 171.726 230.32 169.849 231.868 168.743C231.198 168.763 230.527 168.782 229.857 168.802C230.555 167.936 231.539 167.304 232.617 167.029C227.679 163.507 221.489 161.782 215.442 162.241C216.508 168.544 219.054 174.592 222.816 179.76C221.209 179.103 219.896 177.76 219.274 176.138C218.584 182.635 220.238 189.356 223.863 194.792C224.538 195.803 225.293 196.786 226.273 197.507C227.898 198.704 229.98 199.071 231.99 199.254C240.028 199.988 248.272 198.28 255.357 194.413C256.719 193.67 258.053 192.837 259.133 191.723C260.561 190.249 261.477 188.343 262.067 186.378C263.614 181.219 262.958 175.438 260.293 170.758C259.812 172.194 259.331 173.63 258.85 175.065C258.647 175.671 257.746 176.303 257.574 175.688C259.963 170.025 260.476 163.589 259.012 157.619C253.555 161.241 248.982 166.186 245.796 171.909C245.662 170.576 246.005 169.2 246.748 168.085C243.302 170.724 240.316 173.961 237.963 177.608C237.536 175.512 237.489 173.338 237.827 171.225Z" fill="#00160A"/>
<path fill-rule="evenodd" clip-rule="evenodd" d="M31.0762 111.244C31.5414 111.326 32.0435 111.148 32.3531 110.791C31.4133 110.624 30.5139 110.234 29.749 109.663C30.0537 109.141 30.8343 109.455 31.397 109.675C32.76 110.208 34.4616 109.66 35.2578 108.432C35.4719 108.102 36.0456 108.48 35.9826 108.869C35.9197 109.257 35.5366 109.498 35.1914 109.687C34.5317 110.048 33.8721 110.41 33.2124 110.771C33.7545 110.82 34.2765 111.068 34.657 111.457C33.938 112.043 32.9252 112.054 31.998 112.038C31.7463 112.033 31.4803 112.025 31.2672 111.891C31.0541 111.756 30.9291 111.449 31.0762 111.244Z" fill="#00160A"/>
<path fill-rule="evenodd" clip-rule="evenodd" d="M171.397 101.015C172.144 99.8473 174.023 99.6442 175.001 100.626C175.563 101.189 175.798 101.996 175.946 102.778C176.148 103.836 176.23 104.917 176.191 105.994C176.155 106.986 176.002 108.015 175.442 108.836C174.883 109.656 173.825 110.204 172.877 109.908C171.458 109.465 171.137 107.634 171.067 106.149C171.03 105.365 170.993 104.58 170.956 103.795C170.911 102.842 170.883 101.819 171.397 101.015ZM171.99 102.922C171.868 104.749 172.018 106.593 172.433 108.376C172.609 109.128 173.737 109.267 174.323 108.765C174.91 108.263 175.066 107.428 175.129 106.658C175.223 105.521 175.193 104.373 175.04 103.242C174.961 102.658 174.84 102.055 174.488 101.582C174.135 101.11 173.491 100.807 172.94 101.018C172.239 101.287 172.041 102.173 171.99 102.922Z" fill="#00160A"/>
<path fill-rule="evenodd" clip-rule="evenodd" d="M31.3148 101.981C31.1924 103.808 31.3422 105.652 31.7578 107.435C31.9331 108.187 33.0613 108.326 33.6477 107.824C34.2341 107.321 34.3904 106.487 34.4536 105.717C34.5469 104.58 34.517 103.432 34.3644 102.301C34.2856 101.717 34.1644 101.114 33.8119 100.641C33.4595 100.168 32.8151 99.8656 32.2644 100.077C31.563 100.346 31.365 101.232 31.3148 101.981Z" fill="white"/>
<path fill-rule="evenodd" clip-rule="evenodd" d="M31.5945 109.269C30.5658 108.755 30.2839 107.439 30.1711 106.294C30.0612 105.178 29.9982 104.058 29.9825 102.936C29.972 102.187 29.9905 101.404 30.3424 100.743C30.7249 100.023 31.5015 99.5303 32.3152 99.4899C33.1289 99.4495 33.9505 99.8633 34.4025 100.541C34.699 100.986 34.8361 101.517 34.9403 102.041C35.1549 103.121 35.2507 104.225 35.2255 105.326C35.2011 106.396 35.0425 107.516 34.4102 108.379C33.7779 109.243 32.552 109.747 31.5945 109.269ZM31.3199 107.352C31.3947 107.708 31.4983 108.08 31.7626 108.33C32.2813 108.82 33.198 108.576 33.6361 108.013C34.0743 107.449 34.1545 106.693 34.1834 105.98C34.226 104.927 34.1928 103.871 34.0841 102.824C34.0225 102.229 33.9287 101.615 33.6023 101.115C33.2759 100.614 32.6556 100.258 32.0791 100.416C31.1672 100.665 30.9913 101.863 30.9947 102.808C31.0002 104.329 31.0069 105.863 31.3199 107.352Z" fill="#00160A"/>
<path fill-rule="evenodd" clip-rule="evenodd" d="M222.21 115.015C222.441 111.542 225.933 109.396 228.231 106.782C230.329 104.396 231.559 101.261 231.644 98.0845C224.389 97.7977 217.169 96.5989 210.21 94.5253C209.145 94.2079 208.047 93.8477 207.239 93.084C205.354 91.3009 205.82 88.1915 206.793 85.7856C207.973 82.8653 209.687 80.162 211.826 77.8498C212.557 77.0593 213.35 76.2959 213.829 75.3314C214.308 74.3669 214.409 73.1261 213.763 72.2646C212.674 70.813 212.444 68.9062 212.331 67.0951C212.218 65.284 212.166 63.4011 211.343 61.7836C210.521 60.1661 208.652 58.9088 206.917 59.4391C206.496 58.7965 207.328 58.0548 208.06 57.8222C210.824 56.9439 213.921 57.7129 216.344 59.307C218.767 60.9011 220.606 63.2386 222.185 65.6716C222.802 66.6216 223.845 67.7373 224.85 67.2153C231.714 63.651 240.092 63.1315 247.344 65.8205C248.352 66.1942 249.902 66.3543 250.107 65.2991C251.131 60.044 255.516 55.6055 260.759 54.5194C258.699 55.9969 258.574 59.0027 258.986 61.5043C259.399 64.0059 260.125 66.6709 259.097 68.9882C258.267 70.8587 260.358 72.617 262.051 73.7661C264.608 75.5015 266.895 77.6347 268.804 80.0655C270.692 82.4705 272.266 85.5613 271.403 88.495C270.274 92.3354 265.755 93.8556 261.866 94.8037C258.069 95.7293 254.273 96.6549 250.476 97.5804C250.406 101.284 251.729 104.998 254.123 107.824C256.044 110.091 258.836 112.427 258.225 115.335C256.926 112.243 254.489 109.799 252.531 107.076C250.574 104.352 249.03 100.945 249.916 97.7098C248.183 97.09 246.364 98.3287 245.053 99.621C243.743 100.913 242.36 102.437 240.523 102.54C237.496 102.71 235.606 99.0164 232.647 98.3556C232.579 100.336 232.06 102.3 231.142 104.057C230.166 105.925 228.764 107.53 227.375 109.116C225.654 111.082 223.932 113.049 222.21 115.015ZM225.03 68.0338C223.19 68.929 226.04 72.4264 224.393 73.6406C223.546 69.0433 221.144 64.7468 217.671 61.617C215.416 59.5842 212.424 57.9826 209.441 58.5473C211.185 59.2325 212.247 61.0454 212.703 62.8629C213.16 64.6804 213.144 66.5823 213.462 68.4292C214.022 71.6801 215.648 74.7385 218.03 77.0203C216.945 77.0061 215.894 76.3394 215.418 75.3638C212.078 78.3666 209.394 82.0953 207.607 86.2157C206.902 87.8411 206.352 89.7795 207.224 91.3215C207.96 92.6223 209.484 93.2268 210.906 93.6872C216.022 95.344 221.344 96.3642 226.71 96.7168C229.916 96.9274 233.378 96.981 235.941 98.919C236.873 99.6232 237.638 100.55 238.652 101.127C239.667 101.704 241.099 101.822 241.889 100.962C244.974 97.6076 249.665 96.3071 254.147 95.482C258.629 94.6568 263.309 94.1047 267.216 91.7595C268.683 90.8793 270.073 89.6609 270.547 88.0173C271.192 85.7829 269.988 83.4509 268.628 81.5645C265.886 77.7603 262.317 74.5548 258.241 72.2345C258.063 72.9402 257.627 73.5776 257.034 73.9988C256.842 73.2 257.191 72.385 257.471 71.6126C259.2 66.838 258.412 61.5661 257.603 56.5531C252.299 59.6138 249.543 66.4984 251.27 72.3741C250.258 72.5621 249.78 71.1446 249.878 70.1205C249.977 69.0965 250.059 67.7587 249.11 67.361C241.477 64.1618 232.472 64.4134 225.03 68.0338Z" fill="#00160A"/>
<path fill-rule="evenodd" clip-rule="evenodd" d="M84.483 177.158C85.0158 178.058 85.0746 179.221 84.6353 180.171C84.4024 180.674 83.6142 180.656 83.2185 180.268C82.8229 179.879 82.7189 179.289 82.6423 178.74C82.573 178.243 82.5127 177.718 82.7023 177.253C82.8918 176.789 83.422 176.423 83.8942 176.593C84.1552 176.688 84.3417 176.919 84.483 177.158Z" fill="#00160A"/>
<path fill-rule="evenodd" clip-rule="evenodd" d="M92.6843 212.748C90.9965 208.464 90.433 203.743 91.0654 199.182C89.4752 200.925 86.5407 201.222 84.6333 199.833C85.0896 204.32 84.1543 208.939 81.9883 212.894C82.6157 209.139 83.2431 205.383 83.8705 201.627C84.0333 200.652 84.0105 199.346 83.0706 199.041C80.1395 198.088 77.6627 195.823 76.4536 192.988C76.0727 192.095 74.8973 191.777 73.9626 192.039C73.028 192.302 72.2823 192.99 71.5751 193.655C71.9784 192.078 73.4272 190.826 75.0457 190.655C75.5952 189.729 74.8084 188.45 73.7659 188.181C72.7233 187.912 71.6254 188.382 70.7548 189.015C70.6869 188.012 71.908 187.521 72.8333 187.127C73.7586 186.732 74.6622 185.487 73.8733 184.863C73.5295 184.592 73.0405 184.64 72.6065 184.702C71.3519 184.881 70.0974 185.061 68.8428 185.24C68.9854 184.23 70.298 183.971 71.3152 183.893C72.3324 183.815 73.6457 183.319 73.5325 182.305C73.0965 178.398 74.0425 174.436 75.6215 170.836C76.9297 167.854 73.08 164.866 73.3327 161.619C73.3522 161.368 73.412 161.093 73.6149 160.942C73.8571 160.763 74.1961 160.835 74.4839 160.924C76.4658 161.535 78.3035 162.609 79.8092 164.036C80.5401 164.728 81.7175 164.256 82.6368 163.846C86.0277 162.332 90.002 162.176 93.5016 163.417C96.6617 164.538 99.4646 159.13 102.596 160.328C101.797 162.959 100.998 165.59 100.198 168.22C99.9777 168.946 99.7691 169.779 100.17 170.423C101.521 172.593 102.34 175.091 102.536 177.639C102.674 179.434 103.022 181.859 104.816 182C104.035 182.343 103.173 182.772 102.902 183.582C102.631 184.392 103.556 185.46 104.257 184.972C104.861 184.55 105.838 184.902 106.035 185.612C104.999 185.511 103.876 185.624 103.066 186.278C102.257 186.931 101.939 188.254 102.625 189.036C104.131 188.416 105.909 188.497 107.352 189.252C106.492 189.884 105.311 189.697 104.246 189.634C103.18 189.57 101.883 189.816 101.506 190.815C100.248 194.147 97.1556 196.718 93.6499 197.348C91.9229 197.658 91.646 199.994 91.7884 201.742C92.087 205.411 92.3857 209.08 92.6843 212.748ZM94.0784 186.38C93.5252 186.885 92.5717 187.412 92.1619 186.785C94.5283 184.246 97.7728 182.541 101.206 182.033C101.907 181.929 102.062 180.994 102.012 180.288C101.765 176.812 100.768 173.392 99.1081 170.329C98.8592 170.973 98.0711 171.351 97.4131 171.142C99.3758 168.193 100.667 164.8 101.162 161.293C98.0199 162.595 95.2287 164.732 93.1514 167.425C92.862 166.392 93.3244 165.194 94.2331 164.624C90.0891 163.103 85.3265 163.357 81.3675 165.31C81.4705 165.952 81.5736 166.595 81.6766 167.237C79.7346 164.885 77.2037 163.023 74.3801 161.868C75.298 165.296 76.6362 168.611 78.3551 171.715C77.6086 171.876 76.798 171.23 76.7895 170.466C75.2299 173.86 74.3725 177.574 74.2868 181.308C74.2622 182.381 74.6946 183.833 75.7625 183.723C78.6775 183.421 81.7037 184.435 83.8485 186.432C81.8577 185.857 79.867 185.282 77.8762 184.707C77.0195 184.459 76.037 184.227 75.2861 184.708C74.5352 185.189 74.6244 186.681 75.516 186.698C77.8508 186.017 80.4895 186.475 82.4592 187.901C80.1536 187.388 77.7422 187.355 75.4236 187.806C74.8452 189.201 76.8096 190.294 78.3203 190.286C79.8311 190.279 81.7227 190.116 82.4561 191.437C80.6039 191.341 78.7518 191.244 76.8996 191.148C77.4078 194.448 80.2448 197.251 83.551 197.72C84.1818 197.809 84.5958 198.397 85.0653 198.827C86.9331 200.54 90.52 199.377 91.0264 196.893C95.3287 196.762 99.4262 193.9 101.031 189.906C98.8492 190.216 96.667 190.526 94.4847 190.836C94.9954 189.851 96.209 189.473 97.3127 189.358C98.4164 189.243 99.5832 189.281 100.562 188.758C101.54 188.235 102.176 186.855 101.476 185.994C98.7489 186.953 96.0221 187.911 93.2954 188.87C94.2027 187.517 95.6332 186.526 97.2179 186.151C98.3227 185.89 99.497 185.916 100.554 185.502C101.612 185.089 102.556 184 102.257 182.904C99.2436 183.097 96.308 184.344 94.0784 186.38Z" fill="#00160A"/>
<path fill-rule="evenodd" clip-rule="evenodd" d="M91.3463 175.076C90.9801 175.057 90.5375 174.986 90.4023 174.646C91.2937 173.636 93.2249 173.957 93.7412 175.201C92.9429 175.16 92.1446 175.118 91.3463 175.076Z" fill="#00160A"/>
<path fill-rule="evenodd" clip-rule="evenodd" d="M89.9785 194.005C90.2642 194.35 90.205 194.892 89.9363 195.25C89.6676 195.608 89.2377 195.81 88.8061 195.928C88.1775 196.101 87.4334 196.098 86.955 195.655C86.2628 195.015 86.5959 193.711 87.447 193.305C88.2981 192.898 89.3763 193.279 89.9785 194.005ZM87.4965 194.203C87.2802 194.605 87.7394 195.101 88.1964 195.102C88.6535 195.103 89.0475 194.799 89.4015 194.51C88.9361 194.002 88.1068 193.875 87.5108 194.221L87.4965 194.203Z" fill="#00160A"/>
<path fill-rule="evenodd" clip-rule="evenodd" d="M92.3691 180.21C91.807 180.493 91.0969 180.039 90.8844 179.446C90.6719 178.853 90.8144 178.198 90.9779 177.59C91.0711 177.244 91.1964 176.865 91.5084 176.688C91.9273 176.45 92.4873 176.722 92.7307 177.137C92.9741 177.553 92.9859 178.059 92.9911 178.541C92.9979 179.169 92.9296 179.927 92.3691 180.21Z" fill="#00160A"/>
<path fill-rule="evenodd" clip-rule="evenodd" d="M82.2571 194.033C83.9468 194.251 85.7278 193.433 86.6638 192.009C87.5997 190.586 87.6448 188.626 86.7753 187.161C86.3152 186.386 85.6156 185.42 86.1725 184.712C86.4553 184.352 86.9576 184.26 87.4146 184.235C87.914 184.208 88.4449 184.24 88.8622 184.516C89.2794 184.792 89.5225 185.382 89.2687 185.813C88.2663 187.516 88.4197 189.825 89.6383 191.38C90.8568 192.935 93.0628 193.636 94.9554 193.069C95.3015 192.966 95.8689 193.001 95.8007 193.356C95.7841 193.442 95.7244 193.512 95.6634 193.575C94.5942 194.68 92.7407 194.5 91.3637 193.816C90.0838 193.181 88.9855 192.185 88.2294 190.972C87.5529 192.126 86.8547 193.306 85.8189 194.152C84.7831 194.998 83.3222 195.454 82.0811 194.956C81.7409 194.819 81.388 194.41 81.6338 194.138C81.7811 193.974 82.0391 194.005 82.2571 194.033Z" fill="#00160A"/>
<path fill-rule="evenodd" clip-rule="evenodd" d="M85.2508 174.664C85.3356 174.93 84.9637 175.091 84.6858 175.121C84.1589 175.178 83.632 175.235 83.105 175.292C82.6981 175.336 82.1137 175.217 82.1587 174.81C82.883 174.047 84.1605 173.887 85.05 174.449C85.1345 174.503 85.2205 174.568 85.2508 174.664Z" fill="#00160A"/>
<path fill-rule="evenodd" clip-rule="evenodd" d="M227.418 204.204C227.313 203.203 227.336 202.027 228.13 201.407C228.827 200.864 229.816 200.992 230.687 201.148C232.069 201.395 233.451 201.642 234.833 201.889C235.913 202.082 237.068 202.268 238.072 201.826C238.874 201.473 239.792 201.851 240.667 201.858C241.381 201.864 242.071 201.62 242.743 201.379C244.806 200.638 246.869 199.898 248.932 199.157C249.311 199.021 249.733 198.885 250.106 199.037C250.673 199.268 250.8 200 250.844 200.611C250.894 201.306 250.944 202.002 250.994 202.698C251.055 203.547 251.11 204.435 250.777 205.219C250.443 206.003 249.591 206.637 248.765 206.424C246.636 205.875 244.469 205.469 242.285 205.208C241.845 205.156 241.272 205.187 241.128 205.605C240.796 206.565 239.424 206.411 238.422 206.242C236.125 205.854 233.678 206.459 231.827 207.872C231.331 208.251 230.868 208.689 230.296 208.938C229.724 209.186 228.992 209.199 228.538 208.771C228.229 208.48 228.106 208.045 228.007 207.631C227.736 206.503 227.539 205.358 227.418 204.204ZM237.78 203.405C234.992 202.876 232.191 202.418 229.38 202.034C228.937 201.973 228.524 202.339 228.378 202.762C228.232 203.185 228.288 203.649 228.353 204.092C228.494 205.064 228.665 206.032 228.866 206.994C228.929 207.296 229.002 207.611 229.206 207.84C229.411 208.07 229.791 208.174 230.03 207.98C231.553 206.742 233.357 205.851 235.267 205.394C235.841 205.257 236.437 205.153 236.945 204.852C237.452 204.55 237.86 203.989 237.78 203.405ZM245.714 201.251C244.23 201.66 242.654 202.125 241.656 203.297C241.353 203.653 241.291 204.411 241.758 204.394C244.09 204.305 246.437 204.669 248.633 205.459C249.099 205.626 249.626 205.292 249.846 204.848C250.067 204.404 250.059 203.886 250.047 203.39C250.025 202.456 250.002 201.522 249.98 200.588C249.976 200.438 249.955 200.259 249.82 200.192C249.73 200.148 249.624 200.174 249.527 200.201C248.256 200.551 246.985 200.901 245.714 201.251ZM238.464 204.717C238.528 204.937 238.622 205.158 238.796 205.308C239.221 205.674 239.937 205.411 240.222 204.928C240.507 204.444 240.479 203.843 240.413 203.286C240.335 202.617 239.337 202.399 238.831 202.843C238.325 203.286 238.273 204.072 238.464 204.717Z" fill="#00160A"/>
<path fill-rule="evenodd" clip-rule="evenodd" d="M255.072 186.791C253.837 186.64 252.562 186.833 251.428 187.343C251.135 187.474 250.85 187.042 250.977 186.747C251.104 186.452 251.436 186.312 251.738 186.205C253.49 185.589 255.714 185.284 256.962 186.658C256.428 187.023 255.714 186.869 255.072 186.791Z" fill="#00160A"/>
<path fill-rule="evenodd" clip-rule="evenodd" d="M241.598 193.335C241.627 194.288 240.724 195.063 239.785 195.233C238.847 195.403 237.891 195.123 236.979 194.846C236.184 194.605 235.937 193.489 236.356 192.772C236.775 192.056 237.624 191.701 238.443 191.567C239.118 191.456 239.835 191.468 240.455 191.756C241.076 192.044 241.577 192.651 241.598 193.335ZM237.197 193.564C237.242 193.849 237.576 193.973 237.857 194.042C238.402 194.176 238.964 194.31 239.519 194.228C240.075 194.146 240.629 193.792 240.773 193.25C239.948 192.397 238.475 192.28 237.526 192.991C237.341 193.13 237.161 193.335 237.197 193.564Z" fill="#00160A"/>
<path fill-rule="evenodd" clip-rule="evenodd" d="M227.317 188.471C225.67 188.475 224.022 188.479 222.375 188.482C222.028 188.483 221.538 188.301 221.655 187.974C223.376 187.226 225.372 187.135 227.153 187.724C227.481 187.832 227.837 188.274 227.532 188.436C227.467 188.47 227.39 188.471 227.317 188.471Z" fill="#00160A"/>
<path fill-rule="evenodd" clip-rule="evenodd" d="M245.542 182.203C245.636 181.614 245.798 180.933 246.342 180.69C246.866 180.457 247.503 180.79 247.805 181.278C248.107 181.766 248.158 182.363 248.201 182.936C247.458 183.004 246.715 183.071 245.972 183.139C245.574 183.176 245.479 182.597 245.542 182.203Z" fill="#00160A"/>
<path fill-rule="evenodd" clip-rule="evenodd" d="M251.992 189.237C251.752 189.187 251.505 189.134 251.306 188.993C251.162 188.891 251.05 188.746 250.987 188.581C252.666 187.874 254.804 188.515 255.816 190.03C254.541 189.765 253.267 189.501 251.992 189.237Z" fill="#00160A"/>
<path fill-rule="evenodd" clip-rule="evenodd" d="M248.537 179.006C248.964 178.323 250.028 178.643 250.672 179.127C251.306 179.603 251.874 180.168 252.354 180.8C252.333 181.172 251.756 181.087 251.443 180.885C250.474 180.259 249.506 179.632 248.537 179.006Z" fill="#00160A"/>
<path fill-rule="evenodd" clip-rule="evenodd" d="M225.248 190.271C225.927 190.039 226.606 189.807 227.285 189.575C227.557 189.482 227.848 189.388 228.127 189.456C228.407 189.525 228.648 189.828 228.54 190.095C227.206 190.594 225.855 191.047 224.49 191.453C224.273 191.266 224.317 190.897 224.505 190.681C224.693 190.465 224.977 190.364 225.248 190.271Z" fill="#00160A"/>
<path fill-rule="evenodd" clip-rule="evenodd" d="M230.882 181.709C231.141 181.884 231.275 182.19 231.395 182.478C231.555 182.862 231.719 183.277 231.632 183.684C231.545 184.091 231.089 184.442 230.715 184.259C230.291 184.052 229.83 184.811 229.413 184.592C229.215 184.488 229.177 184.226 229.163 184.004C229.124 183.405 229.092 182.769 229.376 182.241C229.66 181.712 230.385 181.373 230.882 181.709Z" fill="#00160A"/>
<path fill-rule="evenodd" clip-rule="evenodd" d="M225.7 181.441C226.326 179.903 228.121 178.939 229.749 179.268C229.97 179.313 230.244 179.479 230.165 179.69C230.124 179.802 229.999 179.856 229.887 179.897C228.491 180.412 227.096 180.927 225.7 181.441Z" fill="#00160A"/>
<path fill-rule="evenodd" clip-rule="evenodd" d="M234.012 189.218C233.661 189.262 233.215 189.228 233.083 188.9C233.318 188.712 233.6 188.513 233.893 188.581C234.187 188.65 234.293 189.162 233.998 189.223L234.012 189.218Z" fill="#00160A"/>
<path fill-rule="evenodd" clip-rule="evenodd" d="M241.036 188.715C241.405 188.653 241.599 188.134 241.362 187.845C241.124 187.557 240.577 187.648 240.446 187.998C240.315 188.348 240.667 188.776 241.036 188.715Z" fill="#00160A"/>
<path fill-rule="evenodd" clip-rule="evenodd" d="M232.837 191.217C232.32 191.143 231.655 190.806 231.814 190.308C232.384 189.98 233.09 190.261 233.741 190.355C234.391 190.449 235.269 190.093 235.162 189.445C235.271 189.718 235.38 189.991 235.489 190.264C236.151 190.088 236.769 189.748 237.273 189.284C237.558 189.022 237.813 188.571 237.56 188.278C236.973 187.599 237.61 186.328 238.505 186.39C239.399 186.452 239.853 187.8 239.179 188.391C239.004 188.544 239.18 188.826 239.361 188.971C240.627 189.987 242.391 190.348 243.954 189.911C244.653 189.716 245.546 189.428 245.99 190.002C243.76 191.612 240.373 191.332 238.437 189.378C237.349 191.155 234.899 191.516 232.837 191.217Z" fill="#00160A"/>
<path fill-rule="evenodd" clip-rule="evenodd" d="M243.343 188.161C243.557 188.258 243.591 188.607 243.399 188.743C243.206 188.879 242.889 188.731 242.869 188.496C242.95 188.322 243.139 188.203 243.331 188.205L243.343 188.161Z" fill="#00160A"/>
<path fill-rule="evenodd" clip-rule="evenodd" d="M235.246 188.407C235.471 188.753 236.131 188.323 235.906 187.977C235.681 187.632 235.021 188.061 235.246 188.407Z" fill="#00160A"/>
<path fill-rule="evenodd" clip-rule="evenodd" d="M216.505 85.5564C215.639 85.6526 214.706 85.8637 213.939 85.4496C214.846 84.5969 216.2 84.4309 217.443 84.4923C219.551 84.5964 221.629 85.2364 223.43 86.3356C223.052 87.0323 222.008 86.6899 221.291 86.3522C219.809 85.6544 218.133 85.3757 216.505 85.5564Z" fill="#00160A"/>
<path fill-rule="evenodd" clip-rule="evenodd" d="M246.944 78.3161C246.806 77.7954 246.799 77.3696 247.274 77.1156C247.965 76.7457 250.148 76.7799 250.384 77.3182C250.62 77.8565 249.722 80.3316 248.463 80.3316C247.96 80.3316 247.082 78.8368 246.944 78.3161Z" fill="#00160A"/>
<path fill-rule="evenodd" clip-rule="evenodd" d="M260.795 84.4481C258.084 84.6169 255.401 85.2088 252.871 86.196C252.525 86.3313 251.991 86.3842 251.912 86.0202C252.354 85.2781 253.241 84.9454 254.069 84.7031C255.925 84.1607 257.835 83.8053 259.762 83.6441C260.041 83.6208 260.338 83.6055 260.581 83.7425C260.825 83.8794 260.968 84.2292 260.795 84.4481Z" fill="#00160A"/>
<path fill-rule="evenodd" clip-rule="evenodd" d="M261.341 87.4883C259.198 87.68 257.055 87.8716 254.912 88.0632C254.521 88.0982 253.935 87.837 254.16 87.5154C256.365 86.8264 258.68 86.4908 260.989 86.5254C261.56 86.5339 262.223 86.6161 262.523 87.102C262.22 87.3972 261.763 87.4506 261.341 87.4883Z" fill="#00160A"/>
<path fill-rule="evenodd" clip-rule="evenodd" d="M229.824 80.5106C229.37 81.0448 228.449 80.8919 227.962 80.387C227.476 79.882 227.31 79.1578 227.164 78.472C227.087 78.1145 227.02 77.7081 227.233 77.4109C227.457 77.0989 230.566 77.0767 230.714 77.3441C230.862 77.6116 230.77 77.8372 230.714 78.0448C230.612 78.422 230.153 80.1238 229.824 80.5106Z" fill="#00160A"/>
<path fill-rule="evenodd" clip-rule="evenodd" d="M213.59 88.9884C216.292 87.8751 219.309 87.5358 222.192 88.0209C222.5 88.0729 222.84 88.1543 223.015 88.4135C223.191 88.6727 223.021 89.1359 222.711 89.0918C219.363 88.6157 215.727 88.6503 212.878 90.4723C212.578 90.3019 212.558 89.8475 212.749 89.5612C212.94 89.2749 213.271 89.1195 213.59 88.9884Z" fill="#00160A"/>
<path fill-rule="evenodd" clip-rule="evenodd" d="M233.434 91.6515C233.295 91.2511 233.593 90.7608 234.013 90.7007C234.181 90.8098 234.291 91.0025 234.3 91.2022C234.169 91.5108 233.825 91.7147 233.491 91.6815L233.434 91.6515Z" fill="#00160A"/>
<path fill-rule="evenodd" clip-rule="evenodd" d="M229.061 74.3038C229.53 74.311 230.172 74.6244 229.967 75.0454C227.931 75.1647 225.921 75.7034 224.099 76.6179C223.83 76.5909 223.703 76.2343 223.807 75.985C223.91 75.7356 224.157 75.5801 224.395 75.4512C225.818 74.6783 227.442 74.2791 229.061 74.3038Z" fill="#00160A"/>
<path fill-rule="evenodd" clip-rule="evenodd" d="M240.421 91.3096C240.718 90.9903 241.315 91.0429 241.551 91.4091C241.32 91.8507 240.543 91.807 240.363 91.3422L240.421 91.3096Z" fill="#00160A"/>
<path fill-rule="evenodd" clip-rule="evenodd" d="M242.483 91.0969C242.689 90.7968 243.275 91.0566 243.192 91.4111C243.105 91.5897 242.911 91.7109 242.712 91.7107C242.484 91.6231 242.371 91.3168 242.488 91.1019L242.483 91.0969Z" fill="#00160A"/>
<path fill-rule="evenodd" clip-rule="evenodd" d="M235.482 89.4651C235.275 89.7652 234.689 89.5054 234.773 89.1509C234.86 88.9722 235.053 88.851 235.252 88.8512C235.481 88.9388 235.593 89.2452 235.476 89.46L235.482 89.4651Z" fill="#00160A"/>
<path fill-rule="evenodd" clip-rule="evenodd" d="M232.022 90.285C232.004 90.6331 232.437 90.9139 232.748 90.7554C233.058 90.5969 233.085 90.0814 232.792 89.8917C232.5 89.7021 232.04 89.9369 232.022 90.285Z" fill="#00160A"/>
<path fill-rule="evenodd" clip-rule="evenodd" d="M240.851 90.0679C241.147 90.2896 241.65 90.074 241.694 89.7067C241.738 89.3394 241.3 89.0111 240.96 89.1567C240.62 89.3022 240.554 89.8462 240.851 90.0679Z" fill="#00160A"/>
<path fill-rule="evenodd" clip-rule="evenodd" d="M246.346 75.3457C248.086 74.0858 250.496 74.6638 252.55 75.2928C252.872 75.3913 253.275 75.6866 253.089 75.9672C252.978 76.1344 252.735 76.1288 252.536 76.1044C250.473 75.8515 248.409 75.5986 246.346 75.3457Z" fill="#00160A"/>
<path fill-rule="evenodd" clip-rule="evenodd" d="M238.56 90.0686C239.186 92.0151 241.437 93.2774 243.425 92.7966C244.299 92.5851 245.298 92.1099 246.014 92.6529C244.757 93.7053 242.988 94.1145 241.397 93.7211C239.805 93.3276 238.43 92.1411 237.809 90.6241C236.576 92.3419 234.622 93.5237 232.528 93.8171C232.215 93.8609 231.861 93.8738 231.624 93.6645C231.387 93.4553 231.45 92.9564 231.765 92.9344C233.493 92.8141 235.169 92.0551 236.4 90.8359C237.068 90.174 237.617 89.11 237.083 88.336C236.585 87.6149 236.185 86.8266 235.896 85.9993C235.789 85.6926 235.706 85.3242 235.903 85.0661C236.049 84.8752 236.303 84.8095 236.537 84.7558C237.248 84.5928 237.984 84.4291 238.7 84.5649C239.417 84.7006 240.115 85.2189 240.221 85.9407C240.445 87.4655 238.088 88.6015 238.56 90.0686Z" fill="#00160A"/>
<path fill-rule="evenodd" clip-rule="evenodd" d="M96.7039 84.812C96.8583 84.3627 97.6948 84.5182 97.6776 84.9929C97.5025 85.4389 96.6728 85.2748 96.6807 84.7957L96.7039 84.812Z" fill="#00160A"/>
<path fill-rule="evenodd" clip-rule="evenodd" d="M89.1553 86.8773C89.0601 86.3983 88.1451 86.5801 88.2403 87.0592C88.3356 87.5383 89.2505 87.3564 89.1553 86.8773Z" fill="#00160A"/>
<path fill-rule="evenodd" clip-rule="evenodd" d="M90.4537 87.6888C90.6729 87.4186 91.0592 87.2971 91.3936 87.3932C91.5031 87.5294 91.5376 87.7223 91.4821 87.888C91.2341 87.989 90.9861 88.09 90.7381 88.1909C90.633 88.0325 90.5279 87.874 90.4229 87.7155L90.4537 87.6888Z" fill="#00160A"/>
<path fill-rule="evenodd" clip-rule="evenodd" d="M90.5638 86.5529C90.3973 86.4369 90.2854 86.2458 90.2656 86.0438C90.4465 85.6681 91.0869 85.6637 91.2729 86.0369C91.1018 86.283 90.8485 86.4708 90.5634 86.563L90.5638 86.5529Z" fill="#00160A"/>
<path fill-rule="evenodd" clip-rule="evenodd" d="M84.7333 87.7905C84.4854 88.1138 83.9258 87.694 83.9928 87.2921C84.0598 86.8903 84.4357 86.6289 84.7542 86.3747C85.4335 85.8326 85.981 85.1256 86.7206 84.669C87.4601 84.2125 88.5193 84.0809 89.1362 84.6932C87.4006 85.2484 85.8423 86.3446 84.7333 87.7905Z" fill="#00160A"/>
<path fill-rule="evenodd" clip-rule="evenodd" d="M82.6113 83.3973C83.6172 82.456 84.8679 81.7785 86.2059 81.4502C86.4916 81.3802 86.8038 81.328 87.071 81.4508C87.3382 81.5736 87.5074 81.9412 87.3281 82.1744C85.6256 82.4767 84.0233 83.3202 82.8106 84.5527C82.59 84.7769 82.1717 84.5064 82.1605 84.1921C82.1494 83.8778 82.3817 83.6122 82.6113 83.3973Z" fill="#00160A"/>
<path fill-rule="evenodd" clip-rule="evenodd" d="M95.3474 85.1179C95.3169 84.8871 95.7123 85.0131 95.8304 85.2138C95.6696 85.4536 95.5088 85.6934 95.348 85.9332C95.0141 85.8254 94.9987 85.253 95.3263 85.1274L95.3474 85.1179Z" fill="#00160A"/>
<path fill-rule="evenodd" clip-rule="evenodd" d="M105.296 83.8629C103.841 83.4147 102.385 82.9665 100.93 82.5183C100.589 82.4135 100.217 82.2834 100.044 81.9719C102.053 81.5172 104.263 82.0554 105.838 83.3831C105.904 83.439 105.973 83.5015 105.994 83.5855C106.071 83.8833 105.59 83.9534 105.296 83.8629Z" fill="#00160A"/>
<path fill-rule="evenodd" clip-rule="evenodd" d="M95.6563 86.48C95.8183 86.2858 96.1625 86.291 96.3185 86.4902C96.4744 86.6893 96.3971 87.0248 96.1697 87.1355C95.8312 87.1021 95.5407 86.7974 95.5234 86.4578L95.6563 86.48Z" fill="#00160A"/>
<path fill-rule="evenodd" clip-rule="evenodd" d="M104.269 87.0188C102.759 86.4889 101.25 85.959 99.7399 85.429C99.6165 85.3857 99.4858 85.3373 99.4066 85.2331C99.2329 85.0047 99.434 84.649 99.708 84.5636C99.982 84.4781 100.276 84.5738 100.547 84.6688C101.36 84.954 102.174 85.2392 102.987 85.5244C103.684 85.7685 104.541 86.333 104.269 87.0188Z" fill="#00160A"/>
<path fill-rule="evenodd" clip-rule="evenodd" d="M301.974 21.4665C307.455 23.6861 311.184 29.0295 312.913 34.6844C314.643 40.3393 314.66 46.3553 314.662 52.2687C314.68 96.0815 314.697 139.894 314.715 183.707C314.715 190.117 314.666 196.778 311.885 202.553C309.336 207.848 304.511 211.998 298.895 213.727C294.819 214.982 290.479 214.991 286.215 214.991C205.47 214.977 124.724 214.963 43.9789 214.949C39.9562 214.948 35.6549 214.865 32.3434 212.581C27.0407 208.923 26.5164 201.428 26.5143 194.986C26.4985 144.928 26.4827 94.8692 26.4668 44.8106C26.4668 41.0899 26.4799 37.278 27.7656 33.7865C29.9847 27.76 35.7494 23.5942 41.8776 21.6738C48.0058 19.7534 54.5457 19.7433 60.9678 19.7496C75.4997 19.7661 90.0317 19.782 104.564 19.7978C166.596 19.8655 228.629 19.9332 290.661 20.0009C294.489 20.0051 298.427 20.0298 301.974 21.4665ZM166.881 213.939C166.846 182.085 166.812 150.231 166.777 118.377C120.961 118.396 75.1455 118.415 29.3295 118.433C28.9352 118.433 28.4938 118.453 28.2219 118.738C27.9666 119.006 27.9513 119.416 27.9511 119.786C27.9305 146.516 27.91 173.246 27.8894 199.976C27.8894 201.369 27.8894 202.774 28.1833 204.135C29.1582 208.637 33.2634 211.929 37.6634 213.295C42.0634 214.66 46.7745 214.453 51.3783 214.281C69.2039 213.615 87.0478 213.674 104.886 213.733C125.551 213.802 146.216 213.871 166.881 213.939ZM168.057 118.517C168.084 150.286 168.111 182.056 168.137 213.826C208.296 213.788 248.455 213.751 288.613 213.713C291.633 213.71 294.686 213.704 297.623 213.002C304.534 211.349 310.249 205.684 312.284 198.876C313.486 194.854 313.487 190.586 313.477 186.388C313.425 163.708 313.374 141.029 313.322 118.349C264.9 118.405 216.479 118.461 168.057 118.517ZM168.043 21.4236C168.085 53.2761 168.127 85.1286 168.168 116.981C216.148 116.984 264.128 116.988 312.108 116.991C312.508 116.991 312.967 116.963 313.21 116.647C313.385 116.42 313.393 116.11 313.393 115.824C313.4 92.6061 313.407 69.3885 313.414 46.1709C313.414 42.7435 313.41 39.2724 312.551 35.9545C310.202 26.8881 300.871 20.175 291.528 20.8292C284.6 21.3144 277.649 21.3211 270.704 21.3276C236.483 21.3596 202.263 21.3916 168.043 21.4236ZM166.878 116.858C166.84 85.0094 166.802 53.1607 166.764 21.312C127.205 21.2979 87.6452 21.2838 48.0857 21.2697C38.756 21.2663 29.9549 28.6097 28.2869 37.7891C27.852 40.1824 27.8547 42.631 27.858 45.0635C27.8982 69.0011 27.9376 92.9387 27.9771 116.876C74.2772 117.068 120.578 117.062 166.878 116.858Z" fill="#00160A"/>
<path fill-rule="evenodd" clip-rule="evenodd" d="M94.2298 85.1205C93.9484 85.8571 94.3062 86.7097 94.8721 87.2587C95.697 88.059 96.9678 88.3658 98.067 88.0301C98.8581 87.7885 99.8164 87.2807 100.402 87.865C98.6577 89.622 95.3459 89.3744 93.8823 87.3776C93.4249 88.5699 92.3781 89.5192 91.1469 89.8582C89.9158 90.1972 88.5305 89.9175 87.5273 89.1274C88.2646 88.5162 89.3577 88.9931 90.3153 88.9986C91.3278 89.0044 92.3181 88.3847 92.7555 87.4714C93.1929 86.5582 93.0552 85.3982 92.416 84.6128C91.7641 83.8118 91.2595 82.8914 90.9349 81.911C90.8597 81.6839 90.794 81.4368 90.8667 81.2089C91.0156 80.7424 91.6147 80.6317 92.1038 80.6072C93.1063 80.557 94.11 80.5298 95.1138 80.5257C95.5959 80.5238 96.1806 80.5891 96.3831 81.0266C96.5165 81.3149 96.4202 81.6538 96.3032 81.9491C95.9981 82.7186 95.5592 83.4349 95.0121 84.0562C94.7194 84.3887 94.3879 84.7067 94.2298 85.1205Z" fill="#00160A"/>
<path fill-rule="evenodd" clip-rule="evenodd" d="M102.812 65.5219C101.328 65.2459 99.7653 65.4121 98.3728 65.9938C98.1794 66.0746 97.956 66.1631 97.7693 66.0676C97.5414 65.9511 97.5178 65.6099 97.6596 65.3967C97.8014 65.1835 98.05 65.071 98.2891 64.9793C100.752 64.0351 103.625 64.2281 105.939 65.4933C105.057 66.1072 103.868 65.7183 102.812 65.5219Z" fill="#00160A"/>
<path fill-rule="evenodd" clip-rule="evenodd" d="M102.086 73.0209C101.961 73.2659 101.81 73.5179 101.565 73.6425C101.201 73.8275 100.729 73.6545 100.481 73.3306C100.233 73.0066 100.173 72.5733 100.203 72.1664C100.265 71.3354 100.984 70.4026 101.769 70.6842C102.61 70.9861 102.493 72.2253 102.086 73.0209Z" fill="#00160A"/>
<path fill-rule="evenodd" clip-rule="evenodd" d="M87.6845 71.6001C87.773 72.3065 87.4606 73.0978 86.8146 73.397C86.1686 73.6963 85.2496 73.2909 85.1805 72.5823C85.1565 72.3358 85.2283 72.0909 85.3038 71.855C85.5238 71.1666 85.9754 70.3573 86.6955 70.4188C87.2495 70.4662 87.6154 71.0484 87.6845 71.6001Z" fill="#00160A"/>
<path fill-rule="evenodd" clip-rule="evenodd" d="M81.3925 66.5377C81.2773 66.1684 81.7244 65.8865 82.0936 65.7711C84.2687 65.0913 86.6199 64.9835 88.8481 65.4614C89.1758 65.5317 89.5366 65.6405 89.7001 65.933C89.8637 66.2255 89.6134 66.7045 89.295 66.5998C87.1065 65.8806 84.6761 65.9209 82.5126 66.7122C82.1127 66.8585 81.5193 66.9442 81.3925 66.5377Z" fill="#00160A"/>
<path fill-rule="evenodd" clip-rule="evenodd" d="M113.505 47.9452C113.291 51.3381 113.077 54.7412 113.277 58.135C113.434 60.7767 113.84 63.4033 113.878 66.0494C113.985 73.6969 110.987 81.1043 106.908 87.5744C116.7 94.1601 124.082 104.249 127.395 115.575C125.984 114.694 125.377 112.987 124.784 111.433C121.511 102.848 115.752 95.2275 108.386 89.7363C107.329 88.9488 105.534 88.3534 104.95 89.5344C103.63 92.2026 101.679 94.5561 99.3023 96.348C98.44 96.9981 97.475 97.6405 96.801 98.4567C96.807 98.5234 96.8097 98.5907 96.8097 98.6585C96.8097 100.039 95.6908 101.158 94.3106 101.158C93.3724 101.158 92.555 100.641 92.1276 99.8759C85.906 97.1406 80.8435 91.8306 78.4623 85.4586C73.9133 88.6132 71.2904 93.9817 70.2848 99.4254C69.2792 104.869 69.7067 110.463 70.1376 115.982C69.6834 116.29 69.2584 115.546 69.2065 115C68.6816 109.474 68.387 103.848 69.5334 98.417C70.6799 92.9861 73.4199 87.7073 77.9463 84.4947C73.7455 75.3488 75.3791 64.1287 70.2544 55.4667C69.9501 54.9524 69.6939 54.1501 70.2267 53.8793C70.4242 53.7789 70.6603 53.81 70.8788 53.8471C74.4522 54.4533 77.8571 56.0248 80.6367 58.3508C81.3537 58.9507 82.4266 58.5128 83.2644 58.0979C89.7034 54.9091 97.3926 54.3378 104.232 56.5401C105.951 53.2383 108.482 50.3634 111.54 48.2408C112.13 47.8313 112.974 47.4615 113.505 47.9452ZM91.4166 92.5725C93.6206 92.7658 95.8657 92.9566 98.0255 92.4772C102.966 91.3805 106.51 87.0096 108.773 82.4837C111.365 77.3011 112.817 71.5523 112.997 65.7606C111.399 67.0457 109.801 68.3309 108.203 69.616C107.257 70.3771 106.223 71.314 106.241 72.5284C106.267 74.2551 105.197 75.9499 103.628 76.6696C102.058 77.3892 100.076 77.0933 98.7843 75.9467C97.3269 74.6526 96.4993 72.3099 94.5578 72.1392C92.2683 71.938 91.1776 74.8736 89.3354 76.2478C86.9878 77.999 83.1988 76.6842 82.0269 74.0001C81.804 73.4895 81.8837 72.5833 81.373 72.2725C79.7445 71.2812 77.9463 71.2449 75.8242 71.3155C76.2024 75.9393 77.3217 80.5016 79.1264 84.7753C79.9261 86.6689 80.9006 88.5599 82.4703 89.8871C84.8882 91.9315 88.2624 92.296 91.4166 92.5725ZM104.682 57.5885C103.97 58.9476 102.775 60.6486 101.342 60.0999C102.263 59.3112 103.058 58.3769 103.689 57.3422C96.5584 55.3097 88.6592 56.1202 82.0902 59.5586C82.6556 60.2429 83.3509 60.8194 84.1282 61.2481C83.3059 62.0314 82.0369 61.0715 81.2589 60.2442C78.6108 57.4286 74.9906 55.5449 71.165 54.992C72.7348 57.511 74.1862 62.5013 75.5191 69.9629C77.6789 70.4512 79.1306 70.7033 79.8743 70.7192C80.7302 70.7375 81.7727 70.6486 82.1468 69.8786C83.1352 67.8447 85.6103 66.6582 87.815 67.1616C90.0196 67.665 91.7345 69.8082 91.742 72.0696C93.1719 71.1329 95.085 70.9843 96.6425 71.6887C96.8048 69.7642 98.2627 68.016 100.127 67.5105C101.991 67.005 104.132 67.7772 105.244 69.3561C105.728 70.0429 106.799 69.5384 107.441 68.9963C108.771 67.8729 110.101 66.7496 111.431 65.6262C112.18 64.9933 113.005 64.172 112.847 63.2038C112.07 58.4084 111.972 53.503 112.56 48.6806C109.268 50.958 106.54 54.0431 104.682 57.5885ZM101.283 92.1148C98.082 94.2889 93.8573 93.9099 90.0158 93.4448C87.9174 93.1907 85.746 92.9121 83.942 91.8105C83.5711 91.584 83.0852 91.3251 82.7426 91.5923C84.8934 94.2762 87.6783 96.4485 90.805 97.8813C91.2696 98.0942 91.9548 98.2197 92.1751 97.7585C92.6815 96.6978 94.2184 96.3048 95.1719 96.9923C95.9475 97.5515 97.0197 97.0144 97.7861 96.4427C99.5071 95.1589 101.078 93.674 102.456 92.0278C102.255 91.6281 101.653 91.8633 101.283 92.1148ZM83.1311 74.0974C84.0961 75.7261 86.2976 76.4937 88.066 75.818C89.8345 75.1422 90.9632 73.1022 90.5962 71.2449C90.2291 69.3877 88.4092 67.9304 86.5167 67.9781C84.6241 68.0259 82.8801 69.5733 82.6073 71.4467C82.4749 72.3553 82.6631 73.3074 83.1311 74.0974ZM97.8322 71.2812C97.6049 72.6265 98.1318 74.0448 99.0863 75.0198C99.7875 75.7362 100.754 76.2421 101.756 76.205C103.546 76.1387 104.849 74.4265 105.401 72.7219C105.545 72.2774 105.658 71.8046 105.571 71.3456C105.457 70.7497 105.024 70.2683 104.572 69.8637C103.438 68.8484 101.908 68.079 100.424 68.4199C99.0943 68.7254 98.0595 69.9358 97.8322 71.2812Z" fill="#00160A"/>
</svg>
