<svg width="315" height="317" viewBox="0 0 315 317" fill="none" xmlns="http://www.w3.org/2000/svg">
<path fill-rule="evenodd" clip-rule="evenodd" d="M284.507 255.208C341.856 204.039 267.814 174.842 281.46 131.601C295.106 88.3599 329.646 23.3307 200.77 34.7876C71.8946 46.2445 -35.0995 176.409 10.8454 237.669C56.7902 298.929 227.158 306.377 284.507 255.208Z" fill="#FF7FA0"/>
<path fill-rule="evenodd" clip-rule="evenodd" d="M178.114 150.307C181.837 152.114 185.56 153.922 189.283 155.73C195.148 158.578 201.114 161.494 205.843 165.973C210.572 170.452 213.954 176.822 213.246 183.284C212.412 190.88 206.388 196.732 200.731 201.892C193.357 208.618 185.983 215.343 178.609 222.069C175.378 225.017 171.839 229.214 173.579 233.22C178.099 243.623 182.193 255.457 178.083 266.028C176.923 269.012 174.521 272.093 171.312 271.947C168.924 271.837 167.03 269.967 165.495 268.142C159.39 260.888 154.86 252.325 152.304 243.207C149.032 231.532 149.431 217.85 157.395 208.687C163.584 201.566 174.248 196.778 174.907 187.382C162.85 177.18 145.408 173.703 130.34 178.498C115.272 183.293 103.081 196.2 99.1907 211.476C97.072 219.796 101.815 228.36 107.648 234.675C113.482 240.991 120.638 246.226 125.127 253.552C134.154 268.285 130.213 287.151 125.989 303.892C124.523 309.702 115.678 310.671 111.274 306.593C106.871 302.515 106.113 295.853 106.579 289.881C107.046 283.909 108.445 277.872 107.271 271.997C104.242 256.835 86.4291 249.913 77.7003 237.132C71.0849 227.445 70.1735 214.771 72.6229 203.311C75.0723 191.852 80.5498 181.294 85.969 170.896C75.8845 155.513 71.6509 136.419 74.2925 118.235C75.6253 109.06 63.505 102 64.7671 92.8154C65.7745 85.4845 74.4059 82.1744 81.7019 80.7952C95.5883 78.1703 109.789 77.1998 123.905 77.9112C127.061 78.0703 128.45 73.5018 126.869 70.7751C125.288 68.0485 122.202 66.6448 119.646 64.7933C114.496 61.0632 111.26 55.1822 109.476 49.0928C107.187 41.278 107.182 32.4047 111.435 25.4532C112.497 23.7159 114.324 21.1411 117.104 23.6363C117.938 19.281 126.793 15.095 132.455 17.4331C135.848 18.8344 139.464 15.9606 141.62 12.9977C143.777 10.0348 145.863 6.45709 149.446 5.65312C155.863 4.21354 159.972 12.769 159.233 19.281C158.494 25.793 155.62 32.6725 158.442 38.5921C159.515 40.8428 161.373 42.7916 161.729 45.2579C162.038 47.3975 161.485 46.5632 160.28 51.4891C159.075 56.4149 156.173 57.997 154.977 60.7222C153.135 64.9166 153.412 68.6009 149.564 72.3132C148.916 72.9378 150.235 74.3694 149.769 75.4302C159.246 75.5656 166.446 83.44 173.781 89.4207C182.903 96.8584 194.062 102.062 205.806 103.071C217.549 104.08 229.838 100.647 238.606 92.7979C242.039 89.7253 250.226 93.7394 250.824 89.1805C250.939 87.9994 250.625 87.491 249.502 87.2004C248.921 87.05 247.547 87.3627 247.121 86.8159C245.871 85.2131 253.152 82.4506 252.844 84.6512C252.766 85.2147 252.434 85.6311 252.476 85.9964C252.599 87.0579 253.205 87.3853 254.141 87.5726C256.114 87.6953 258.941 86.3472 260.121 84.6512C260.911 83.5149 260.603 83.2135 259.983 83.1633C258.969 83.0813 257.122 83.6708 257.879 82.381C258.81 80.7952 261.208 79.2914 263.49 80.672C263.982 80.97 263.809 81.5486 263.556 82.1171C263.093 83.1598 262.362 84.1683 264.982 83.3483C269.029 82.0813 269.261 82.3187 270.307 82.6283C271.353 82.938 272.889 84.7761 273.872 86.493C275.894 90.0261 277.969 93.7318 278.159 97.795C278.348 101.858 275.995 106.351 271.995 107.163C271.96 108.346 272.54 109.46 273.42 110.244C274.38 111.097 276.846 110.577 276.431 111.34C275.085 113.819 271.807 114.454 269.226 113.587C268.518 113.349 270.152 112.129 270.307 111.283C270.555 109.93 270.273 108.472 269.446 107.366C267.111 108.35 264.777 109.335 262.443 110.319C263.121 111.182 262.812 112.207 263.49 113.07C264.129 113.885 265.771 113.678 266.046 114.835C266.345 116.093 263.921 116.62 262.669 116.738C261.296 116.867 259.16 117.007 258.521 116.093C257.794 115.053 260.072 114.719 260.177 113.631C260.292 112.444 259.856 111.174 258.81 110.599C256.805 109.498 253.928 111.526 254.302 113.776C255.245 119.445 252.888 125.54 248.371 129.113C243.855 132.686 237.362 133.591 232.034 131.391C227.217 129.401 221.882 131.961 216.897 133.486C205.597 136.944 192.703 134.739 183.207 127.724C182.659 135.566 181.151 144.06 176.12 149.842C176.936 150.307 176.517 150.307 178.114 150.307Z" fill="white"/>
<ellipse cx="127.851" cy="62.6674" rx="2.74638" ry="2.73735" fill="#FFB61D"/>
<circle cx="147.556" cy="57.1747" r="2.74638" fill="#FFB61D"/>
<path fill-rule="evenodd" clip-rule="evenodd" d="M163.595 179.507C162.358 178.953 161.12 178.398 159.874 177.858C150.753 173.901 139.813 171.055 131.207 176.027C129.893 167.662 138.894 161.272 147.177 159.38C149.449 158.861 151.793 158.493 154.138 158.125C160.341 157.15 166.546 156.176 171.415 152.405C178.645 146.806 180.573 136.825 181.21 127.724C190.706 134.739 203.6 136.944 214.9 133.486C215.763 133.222 216.636 132.927 217.515 132.63C221.716 131.211 226.054 129.746 230.037 131.391C235.364 133.591 241.857 132.686 246.374 129.113C250.891 125.54 253.248 119.445 252.305 113.776C251.931 111.526 254.808 109.498 256.812 110.599C257.859 111.174 258.295 112.444 258.18 113.631C258.133 114.118 257.65 114.454 257.197 114.77C256.638 115.159 256.122 115.518 256.524 116.093C257.163 117.007 259.299 116.867 260.672 116.738C261.924 116.62 264.348 116.093 264.049 114.835C263.891 114.172 263.285 113.957 262.675 113.741C262.221 113.579 261.766 113.418 261.492 113.07C261.154 112.638 261.061 112.166 260.969 111.695C260.877 111.223 260.785 110.751 260.446 110.319L267.449 107.366C268.276 108.472 268.558 109.93 268.31 111.283C268.244 111.647 267.903 112.08 267.594 112.474C267.183 112.997 266.825 113.451 267.229 113.587C269.81 114.454 273.088 113.819 274.434 111.34C274.645 110.952 274.111 110.896 273.408 110.822C272.73 110.751 271.895 110.663 271.423 110.244C270.543 109.46 269.963 108.346 269.998 107.163C273.998 106.351 276.351 101.858 276.162 97.795C275.972 93.7318 273.897 90.0261 271.875 86.493C270.892 84.7761 269.356 82.938 268.31 82.6283C268.245 82.6091 268.183 82.5901 268.123 82.5718C267.221 82.295 266.781 82.1601 262.984 83.3483C260.633 84.0843 260.981 83.3471 261.412 82.4343C261.461 82.3302 261.512 82.2238 261.559 82.1171C261.812 81.5486 261.985 80.97 261.492 80.672C259.211 79.2914 256.812 80.7952 255.882 82.381C255.326 83.3281 256.174 83.2619 257.066 83.1923C257.389 83.1671 257.717 83.1415 257.986 83.1633C258.606 83.2135 258.914 83.5149 258.124 84.6512C256.944 86.3472 254.117 87.6953 252.144 87.5726C251.208 87.3853 250.602 87.0579 250.479 85.9964C250.457 85.8022 250.54 85.5936 250.635 85.3561C250.718 85.1468 250.81 84.9151 250.847 84.6512C251.155 82.4506 243.874 85.2131 245.124 86.8159C245.402 87.1722 246.082 87.1636 246.683 87.1559C247.004 87.1518 247.303 87.148 247.505 87.2004C248.627 87.491 248.942 87.9994 248.827 89.1805C248.501 91.6699 245.911 91.603 243.068 91.5296C240.705 91.4686 238.167 91.4031 236.609 92.7979C227.841 100.647 215.552 104.08 203.809 103.071C192.065 102.062 180.906 96.8584 171.784 89.4207C170.525 88.3941 169.27 87.3118 168.006 86.2224C161.91 80.9648 155.623 75.5423 147.772 75.4302C148.003 74.9054 147.796 74.2899 147.607 73.7262C147.414 73.1505 147.24 72.6288 147.567 72.3132C149.593 70.358 150.629 66.5492 151.525 63.2507C152.331 60.2863 153.025 57.7341 154.225 57.3101C156.628 56.4614 157.333 54.3436 158.146 51.9005C158.191 51.7643 158.237 51.6271 158.283 51.4891C158.56 50.6622 158.808 49.9944 159.018 49.4255C159.663 47.6854 159.965 46.8703 159.732 45.2579C159.5 43.6498 158.629 42.2618 157.754 40.8665C157.286 40.1219 156.818 39.3753 156.445 38.5921C154.392 34.2856 155.353 29.471 156.315 24.6595C156.675 22.8573 157.035 21.0555 157.236 19.281C157.975 12.769 153.866 4.21354 147.449 5.65312C144.322 6.35465 142.336 9.16807 140.447 11.8421C140.172 12.2326 139.898 12.6202 139.623 12.9977C137.467 15.9606 133.851 18.8344 130.458 17.4331C124.796 15.095 115.941 19.281 115.107 23.6363C112.327 21.1411 110.5 23.7159 109.438 25.4532C105.185 32.4047 105.19 41.278 107.479 49.0928C109.263 55.1822 112.499 61.0632 117.649 64.7933C118.303 65.2675 118.993 65.7123 119.683 66.1575C121.687 67.4506 123.696 68.7468 124.872 70.7751C126.453 73.5018 125.064 78.0703 121.908 77.9112C107.792 77.1998 93.5912 78.1703 79.7049 80.7952C72.4089 82.1744 63.7774 85.4845 62.77 92.8154C62.1403 97.398 64.8418 101.452 67.5417 105.503C70.2533 109.571 72.9633 113.638 72.2954 118.235C69.6538 136.419 73.8874 155.513 83.9719 170.896C78.5528 181.294 73.0753 191.852 70.6259 203.311C68.1765 214.771 69.0878 227.445 75.7032 237.132C79.1506 242.18 84.0149 246.313 88.8259 250.402C96.1964 256.666 103.442 262.823 105.274 271.997C106.136 276.31 105.611 280.71 105.086 285.107C104.896 286.7 104.706 288.293 104.582 289.881C104.115 295.853 104.874 302.515 109.277 306.593C111.792 308.922 115.755 309.605 118.965 308.68C118.938 309.171 118.909 309.628 118.882 310.058C118.736 312.401 118.641 313.937 119.053 315.758C119.16 316.232 119.335 316.773 119.79 316.946C120.698 317.289 121.304 315.904 121.242 314.963C121.01 311.401 120.565 309.39 120.136 308.255C122.003 307.424 123.468 305.967 123.992 303.892C128.216 287.151 132.157 268.285 123.129 253.552C120.147 248.685 115.988 244.74 111.821 240.789C109.716 238.793 107.609 236.795 105.651 234.675C99.8176 228.36 95.0749 219.796 97.1937 211.476C101.084 196.2 113.275 183.293 128.343 178.498C143.411 173.703 160.853 177.18 172.91 187.382C172.461 193.782 167.371 198.044 162.214 202.362C159.8 204.383 157.372 206.416 155.398 208.687C147.434 217.85 147.035 231.532 150.307 243.207C152.863 252.325 157.393 260.888 163.498 268.142C165.033 269.967 166.927 271.837 169.315 271.947C172.524 272.093 174.926 269.012 176.086 266.028C180.196 255.457 176.102 243.623 171.582 233.22C169.842 229.214 173.381 225.017 176.612 222.069L198.734 201.892C204.391 196.732 210.415 190.88 211.248 183.284C211.957 176.822 208.575 170.452 203.846 165.973C199.117 161.494 193.151 158.578 187.286 155.73L176.117 150.307C179.799 155.022 185.356 157.668 190.827 160.274C191.884 160.778 192.938 161.28 193.974 161.795C200.376 164.976 206.948 169.618 208.413 176.594C210.214 185.165 203.672 193.032 197.606 199.367C189.924 207.39 182.176 215.471 173.051 221.818C169.947 223.977 166.504 225.986 162.72 226.122C158.936 226.257 154.82 223.894 154.225 220.168C153.689 216.804 156.015 213.721 158.202 211.103L174.375 191.745C176.833 188.803 180.071 188.037 183.923 187.127C185.278 186.806 186.709 186.468 188.209 186.01C179.134 186.472 171.407 183.008 163.595 179.507ZM98.1398 127.48C98.7927 133.339 100.604 139.206 104.278 143.827C107.951 148.448 113.676 151.665 119.587 151.41C121.566 151.324 122.2 148.39 121.025 146.801C120.005 145.422 118.32 144.795 116.685 144.187C116.435 144.094 116.187 144.001 115.942 143.906C114.095 143.192 112.125 141.997 111.792 140.051C117.004 144.091 124.784 144.466 130.363 140.945C132.305 146.498 138.746 149.832 144.575 148.915C150.405 147.999 155.277 143.356 157.211 137.8C157.248 137.694 157.284 137.587 157.32 137.48C157.614 136.615 157.916 135.726 158.584 135.114C159.205 134.543 160.053 134.301 160.868 134.076L176.807 129.684C177.203 129.575 177.652 129.473 178.003 129.685C178.377 129.911 178.48 130.398 178.535 130.831C179.638 139.543 174.729 148.695 166.846 152.623C162.62 154.729 157.79 155.417 153.001 156.099C146.753 156.99 140.576 157.87 135.901 161.876C133.357 164.056 131.593 166.92 129.824 169.789C128.979 171.16 128.134 172.532 127.202 173.832C121.489 181.801 110.996 187.197 101.677 184.083C96.3284 182.296 92.1709 178.067 88.7536 173.594C78.4666 160.13 73.0366 143.059 73.662 126.149C73.7755 123.081 74.0917 119.975 75.2052 117.112C82.2673 125.29 90.433 132.52 99.4134 138.547C99.0996 136.924 97.9709 135.592 96.8476 134.375C93.6335 130.895 90.0861 127.636 86.5425 124.38C78.3021 116.809 70.0827 109.257 66.1249 98.9902C65.2549 96.7333 64.6113 94.2694 65.1473 91.9115C66.363 86.5635 72.671 84.3373 78.0654 83.2516C91.0209 80.6442 104.243 79.3527 117.46 79.4034C118.162 87.5609 124.974 94.8565 133.12 95.9306C141.266 97.0047 149.851 91.5725 152.138 83.7087C152.206 83.4754 152.27 83.2389 152.333 83.002C152.618 81.945 152.905 80.8776 153.584 80.0316C154.416 78.996 156.108 78.4869 157.079 79.3944C164.275 86.1217 171.827 92.5892 180.433 97.4004C189.039 102.212 198.817 105.315 208.675 104.879C191.836 111.001 174.623 116.104 157.164 120.15C155.829 120.46 154.175 120.662 153.317 119.597C150.276 115.823 145.317 113.669 140.472 114.018C135.627 114.367 131.03 117.209 128.566 121.381C127.674 122.891 125.447 122.701 123.753 122.229C120.231 121.246 116.605 119.735 114.523 116.738C114.172 116.232 113.867 115.687 113.563 115.144C112.968 114.08 112.376 113.02 111.437 112.261C110.109 111.186 108.37 110.924 106.648 110.665C106.169 110.593 105.692 110.521 105.225 110.432C99.9083 109.417 95.2001 105.65 93.0581 100.697C98.0698 97.3526 104.838 98.9398 110.372 101.332C111.243 101.708 112.117 102.104 112.994 102.501C117.685 104.626 122.472 106.793 127.533 106.33C131.835 105.937 135.591 103.705 139.362 101.465C142.696 99.4838 146.043 97.4954 149.792 96.7627C159.409 94.8829 168.849 102.019 173.352 110.692C173.386 110.759 173.421 110.825 173.455 110.892C174.192 112.316 174.989 113.856 176.466 114.454C174.959 106.012 168.595 98.6069 160.455 95.8243C152.314 93.0416 142.728 94.9942 136.337 100.737C132.371 104.3 126.345 104.552 121.17 103.242C118.254 102.504 115.476 101.349 112.696 100.193C110.54 99.2972 108.383 98.4005 106.16 97.6975C101.07 96.0878 95.1916 95.6117 90.6612 98.4284C89.3012 95.4422 87.4816 92.6643 85.2857 90.2217C87.4622 102.666 98.8531 112.897 111.501 113.768L104.482 116.425C102.842 117.046 101.143 117.706 99.9394 118.977C97.8788 121.155 97.8083 124.505 98.1398 127.48ZM94.6781 214.523C93.9961 217.948 93.6218 221.659 95.1593 224.797C95.988 226.488 97.3112 227.877 98.6124 229.243L98.7016 229.337C106.529 237.557 113.88 246.226 120.709 255.286C117.677 258.188 114.302 260.734 110.676 262.854C109.666 263.444 108.575 264.018 107.404 263.997C105.659 263.966 104.241 262.651 103.013 261.415C94.4386 252.783 86.0855 243.933 77.9646 234.876C75.3825 231.996 72.7572 228.981 71.5837 225.3C70.0921 220.623 71.1481 215.561 72.2129 210.769C75.1491 197.554 78.238 183.978 85.8947 172.797C90.196 180.493 98.1619 186.048 106.892 187.438C100.839 195.393 96.6278 204.731 94.6781 214.523ZM149.224 67.1898C147.943 69.8582 145.783 72.2153 142.981 73.1927C139.246 74.4959 135.137 73.1921 131.48 71.6846C129.58 70.9013 127.66 70.0322 126.188 68.601C124.939 67.3861 124.083 65.8333 123.29 64.2837C120.821 59.4582 118.781 54.415 117.201 49.2325C115.895 44.9468 115.222 39.5238 118.699 36.6854C122.671 39.7229 128.014 40.4849 132.987 39.9086C137.409 39.3962 141.645 37.9316 145.859 36.4748C146.385 36.2931 146.91 36.1114 147.435 35.9318C148.035 35.7266 148.746 35.5371 149.263 35.9021C149.66 36.1813 149.8 36.6936 149.907 37.1651C151.507 44.1777 151.973 51.4458 151.282 58.6043C150.998 61.5485 150.505 64.5214 149.224 67.1898ZM165.184 267.525C158.064 258.067 153.294 246.865 151.416 235.191C150.61 230.178 150.349 224.925 152.025 220.132C153.626 226.41 161.209 230.42 167.325 228.221C168.921 231.497 170.372 234.844 171.673 238.248C175.09 247.19 177.415 257.367 173.631 266.161C172.722 268.275 170.925 270.526 168.641 270.189C167.161 269.97 166.082 268.717 165.184 267.525ZM117.775 23.3113C119.576 20.0987 123.536 18.4666 127.216 18.7753C128.074 18.8474 128.93 18.956 129.768 19.0625C132.424 19.4 134.907 19.7155 136.783 18.7753C139.638 17.3439 140.832 15.3541 142.046 13.3287C142.857 11.9766 143.677 10.6087 145.008 9.38057C145.85 8.60359 146.788 7.85795 147.909 7.61235C150.201 7.11006 152.401 8.84904 153.707 10.7921C156.508 14.9624 156.878 20.6385 154.641 25.1345C152.177 30.086 147.098 33.1844 142.017 35.4003C138.359 36.9957 134.487 38.2899 130.495 38.3722C126.502 38.4544 122.348 37.1945 119.595 34.3122C116.842 31.4298 115.829 26.7854 117.775 23.3113ZM106.518 283.887C106.347 282.622 106.212 281.209 106.983 280.19C110.14 280.473 113.398 279.333 115.684 277.145C114.989 275.715 112.836 275.812 111.477 276.642C110.955 276.961 110.475 277.352 109.997 277.742C109.23 278.369 108.466 278.992 107.536 279.307C106.637 278.42 106.798 276.855 107.546 275.838C108.294 274.821 109.469 274.221 110.601 273.658L117.726 270.107C116.358 268.756 114.076 268.739 112.328 269.546C110.581 270.354 109.244 271.82 107.958 273.248C106.529 270.763 107.549 267.196 110.077 265.833L119.308 260.855C120.025 260.468 120.785 260.07 121.601 260.095C123.365 260.147 124.43 262.051 124.913 263.743C126.31 268.638 125.884 273.842 125.446 278.912C124.803 286.368 124.149 293.882 122.05 301.067C121.327 303.544 120.185 306.242 117.783 307.202C115.176 308.243 112.11 306.662 110.551 304.335C108.992 302.007 108.578 299.126 108.203 296.353L106.518 283.887ZM229.586 114.835C230.586 114.713 231.452 113.562 230.964 112.684L227.533 106.5C227.081 105.685 226.618 104.836 226.558 103.906C226.497 102.977 226.963 101.944 227.852 101.657C229.125 101.246 230.295 102.472 231.031 103.584C232.583 105.928 233.936 108.403 235.071 110.973C236.418 109.184 234.947 106.714 233.602 104.924C232.258 103.134 231.081 100.388 232.763 98.9073C234.424 97.4445 237.063 98.9437 238.336 100.752C239.004 101.702 239.554 102.756 240.101 103.806C241.161 105.84 242.214 107.859 244.109 109.079C244.927 108.581 244.52 107.332 244.024 106.514L237.665 96.0253C237.096 95.0873 238.036 93.8155 239.124 93.6571C240.212 93.4987 241.262 94.0787 242.171 94.6954C246.544 97.6617 250.027 102.203 250.848 107.41C251.67 112.617 249.439 118.402 244.853 121.03C243.467 121.825 241.922 122.32 240.351 122.625C230.792 124.477 220.33 118.379 217.265 109.169C216.796 107.759 216.683 105.834 218.014 105.166C219.028 104.657 220.254 105.262 221.099 106.018C222.321 107.111 223.193 108.51 224.066 109.909C224.907 111.257 225.748 112.606 226.902 113.683C227.636 114.369 228.587 114.957 229.586 114.835ZM129.863 125.183C131.037 125.219 132.254 125.257 133.23 125.887C134.307 126.581 134.776 128.34 133.756 129.115C133.37 129.409 132.87 129.494 132.39 129.571C127.935 130.283 122.852 130.836 119.389 127.955C118.61 128.309 118.382 129.376 118.7 130.168C119.018 130.96 119.725 131.524 120.433 132.003C123.576 134.133 127.339 135.342 131.139 135.445C128.651 137.592 125.008 138.323 121.88 137.302C120.651 136.901 118.924 136.444 118.381 137.613C120.79 139.908 124.468 140.084 127.801 140.127C121.847 142.954 114.034 141.113 109.982 135.927C109.694 135.558 109.043 135.747 108.814 136.155C108.585 136.564 108.647 137.066 108.716 137.529C109.067 139.885 109.548 142.475 111.425 143.951C112.419 144.731 113.651 145.072 114.885 145.412C115.377 145.548 115.869 145.683 116.346 145.847C118.02 146.422 119.749 147.683 119.765 149.446C114.374 149.909 109.097 146.865 105.833 142.565C102.57 138.265 101.071 132.874 100.379 127.527C100.2 126.144 100.075 124.713 100.478 123.379C101.28 120.721 103.915 119.115 106.343 117.756C108.104 116.77 110.532 115.861 111.929 117.315C116.481 122.052 122.924 124.933 129.501 125.171C129.621 125.176 129.742 125.179 129.863 125.183ZM141.424 134.735L210.415 115.705C213.419 114.876 216.975 114.151 219.379 116.128C192.064 124.54 164.399 131.822 136.478 137.952C134.958 138.286 132.792 138.219 132.527 136.691C133.444 136.724 133.441 135.699 133.437 134.615C133.433 133.548 133.429 132.424 134.304 132.196L214.701 111.274C215.187 111.147 215.804 111.063 216.102 111.465C216.587 112.12 215.595 112.852 214.808 113.07L138.13 134.31C138.826 135.263 140.285 135.049 141.424 134.735ZM219.21 129.251C214.233 132.574 207.914 133.446 201.964 132.743C196.014 132.041 190.342 129.883 184.829 127.547L217.837 118.328C218.994 118.005 220.423 117.751 221.239 118.629C227.937 125.84 240.124 127.127 248.19 121.475C247.249 125.962 243.176 129.612 238.599 130.071C235.991 130.332 233.423 129.657 230.868 128.986C230.191 128.808 229.514 128.631 228.838 128.471C225.612 127.708 221.964 127.412 219.21 129.251ZM127.995 74.0314C128.466 73.3591 129.481 72.9883 130.134 73.4872C133.965 76.4123 139.29 77.2761 143.853 75.7126C145.31 75.2136 146.967 76.2468 147.568 77.6598C148.17 79.0727 147.927 80.7099 147.399 82.1515C145.79 86.5412 141.46 89.807 136.784 90.1584C132.107 90.5098 127.335 87.9277 125.084 83.828C124.389 82.5624 124.157 80.5786 125.497 80.033C126.834 79.4888 127.217 77.8119 127.362 76.3801L127.366 76.3368C127.447 75.5337 127.532 74.6919 127.995 74.0314ZM255.549 109.172C255.01 109.317 254.44 109.46 253.901 109.316C253.362 109.172 252.886 108.632 253.022 108.093C257.846 107.329 262.503 105.533 266.586 102.86C268.176 101.82 269.864 100.006 269.061 98.2868C268.529 97.1471 267.101 96.7085 265.841 96.7598C264.015 96.8342 262.314 97.6499 260.673 98.4497L251.82 102.765C251.409 102.279 251.579 101.498 252.015 101.033C252.434 100.585 253.029 100.355 253.604 100.133L253.668 100.109C257.687 98.5545 261.431 96.298 264.679 93.4731C265.63 92.6458 265.136 90.9412 264.05 90.2995C262.964 89.6578 261.599 89.7845 260.358 90.0154C256.757 90.6854 253.292 92.0695 250.224 94.0632C248.714 95.0446 246.57 96.1316 245.335 94.8229C248.669 91.4558 253.239 89.6586 257.667 87.9526L266.235 84.6512C266.831 84.4217 267.475 84.1886 268.094 84.3464C268.936 84.5612 269.429 85.4092 269.811 86.1874C271.975 90.603 273.568 95.2959 274.539 100.114C274.68 100.813 274.796 101.585 274.435 102.201C274.107 102.759 273.469 103.044 272.869 103.291C267.229 105.616 261.44 107.581 255.549 109.172ZM215.028 109.466C214.707 109.807 214.228 109.939 213.775 110.058L135.093 130.585C136.314 127.645 139.905 126.639 143.025 125.961C164.734 121.24 186 114.729 207.244 108.225C208.452 107.856 209.66 107.486 210.868 107.116C211.916 106.796 213.057 106.477 214.084 106.86C215.111 107.243 215.779 108.67 215.028 109.466ZM108.535 31.1807C109.017 29.6084 109.805 27.4358 111.039 26.3435C111.667 25.7865 112.519 25.1925 113.276 25.5588C113.751 25.789 113.985 26.3213 114.18 26.8111C114.471 27.5436 114.888 28.5258 115.304 29.508C115.721 30.4902 116.137 31.4723 116.429 32.2049C116.838 33.2324 117.234 34.8291 116.484 35.3481C113.276 37.5671 114.006 45.6681 115.442 49.3955C115.785 50.2855 116.08 52.1092 115.784 53.4387C115.488 54.7683 114.006 55.9642 112.793 55.3358C112.098 54.9752 110.994 53.0646 110.595 52.3725C110.558 52.3092 110.528 52.2561 110.504 52.2154C104.594 42.1389 107.87 33.0367 108.46 31.398C108.496 31.2963 108.522 31.2234 108.535 31.1807ZM134.463 140.287C139.717 139.317 144.917 138.056 150.031 136.512C150.111 136.488 150.19 136.464 150.269 136.44C151.861 135.958 153.476 135.469 155.138 135.477C154.929 138.097 153.468 140.524 151.465 142.233C149.462 143.942 146.953 144.983 144.384 145.575C142.435 146.024 140.381 146.226 138.444 145.728C136.508 145.229 134.703 143.939 133.966 142.087C133.703 141.423 133.759 140.417 134.463 140.287ZM140.978 124.658C137.627 125.132 134.085 124.889 131.068 123.36C130.431 123.037 130.761 122.065 131.211 121.511C133.527 118.664 137.035 116.812 140.7 116.5C144.365 116.189 148.137 117.423 150.903 119.838C151.36 120.238 151.825 120.869 151.516 121.391C151.353 121.666 151.028 121.793 150.727 121.901C147.541 123.04 144.329 124.185 140.978 124.658ZM130.653 93.6864C127.673 92.7554 125.342 90.3926 123.638 87.7851C122.606 86.2045 121.761 84.5158 120.915 82.8262C120.366 81.7286 119.817 80.6307 119.216 79.5618C120.32 79.3791 121.394 80.1291 122.007 81.0624C122.444 81.7288 122.709 82.4831 122.974 83.2377C123.08 83.5401 123.186 83.8425 123.303 84.1393C125.506 89.7126 132.067 93.0547 137.976 91.9501C143.884 90.8455 148.676 85.6596 149.7 79.7572C149.808 79.1371 150.003 78.37 150.623 78.2469C151.292 78.804 151.322 79.8109 151.204 80.672C150.347 86.9208 144.661 91.6229 138.587 93.3985C136.01 94.1519 133.215 94.4872 130.653 93.6864ZM248.764 97.4279C252.487 94.5326 256.875 92.4917 261.493 91.5075C262.048 91.3894 262.88 91.5109 262.83 92.0738C262.814 92.2516 262.698 92.4027 262.584 92.5402C260.29 95.2974 256.931 96.9108 253.682 98.4419C252.772 98.8709 251.812 99.31 250.807 99.2481C249.801 99.1861 248.763 98.4313 248.764 97.4279ZM264.875 98.8157C265.354 98.6634 265.877 98.5204 266.348 98.696C266.818 98.8717 267.129 99.5154 266.798 99.8918C263.948 103.134 259.683 104.734 255.522 105.912C254.434 106.22 252.835 106.212 252.649 105.1C256.336 102.347 260.487 100.213 264.875 98.8157ZM152.947 51.3166C153.188 49.833 153.475 48.0603 153.475 46.9137C153.475 45.3387 153.715 43.4122 155.189 42.8514C156.602 42.3136 158.198 43.6038 158.47 45.0862C158.742 46.5687 157.062 52.5541 156.227 53.811C155.846 54.3853 155.402 54.9582 154.775 55.247C154.148 55.5357 153.293 55.4423 152.909 54.8698C152.709 54.5718 152.664 54.1997 152.63 53.8427C152.595 53.4849 152.757 52.4914 152.947 51.3166ZM152.98 32.6724C153.054 32.7779 153.085 32.9059 153.115 33.0309C153.727 35.6202 153.964 38.2971 153.818 40.9532C153.116 41.2679 152.534 40.334 152.328 39.5949L151.445 36.4334C151.098 35.1891 150.818 33.6664 151.745 32.7639C152.082 32.4362 152.711 32.2875 152.98 32.6724ZM115.831 60.8442C114.919 60.2159 114.179 59.7067 114.179 58.1525C114.179 56.3138 116.173 54.5219 116.608 54.8699C118.188 56.1351 121.028 62.4095 121.17 64.4243C119.981 63.9405 119.105 63.2807 117.505 62.076C117.156 61.8138 116.774 61.5258 116.346 61.2082C116.171 61.0781 115.998 60.9591 115.831 60.8442ZM126.2 132.525L129.423 131.846C129.825 131.761 130.313 131.703 130.582 132.013C131.1 132.609 130.08 133.363 129.288 133.378C128.205 133.398 127.118 133.098 126.2 132.525ZM224.019 103.023C224.602 103.089 225.095 103.831 224.711 104.273L224.676 104.313C224.172 104.697 223.593 105.101 222.966 105.011C222.339 104.921 221.897 104.006 222.416 103.644C222.897 103.309 223.436 102.958 224.019 103.023ZM228.656 112.623L227.924 112.516L227.852 112.509L226.301 110.131C227.661 109.692 229.178 111.296 228.656 112.623ZM225.248 108.331C224.652 108.359 224.173 107.619 224.446 107.09C224.719 106.561 225.602 106.519 225.925 107.019C226.249 107.519 225.844 108.302 225.248 108.331ZM143.91 30.7617L138.309 33.4044C134.029 35.4235 128.653 34.9004 124.846 32.0944C124.309 31.9702 123.843 32.6103 123.934 33.1523C124.025 33.6943 124.467 34.1043 124.91 34.4315C127.979 36.6982 132.176 36.9821 135.878 36.0427C139.58 35.1033 142.9 33.0809 146.116 31.0272C145.883 30.2138 144.677 30.3997 143.91 30.7617ZM138.644 43.0228C138.184 43.433 137.387 42.876 137.395 42.2607C137.402 41.6454 137.903 41.1507 138.419 40.8132C140.585 39.3978 143.689 39.6175 145.632 41.3236C145.204 42.026 144.201 41.8632 143.357 41.726C143.291 41.7152 143.226 41.7047 143.162 41.6947C141.559 41.4435 139.854 41.9449 138.644 43.0228ZM128.269 45.3478C129.004 45.1807 129.782 44.6203 129.712 43.8725C129.653 43.242 129.017 42.8235 128.404 42.6538C126.961 42.2537 125.304 42.7738 124.351 43.9258C123.399 45.0779 123.203 46.7982 123.874 48.1332C124.196 47.8458 124.459 47.4918 124.721 47.1397C125.109 46.6173 125.494 46.0991 126.066 45.8087C126.5 45.5889 126.985 45.5304 127.472 45.4717C127.74 45.4394 128.009 45.4071 128.269 45.3478ZM142.898 53.6463C143.787 53.6337 144.386 52.7188 144.61 51.8614C145.069 50.0982 144.602 48.1219 143.4 46.7488C142.856 46.1271 141.93 45.6099 141.238 46.0624C141.023 46.2024 140.87 46.4174 140.746 46.6407C139.878 48.2038 140.312 50.1581 140.987 51.8131C141.342 52.6828 141.955 53.6598 142.898 53.6463ZM131.659 53.6501L131.394 50.9006C131.293 49.8542 131.068 48.624 130.111 48.1815C128.804 47.577 127.423 49.0254 127.081 50.4203C126.713 51.9183 126.925 53.5502 127.664 54.9052C128.335 56.1341 130.004 57.1637 131.071 56.2539C131.777 55.651 131.747 54.5727 131.659 53.6501ZM129.45 259.731C136.819 259.512 144.188 259.296 151.557 259.084C152.366 259.061 153.236 259.054 153.907 259.504C154.53 259.922 154.871 260.721 154.741 261.458L133.108 261.864C132.305 261.879 131.473 261.889 130.734 261.574C129.995 261.26 129.371 260.528 129.45 259.731ZM137.019 62.5483C136.23 62.3236 136.602 61.1553 136.973 60.4253C138.173 58.0667 137.497 55.174 136.296 52.8162L136.266 52.7579C135.999 52.2355 135.714 51.6776 135.809 51.1024C135.907 50.5058 136.662 50.0097 137.134 50.3901C137.275 50.5045 137.361 50.672 137.443 50.8345C138.345 52.6251 139.23 54.4657 139.524 56.4477C139.818 58.4297 139.439 60.6055 138.075 62.0775C137.799 62.3753 137.41 62.6596 137.019 62.5483ZM138.198 70.0601C141.897 69.4693 144.864 65.8806 144.737 62.1503C144.729 61.9284 144.709 61.6974 144.595 61.5069C144.274 60.9729 143.4 61.0974 142.988 61.5652C142.649 61.9502 142.52 62.4602 142.393 62.9634C142.366 63.0717 142.338 63.1796 142.309 63.286C141.815 65.0816 140.584 66.6644 138.963 67.5905C138.884 67.6355 138.804 67.6798 138.723 67.7243L138.722 67.7246C138.249 67.9851 137.762 68.253 137.513 68.7219C137.222 69.271 137.583 70.1584 138.198 70.0601ZM160.782 294.718C160.94 299.148 161.434 313.207 160.857 315.758C160.749 316.233 160.575 316.773 160.119 316.946C159.211 317.29 158.678 315.931 158.667 314.963C158.575 307.12 158.484 297.903 158.393 288.687C158.301 279.471 158.21 270.254 158.118 262.411C159.624 262.411 160.119 267.703 160.119 271.121C160.119 282.606 160.782 294.718 160.782 294.718ZM108.979 197.308C108.759 197.18 108.502 197.052 108.239 196.92C107.191 196.396 106.037 195.819 106.644 195.006C122.697 195.699 138.787 195.538 154.823 194.525C159.364 194.238 164.487 193.576 167.187 189.926C167.295 189.779 167.399 189.628 167.504 189.477C167.863 188.957 168.224 188.434 168.751 188.097C169.433 187.661 170.523 187.716 170.864 188.448C170.383 192.361 166.702 195.623 162.746 195.642C161.014 195.651 160.428 197.902 160.208 199.614C159.989 201.325 158.804 203.517 157.179 202.921C157.59 201.518 157.855 200.073 157.97 198.617C158.009 198.128 157.999 197.561 157.62 197.249C157.325 197.007 156.907 197.006 156.525 197.017L114.156 198.221C113.887 198.229 113.591 198.248 113.399 198.435C113.165 198.664 113.186 199.039 113.225 199.364L116.232 224.909C116.298 225.471 116.527 226.189 117.095 226.192L141.114 226.324C142.39 226.331 144.208 227.303 143.428 228.311C143.108 228.723 142.509 228.761 141.987 228.763L117.543 228.861C116.511 228.866 116.219 230.264 116.257 231.291L116.646 241.803C113.709 239.718 113.508 235.534 113.488 231.941C113.428 221.473 112.489 211.009 110.683 200.696C110.458 199.409 110.113 197.966 108.979 197.308Z" fill="#00160A"/>
<path fill-rule="evenodd" clip-rule="evenodd" d="M163.363 246.932C164.369 244.66 166.712 243.036 169.201 242.887C169.847 242.848 170.582 242.943 170.977 243.455C171.372 243.967 171.033 244.939 170.39 244.855C168.848 244.654 167.308 245.438 166.226 246.551C165.143 247.664 164.437 249.078 163.748 250.468C162.758 249.66 162.847 248.099 163.363 246.932Z" fill="#00160A"/>
<path fill-rule="evenodd" clip-rule="evenodd" d="M295.433 58.9743C297.966 59.2128 300.312 57.7499 302.412 56.3176C308.249 52.3354 314.536 46.906 314.152 39.8649C314.031 37.6289 313.222 35.525 312.413 33.4189C312.067 32.5174 311.72 31.6155 311.427 30.7027C309.898 25.9356 309.841 20.9092 309.784 15.87C309.738 11.7366 309.691 7.59451 308.831 3.57961C308.523 2.13982 307.906 0.504201 306.488 0.0947397C305.688 -0.135972 304.837 0.0984066 304.039 0.331974L278.54 7.79184C273.74 9.19609 272.712 15.4095 272.574 20.3949L272.2 33.9598C270.684 34.1492 269.246 33.557 267.807 32.9647C267.258 32.7386 266.709 32.5126 266.156 32.33C260.707 30.5321 254.119 33.5551 251.944 38.8505C249.77 44.1459 252.341 50.9076 257.49 53.4349C262.639 55.9622 269.582 53.8705 272.465 48.9232C274.423 45.5638 274.539 41.4849 274.604 37.6L274.724 30.3055C274.769 27.5793 277.837 26.0675 280.43 25.2008C288.416 22.5313 296.476 20.0812 304.598 17.8541C305.4 17.634 306.398 17.4689 306.946 18.0932C307.243 18.4306 307.307 18.9058 307.359 19.3512L308.47 28.9015C308.635 30.3179 308.475 32.2225 307.077 32.5228C300.326 33.9729 294.324 38.5699 291.179 44.7003C289.839 47.3119 288.993 50.3115 289.587 53.1845C290.18 56.0575 292.504 58.6985 295.433 58.9743ZM305.747 4.34337C306.032 4.63183 306.114 5.05672 306.183 5.45517L306.957 9.9383C307.161 11.1225 307.355 12.3945 306.839 13.4814C306.025 15.1984 303.863 15.715 301.987 16.0839C297.653 16.9361 293.375 18.067 289.189 19.4672C285.69 20.6374 282.259 21.9943 278.828 23.3506C278.538 23.4653 278.248 23.58 277.958 23.6946C277.144 24.0161 276.022 24.2479 275.555 23.5118C275.439 23.3275 275.39 23.1096 275.35 22.8955C274.531 18.5483 276.545 13.8064 280.253 11.3516C282.295 9.99958 284.709 9.33633 287.076 8.69355L303.72 4.17537C304.408 3.98867 305.247 3.83853 305.747 4.34337ZM272.167 40.0932C272.097 44.295 271.081 49.0992 267.344 51.1326C264.378 52.7459 260.506 51.9705 257.815 49.9442C254.655 47.5646 252.92 42.8258 255.23 39.6372C256.192 38.3091 257.695 37.4482 259.25 36.885C262.824 35.5913 266.907 35.7213 270.388 37.2397C270.943 37.4821 271.511 37.7815 271.832 38.289C272.165 38.8154 272.177 39.473 272.167 40.0932ZM39.1982 24.7083C39.4138 25.3704 40.3535 25.3451 41.0336 25.186L47.2178 23.7397C47.0453 22.1342 46.7324 20.5436 46.2839 18.9919C46.1517 18.5346 45.9923 18.0563 45.6326 17.7433C45.0754 17.2586 44.2415 17.3256 43.508 17.4207L34.0094 18.6528C33.3572 18.7374 32.4869 19.1599 32.7351 19.7668C34.9097 25.0832 36.6248 30.586 37.8554 36.1946C38.0908 37.2674 38.0511 38.7741 36.9745 39.0094C33.8566 39.691 31.1889 42.1293 30.2391 45.1657C29.9469 46.0998 29.8143 47.1373 30.1922 48.0403C30.3971 48.5296 30.7408 48.9505 31.1261 49.3162C32.9753 51.0716 35.9248 51.5598 38.2443 50.4943C40.5637 49.4289 42.1066 46.877 41.9678 44.336C41.9153 43.3762 41.6473 42.4427 41.381 41.5188L35.3089 20.4577L43.3485 19.829C44.156 19.8742 44.4972 21.0175 44.0706 21.7021C43.644 22.3868 42.7964 22.6715 42.0035 22.8305C41.8893 22.8533 41.774 22.875 41.6584 22.8967C40.9713 23.0257 40.2723 23.1569 39.7152 23.5663C39.3545 23.8314 39.0599 24.2836 39.1982 24.7083Z" fill="#FFB61D"/>
<path fill-rule="evenodd" clip-rule="evenodd" d="M162.041 240.121C161.799 240.433 161.255 240.344 161.022 240.025C160.79 239.706 160.81 239.263 160.937 238.89C161.164 238.221 161.677 237.689 162.215 237.229C163.567 236.074 165.177 235.22 166.894 234.746C167.571 234.56 168.36 234.452 168.92 234.873C169.48 235.295 169.39 236.421 168.691 236.483C166.099 236.715 163.628 238.066 162.041 240.121Z" fill="#00160A"/>
</svg>
