<svg width="20" height="21" viewBox="0 0 20 21" fill="none" xmlns="http://www.w3.org/2000/svg">
<path d="M13.3421 1.52719C12.4299 0.542344 11.1559 0 9.74967 0C8.33596 0 7.05771 0.539062 6.14977 1.51781C5.23198 2.50734 4.7848 3.85219 4.8898 5.30437C5.09792 8.16937 7.27802 10.5 9.74967 10.5C12.2213 10.5 14.3977 8.16984 14.6091 5.30531C14.7155 3.86625 14.2655 2.52422 13.3421 1.52719Z" fill="#758296"/>
<path d="M17.9998 20.999H1.50023C1.28426 21.0018 1.07039 20.9564 0.874165 20.8661C0.677941 20.7759 0.504302 20.643 0.365883 20.4772C0.0612039 20.113 -0.0616052 19.6157 0.0293298 19.1127C0.424944 16.918 1.6596 15.0744 3.60017 13.7802C5.32418 12.6313 7.50803 11.999 9.75 11.999C11.992 11.999 14.1758 12.6318 15.8998 13.7802C17.8404 15.074 19.0751 16.9176 19.4707 19.1122C19.5616 19.6152 19.4388 20.1126 19.1341 20.4768C18.9957 20.6427 18.8221 20.7756 18.6259 20.8659C18.4297 20.9563 18.2158 21.0017 17.9998 20.999V20.999Z" fill="#758296"/>
</svg>
