<svg width="163" height="158" viewBox="0 0 163 158" fill="none" xmlns="http://www.w3.org/2000/svg">
<path fill-rule="evenodd" clip-rule="evenodd" d="M81.4645 16.6746C129.374 24.7002 162.784 51.9687 162.784 95.506C162.784 147.69 121.278 93.4694 92.6578 123.894C64.0376 154.319 3.06183 155.182 0.145047 95.506C-2.58543 39.6418 33.5552 8.64906 81.4645 16.6746Z" fill="#5B60FD"/>
<path fill-rule="evenodd" clip-rule="evenodd" d="M56.9746 101.037L69.6479 84.689L69.9389 84.9187C71.8105 86.3861 73.2948 87.3532 74.3917 87.8199L74.7163 87.9571C79.9855 90.1673 83.6086 90.9181 83.0265 91.4373L82.3054 92.0834C77.6482 96.2757 71.2717 102.372 63.1757 110.373C62.0669 111.564 60.573 112.328 58.959 112.532L57.2893 112.731C40.9014 114.666 30.3877 114.833 26.535 113.982C25.7304 113.804 23.2538 114.268 21.384 116.141C18.5792 118.951 14.5683 125.718 13.8947 125.718C12.9155 125.718 13.8382 121.236 16.6629 112.271L16.9614 111.229C18.2774 106.679 19.2241 103.989 19.8015 103.159C20.4217 102.267 22.5167 103.842 26.0864 107.883L25.9896 108.408C26.4529 107.872 27.0021 107.302 27.6373 106.697L29.3239 106.496C35.2824 105.775 39.8116 105.115 42.9113 104.517L43.2377 104.453C46.5962 103.79 51.1751 102.651 56.9746 101.037Z" fill="white"/>
<path fill-rule="evenodd" clip-rule="evenodd" d="M135.894 84.1007L140.606 87.6417C141.511 88.3202 142.174 89.2717 142.497 90.3539L143.39 93.3353C143.81 94.2371 143.442 95.3085 142.557 95.7648L140.892 96.9961C139.822 97.547 138.517 96.9503 138.236 95.7814L137.299 92.4588C137.299 92.4588 133.329 91.2557 132.8 86.5429L135.894 84.1007Z" fill="white"/>
<path fill-rule="evenodd" clip-rule="evenodd" d="M113.182 25.9432C116.402 26.0738 118.02 30.474 119.073 32.649C119.431 33.39 116.909 55.2883 116.085 60.8919C114.618 70.8712 110.182 74.0354 107.398 74.7147C107.398 74.7147 107.565 86.0603 106.399 88.8841C103.816 95.1368 71.1282 90.9399 67.9336 80.4895C65.7498 73.3453 73.8654 72.5127 76.9114 68.2053C82.4939 60.3111 82.7834 52.9641 88.7969 47.7082C91.0758 45.2178 93.7216 42.718 96.0037 39.7121L96.932 38.4939C102.736 30.9109 107.156 25.8797 112.88 25.9355L113.182 25.9432Z" fill="white"/>
<path fill-rule="evenodd" clip-rule="evenodd" d="M97.0377 44.9246C96.5045 45.181 95.7243 45.2606 95.4462 44.7397C94.5731 43.1041 91.9016 42.8793 90.7664 44.3458C91.856 43.9722 93.1258 43.6157 94.1001 44.2293C94.3713 44.4 94.6056 44.6394 94.8374 44.8762C95.2236 45.2707 95.6029 45.6583 96.1346 45.7103C96.53 45.749 96.9063 45.583 97.2809 45.4178C97.6829 45.2406 98.0829 45.0642 98.5019 45.1428C98.9671 45.2301 99.2933 45.5991 99.6196 45.9683C99.9448 46.3363 100.27 46.7045 100.734 46.7937C101.113 46.8667 101.494 46.731 101.871 46.5966C102.294 46.4463 102.711 46.2976 103.117 46.4436C103.602 46.6178 103.824 47.1161 104.046 47.6148C104.266 48.1109 104.487 48.6074 104.967 48.786C105.252 48.8918 105.559 48.8535 105.863 48.7945L106.164 48.7332C106.873 48.5925 107.639 48.5798 108.288 48.8982C108.845 49.1718 109.285 49.7381 109.32 50.3425C109.335 50.2121 109.348 50.0819 109.359 49.9521L109.471 49.2161C108.828 48.4632 107.817 48.0371 106.827 48.1027C106.657 48.1139 106.488 48.1387 106.318 48.1634C105.992 48.2109 105.666 48.2583 105.343 48.2092C104.851 48.1346 104.351 47.7172 104.434 47.2283L104.441 47.1755C104.532 46.3567 103.431 45.887 102.586 45.956C102.406 45.9707 102.222 45.9945 102.037 46.0185C101.332 46.1098 100.61 46.2032 100.057 45.799C99.8428 45.6428 99.6774 45.4242 99.5137 45.2076C99.2846 44.9046 99.0587 44.6057 98.707 44.4879C98.3184 44.3577 97.9233 44.4942 97.5401 44.6756L97.4128 44.7374L97.0377 44.9246ZM90.9046 50.6191C91.2716 51.1103 92.0271 50.8351 92.6105 50.6227L92.6408 50.6116C94.2049 50.0426 96.0895 50.4867 97.2326 51.6935C97.8593 52.3552 98.7866 52.1703 99.7466 51.9788C100.549 51.8188 101.374 51.6543 102.065 51.9752C102.389 52.1252 102.689 52.3789 102.983 52.6275C103.522 53.0831 104.04 53.5216 104.644 53.2734C105.79 52.8027 107.196 53.0537 108.116 53.8775L108.113 54.137L108.109 54.7095C107.194 53.7962 105.714 53.5004 104.517 53.9921C103.913 54.2403 103.395 53.8018 102.856 53.3462C102.562 53.0976 102.261 52.8439 101.938 52.6939C101.247 52.373 100.422 52.5375 99.6196 52.6975C98.6595 52.889 97.7322 53.0739 97.1055 52.4122C95.9853 51.2295 94.1529 50.7794 92.608 51.2974L92.2996 51.4076C91.7496 51.6021 91.1069 51.7787 90.7775 51.3377C89.7382 49.9466 87.6512 49.4589 86.1001 50.2448L86.3006 49.49L86.3924 49.4481C87.9234 48.7756 89.9017 49.2767 90.9046 50.6191ZM87.3433 56.8225C86.7686 57.0571 86.0242 57.361 85.6385 56.8842C84.936 56.0155 83.3309 55.9522 80.8232 56.6941C81.0149 56.8239 81.5094 56.8111 82.1193 56.7953C83.268 56.7655 84.8258 56.7252 85.5392 57.6072C85.8854 58.0353 86.5208 57.8341 87.0629 57.6188L87.3668 57.4968C88.8906 56.92 90.739 57.2997 91.9039 58.4387C92.5556 59.0759 93.4752 58.8556 94.4271 58.6275C95.2225 58.4369 96.0404 58.241 96.7438 58.5351C97.0727 58.6726 97.3824 58.9147 97.6858 59.1518C98.2419 59.5865 98.777 60.0048 99.3711 59.7336L99.4537 59.6974C100.127 59.4141 101.42 59.8916 102.592 60.3244C103.445 60.6392 104.234 60.9305 104.673 60.8878C101.956 59.2935 100.222 58.6678 99.4704 59.0106L99.4107 59.0356C98.8404 59.2536 98.3225 58.8488 97.7852 58.4288C97.4817 58.1916 97.172 57.9496 96.8432 57.8121C96.1398 57.5179 95.3218 57.7139 94.5264 57.9045C93.5745 58.1325 92.655 58.3528 92.0032 57.7156C90.8145 56.5534 88.9142 56.1818 87.3732 56.8103L87.3433 56.8225ZM92.6705 83.1439C93.3598 83.585 94.2527 84.1564 94.8905 83.8428C96.0167 83.289 98.0463 83.7805 100.98 85.3174L101.262 85.4669C100.974 85.5197 100.329 85.3218 99.533 85.0778L99.5329 85.0778C98.0338 84.6182 96.0008 83.9949 94.8209 84.5751C94.2484 84.8567 93.4703 84.4249 92.8184 84.0145L92.4533 83.7833C90.732 82.7297 88.4067 82.3742 86.6046 82.8711C86.0268 83.111 85.2223 82.8302 84.3382 82.5217L84.3381 82.5217C83.7368 82.3118 83.0986 82.0891 82.4699 82.0086C81.6949 81.9095 81.2957 81.969 80.9453 82.0213C80.5937 82.0737 80.2913 82.1188 79.7076 81.9887C79.2563 81.8881 78.5353 81.5736 77.5444 81.0452C75.7876 80.2041 72.6749 80.3061 71.0366 80.8906L70.9481 80.921C69.1967 81.4985 69.2114 80.8658 70.9725 80.2072L71.1061 80.1583L71.2114 80.1221C73.0831 79.5006 76.5496 79.5685 78.3637 80.7289L78.3996 80.7519C79.0889 81.193 79.9817 81.7645 80.6195 81.4508L80.6666 81.4297C81.1128 81.2469 82.1563 81.25 82.4799 81.2714L82.5394 81.2764C83.6287 81.3967 83.8655 81.4952 84.1243 81.6834L84.3098 81.8235L84.4157 81.8641C84.8093 82.0171 85.2268 82.1978 85.6683 82.4066C85.8508 82.3903 86.0608 82.3425 86.309 82.2539L86.4142 82.2177C88.286 81.5962 90.8205 81.9605 92.6347 83.1209L92.6705 83.1439ZM84.5611 62.2951C84.969 62.7719 85.7566 62.4681 86.3646 62.2335L86.3962 62.2213C88.0265 61.5928 90.0369 61.9643 91.2944 63.1266C91.9839 63.7638 92.9567 63.5435 93.9638 63.3154C94.8052 63.1249 95.6706 62.9289 96.4147 63.223C96.7626 63.3605 97.0902 63.6026 97.4113 63.8398C97.9798 64.2598 98.5276 64.6645 99.131 64.4465L99.1942 64.4215C99.9887 64.0787 101.823 64.7045 104.698 66.2987C104.234 66.3414 103.399 66.0502 102.497 65.7353C101.257 65.3025 99.8888 64.825 99.1765 65.1083L99.0891 65.1445C98.4606 65.4157 97.8945 64.9974 97.3062 64.5628L97.3062 64.5628C96.9852 64.3256 96.6575 64.0836 96.3096 63.946C95.5655 63.6519 94.7001 63.8479 93.8587 64.0384C92.8516 64.2665 91.8788 64.4868 91.1894 63.8496C89.9569 62.7106 88.0015 62.331 86.3894 62.9078L86.068 63.0297C85.4944 63.2451 84.8222 63.4462 84.456 63.0182C83.7013 62.1361 82.0533 62.1765 80.838 62.2063C80.1928 62.2221 79.6696 62.2349 79.4668 62.1051C82.1198 61.3631 83.8179 61.4265 84.5611 62.2951ZM84.1471 68.1856C83.4476 68.4202 82.5415 68.724 82.0721 68.2472C81.217 67.3786 79.2633 67.3152 76.2109 68.0572C76.4443 68.187 77.0462 68.1742 77.7886 68.1583C79.1868 68.1286 81.0829 68.0882 81.9512 68.9703C82.3726 69.3983 83.1459 69.1972 83.8058 68.9818L84.1757 68.8599C86.0305 68.2831 88.2803 68.6627 89.6982 69.8017C90.4915 70.4389 91.6107 70.2186 92.7694 69.9905C93.7375 69.8 94.7331 69.604 95.5893 69.8981C95.9896 70.0357 96.3665 70.2777 96.7359 70.5149C97.4127 70.9495 98.064 71.3678 98.7871 71.0966L98.8877 71.0604C99.7072 70.7771 101.281 71.2546 102.708 71.6874C103.746 72.0023 104.706 72.2935 105.241 72.2508C101.933 70.6565 99.8222 70.0308 98.908 70.3736L98.8354 70.3986C98.1411 70.6166 97.5108 70.2119 96.8567 69.7919C96.4874 69.5547 96.1105 69.3126 95.7102 69.1751C94.854 68.881 93.8584 69.077 92.8903 69.2675C91.7316 69.4956 90.6124 69.7159 89.8191 69.0787C88.3722 67.9164 86.0592 67.5449 84.1835 68.1734L84.1471 68.1856ZM78.7149 72.8466C79.2413 73.3234 80.2575 73.0195 81.0421 72.7849L81.0829 72.7727C83.1864 72.1442 85.7805 72.5158 87.4031 73.678C88.2928 74.3152 89.548 74.0949 90.8475 73.8669C91.9331 73.6763 93.0497 73.4803 94.0099 73.7745C94.4589 73.912 94.8816 74.154 95.2958 74.3912C96.0294 74.8112 96.7362 75.216 97.5148 74.998L97.5963 74.973C98.6216 74.6302 100.989 75.2559 104.698 76.8502C104.099 76.8928 103.022 76.6016 101.858 76.2868C100.258 75.854 98.4926 75.3765 97.5735 75.6598L97.4607 75.696C96.6498 75.9672 95.9193 75.5489 95.1602 75.1143C94.746 74.8771 94.3233 74.635 93.8744 74.4975C92.9142 74.2034 91.7976 74.3993 90.7119 74.5899C89.4124 74.818 88.1572 75.0383 87.2675 74.4011C85.6773 73.2621 83.1542 72.8824 81.0741 73.4592L80.6593 73.5812C79.9192 73.7965 79.0519 73.9977 78.5793 73.5696C77.6055 72.6876 75.479 72.7279 73.9109 72.7577C73.0784 72.7735 72.4033 72.7863 72.1417 72.6565C75.5648 71.9146 77.7559 71.9779 78.7149 72.8466ZM78.6001 76.8431C77.8155 77.0777 76.7993 77.3816 76.2729 76.9048C75.3139 76.0362 73.1229 75.9728 69.6997 76.7147C69.9613 76.8445 70.6364 76.8317 71.469 76.8159C73.037 76.7861 75.1635 76.7458 76.1373 77.6278C76.6099 78.0559 77.4772 77.8547 78.2173 77.6394L78.6321 77.5174C80.5779 76.9779 82.9114 77.2753 84.5064 78.2483C84.9955 78.6377 85.8465 78.5889 86.7816 78.5353C87.4177 78.4989 88.0927 78.4602 88.7193 78.5557C89.4917 78.6734 89.859 78.8404 90.1813 78.9869C90.5049 79.134 90.7831 79.2604 91.3801 79.2958C92.0725 79.3368 93.7204 78.9834 93.7204 78.9834C95.6415 78.6578 98.6055 79.6114 100.019 80.6236L100.095 80.6772C101.657 81.7392 101.787 81.0702 100.154 79.9006L100.063 79.8369C98.4357 78.725 95.0847 77.8374 93.0201 78.4542L92.9793 78.4664C92.1948 78.701 91.1786 79.0049 90.6522 78.5281C90.2852 78.1957 89.086 77.872 88.8549 77.8327C87.633 77.6249 87.4671 77.6899 87.0963 77.8353L87.0961 77.8354C87.0663 77.8471 87.0351 77.8593 87.0019 77.872L86.8888 77.8819C86.4682 77.9208 86.0169 77.9797 85.5348 78.0591C85.3639 77.9933 85.1752 77.8896 84.9611 77.7362L84.87 77.6725C83.2426 76.5606 80.7055 76.2141 78.6409 76.8309L78.6001 76.8431Z" fill="#FFB61D"/>
<path fill-rule="evenodd" clip-rule="evenodd" d="M112.143 29.2373C116.721 29.253 120.333 33.1254 120.025 37.6842C120.025 37.6842 114.687 60.8401 117.392 69.0708C118.439 72.2549 133.55 82.1634 132.911 83.1812L130.779 88.2762C130.021 89.4822 106.828 74.011 106.828 74.011C104.602 72.2496 104.189 37.2289 104.189 37.2289C104.145 32.8183 107.724 29.2218 112.143 29.2373Z" fill="white"/>
<path d="M136.168 84.1006L133.443 89.6975L133.388 89.8471C133.161 90.4269 132.294 90.7819 132.183 90.8105L132.167 90.8104L130.557 89.8604C130.373 89.7061 130.272 88.8394 130.467 88.0335L130.512 87.8641C130.512 87.8641 131.788 83.3941 132.845 82.2653C133.462 81.607 137.022 82.2653 136.168 84.1006Z" fill="white"/>
<path fill-rule="evenodd" clip-rule="evenodd" d="M97.3389 135.715H90.8318C90.8318 135.715 98.4687 115.943 98.4687 110.755C98.4687 109.146 92.4656 111.57 93.3365 109.146C94.5339 105.812 98.6775 99.8498 97.6569 96.857C96.5896 93.7272 92.6085 92.5931 89.1415 91.3248C88.4771 91.0817 100.596 91.9209 103.92 89.2841C108.305 85.8059 104.745 78.1246 105.922 80.8331C107.343 84.1007 116.575 92.2984 114.745 101.175C112.962 109.823 97.3389 135.715 97.3389 135.715Z" fill="white"/>
<path fill-rule="evenodd" clip-rule="evenodd" d="M95.0833 139.528L94.4724 139.325C94.4187 139.308 94.4122 139.234 94.462 139.207L95.0473 138.89V138.154C95.0473 138.099 95.1127 138.069 95.1544 138.106L95.6394 138.53L96.4371 138.112C96.4937 138.082 96.5545 138.144 96.5237 138.2L96.0696 139.026L96.9482 139.942C96.9939 139.989 96.9472 140.067 96.8837 140.048L95.6742 139.7L95.204 140.526C95.1712 140.584 95.0833 140.561 95.0833 140.495V140.133V139.528Z" fill="#FFB61D"/>
<path fill-rule="evenodd" clip-rule="evenodd" d="M78.5872 95.892C78.3044 96.1848 78.0249 96.481 77.7453 96.7772C77.2164 97.3376 76.6875 97.898 76.1363 98.4356C75.1046 99.4416 74.0628 100.442 72.968 101.378C71.61 102.538 70.2183 103.663 68.795 104.743C67.1844 105.965 65.5351 107.138 63.8784 108.298C63.7908 108.359 63.7034 108.421 63.616 108.483L63.6151 108.483C62.77 109.081 61.9255 109.678 60.84 109.863C60.53 109.915 60.24 110.07 59.9481 110.226C59.7158 110.351 59.4823 110.476 59.2366 110.55C57.5433 111.062 55.8414 111.549 54.1287 111.991C53.0771 112.263 52.0036 112.457 50.9325 112.643C50.2659 112.759 46.4475 113.364 43.9074 113.731C41.3672 114.099 32.9663 114.099 30.8689 114.055C29.692 114.031 28.5153 113.99 27.3389 113.945L27.2782 113.943C27.0384 113.935 26.7837 113.926 26.5754 113.832C25.42 113.31 24.526 113.878 23.6201 114.454L23.5549 114.496C22.3655 115.251 21.6376 116.388 20.9183 117.552C20.5361 118.17 20.1312 118.775 19.7263 119.379C19.2906 120.03 18.8549 120.681 18.4476 121.348C17.9084 122.233 17.4274 123.153 16.9471 124.072L16.9466 124.073L16.9465 124.073L16.9463 124.074C16.8602 124.239 16.7741 124.403 16.6876 124.568C16.0525 125.777 15.0998 126.48 13.7329 126.74C13.0535 126.87 12.4715 126.669 11.891 126.468L11.8909 126.468C11.6758 126.394 11.4608 126.319 11.2411 126.262C10.8112 126.15 10.4647 124.991 10.618 124.533C11.0657 123.194 11.5142 121.856 11.9628 120.518L11.9631 120.517L11.964 120.514L11.9642 120.514C12.9008 117.72 13.8374 114.926 14.7658 112.129C15.4146 110.174 16.0481 108.215 16.6816 106.255C16.8604 105.702 17.0393 105.149 17.2185 104.596C17.3038 104.332 17.3849 104.068 17.4659 103.803L17.466 103.802C17.6004 103.363 17.7348 102.924 17.8887 102.492C17.9391 102.35 18.1477 102.175 18.2895 102.17C19.3143 102.129 20.2983 102.379 21.2332 102.762C23.0007 103.485 24.3608 104.705 25.3591 106.329C25.6239 106.76 26.0859 106.914 26.6687 106.812C26.9498 106.762 27.2335 106.725 27.5171 106.688C27.9502 106.631 28.3831 106.574 28.806 106.474C29.7467 106.251 30.6988 106.243 31.6507 106.236H31.6509C32.2637 106.231 32.8764 106.226 33.4858 106.164C33.9046 106.121 34.3256 106.097 34.7464 106.072L34.7469 106.072H34.747C35.3091 106.04 35.8711 106.007 36.4273 105.931C37.4395 105.792 38.4467 105.617 39.454 105.442C39.9312 105.359 40.4085 105.276 40.8862 105.197C41.2727 105.133 41.6598 105.073 42.047 105.012L42.0473 105.012L42.0477 105.012L42.0482 105.012L42.0491 105.012L42.0493 105.012C42.7961 104.895 43.5429 104.779 44.2848 104.637C45.2342 104.455 46.1763 104.233 47.1177 104.012L47.458 103.932C48.4526 103.698 49.4454 103.457 50.4382 103.217L50.4386 103.216L50.4389 103.216L50.4393 103.216L50.4396 103.216L50.44 103.216L50.4403 103.216L50.4406 103.216C50.8581 103.115 51.2756 103.013 51.6932 102.912C51.7379 102.902 51.7824 102.89 51.8269 102.879L51.8893 102.863C51.8667 102.851 51.8439 102.839 51.8211 102.827C51.7718 102.802 51.7224 102.777 51.6753 102.748C51.5307 102.659 51.3818 102.574 51.2329 102.49L51.2328 102.49C50.8928 102.298 50.5527 102.106 50.2632 101.856C49.6125 101.293 49.835 100.357 50.6621 100.108C51.2927 99.9184 51.9425 99.7279 52.5936 99.6843C53.4707 99.6255 54.2697 99.335 55.0697 99.0442L55.07 99.0441C55.3912 98.9273 55.7127 98.8105 56.0393 98.7086C56.8104 98.4681 57.2731 98.0155 57.6603 97.3231C57.8468 96.9897 58.12 96.7068 58.3945 96.4226C58.5877 96.2226 58.7815 96.022 58.9461 95.8026C59.7987 94.6662 60.6277 93.5112 61.4349 92.3422C61.6066 92.0935 61.7443 91.8219 61.8822 91.5501C61.9875 91.3423 62.093 91.1343 62.2138 90.9363C62.497 90.4719 62.7853 90.002 63.1351 89.5884L63.1811 89.534C63.9836 88.5852 64.7884 87.6336 65.661 86.7511C66.1366 86.2701 66.6616 85.838 67.1866 85.4058L67.1867 85.4057L67.1868 85.4057L67.1868 85.4056L67.1869 85.4055L67.187 85.4054L67.187 85.4054L67.1872 85.4052C67.4354 85.2009 67.6835 84.9966 67.9265 84.7872C68.0492 84.6814 68.167 84.5669 68.2702 84.4424C68.4471 84.2287 68.52 84.0509 68.253 83.7984C68.1833 83.7326 68.1133 83.667 68.0433 83.6013C67.3457 82.9473 66.6415 82.2871 66.2602 81.382L66.1872 81.2094L66.1396 81.0972C65.8335 80.3768 65.5246 79.6496 65.3504 78.8953C65.116 77.8798 65.2105 76.846 65.514 75.8227C65.9388 74.3909 66.8281 73.306 68.0326 72.5272C68.7756 72.0468 69.5574 71.6268 70.3395 71.2066L70.3395 71.2065L70.3396 71.2065L70.3398 71.2064L70.34 71.2063L70.3402 71.2062L70.3403 71.2061L70.3405 71.206L70.3407 71.2059L70.3408 71.2058C70.92 70.8947 71.4993 70.5834 72.0632 70.2474C72.4992 69.9876 72.8724 69.6094 73.2363 69.2406L73.3405 69.1351C74.9789 67.482 76.1206 65.4817 77.2581 63.4888C77.379 63.277 77.4999 63.0653 77.6212 62.8541C78.7207 60.941 79.7074 58.9612 80.6907 56.9844C80.9739 56.4151 81.2167 55.8259 81.4595 55.2365C81.6741 54.7155 81.8887 54.1944 82.1314 53.6869C82.3232 53.2858 82.5596 52.9065 82.7962 52.5269L82.7963 52.5267L82.7964 52.5265C82.9703 52.2476 83.1442 51.9685 83.3006 51.6805C83.4684 51.3716 83.6216 51.054 83.7747 50.7366L83.7748 50.7365L83.7748 50.7364L83.7749 50.7363L83.775 50.7361L83.7751 50.736L83.7752 50.7358L83.7753 50.7355C84.0076 50.2541 84.2396 49.7732 84.5219 49.3232C84.7236 49.0016 85.0162 48.7365 85.3083 48.4718C85.4306 48.361 85.5529 48.2502 85.6683 48.1354C85.8122 47.9923 85.9586 47.8517 86.1051 47.7112L86.1054 47.7109C86.258 47.5643 86.4107 47.4178 86.5605 47.2684C86.8247 47.0049 87.0857 46.7378 87.3388 46.4637C87.8256 45.9369 88.315 45.4123 88.8044 44.8878L88.8045 44.8877L88.8046 44.8877L88.8046 44.8876L88.8047 44.8875L88.8048 44.8874L88.8048 44.8873L88.8049 44.8873C90.0115 43.5941 91.2181 42.3009 92.3848 40.9727C93.7519 39.4164 95.0526 37.7994 96.3301 36.1681C96.838 35.5195 97.2959 34.8318 97.7537 34.1441C97.9576 33.8378 98.1615 33.5315 98.3698 33.2286C98.3816 33.2115 98.3913 33.1928 98.401 33.1741C98.4148 33.1474 98.4285 33.1208 98.4481 33.0993C98.7788 32.736 99.1061 32.3692 99.4335 32.0025L99.4336 32.0023C100.202 31.1412 100.971 30.28 101.784 29.4632C102.99 28.251 104.372 27.246 105.873 26.4089C106.101 26.2813 106.322 26.1364 106.542 25.9916C106.889 25.7636 107.236 25.5361 107.612 25.3773C107.701 25.34 107.79 25.3018 107.879 25.2634L107.88 25.263L107.881 25.2628C108.6 24.9547 109.354 24.6317 110.096 24.6166C111.663 24.5846 113.291 24.6022 114.606 25.7064C114.855 25.9156 114.921 25.8663 114.945 25.5865C114.967 25.3194 115.013 25.0443 115.058 24.7691L115.058 24.7688C115.164 24.1276 115.27 23.4859 115.085 22.9432C114.974 22.6151 114.935 22.2841 114.896 21.9558L114.896 21.9557C114.852 21.5844 114.809 21.2168 114.661 20.8613C114.168 19.6731 113.728 18.4625 113.288 17.2526C113.222 17.0705 113.156 16.8884 113.089 16.7064C112.952 16.3287 112.84 15.9321 112.789 15.5349C112.752 15.251 112.74 14.9639 112.728 14.6769C112.715 14.3823 112.702 14.0877 112.664 13.7966C112.526 12.761 112.886 11.8511 113.247 10.9376L113.247 10.9376C113.313 10.7708 113.379 10.6039 113.442 10.4361C114.21 8.39208 115.649 6.84623 117.203 5.39455C118.54 4.1447 120.756 3.75146 122.548 3.44325C123.21 3.3294 127.856 3.22051 130.31 3.16301C131.11 3.14425 131.677 3.13096 131.796 3.12475C132.28 3.09952 132.608 2.87505 132.936 2.63404C133.612 2.1366 133.786 1.36511 133.957 0.605948L133.957 0.604476C133.974 0.530119 133.991 0.455882 134.008 0.382034C134.012 0.363974 134.016 0.346301 134.02 0.329074C134.064 0.130001 134.095 -0.00954295 134.395 0.000510156C135.397 0.0340616 135.912 0.68652 136.403 1.43207C136.955 2.27161 137.403 3.14702 137.556 4.14773C137.743 5.36618 137.643 6.498 136.774 7.50142C136.067 8.31751 135.245 8.94122 134.316 9.46463C134.192 9.53409 134.114 9.90203 134.183 10.0592C134.883 11.6698 134.935 13.3678 134.867 15.0724C134.85 15.4862 134.783 15.8978 134.716 16.3095C134.652 16.6995 134.588 17.0897 134.567 17.4819C134.508 18.6067 134.739 19.6886 135.191 20.7347C135.498 21.4443 135.282 22.1164 134.768 22.6742C134.68 22.7697 134.57 22.8497 134.461 22.929C134.307 23.0406 134.156 23.1508 134.07 23.3011C133.874 23.641 133.738 24.0502 133.706 24.4401C133.682 24.7385 133.714 25.0409 133.746 25.3439C133.766 25.5322 133.786 25.7207 133.793 25.9088C133.818 26.6326 133.542 27.2518 133.169 27.8697C132.496 28.9879 131.606 29.8106 130.315 30.08C129.21 30.3107 128.061 30.3244 126.993 29.9615C125.781 29.5494 124.599 29.022 123.458 28.4386C123.134 28.2729 122.878 27.9753 122.621 27.6778C122.507 27.5447 122.392 27.4117 122.271 27.2905C122.093 27.1111 122.003 27.059 121.765 27.3097C120.917 28.2054 120.301 29.2228 119.803 30.3461C119.528 30.9661 119.706 31.4757 119.896 32.0185L119.918 32.0824L119.972 32.2372C120.235 32.9887 120.497 33.7365 120.477 34.5588C120.467 34.9658 120.475 35.3739 120.483 35.7819V35.7821V35.7824V35.7826V35.7829V35.7831V35.7834V35.7836C120.495 36.4291 120.508 37.0741 120.449 37.7131C120.386 38.3965 120.232 39.0718 120.079 39.7469C120.017 40.0185 119.955 40.2902 119.899 40.5623C119.839 40.8511 119.781 41.1403 119.723 41.4294L119.723 41.4296L119.723 41.4297L119.723 41.4298L119.723 41.4299L119.723 41.43L119.723 41.4301L119.723 41.4302C119.547 42.3047 119.371 43.1793 119.161 44.0456C119.064 44.4467 118.93 44.8387 118.796 45.231C118.687 45.5519 118.577 45.8729 118.488 46.1991C118.384 46.5772 118.279 46.9551 118.173 47.333C117.764 48.8019 117.355 50.2714 117.024 51.7579C116.74 53.0308 116.577 54.3403 116.481 55.6424C116.422 56.4566 116.431 57.2755 116.44 58.0947C116.445 58.5477 116.45 59.0007 116.443 59.453C116.438 59.795 116.42 60.1369 116.402 60.4787L116.402 60.4789C116.38 60.9134 116.357 61.3478 116.361 61.7821C116.362 61.9518 116.363 62.1215 116.365 62.2912L116.365 62.3025V62.3028C116.372 63.4499 116.38 64.5992 116.481 65.7391C116.582 66.8765 116.798 68.0097 117.048 69.1258C117.254 70.0426 117.884 70.751 118.51 71.4155C118.835 71.7614 119.196 72.0736 119.557 72.3859L119.557 72.386C119.81 72.6045 120.063 72.823 120.304 73.0533C120.469 73.2111 120.617 73.3869 120.765 73.5625L120.766 73.5626C120.95 73.781 121.134 73.999 121.349 74.1815C122.052 74.7773 122.766 75.359 123.48 75.9408L123.482 75.9423C124.023 76.3832 124.565 76.824 125.101 77.271C125.582 77.6721 126.056 78.0818 126.53 78.4915L126.531 78.4922L126.531 78.4927C127.01 78.9068 127.49 79.321 127.976 79.7262C128.641 80.2804 129.316 80.8269 130.02 81.329C130.352 81.5654 130.7 81.7799 131.047 81.9945C131.406 82.2164 131.766 82.4383 132.107 82.6843C132.518 82.9797 132.836 82.8134 133.153 82.6481C133.262 82.5911 133.371 82.5343 133.483 82.4964C134.396 82.1891 135.117 82.3051 135.46 83.1802C135.528 83.3555 135.633 83.5132 135.738 83.6719C135.93 83.9604 136.124 84.2523 136.107 84.6595C136.102 84.7871 136.378 84.9391 136.614 85.0692C136.656 85.0924 136.697 85.1149 136.735 85.1365L136.745 85.1424L136.772 85.1582C137.468 85.5672 138.171 85.9622 138.875 86.3562C139.025 86.4402 139.181 86.517 139.336 86.5937C139.635 86.7411 139.933 86.8884 140.193 87.0869C140.457 87.2889 140.697 87.5227 140.936 87.7565L140.936 87.7566L140.937 87.7567L140.937 87.7568L140.937 87.7568L140.937 87.7569L140.937 87.757L140.937 87.7571C141.178 87.9917 141.418 88.2263 141.683 88.4289C142.23 88.8459 142.539 89.4198 142.847 89.9902C142.96 90.1996 143.073 90.4086 143.197 90.6092C143.539 91.163 143.737 91.8428 143.851 92.4925C144.005 93.3681 144.067 94.2688 144.064 95.1583C144.062 95.5301 143.836 95.9291 143.629 96.2641C143.405 96.6252 143.07 96.6766 142.746 96.3277C142.72 96.2991 142.683 96.2804 142.646 96.2617C142.635 96.2564 142.625 96.2512 142.614 96.2457C142.608 96.2421 142.601 96.2385 142.595 96.2347L142.588 96.2996C142.584 96.3313 142.581 96.363 142.577 96.3946L142.575 96.4101L142.571 96.4414C142.551 96.5908 142.534 96.7415 142.518 96.8923C142.477 97.2633 142.437 97.6345 142.332 97.9866C142.262 98.2226 141.958 98.5344 141.748 98.5445C141.586 98.5522 141.416 98.4019 141.247 98.2533L141.247 98.2531C141.179 98.1935 141.112 98.1341 141.046 98.0853C140.981 98.0376 140.925 97.9755 140.871 97.9145L140.871 97.9144L140.854 97.8949C140.82 97.8568 140.789 97.8152 140.759 97.7737L140.742 97.7505C140.735 97.7398 140.727 97.7293 140.719 97.7188C140.709 97.7402 140.699 97.7617 140.689 97.7832C140.667 97.8303 140.645 97.8774 140.621 97.9236C140.591 97.9833 140.564 98.0471 140.538 98.1109C140.478 98.2541 140.418 98.3975 140.315 98.4953C139.917 98.8729 139.382 98.7257 139.219 98.1953C139.133 97.9196 139.062 97.6391 138.992 97.3587L138.992 97.3585C138.893 96.9701 138.795 96.582 138.659 96.2074C138.603 96.0528 138.557 95.8952 138.51 95.7374C138.375 95.2763 138.239 94.8143 137.858 94.4257C137.584 94.1459 137.416 93.7601 137.249 93.376C137.184 93.2264 137.119 93.0771 137.048 92.9344C136.621 92.0761 135.915 91.515 135.098 91.0621C134.876 90.9389 134.655 90.8034 134.462 90.6399C134.034 90.2772 133.738 90.4748 133.477 90.844C133.047 91.454 132.334 91.6786 131.67 91.3273C130.654 90.7889 129.824 90.0817 129.548 88.8705C129.497 88.6465 129.165 88.4487 128.922 88.3119C128.19 87.9003 127.453 87.4963 126.717 87.0924C125.496 86.4224 124.275 85.7525 123.074 85.0479C121.576 84.169 120.117 83.2232 118.659 82.2781L118.219 81.9929C115.921 80.5046 113.631 79.0031 111.341 77.5016L111.338 77.4992L109.993 76.6179C109.491 76.2886 108.992 75.954 108.493 75.6194L108.49 75.6173C108.142 75.3845 107.795 75.1517 107.447 74.9206C107.307 74.828 107.16 74.7446 107.008 74.6732C106.556 74.4604 106.423 74.5372 106.387 75.0204C106.386 75.0316 106.387 75.0428 106.387 75.0541L106.387 75.0605L106.387 75.0745L106.358 77.1112V77.1116V77.112V77.1124V77.1128V77.1132V77.1136V77.1141C106.332 78.98 106.306 80.846 106.278 82.7119C106.269 83.3084 106.583 83.7656 106.891 84.2163C106.954 84.3075 107.016 84.3986 107.076 84.4904C108.165 86.1725 109.276 87.8402 110.399 89.5002C110.707 89.9556 111.026 90.4037 111.346 90.8518L111.346 90.8519L111.346 90.8519L111.346 90.852L111.346 90.8521L111.346 90.8521L111.346 90.8522L111.346 90.8523C111.827 91.5282 112.309 92.204 112.751 92.9045C112.976 93.2597 113.11 93.6721 113.244 94.0843C113.303 94.2653 113.362 94.4463 113.428 94.6224C113.459 94.7027 113.491 94.7826 113.523 94.8626L113.523 94.8628C113.609 95.0781 113.695 95.2936 113.749 95.5167C114.186 97.3212 113.989 99.1115 113.557 100.882C113.528 101.001 113.5 101.119 113.471 101.237L113.471 101.238L113.471 101.239L113.471 101.239L113.47 101.239L113.47 101.239L113.47 101.239L113.47 101.239L113.47 101.24C113.202 102.345 112.932 103.456 112.541 104.519C112.227 105.372 111.835 106.196 111.443 107.021C111.254 107.418 111.065 107.815 110.884 108.215C110.57 108.914 110.265 109.618 109.965 110.323C109.455 111.519 108.948 112.716 108.446 113.915C108.265 114.35 108.089 114.789 107.913 115.227L107.913 115.227L107.913 115.227L107.912 115.227L107.912 115.227L107.912 115.228L107.912 115.228L107.912 115.228C107.56 116.105 107.208 116.981 106.808 117.835C106.231 119.066 105.591 120.267 104.95 121.467C104.858 121.64 104.766 121.812 104.675 121.984C104.275 122.736 103.865 123.482 103.455 124.229C103.058 124.952 102.661 125.674 102.273 126.402C101.92 127.065 101.576 127.733 101.232 128.401L101.231 128.402L101.231 128.403C100.863 129.117 100.495 129.831 100.116 130.539C99.577 131.545 99.0119 132.538 98.4305 133.521C97.9466 134.338 98.0867 134.719 98.6467 135.472C99.2538 136.288 100.197 136.561 101.133 136.774C103.696 137.358 106.264 137.918 108.833 138.478L108.834 138.478L108.836 138.479L108.837 138.479L108.838 138.479L108.84 138.48L108.841 138.48L108.843 138.48L108.972 138.508C109.231 138.565 109.494 138.607 109.756 138.649C110.051 138.696 110.346 138.744 110.636 138.811C112.084 139.15 112.811 140.212 113.199 141.531C113.447 142.374 113.52 143.28 112.846 143.98C112.592 144.245 112.127 144.442 111.757 144.443C106.993 144.459 102.229 144.462 97.4643 144.464C94.4648 144.466 91.4653 144.468 88.4658 144.473C88.1162 144.473 88.0909 144.368 88.0644 144.062C88.0374 143.75 87.9817 143.439 87.9262 143.128L87.9261 143.128C87.8445 142.671 87.7631 142.216 87.7732 141.761C87.8215 139.577 88.5891 137.621 89.9317 135.904C90.0285 135.78 90.1858 135.698 90.3409 135.617C90.5135 135.527 90.6833 135.438 90.7645 135.295C91.156 134.604 91.4918 133.87 91.749 133.119C92.1612 131.915 92.5707 130.701 92.8351 129.46C92.9565 128.89 93.132 128.337 93.3075 127.784L93.3076 127.784C93.5258 127.097 93.7444 126.409 93.8599 125.685C93.9818 124.921 94.3002 124.185 94.6167 123.454C94.7149 123.227 94.813 123 94.9049 122.773C95.2185 121.999 95.5424 121.229 95.8664 120.459C96.3696 119.263 96.8729 118.066 97.3374 116.855C97.6685 115.992 97.943 115.107 98.2175 114.222C98.3742 113.717 98.5309 113.212 98.6982 112.711C99.0521 111.65 99.4116 110.59 99.817 109.549C99.9081 109.315 99.8571 109.311 99.729 109.301L99.6987 109.298C99.6833 109.297 99.6671 109.295 99.65 109.293C97.9396 109.066 96.2543 109.086 94.6591 109.846C94.3094 110.012 94.0635 109.977 93.8321 109.688C93.5956 109.392 93.7187 109.176 93.9278 108.904C95.1747 107.285 95.949 105.441 96.5431 103.495C96.6053 103.292 96.6693 103.088 96.7333 102.885C97.1193 101.659 97.504 100.437 97.4935 99.1336C97.4855 98.1467 97.2416 97.2613 96.5612 96.4356C96.4117 96.2543 96.2744 96.0642 96.1376 95.875L96.1376 95.875L96.1376 95.8749L96.1375 95.8748C95.7291 95.3097 95.3266 94.7527 94.6261 94.4612C94.2721 94.3139 93.9228 94.1552 93.5736 93.9964L93.5733 93.9962L93.573 93.9961L93.5727 93.9959L93.5723 93.9958L93.572 93.9957L93.5717 93.9955L93.5714 93.9954L93.5709 93.9952C93.207 93.8298 92.8432 93.6643 92.474 93.5119C92.1931 93.3959 91.9126 93.2789 91.632 93.1618C90.5266 92.7007 89.4207 92.2394 88.2929 91.8408C87.608 91.5987 86.8986 91.4255 86.1892 91.2523L86.1891 91.2523C85.8667 91.1735 85.5443 91.0948 85.2241 91.0096C85.1611 90.9928 85.099 90.9731 85.0368 90.9533C84.9871 90.9375 84.9375 90.9218 84.8874 90.9075C84.1584 90.6999 83.522 90.736 83.0268 91.4374C82.8097 91.7451 82.5114 91.9957 82.1988 92.2584L82.1985 92.2586L82.1491 92.3001C82.1033 92.3386 82.0573 92.3774 82.0113 92.4168C80.8336 93.575 79.7083 94.7314 78.5872 95.892ZM105.448 75.4639L105.448 75.4638C105.511 75.1504 105.573 74.8372 105.608 74.5207L105.617 74.4322C105.69 73.7539 105.765 73.0657 105.716 72.3908C105.691 72.0414 105.598 71.6978 105.505 71.3535C105.429 71.0745 105.353 70.7951 105.313 70.5116C105.104 69.0216 104.915 67.5275 104.77 66.0299C104.644 64.7279 104.559 63.4215 104.475 62.1156L104.44 61.5668C104.355 60.2632 104.276 58.9587 104.225 57.6534C104.176 56.4019 104.152 55.1495 104.127 53.8971V53.8967L104.117 53.3706C104.116 53.2917 104.142 53.2129 104.17 53.1334C104.187 53.0828 104.204 53.0318 104.214 52.9806C104.226 52.9228 104.24 52.8645 104.254 52.8061C104.292 52.6449 104.331 52.4827 104.317 52.3261C104.301 52.1537 104.262 51.9819 104.223 51.8107L104.223 51.8106C104.171 51.5783 104.118 51.3469 104.124 51.116C104.163 49.586 104.232 48.0567 104.301 46.5275L104.301 46.5272L104.332 45.85C104.347 45.5214 104.389 45.1927 104.439 44.8672C104.581 43.9482 104.729 43.03 104.876 42.1118L104.979 41.4666C104.991 41.3919 105.008 41.3178 105.024 41.2438C105.031 41.2094 105.039 41.175 105.046 41.1406C105.048 41.1641 105.051 41.1876 105.055 41.2111L105.061 41.2552V41.2553V41.2553L105.061 41.2555C105.072 41.3376 105.084 41.4198 105.086 41.5021C105.12 43.2188 105.152 44.9356 105.183 46.6524V46.6526V46.6527V46.6529V46.6531V46.6533V46.6534V46.6536L105.195 47.2996L105.215 48.3427L105.228 49.0276C105.255 50.4021 105.281 51.7766 105.303 53.1512C105.317 54.0608 105.328 54.9705 105.34 55.8802C105.36 57.5343 105.38 59.1883 105.42 60.8419C105.449 62.0753 105.528 63.3094 105.637 64.5384C105.718 65.4402 105.835 66.3388 105.953 67.2372L105.953 67.2375C105.99 67.5224 106.027 67.8073 106.063 68.0923C106.114 68.4904 106.169 68.888 106.224 69.2856L106.224 69.287C106.32 69.9825 106.416 70.678 106.488 71.3761C106.579 72.2631 107.007 72.9813 107.623 73.55C108.073 73.9651 108.58 74.3187 109.087 74.6722C109.287 74.8118 109.487 74.9513 109.683 75.0946C110.094 75.3942 110.503 75.6964 110.912 75.9986L110.912 75.9986C111.938 76.7567 112.964 77.5149 114.018 78.2314C114.96 78.8716 115.929 79.4714 116.899 80.0713L116.899 80.0715L116.9 80.0721L116.901 80.0728L116.902 80.0734L116.903 80.074C117.371 80.3637 117.84 80.6534 118.305 80.9476C118.753 81.2312 119.199 81.5176 119.646 81.804C120.439 82.3129 121.233 82.8217 122.036 83.315L122.187 83.4079L122.187 83.4079L122.187 83.408L122.187 83.408L122.187 83.4081L122.188 83.4081L122.188 83.4082L122.188 83.4082C123.66 84.3123 125.133 85.2172 126.64 86.0603C127.356 86.4611 128.115 86.7864 128.874 87.1111L128.874 87.1112L128.874 87.1115L128.882 87.1146L128.888 87.1175C128.986 87.1592 129.083 87.2009 129.18 87.2427C129.272 87.2824 129.364 87.3222 129.456 87.3623C129.569 87.4114 129.828 87.3552 129.881 87.2658C130.007 87.0541 130.089 86.8147 130.171 86.5771L130.172 86.5748C130.188 86.5281 130.204 86.4814 130.22 86.435C130.537 85.5338 130.938 84.6921 131.622 83.9902C132.138 83.4606 132.065 83.3014 131.348 83.0005L131.227 82.9501C130.928 82.8254 130.626 82.6996 130.354 82.5285C129.848 82.2104 129.357 81.8655 128.884 81.4996C128.466 81.1754 128.046 80.8525 127.627 80.5296L127.625 80.5279C126.207 79.4366 124.789 78.3452 123.411 77.2066C122.128 76.1468 120.908 75.0046 119.714 73.8442C119.548 73.6827 119.38 73.5225 119.211 73.3622C118.195 72.3934 117.175 71.4206 116.53 70.1352C116.442 69.9592 116.34 69.7895 116.237 69.6198C115.941 69.1272 115.644 68.6347 115.688 67.9877C115.715 67.592 115.662 67.1901 115.609 66.7892L115.609 66.7891C115.59 66.644 115.57 66.499 115.555 66.3545C115.514 65.9647 115.464 65.5753 115.415 65.186L115.415 65.1854L115.415 65.1849L115.415 65.1843L115.415 65.1838L115.415 65.1832L115.415 65.1827L115.415 65.1821C115.314 64.3837 115.213 63.5853 115.179 62.7841C115.133 61.7019 115.143 60.6174 115.153 59.5329C115.158 59.066 115.162 58.5992 115.162 58.1325C115.162 58.0229 115.159 57.913 115.156 57.803C115.149 57.563 115.142 57.323 115.168 57.0868C115.297 55.9367 115.428 54.7859 115.602 53.6419C115.636 53.4184 115.669 53.1946 115.702 52.9706L115.702 52.9704C115.864 51.8749 116.026 50.777 116.293 49.7069C116.526 48.7736 116.813 47.8539 117.1 46.934C117.326 46.2062 117.553 45.4784 117.754 44.7436C117.898 44.215 118.057 43.6901 118.215 43.1652C118.613 41.8514 119.011 40.5372 119.18 39.1628C119.216 38.8633 119.292 38.5649 119.368 38.2676C119.48 37.8302 119.591 37.395 119.575 36.9619C119.519 35.3969 119.082 33.889 118.642 32.3837C117.985 30.1349 116.844 28.2594 114.871 26.9244C113.733 26.1542 112.54 25.5902 111.128 25.7715C110.616 25.8372 110.109 25.9426 109.602 26.0479C109.358 26.0986 109.114 26.1493 108.869 26.1956C107.482 26.4582 106.253 27.0691 105.147 27.9277C104.5 28.4303 103.868 28.9546 103.253 29.4965C102.638 30.0383 102.024 30.5863 101.464 31.1827C100.943 31.7373 100.458 32.3264 99.9742 32.9149L99.9741 32.9151L99.9722 32.9174C99.8674 33.0448 99.7626 33.1721 99.6575 33.2991C98.8252 34.3045 97.9952 35.312 97.181 36.332C96.8244 36.7788 96.475 37.2315 96.1256 37.6842L96.1254 37.6845L96.1252 37.6847C95.5973 38.3686 95.0695 39.0525 94.5168 39.7158C93.5143 40.9191 92.4735 42.0919 91.4175 43.249C89.9665 44.8391 88.49 46.4061 87.0136 47.9727C86.8878 48.1062 86.7428 48.2227 86.5982 48.3391C86.4247 48.4786 86.2515 48.6178 86.1121 48.7857C85.0434 50.0724 84.0365 51.4146 83.322 52.9304C82.6632 54.328 82.0283 55.7369 81.3935 57.1458L81.3935 57.1459L81.3934 57.146C80.8228 58.4124 80.2522 59.6788 79.6641 60.937C78.711 62.9766 77.6619 64.9632 76.3956 66.8386L76.3026 66.9764C75.6244 67.9823 74.9458 68.9886 73.9898 69.7217C72.7439 70.677 71.4469 71.5664 70.1503 72.4554L70.1502 72.4554L70.1502 72.4555L70.1501 72.4555L70.15 72.4556L70.15 72.4556L70.1499 72.4557L70.1499 72.4557C69.8114 72.6878 69.4729 72.9199 69.1354 73.1531C68.0416 73.9089 67.176 74.8628 66.7504 76.1191C66.2278 77.6617 66.4951 79.1937 67.2247 80.5998C68.1227 82.3304 69.544 83.6531 70.9952 84.9136C72.6055 86.3123 74.4768 87.3155 76.496 87.9604C79.0912 88.7892 81.7013 89.5939 84.4461 89.8287C85.163 89.89 85.8772 89.9837 86.5914 90.0775L86.5918 90.0775L86.5922 90.0776L86.5926 90.0776L86.5931 90.0777L86.5935 90.0777L86.5939 90.0778L86.5943 90.0778C87.3917 90.1825 88.189 90.2871 88.9898 90.3467C90.7609 90.4786 92.5395 90.5518 94.3153 90.5615C95.114 90.5659 95.9128 90.5106 96.7118 90.4553C97.219 90.4202 97.7262 90.385 98.2337 90.3652C99.6132 90.3111 100.92 89.9495 102.207 89.4932C103.072 89.1867 103.872 88.7648 104.188 87.8336C104.372 87.2915 104.463 86.7112 104.539 86.1405L104.558 85.9936C104.718 84.7887 104.878 83.582 104.969 82.3709C105.052 81.2553 105.096 80.1367 105.141 78.9768C105.158 78.54 105.176 78.0973 105.195 77.6467C105.207 77.5019 105.216 77.3567 105.224 77.2115C105.245 76.884 105.265 76.5565 105.31 76.2325C105.345 75.9752 105.397 75.72 105.448 75.4648L105.448 75.4646L105.448 75.4645L105.448 75.4644L105.448 75.4642L105.448 75.4641L105.448 75.4639ZM59.4298 109.078C59.4875 109.13 59.6195 109.164 59.6844 109.135C59.9804 109 60.2815 108.873 60.5827 108.747L60.5834 108.746L60.5834 108.746L60.5835 108.746L60.5835 108.746L60.5836 108.746L60.5837 108.746L60.5837 108.746L60.5838 108.746C61.3184 108.437 62.0536 108.128 62.7157 107.705C63.8979 106.949 65.0514 106.15 66.205 105.35L66.2051 105.35L66.2051 105.35L66.2052 105.35L66.2053 105.35L66.2053 105.349L66.2054 105.349L66.2055 105.349C67.1106 104.722 68.0159 104.094 68.9351 103.488C70.94 102.165 72.6978 100.555 74.4559 98.9448L74.4561 98.9446L74.4591 98.9419C74.8005 98.6291 75.142 98.3163 75.4853 98.0056C76.0197 97.522 76.5226 97.0029 77.0249 96.4844C77.1026 96.4042 77.1803 96.324 77.258 96.244L77.3516 96.1479C77.9498 95.5342 78.5424 94.9151 79.135 94.2961C79.3919 94.0278 79.6487 93.7595 79.906 93.4917C80.0906 93.2995 80.2757 93.1077 80.4608 92.9158L80.4611 92.9154L80.4615 92.915L80.4619 92.9146L80.4623 92.9142L80.4627 92.9138L80.4631 92.9134L80.4635 92.913C81.1348 92.2172 81.8061 91.5214 82.4565 90.8067C82.5334 90.7223 82.4373 90.3012 82.3494 90.2746C81.9801 90.1631 81.6043 90.072 81.2285 89.9809L81.2283 89.9809L81.2282 89.9809L81.2282 89.9808L81.2281 89.9808L81.228 89.9808L81.228 89.9808L81.2279 89.9807L81.2278 89.9807C80.7513 89.8652 80.2749 89.7498 79.8126 89.5928L79.5771 89.5128L79.5764 89.5126C77.6631 88.8629 75.7471 88.2124 73.8747 87.4572C72.1595 86.7654 70.5708 85.8154 69.1505 84.6101C69.1285 84.5915 69.0266 84.6162 69.0156 84.6428C68.6054 85.631 67.8421 86.3044 67.076 86.9802C66.9013 87.1343 66.7265 87.2885 66.5556 87.4467C65.7514 88.191 64.9534 88.9542 64.2486 89.7899C63.7932 90.3298 63.4056 90.9274 63.0183 91.5245C62.8759 91.744 62.7336 91.9635 62.5879 92.18C62.4233 92.4247 62.2494 92.6655 62.0754 92.9065C61.6488 93.4973 61.2217 94.0888 60.9294 94.7401C60.2773 96.1927 59.2662 97.35 58.2108 98.4777C57.1732 99.5864 55.7594 99.9991 54.3633 100.407L54.3626 100.407C54.2329 100.445 54.1035 100.483 53.9745 100.521C53.4615 100.673 52.9338 100.775 52.4058 100.878L52.4057 100.878C52.1162 100.934 51.8267 100.99 51.5396 101.054C51.4667 101.071 51.4011 101.12 51.3356 101.169C51.3052 101.191 51.2749 101.214 51.2438 101.233C51.2775 101.274 51.312 101.325 51.3465 101.377C51.4209 101.489 51.4954 101.601 51.5616 101.596C52.2355 101.548 52.739 101.894 53.2338 102.233L53.2339 102.233L53.234 102.233C53.3659 102.324 53.4972 102.414 53.631 102.496C54.2834 102.897 54.9242 103.328 55.3043 104.074C55.5508 104.558 55.8824 104.999 56.2131 105.44L56.2131 105.44C56.3145 105.575 56.4158 105.71 56.5146 105.846C56.9208 106.406 57.3455 106.952 57.8081 107.547L57.9065 107.674C58.0219 107.781 58.1372 107.888 58.2525 107.995L58.2529 107.995L58.253 107.995L58.253 107.996L58.2531 107.996L58.2531 107.996L58.2532 107.996L58.2533 107.996C58.6435 108.359 59.0338 108.722 59.4298 109.078ZM92.7085 92.3121C93.121 92.531 93.5606 92.6978 94.0003 92.8646C94.8665 93.1933 95.7332 93.5221 96.3944 94.2504C96.5951 94.4716 96.8264 94.6645 97.058 94.8577C97.2084 94.9833 97.359 95.1089 97.5013 95.2424C97.9724 95.684 98.1352 96.2744 98.2973 96.8623L98.2973 96.8624L98.2979 96.8645C98.3121 96.9162 98.3264 96.9679 98.3409 97.0194C98.3501 97.0524 98.3594 97.0853 98.3689 97.1181C98.814 98.6619 98.7129 100.259 98.3224 101.74L98.2469 102.027L98.2468 102.027C97.7265 104.005 97.1985 106.012 96.0935 107.787C95.9652 107.993 95.8982 108.104 96.2504 108.114C97.1984 108.141 98.1461 108.176 99.0938 108.212H99.0939H99.094H99.0941H99.0942H99.0943H99.0943H99.0944C100.138 108.25 101.182 108.289 102.226 108.317C102.881 108.335 103.537 108.331 104.192 108.327C104.644 108.324 105.096 108.321 105.548 108.325C106.731 108.336 107.88 108.166 108.957 107.665C108.999 107.646 109.041 107.626 109.085 107.606L109.086 107.606L109.089 107.604C109.457 107.437 109.873 107.247 110.039 106.946C110.463 106.179 110.762 105.335 111.035 104.497C111.435 103.27 111.831 102.036 112.109 100.779C112.347 99.7057 112.468 98.5986 112.542 97.4998C112.564 97.1691 112.508 96.8345 112.452 96.4987C112.407 96.2319 112.362 95.9643 112.356 95.6976C112.334 94.6515 111.837 93.7996 111.34 92.9474L111.252 92.7978C111.137 92.5985 110.988 92.4185 110.84 92.2383C110.724 92.0975 110.608 91.9566 110.507 91.8062C109.708 90.616 108.914 89.4235 108.119 88.2309C107.558 87.3885 106.996 86.546 106.433 85.7043C106.379 85.6235 106.31 85.5531 106.24 85.4828C106.207 85.4501 106.175 85.4173 106.144 85.3835C106.113 85.4311 106.076 85.4775 106.04 85.524C105.959 85.6256 105.879 85.7272 105.856 85.8406C105.801 86.1036 105.765 86.3704 105.729 86.6372C105.698 86.8644 105.668 87.0917 105.625 87.3167C105.381 88.6214 104.754 89.6238 103.521 90.2688C101.822 91.1581 99.9954 91.5378 98.1285 91.7517C97.0524 91.875 95.9563 91.8948 94.8724 91.8596C94.2207 91.8385 93.5711 91.7583 92.9212 91.6781C92.5693 91.6347 92.2174 91.5912 91.8651 91.5571C91.7701 91.548 91.6716 91.5765 91.573 91.605C91.5274 91.6183 91.4817 91.6315 91.4364 91.641C91.4643 91.6633 91.492 91.6859 91.5197 91.7085C91.5891 91.7651 91.6585 91.8217 91.731 91.8741C91.7462 91.8851 91.7634 91.8932 91.7847 91.9033L91.7848 91.9033C91.8185 91.9192 91.8623 91.9398 91.924 91.984C91.9648 92.0008 92.0059 92.0172 92.0471 92.0333C92.0894 92.0498 92.1318 92.066 92.1743 92.0823C92.3561 92.1519 92.5378 92.2215 92.7085 92.3121ZM115.177 9.24392C114.49 10.2458 114.076 11.3884 113.866 12.5894C113.654 13.8099 113.624 15.0441 113.983 16.2354C114.194 16.9388 114.434 17.634 114.674 18.3291L114.674 18.3295C114.951 19.1339 115.228 19.9382 115.462 20.755C115.607 21.2594 115.934 21.4956 116.296 21.6226C118.002 22.222 119.856 21.4931 120.916 19.9286C121.203 19.5039 121.038 19.3296 120.745 19.0327C120.349 18.6308 120.003 18.1653 119.709 17.6827C119.269 16.9624 119.455 16.228 119.959 15.6462C120.463 15.064 121.219 14.9346 121.924 15.1786C122.728 15.4573 123.307 16.0708 123.72 16.8222C123.74 16.8574 123.753 16.8956 123.767 16.9338L123.775 16.9557C123.779 16.9661 123.783 16.9765 123.787 16.9868C123.792 16.9772 123.796 16.9677 123.801 16.9582C123.812 16.9378 123.822 16.9175 123.829 16.896C123.89 16.7105 123.949 16.5239 124.007 16.3372L124.007 16.3372C124.316 15.3575 124.625 14.3753 125.248 13.5395C125.734 12.8879 126.257 12.2382 126.874 11.7182C127.335 11.3294 127.904 11.0589 128.463 10.7935C128.544 10.7547 128.626 10.716 128.707 10.677C128.897 10.5853 129.087 10.4917 129.278 10.398L129.278 10.3976C130.078 10.0037 130.881 9.60828 131.724 9.3451C131.865 9.30091 131.936 9.27911 131.97 9.26899L131.983 9.26493C131.992 9.26227 131.995 9.26122 131.995 9.2611L131.99 9.26204C131.946 9.27189 131.661 9.3353 134.445 8.33391C138.333 6.9358 136.333 2.53148 135.182 1.56259C135.096 1.49043 134.96 1.41294 134.868 1.4328C134.785 1.45066 134.68 1.59462 134.671 1.69072C134.585 2.65352 133.17 4.14759 129.808 3.91562C127.508 3.75685 127.458 3.76598 127.348 3.78615C127.297 3.79544 127.234 3.80709 126.931 3.8057C126.206 3.80237 123.697 4.03536 123.19 4.1784C123.006 4.23036 122.764 4.28059 122.481 4.33968C121.13 4.62128 118.812 5.10428 117.058 6.9358C116.864 7.17115 116.665 7.40275 116.465 7.63435L116.465 7.63445C116.015 8.15664 115.565 8.67882 115.177 9.24392ZM124.37 18.8032C124.37 19.2902 124.272 19.7693 124.174 20.2484L124.174 20.2487C124.127 20.4789 124.08 20.709 124.044 20.9401C124.038 20.9765 124.019 21.0109 124 21.0453L123.991 21.0617C123.985 21.0722 123.98 21.0828 123.975 21.0935C123.971 21.0782 123.967 21.063 123.963 21.0478L123.962 21.0467C123.953 21.0135 123.944 20.9803 123.938 20.9466C123.893 20.711 123.852 20.4748 123.811 20.2386L123.811 20.2384L123.811 20.2382L123.811 20.2381L123.811 20.2379L123.81 20.2378L123.81 20.2376L123.81 20.2374C123.717 19.7023 123.623 19.1672 123.495 18.6404C123.341 18.0089 123.17 17.3653 122.886 16.7859C122.558 16.1161 121.183 15.8 120.507 16.1514C120.121 16.3518 119.936 16.832 120.186 17.181C120.423 17.5111 120.713 17.8485 121.058 18.0449C121.625 18.3675 121.81 18.9054 121.856 19.4327C121.942 20.4242 120.899 21.8185 119.885 22.0692C118.963 22.2972 118.024 22.4557 117.085 22.6141C116.864 22.6515 116.642 22.6889 116.421 22.7272C116.398 22.7312 116.375 22.7349 116.353 22.7386C116.057 22.7873 115.822 22.826 115.916 23.2576C116.17 24.4293 116.253 25.6098 116.04 26.8016C116.027 26.874 116.159 26.9875 116.243 27.0592C116.35 27.1507 116.463 27.237 116.576 27.3231C116.784 27.4815 116.991 27.6397 117.162 27.8304C117.444 28.1436 117.707 28.4738 117.97 28.8041L117.97 28.8042L117.97 28.8043L117.97 28.8043L117.97 28.8044L117.97 28.8044L117.97 28.8045L117.97 28.8046L117.97 28.8049L117.97 28.8051C118.151 29.0318 118.331 29.2587 118.518 29.4801C118.567 29.5379 118.763 29.562 118.81 29.5172C119.049 29.289 119.282 29.0542 119.516 28.8194L119.516 28.8193L119.516 28.8192L119.516 28.8191L119.516 28.819L119.516 28.8189L119.516 28.8189L119.516 28.8188C119.789 28.5441 120.062 28.2694 120.345 28.0053C121.029 27.3664 121.731 26.7451 122.44 26.1347C122.532 26.0556 122.659 26.0169 122.786 25.9781C122.844 25.9603 122.903 25.9424 122.958 25.9206C122.941 25.9592 122.924 25.998 122.908 26.0369L122.89 26.0797L122.889 26.08C122.828 26.2252 122.767 26.3705 122.694 26.5098C122.681 26.5342 122.645 26.544 122.606 26.5544C122.573 26.5633 122.539 26.5726 122.517 26.5917C122.505 26.6019 122.493 26.6119 122.482 26.6217C122.345 26.738 122.244 26.8235 122.548 26.9678C122.869 27.1204 123.167 27.3226 123.464 27.5248C123.588 27.6093 123.713 27.6938 123.839 27.7747C125.78 29.0205 127.872 29.6054 130.187 29.2269C131.496 29.0128 132.395 28.318 132.794 27.0329C133.177 25.8019 133.018 25.4437 131.838 24.949C131.798 24.9322 131.758 24.9155 131.718 24.8988C131.095 24.6407 130.478 24.3845 130.314 23.6241C130.247 23.3114 130.816 22.9781 130.955 23.2664L130.956 23.27L130.957 23.2731C131.083 23.8465 131.519 24.0446 131.98 24.2511C132.826 24.6311 132.929 24.5779 132.929 23.7115C132.929 22.5772 132.929 22.5772 133.927 22.2238C134.505 22.0191 134.598 21.819 134.335 21.2592C133.939 20.4138 133.68 19.5525 133.79 18.5965C133.925 17.4186 134.038 16.2368 134.112 15.0536C134.16 14.2933 134.205 13.5152 134.096 12.7678C134.026 12.2892 133.855 11.8252 133.684 11.3614L133.684 11.3614L133.684 11.3613L133.684 11.3613L133.684 11.3612L133.684 11.3611L133.684 11.3611L133.684 11.361C133.61 11.1616 133.536 10.9623 133.471 10.7618C133.317 10.2904 132.945 10.101 132.46 10.2753C132.157 10.3842 131.853 10.4892 131.548 10.5942L131.548 10.5943C130.699 10.8867 129.85 11.1793 129.04 11.5566C128.188 11.9537 127.325 12.4463 126.663 13.0954C126.068 13.6786 124.37 16.6165 124.37 18.8032ZM54.3955 110.596C54.7551 110.516 55.1149 110.436 55.4748 110.357L55.4767 110.356C56.2575 110.184 57.0382 110.012 57.8174 109.832C57.9297 109.807 58.0345 109.749 58.1394 109.691C58.1879 109.664 58.2365 109.637 58.2857 109.614L58.2637 109.601L58.2401 109.587C58.2135 109.572 58.1867 109.557 58.1599 109.542C58.0621 109.488 57.9644 109.433 57.8747 109.367C57.7758 109.295 57.6918 109.2 57.6097 109.107L57.6051 109.102C57.3713 108.838 57.134 108.576 56.8967 108.315L56.8966 108.314L56.8964 108.314L56.8963 108.314L56.8962 108.314C56.3183 107.677 55.7403 107.04 55.2125 106.363C54.6904 105.695 54.2752 104.936 53.8658 104.188L53.8657 104.188L53.8555 104.17C53.6537 103.801 53.4246 103.645 53.0366 103.78C51.3863 104.355 49.6778 104.669 47.9694 104.982C47.0782 105.146 46.187 105.31 45.3041 105.51C43.857 105.839 36.5721 107.089 35.9378 107.134C35.6292 107.156 35.3207 107.187 35.0122 107.219L35.0121 107.219L35.0119 107.219L35.0117 107.219L35.0116 107.219L35.0114 107.219L35.0112 107.219L35.0111 107.219L35.0109 107.219C34.4105 107.28 33.8104 107.34 33.2109 107.334C31.6786 107.317 30.1766 107.481 28.6759 107.772C28.2029 107.863 27.723 107.921 27.2434 107.979L27.243 107.979C26.6951 108.046 26.1474 108.112 25.6102 108.228C23.8804 108.602 23.3009 110.074 23.7466 111.513C23.8321 111.789 24.1378 112.101 24.4122 112.198C25.6635 112.64 26.9734 112.754 28.2974 112.765C28.9794 112.77 29.6612 112.801 30.3429 112.833C30.6031 112.845 30.8632 112.857 31.1234 112.868C32.1005 112.907 33.0775 112.948 34.0546 112.988C34.817 113.02 35.5795 113.052 36.3419 113.083C36.396 113.085 36.4502 113.084 36.5044 113.084C36.5586 113.083 36.6128 113.082 36.6669 113.084C36.9341 113.095 37.2017 113.113 37.4692 113.132C38.0547 113.171 38.6402 113.211 39.221 113.175C40.132 113.119 41.0398 113.012 41.9477 112.904L41.9481 112.904C42.3697 112.854 42.7914 112.805 43.2134 112.76C43.472 112.732 43.7312 112.71 43.9905 112.688L43.9908 112.688C44.4613 112.647 44.9316 112.606 45.3975 112.536L45.632 112.5L45.6323 112.5C46.8225 112.32 48.015 112.14 49.1891 111.881C50.1011 111.681 51.0068 111.451 51.9321 111.217L51.9322 111.217C52.6096 111.045 53.2976 110.871 54.0064 110.703C54.0474 110.692 54.0883 110.68 54.1292 110.668C54.2175 110.642 54.3058 110.616 54.3955 110.596ZM95.677 135.616C96.2375 134.813 96.7679 133.988 97.2821 133.154C97.7495 132.397 98.1866 131.62 98.6233 130.844C99.0141 130.15 99.4198 129.464 99.8255 128.778L99.826 128.777C100.768 127.184 101.71 125.591 102.466 123.892C102.902 122.913 103.406 121.965 103.911 121.017L103.911 121.017C104.151 120.565 104.392 120.113 104.625 119.657C104.735 119.443 104.847 119.229 104.959 119.015C105.266 118.429 105.573 117.843 105.836 117.239C106.035 116.781 106.21 116.312 106.385 115.843L106.385 115.843L106.385 115.843L106.385 115.843L106.385 115.843L106.385 115.843L106.385 115.843L106.385 115.843C106.653 115.122 106.921 114.403 107.277 113.728C107.85 112.645 108.229 111.501 108.609 110.356L108.609 110.356L108.609 110.356L108.609 110.356L108.609 110.356L108.609 110.356L108.609 110.356L108.609 110.355L108.609 110.355C108.733 109.983 108.856 109.612 108.986 109.242C109.006 109.185 109.019 109.125 109.032 109.065C109.035 109.048 109.039 109.032 109.043 109.015L109.045 109.003L109.051 108.981C109.02 108.987 108.989 108.993 108.958 108.998L108.958 108.998L108.958 108.998C108.89 109.009 108.823 109.021 108.758 109.04C108.627 109.079 108.498 109.126 108.368 109.173C108.099 109.271 107.83 109.368 107.555 109.39C106.527 109.471 105.493 109.505 104.461 109.505C103.823 109.505 103.185 109.48 102.546 109.455C102.135 109.438 101.723 109.422 101.312 109.413C101.235 109.411 101.116 109.507 101.085 109.584L100.972 109.869C100.714 110.517 100.456 111.166 100.231 111.826C99.67 113.469 99.126 115.119 98.5885 116.77C97.9062 118.866 97.0665 120.889 96.1411 122.897C95.2832 124.758 94.6437 126.739 94.2377 128.779C94.0482 129.731 93.7676 130.666 93.4875 131.6L93.4868 131.602C93.4194 131.827 93.3521 132.051 93.2861 132.276C93.0784 132.982 92.8491 133.682 92.6199 134.382L92.6198 134.382C92.5369 134.635 92.4541 134.888 92.3723 135.141C92.1849 135.721 92.3497 136.263 92.807 136.333C93.3165 136.412 93.8427 136.383 94.4157 136.347C94.9363 136.275 95.3829 136.037 95.677 135.616ZM20.7914 115.675C21.3569 114.747 21.9395 113.908 23.0891 113.657C23.5159 113.564 23.5395 113.342 23.2566 112.986C23.1946 112.908 23.1291 112.83 23.0633 112.751C22.8269 112.471 22.586 112.184 22.484 111.859C22.3738 111.507 22.3953 111.109 22.4164 110.719L22.4164 110.719C22.4219 110.618 22.4273 110.518 22.4304 110.42C22.4679 109.24 22.802 108.232 23.9737 107.659C24.3214 107.489 24.5301 107.233 24.1814 106.731C23.3956 105.601 22.3542 104.801 21.206 104.108C20.7559 103.836 20.3415 103.997 20.1626 104.472C20.085 104.677 20.0066 104.883 19.9281 105.088L19.928 105.088L19.928 105.088L19.928 105.089L19.928 105.089L19.9279 105.089L19.9279 105.089L19.9274 105.09C19.6788 105.741 19.4301 106.392 19.2096 107.052C18.9674 107.777 18.737 108.506 18.5067 109.235L18.5067 109.235C18.2635 110.004 18.0204 110.774 17.7634 111.538C17.5511 112.17 17.3643 112.809 17.1774 113.448C16.8397 114.602 16.5018 115.757 16.0134 116.872C14.8888 119.439 13.9797 122.094 13.5496 124.883C13.5269 125.03 13.5585 125.284 13.646 125.328C13.7791 125.396 14.0064 125.371 14.152 125.3C14.3947 125.182 14.6496 125.034 14.8195 124.831C15.3528 124.196 15.8489 123.53 16.3594 122.768C16.7822 122.093 17.2066 121.42 17.6309 120.746L17.631 120.746L17.6311 120.746L17.6313 120.746L17.6314 120.745C18.6931 119.06 19.7548 117.375 20.7914 115.675ZM100.4 137.539C100.298 137.513 100.195 137.488 100.092 137.463C99.1502 137.235 98.2145 137.008 97.6687 136.037C97.4113 135.579 97.186 135.614 96.9261 136.117C96.7009 136.553 96.422 136.936 95.9771 137.163C95.7403 137.284 95.4897 137.382 95.2385 137.471C93.9913 137.912 92.7782 137.967 91.6847 137.076C91.1515 136.641 90.9779 136.681 90.562 137.222C89.8892 138.097 89.5445 139.117 89.2013 140.132L89.1719 140.219C88.802 141.313 89.0028 141.541 90.1685 141.541H111.075C111.119 141.541 111.164 141.545 111.21 141.549C111.314 141.558 111.419 141.567 111.502 141.529C111.61 141.479 111.753 141.246 111.735 141.226C111.658 141.142 111.583 141.054 111.508 140.964C111.278 140.692 111.045 140.416 110.749 140.267C110.159 139.968 109.498 139.791 108.851 139.628C106.462 139.025 104.067 138.449 101.566 137.862L101.459 137.832L101.373 137.808L101.201 137.759C100.935 137.683 100.669 137.607 100.4 137.539ZM141.286 97.4796C141.31 97.5709 141.42 97.6394 141.529 97.7079L141.53 97.7081C141.58 97.7396 141.63 97.7712 141.673 97.8049C141.7 97.7661 141.734 97.7277 141.769 97.6892C141.843 97.6057 141.918 97.5222 141.922 97.4353C141.928 97.3192 141.935 97.2022 141.943 97.0849C141.974 96.6292 142.004 96.1684 141.914 95.7353C141.738 94.8881 141.46 94.0548 141.145 93.2469C141.066 93.0451 141.16 92.9489 141.248 92.8585C141.312 92.793 141.373 92.7305 141.364 92.633C141.42 92.6694 141.481 92.7025 141.541 92.7357C141.68 92.8114 141.818 92.8872 141.909 93.0007C141.99 93.1007 142.027 93.2339 142.064 93.3684C142.086 93.4484 142.109 93.5289 142.14 93.6032C142.185 93.7076 142.229 93.8121 142.273 93.9167L142.273 93.917C142.489 94.4259 142.705 94.9352 142.954 95.4272C142.998 95.5146 143.131 95.5571 143.265 95.5996C143.326 95.6192 143.387 95.6388 143.44 95.6627C143.462 95.613 143.491 95.5633 143.52 95.5136C143.582 95.4048 143.644 95.2961 143.643 95.188C143.639 94.6981 143.6 94.2067 143.541 93.7198C143.532 93.6432 143.524 93.5657 143.516 93.4878C143.479 93.1366 143.441 92.7788 143.306 92.4679C142.892 91.521 142.453 90.5771 141.926 89.6906C141.592 89.1295 141.138 88.6046 140.634 88.1889C140.187 87.8198 139.672 87.5304 139.159 87.2422C139.022 87.1651 138.885 87.0881 138.749 87.0097C137.922 86.5311 137.083 86.0717 136.242 85.6167C136.233 85.6118 136.224 85.6066 136.214 85.6012C136.116 85.5453 136 85.4794 135.897 85.7047C135.702 86.1285 135.496 86.5472 135.289 86.9658L135.289 86.9659L135.289 86.966L135.289 86.966L135.289 86.9661L135.289 86.9662L135.289 86.9662L135.289 86.9663L135.289 86.9665L135.289 86.9667L135.289 86.9669L135.289 86.9671L135.289 86.9673L135.289 86.9675L135.288 86.9677C134.966 87.621 134.645 88.2739 134.368 88.9459L134.35 88.991C134.241 89.2478 134.05 89.7013 134.636 89.952C135.266 90.221 135.885 90.6077 136.381 91.0769C137.842 92.457 138.501 94.3016 139.156 96.1336L139.207 96.277C139.333 96.6296 139.423 96.9951 139.513 97.3605C139.556 97.534 139.599 97.7074 139.646 97.8795C139.655 97.9151 139.666 97.9505 139.677 97.9857C139.685 98.0112 139.693 98.0367 139.702 98.0621L139.703 98.0656L139.714 98.099C139.719 98.1164 139.725 98.1339 139.73 98.1514C139.761 98.1291 139.797 98.1088 139.832 98.0885C139.909 98.0446 139.986 98.0008 140.013 97.9361C140.289 97.2754 140.372 96.6111 140.167 95.8928C140.003 95.3221 139.944 94.7183 139.886 94.1235L139.886 94.1232L139.881 94.0688C139.874 93.9961 139.975 93.9128 140.077 93.8295C140.124 93.791 140.171 93.7525 140.207 93.7151C140.232 93.7472 140.26 93.7783 140.288 93.8093C140.35 93.8768 140.412 93.9443 140.433 94.0229C140.48 94.1897 140.523 94.3575 140.567 94.5281C140.647 94.8387 140.729 95.1588 140.838 95.5004C140.876 95.6731 140.912 95.8461 140.949 96.0191L140.949 96.0199C141.053 96.5088 141.156 96.9978 141.286 97.4796ZM134.623 86.4427C134.701 86.2556 134.794 86.0764 134.887 85.897C135.112 85.4626 135.337 85.0277 135.35 84.48C135.361 83.9788 135.27 83.71 134.864 83.4632C134.435 83.2018 133.946 83.0444 133.564 83.345C132.696 84.0278 131.895 84.8209 131.43 85.8364C131.138 86.4761 130.927 87.1536 130.717 87.8303C130.645 88.0624 130.572 88.2944 130.497 88.5247C130.454 88.656 130.474 88.8193 130.502 88.9605C130.67 89.8053 131.302 90.223 132.006 90.5772C132.377 90.7641 132.652 90.6713 132.818 90.3055C132.932 90.0557 133.045 89.8053 133.158 89.5527L133.158 89.5526L133.158 89.5525L133.158 89.5524L133.158 89.5523L133.158 89.5522L133.158 89.5521L133.158 89.5516L133.159 89.5503L133.16 89.5489L133.16 89.5475C133.396 89.0213 133.637 88.4855 133.904 87.9263C133.979 87.7744 134.055 87.6236 134.132 87.4727C134.304 87.133 134.477 86.7934 134.623 86.4427ZM12.359 124.587C12.7466 123.666 13.1147 122.734 13.4251 121.785C13.6328 121.15 13.8158 120.508 13.9989 119.865L13.999 119.865C14.1647 119.283 14.3305 118.701 14.5146 118.125C14.8034 117.221 15.1063 116.322 15.4093 115.422L15.4093 115.422C15.6925 114.581 15.9756 113.74 16.2473 112.896C16.7559 111.314 17.2519 109.729 17.748 108.144L17.748 108.144C17.9709 107.432 18.1938 106.719 18.4178 106.007C18.4768 105.82 18.5367 105.633 18.5966 105.445C18.7557 104.948 18.9147 104.451 19.0574 103.949C19.0785 103.874 19.0355 103.781 18.9924 103.688C18.9725 103.646 18.9526 103.603 18.9391 103.562C18.895 103.591 18.8441 103.616 18.7931 103.642C18.6829 103.698 18.5727 103.754 18.5325 103.842C18.151 104.675 17.7783 105.513 17.4491 106.367C17.1461 107.153 16.8757 107.952 16.6053 108.751L16.6044 108.753L16.6042 108.754C16.5593 108.887 16.5144 109.019 16.4694 109.152C16.4191 109.3 16.3686 109.448 16.3181 109.596C16.0343 110.428 15.7504 111.26 15.4978 112.101C15.2362 112.972 14.9883 113.848 14.7404 114.723L14.7404 114.723C14.5589 115.364 14.3773 116.005 14.1904 116.644C14.1221 116.878 14.0543 117.112 13.9866 117.346L13.9859 117.348C13.7002 118.335 13.4143 119.323 13.0815 120.295C12.8742 120.899 12.655 121.5 12.435 122.103L12.435 122.104L12.4349 122.104L12.4348 122.104C12.1276 122.946 11.8187 123.793 11.5383 124.661C11.945 125.197 12.1005 125.201 12.359 124.587ZM104.95 143.49L104.959 143.49C105.502 143.45 106.045 143.41 106.588 143.383C107.305 143.348 108.022 143.317 108.739 143.286H108.74H108.74H108.74H108.74H108.74H108.741C109.689 143.245 110.637 143.203 111.585 143.154C111.66 143.15 111.731 143.075 111.802 143.001C111.82 142.982 111.838 142.963 111.856 142.946C111.863 142.939 111.87 142.933 111.876 142.926C111.885 142.919 111.893 142.911 111.901 142.905C111.89 142.898 111.879 142.891 111.868 142.883C111.85 142.872 111.833 142.861 111.816 142.849C111.751 142.805 111.686 142.761 111.614 142.737C111.558 142.718 111.494 142.723 111.43 142.727C111.402 142.729 111.373 142.731 111.345 142.731H89.8069C89.7731 142.731 89.7358 142.727 89.6986 142.723C89.6165 142.713 89.5345 142.704 89.4893 142.74C89.3348 142.864 89.196 143.023 89.1023 143.196C89.0826 143.232 89.2697 143.451 89.3857 143.477C89.7057 143.548 90.0385 143.592 90.3664 143.592C94.9663 143.599 99.5662 143.597 104.22 143.543C104.464 143.526 104.707 143.508 104.95 143.49ZM135.263 145.211L135.257 145.213C133.609 145.859 131.971 146.502 130.354 147.195C129.25 147.669 128.143 147.742 126.993 147.708C126.896 147.705 126.798 147.683 126.701 147.661C126.597 147.637 126.492 147.614 126.388 147.614C126.304 147.614 126.219 147.66 126.135 147.707L126.135 147.707L126.135 147.707L126.135 147.707L126.134 147.707C126.109 147.721 126.084 147.735 126.059 147.747C126.047 147.754 126.034 147.76 126.022 147.765L126.025 147.771C126.032 147.781 126.037 147.791 126.043 147.801C126.055 147.821 126.066 147.841 126.077 147.861L126.077 147.862C126.117 147.934 126.157 148.007 126.216 148.059C126.382 148.207 126.555 148.359 126.751 148.462C128.241 149.24 129.103 151.365 128.576 152.96C128.317 153.743 128.005 154.574 127.481 155.183C127.055 155.679 126.312 156.006 125.65 156.177C124.603 156.448 123.511 156.457 122.456 156.075C121.534 155.741 120.872 155.124 120.384 154.29C119.197 152.263 119.684 150.504 120.946 148.867C121.112 148.653 121.379 148.517 121.648 148.381C121.799 148.305 121.95 148.228 122.084 148.137C122.18 148.072 122.254 147.976 122.328 147.881C122.362 147.837 122.395 147.793 122.431 147.752C122.372 147.738 122.313 147.72 122.253 147.703C122.117 147.663 121.982 147.623 121.844 147.617C121.75 147.613 121.654 147.638 121.559 147.662C121.47 147.685 121.381 147.707 121.292 147.708L117.927 147.71C110.326 147.714 102.725 147.719 95.1232 147.707C93.2881 147.704 91.4531 147.677 89.618 147.649L89.6145 147.649C88.5338 147.633 87.4532 147.617 86.3725 147.606C85.5738 147.598 84.775 147.6 83.9762 147.602C83.6129 147.603 83.2497 147.604 82.8864 147.604C82.8082 147.604 82.7299 147.604 82.6517 147.603C82.4347 147.602 82.2178 147.601 82.0012 147.609C81.9559 147.611 81.9118 147.641 81.8678 147.672C81.8475 147.686 81.8271 147.701 81.8067 147.712C81.8263 147.726 81.8456 147.74 81.865 147.754C81.9066 147.784 81.9483 147.814 81.992 147.841C82.1742 147.955 82.3652 148.059 82.5563 148.163C82.9669 148.386 83.3775 148.61 83.6997 148.923C85.9039 151.068 85.1929 155.309 81.895 156.158C79.2268 156.846 76.8689 155.961 76.0768 152.801C75.5886 150.853 76.8942 148.53 78.8689 147.922C78.9544 147.895 79.0281 147.831 79.1018 147.767C79.1159 147.755 79.13 147.742 79.1442 147.73C79.1645 147.713 79.185 147.697 79.2059 147.681C79.1696 147.662 79.1333 147.637 79.097 147.612C79.0191 147.558 78.9412 147.505 78.8631 147.504C76.2599 147.494 73.8201 146.739 71.4275 145.837C68.2134 144.624 65.0886 143.21 62.1954 141.344L62.1402 141.309C61.6056 140.965 61.0541 140.61 60.8654 139.89C60.5121 138.543 61.1952 137.504 62.4566 137.162C63.7998 136.799 65.0875 137.182 66.356 137.587C68.5552 138.291 70.7528 138.999 72.9504 139.708L72.9519 139.708L72.9534 139.709L72.9549 139.709L72.9563 139.71L72.9578 139.71L72.9593 139.711L72.9608 139.711C74.1829 140.105 75.405 140.499 76.6273 140.892L76.7861 140.943L76.7865 140.943L76.7869 140.943L76.7874 140.944L76.7878 140.944L76.7882 140.944L76.7887 140.944L76.7891 140.944C77.4522 141.157 78.1155 141.371 78.7842 141.565C79.0297 141.637 79.2943 141.673 79.5504 141.674C80.6543 141.678 81.7583 141.679 82.8623 141.679C83.9616 141.68 85.0609 141.68 86.1602 141.684C86.3233 141.685 86.6032 141.73 86.6269 141.812C86.6781 141.99 86.6776 142.182 86.677 142.374C86.6768 142.449 86.6766 142.524 86.6794 142.598C86.6725 142.596 86.6656 142.593 86.6586 142.59L86.6456 142.585L86.6311 142.578L86.6307 142.578C86.5953 142.562 86.56 142.546 86.5265 142.549C86.4023 142.56 86.2785 142.576 86.1546 142.591L86.1535 142.591C85.9685 142.614 85.7836 142.636 85.5979 142.646C84.9537 142.679 84.3093 142.709 83.6649 142.739C82.804 142.779 81.9432 142.819 81.0828 142.867C79.5598 142.951 78.1237 142.524 76.7005 142.1L76.6875 142.096C75.5828 141.767 74.4921 141.391 73.4013 141.016L73.4009 141.016L73.4004 141.016L73.4 141.016L73.3996 141.016L73.3991 141.015C72.7834 140.804 72.1677 140.592 71.5493 140.388C70.7747 140.133 69.998 139.884 69.2213 139.636C68.3252 139.348 67.4292 139.061 66.5363 138.765C66.3109 138.69 66.091 138.59 65.8717 138.49C65.5221 138.331 65.1743 138.173 64.8089 138.119C64.1371 138.02 63.418 138.073 62.7482 138.205C62.4864 138.257 62.1932 138.672 62.1107 138.975C62.0006 139.379 62.0754 139.777 62.5494 140.077C64.7495 141.472 67.0685 142.628 69.4501 143.677C71.6138 144.631 73.8474 145.374 76.1291 145.98C76.495 146.077 76.891 146.085 77.2739 146.092C78.1481 146.108 79.0224 146.119 79.8967 146.13C81.3735 146.148 82.8503 146.166 84.3262 146.211C85.9604 146.261 87.5937 146.34 89.227 146.419C89.9866 146.456 90.7463 146.493 91.506 146.526C92.1785 146.556 92.8511 146.585 93.5236 146.614C94.5007 146.657 95.4778 146.699 96.4548 146.744C96.6644 146.753 96.8741 146.771 97.0837 146.788L97.0844 146.788L97.0851 146.788L97.0857 146.788L97.0864 146.788L97.0871 146.788C97.4578 146.819 97.8282 146.85 98.1975 146.838C98.5213 146.828 98.8438 146.783 99.1665 146.739L99.1667 146.738L99.1672 146.738C99.446 146.7 99.725 146.661 100.005 146.645C100.194 146.634 100.385 146.662 100.577 146.69C100.732 146.712 100.888 146.735 101.043 146.737L101.17 146.739L101.475 146.744L101.604 146.746H101.604H101.604H101.605H101.605H101.605H101.605H101.605C102.466 146.76 103.327 146.773 104.185 146.733C104.926 146.697 105.666 146.639 106.407 146.581L106.408 146.581C107.121 146.525 107.834 146.469 108.548 146.433C108.761 146.422 108.975 146.475 109.19 146.528L109.19 146.528C109.379 146.574 109.569 146.621 109.758 146.625C111.058 146.651 112.359 146.649 113.659 146.631C114.927 146.613 116.195 146.58 117.461 146.519C117.712 146.508 117.964 146.464 118.216 146.421C118.588 146.357 118.958 146.293 119.319 146.332C120.768 146.489 122.221 146.528 123.673 146.568C124.67 146.595 125.667 146.623 126.66 146.688C128.455 146.805 130.044 146.378 131.618 145.736C133.748 144.868 135.861 143.949 137.934 142.954C139.23 142.332 140.467 141.582 141.699 140.836L141.699 140.835L141.924 140.699C142.709 140.224 143.309 139.552 143.555 138.63C143.679 138.165 143.42 137.81 142.952 137.799C141.502 137.768 140.178 138.27 138.861 138.775C136.947 139.51 135.04 140.266 133.14 141.037C132.372 141.348 131.611 141.674 130.849 141.999L130.849 142L130.848 142L130.848 142L130.848 142L130.847 142L130.845 142.001C130.275 142.245 129.704 142.489 129.13 142.727C128.93 142.81 128.7 142.857 128.483 142.858C126.67 142.865 124.856 142.865 123.043 142.864C122.544 142.864 122.046 142.864 121.548 142.864L120.052 142.864C118.702 142.865 117.353 142.865 116.003 142.863C115.541 142.862 115.08 142.846 114.618 142.829C114.589 142.828 114.541 142.755 114.538 142.712C114.534 142.653 114.536 142.593 114.538 142.532C114.541 142.448 114.545 142.364 114.53 142.282C114.467 141.937 114.615 141.884 114.935 141.886C117.21 141.901 119.486 141.908 121.761 141.89L122.44 141.885C124.366 141.871 126.294 141.857 128.216 141.759C128.826 141.728 129.44 141.464 130.024 141.212L130.024 141.212L130.173 141.148C133.504 139.723 136.869 138.386 140.336 137.326C140.964 137.133 141.632 137.061 142.295 136.989L142.298 136.989L142.301 136.989C142.424 136.975 142.547 136.962 142.669 136.948C143.121 136.896 143.6 136.863 144.038 136.956C144.733 137.103 145.022 137.769 144.809 138.464C144.423 139.728 143.65 140.69 142.526 141.373C141.728 141.858 140.927 142.338 140.122 142.822L140.114 142.826L140.108 142.83C139.363 143.277 138.614 143.726 137.86 144.184C136.993 144.532 136.127 144.872 135.263 145.211ZM126.779 150.028C125.513 148.653 124.05 148.4 122.305 149.406C121.297 149.987 120.854 151.353 120.939 152.219C121.03 153.152 121.497 153.925 122.211 154.53C123.068 155.257 124.069 155.258 125.1 155.037C127.391 154.546 128.079 151.579 126.779 150.028ZM77.3625 151.69C77.3619 151.737 77.3611 151.784 77.3602 151.831C77.3564 152.044 77.3526 152.257 77.3667 152.469C77.4825 154.215 79.5149 155.571 81.3069 155.057C82.5823 154.692 83.3179 153.932 83.5784 152.598C83.978 150.552 82.7039 149.078 80.9438 148.824C79.2051 148.573 77.7747 149.53 77.3637 151.536C77.3637 151.588 77.3633 151.639 77.3625 151.69ZM91.2251 157.729H95.3208H115.316C116.256 157.729 117.195 157.729 118.134 157.729C122.599 157.73 127.064 157.731 131.529 157.715C131.82 157.714 132.141 157.547 132.381 157.382C132.446 157.338 132.309 156.987 132.176 156.836C132.085 156.734 131.841 156.697 131.665 156.697C117.4 156.693 103.134 156.692 88.8693 156.691L87.7484 156.691L86.7023 156.691C81.8204 156.691 76.9386 156.691 72.0567 156.69C71.8498 156.69 71.6429 156.676 71.4361 156.662L71.435 156.662C71.3609 156.657 71.2868 156.652 71.2127 156.648C70.8697 156.628 70.4252 157.083 70.5668 157.345C70.7702 157.72 71.1875 157.729 71.5964 157.729C78.1192 157.729 84.642 157.729 91.1953 157.729H91.2003H91.2052H91.2102H91.2152H91.2201H91.2251ZM55.5503 157.996L52.8668 157.996H52.8621H52.8574H52.8528H52.8481H52.8434C48.8616 157.996 44.9092 157.997 40.9567 157.995C40.9152 157.995 40.8731 157.996 40.831 157.997C40.5646 158.006 40.2989 158.015 40.1927 157.669C40.0696 157.268 40.2383 156.977 40.6865 156.925C40.7716 156.915 40.8584 156.918 40.9452 156.92C40.9851 156.922 41.0249 156.923 41.0646 156.923L45.2163 156.923C52.2282 156.923 59.2401 156.923 66.252 156.921L66.3209 156.921C66.6843 156.919 67.0279 156.917 67.0125 157.406C66.9998 157.812 66.7587 157.996 66.1982 157.996L58.0797 157.996H55.5503ZM149.76 157.998L152.656 157.998L154.473 157.998H154.478H154.484H154.489H154.495C156.8 157.998 159.078 157.999 161.357 157.994C161.594 157.993 161.835 157.946 162.066 157.892C162.13 157.877 162.194 157.766 162.209 157.691C162.326 157.113 162.138 156.925 161.459 156.925L136.277 156.925C136.237 156.925 136.197 156.923 136.157 156.921H136.157C136.07 156.918 135.983 156.914 135.899 156.928C135.437 157.006 135.272 157.326 135.456 157.713C135.596 158.01 135.857 158.004 136.12 157.998L136.173 157.997L136.198 157.997L136.228 157.997C140.724 157.998 145.22 157.998 149.746 157.998H149.749H149.753H149.757H149.76ZM130.227 14.6788C130.321 14.6692 130.764 14.7379 131.31 14.8226C132.057 14.9385 132.996 15.0843 133.5 15.1005C134.005 15.1167 133.526 15.6556 133.443 15.6592C132.329 15.7063 129.916 14.9731 130.227 14.6788ZM131.854 18.9303C131.382 18.7523 131.608 17.3116 132.075 17.3116C132.537 17.3116 132.314 19.1041 131.854 18.9303ZM125.06 151.029C125.467 151.951 125.44 152.329 124.954 152.83C124.622 153.173 124.022 153.231 123.645 152.957C123.243 152.665 123.056 151.973 123.25 151.493C123.592 150.649 124.342 150.442 125.06 151.029ZM81.3887 151.1C80.7553 150.515 80.1242 150.548 79.3493 151.305C79.067 151.957 79.2054 152.647 80.2517 152.831C80.8152 152.93 81.149 152.764 81.4603 152.428C81.7841 152.078 81.6915 151.379 81.3887 151.1Z" fill="#00160A"/>
<path fill-rule="evenodd" clip-rule="evenodd" d="M118.147 33.6184C117.205 33.3427 116.982 31.918 116.031 31.6719C115.091 31.4285 114.188 32.5386 113.251 32.2851C112.613 32.1127 112.316 31.4109 111.963 30.8544C111.62 30.313 110.896 29.8242 110.38 30.1737L110.337 30.2048C109.621 30.7681 108.546 30.4122 107.825 29.8552C107.103 29.2981 106.491 28.5473 105.625 28.2607C106.08 27.8131 106.868 28.1379 107.308 28.5997C107.749 29.0616 108.107 29.6701 108.719 29.8549C109.656 30.138 110.712 29.2698 111.597 29.6887C112.147 29.9491 112.371 30.5925 112.7 31.1032C113.029 31.6139 113.746 32.042 114.214 31.6532C115.349 30.7094 117.378 31.3077 117.815 32.7151C117.942 33.1234 118.502 33.7223 118.147 33.6184Z" fill="#E7EAEE"/>
<path fill-rule="evenodd" clip-rule="evenodd" d="M61.9543 140.589C64.5716 142.126 72.7701 146.656 78.7802 146.806L128.49 146.962C128.49 146.962 154.629 137.795 135.518 141.254C134.436 141.45 131.339 143.297 126.358 143.7C117.253 144.436 78.7802 143.965 78.7802 143.965C78.7802 143.965 61.2658 140.184 61.9543 140.589Z" fill="#E7EAEE"/>
<path fill-rule="evenodd" clip-rule="evenodd" d="M19.2632 110.092C19.3244 110.024 19.3987 109.976 19.4447 109.995C19.9683 110.211 20.2702 110.023 20.4293 109.508C20.4556 109.422 20.5901 109.369 20.6746 109.301C20.7523 109.405 20.8954 109.508 20.8957 109.611C20.8968 109.955 21.0465 110.117 21.3741 110.219C21.5138 110.263 21.5964 110.486 21.7049 110.627C21.5956 110.652 21.4307 110.643 21.3886 110.71C21.3031 110.845 21.2582 111.02 21.2453 111.182C21.2343 111.321 21.3037 111.463 21.3159 111.605C21.3318 111.792 21.3017 111.929 21.081 111.741C20.6403 111.365 20.2579 111.506 19.8815 111.86C19.7902 111.946 19.6296 111.96 19.5009 112.007C19.5244 111.89 19.5315 111.767 19.5743 111.657C19.7988 111.084 19.6437 110.592 19.2632 110.092Z" fill="#FFB61D"/>
<ellipse cx="127.243" cy="22.4551" rx="1.89915" ry="1.89384" fill="#FFB61D"/>
<path fill-rule="evenodd" clip-rule="evenodd" d="M100.069 39.312L100.287 39.6481L100.36 39.7566C100.818 40.4261 101.513 41.0843 102.286 40.8892C104.344 40.37 106.685 41.2763 107.852 43.0439C108.429 43.9179 109.71 43.7465 110.758 43.5226L110.896 43.4925C111.946 43.2603 113.399 43.3695 113.665 44.3848L113.678 44.4432C113.801 45.0277 114.539 45.2054 115.146 45.19L115.334 45.1832C116.862 45.1832 117.062 46.0207 117.062 45.9346C117.062 45.9346 113.704 45.6809 112.998 44.5452L112.954 44.4729C112.504 43.6868 111.368 43.8147 110.479 44.082L110.234 44.1583L110.111 44.1939C109.244 44.4363 108.19 44.5241 107.755 43.7772C106.755 42.0637 104.673 41.0454 102.701 41.3061C102.194 41.3732 101.668 41.5154 101.182 41.3549C100.02 40.9711 99.8677 39.1814 98.7242 38.7452C97.2812 38.1947 95.884 40.2863 94.3906 39.8914C95.2989 39.2004 96.3059 38.6385 97.3718 38.2279C97.729 38.0903 98.1081 37.9678 98.4883 38.0138C99.1925 38.0989 99.6652 38.7024 100.069 39.312ZM118.403 41.3769C118.259 41.8193 118.153 42.2122 118.083 42.5456C117.936 41.5847 116.979 40.6963 116.076 41.0075L116.024 41.0268C115.451 41.2543 114.844 40.7819 114.474 40.2904L114.385 40.1707L114.251 39.9877C113.952 39.5798 113.629 39.1774 113.15 39.0612C112.273 38.8489 111.499 39.7193 110.603 39.8232C108.529 40.0636 107.492 36.3607 105.455 36.8202C105.01 36.9207 104.625 37.2249 104.173 37.2865C102.924 37.4567 102.254 35.8733 101.202 35.1818C100.41 34.6614 99.2917 34.6929 98.5308 35.2571C98.5691 34.3529 99.8025 33.9544 100.644 34.2946C101.486 34.6348 102.064 35.3997 102.763 35.9777C103.444 36.5414 104.456 36.9285 105.198 36.4699L105.254 36.4329C106.147 35.8166 107.341 36.5983 108.039 37.4284L108.292 37.7309C108.928 38.4863 109.656 39.2711 110.61 39.1986C111.486 39.1321 112.232 38.3181 113.101 38.4483C114.367 38.6379 114.884 40.673 116.157 40.5352C116.976 40.4467 117.827 40.7207 118.439 41.2695L118.403 41.3769ZM119.061 37.119C118.857 37.4046 118.652 37.6339 118.446 37.8071L118.378 37.8628L118.206 37.7407C117.374 37.1509 116.465 36.5769 115.452 36.6007C115.083 36.6094 114.704 36.6984 114.349 36.5945C113.407 36.3188 113.183 34.8941 112.233 34.648C111.293 34.4045 110.39 35.5147 109.453 35.2612C108.815 35.0888 108.517 34.387 108.164 33.8305C107.821 33.2891 107.098 32.8003 106.581 33.1498L106.539 33.1809C105.822 33.7442 104.748 33.3883 104.026 32.8313C103.305 32.2742 102.693 31.5233 101.827 31.2368C102.281 30.7891 103.069 31.114 103.51 31.5758C103.95 32.0377 104.308 32.6462 104.92 32.831C105.858 33.114 106.914 32.2459 107.798 32.6647C108.349 32.9252 108.572 33.5686 108.902 34.0793C109.231 34.59 109.948 35.018 110.416 34.6292C111.551 33.6855 113.579 34.2837 114.016 35.6912C114.143 36.0995 114.689 36.1945 115.109 36.1125C115.53 36.0304 115.963 35.8474 116.372 35.9759C116.892 36.1393 117.159 36.7425 117.66 36.957C118.181 37.1801 118.804 36.8964 119.153 36.4473L119.188 36.4003C119.469 36.0084 119.337 36.7331 119.061 37.119Z" fill="#FFB61D"/>
<path fill-rule="evenodd" clip-rule="evenodd" d="M108.138 47.8529L108.295 47.8988C108.505 47.9629 108.664 48.0574 108.848 48.2133L108.939 48.2933L109.055 48.3985C109.112 48.4495 109.156 48.4877 109.2 48.5244C109.508 48.7758 109.856 48.9318 110.437 49.0238C110.827 49.0855 111.102 49.0237 111.576 48.8036L111.746 48.7223C112.512 48.3539 112.957 48.2513 113.675 48.4158C114.288 48.5564 114.57 48.793 114.799 49.2384L114.856 49.3565C114.966 49.5847 115.32 49.7954 115.599 49.9618C115.808 50.0865 115.975 50.1863 115.966 50.2497C115.946 50.3978 114.652 50.1584 114.395 49.6461L114.339 49.5312C114.171 49.1871 114.019 49.0498 113.553 48.9431C113.007 48.818 112.676 48.8835 112.067 49.1693L111.896 49.2509C111.278 49.5472 110.899 49.6448 110.352 49.5582C109.676 49.4511 109.238 49.2551 108.856 48.9429C108.83 48.9212 108.804 48.8994 108.777 48.876L108.55 48.6717C108.391 48.5303 108.282 48.4608 108.136 48.4163L108.046 48.3893C107.668 48.2787 106.801 48.5657 106.169 48.7749L106.169 48.7749L106.169 48.7749C105.773 48.906 105.469 49.0066 105.436 48.9593C105.365 48.8572 107.383 47.6507 108.138 47.8529ZM108.045 51.9649L108.191 52.0053C108.386 52.0616 108.533 52.1446 108.704 52.2816L108.789 52.3519L108.896 52.4444C108.948 52.4892 108.989 52.5228 109.031 52.555C109.316 52.776 109.639 52.913 110.178 52.9939C110.539 53.0481 110.794 52.9938 111.233 52.8004L111.392 52.729C112.102 52.4052 112.514 52.315 113.18 52.4596C113.749 52.5831 114.01 52.7911 114.222 53.1825L114.276 53.2863C114.377 53.4868 114.705 53.672 114.964 53.8182C115.158 53.9278 115.313 54.0155 115.305 54.0712C115.287 54.2014 114.086 53.991 113.848 53.5407L113.796 53.4398C113.641 53.1374 113.499 53.0168 113.067 52.923C112.561 52.8131 112.254 52.8706 111.689 53.1218L111.531 53.1934C110.957 53.4538 110.606 53.5396 110.099 53.4635C109.472 53.3694 109.066 53.1972 108.712 52.9228C108.687 52.9037 108.663 52.8846 108.638 52.864L108.428 52.6845C108.28 52.5602 108.179 52.4991 108.044 52.46L107.961 52.4363C107.609 52.3391 106.806 52.5913 106.22 52.7751C105.852 52.8904 105.571 52.9788 105.54 52.9372C105.474 52.8475 107.346 51.7872 108.045 51.9649ZM108.315 56.334L108.177 56.2937C107.517 56.116 105.749 57.1763 105.811 57.266C105.84 57.3076 106.106 57.2192 106.453 57.1039L106.453 57.1039C107.007 56.9201 107.766 56.6679 108.097 56.7651L108.176 56.7888C108.304 56.8279 108.399 56.889 108.538 57.0133L108.737 57.1928C108.761 57.2134 108.784 57.2325 108.807 57.2516C109.141 57.526 109.525 57.6982 110.117 57.7923C110.596 57.8684 110.928 57.7826 111.469 57.5222L111.619 57.4506C112.152 57.1994 112.442 57.1419 112.92 57.2518C113.328 57.3456 113.462 57.4662 113.608 57.7686L113.657 57.8695C113.883 58.3198 115.016 58.5302 115.034 58.4C115.041 58.3443 114.895 58.2566 114.712 58.147C114.467 58.0008 114.158 57.8156 114.062 57.6151L114.011 57.5113C113.811 57.1199 113.564 56.9119 113.027 56.7884C112.398 56.6438 112.008 56.734 111.338 57.0578L111.188 57.1292C110.773 57.3226 110.533 57.3769 110.191 57.3227C109.682 57.2418 109.377 57.1047 109.108 56.8838C109.069 56.8516 109.03 56.818 108.981 56.7732L108.88 56.6807L108.8 56.6104C108.638 56.4734 108.499 56.3904 108.315 56.334ZM108.177 61.4341L108.315 61.4744C108.499 61.5307 108.638 61.6138 108.8 61.7508L108.88 61.8211L108.981 61.9136C109.03 61.9584 109.069 61.992 109.108 62.0242C109.377 62.2451 109.682 62.3822 110.191 62.4631C110.533 62.5173 110.773 62.463 111.188 62.2696L111.338 62.1981C112.008 61.8744 112.398 61.7842 113.027 61.9288C113.564 62.0523 113.811 62.2603 114.011 62.6517L114.062 62.7554C114.158 62.956 114.467 63.1412 114.712 63.2874C114.895 63.397 115.041 63.4847 115.034 63.5404C115.016 63.6705 113.883 63.4602 113.657 63.0099L113.608 62.909C113.462 62.6066 113.328 62.486 112.92 62.3922C112.442 62.2823 112.152 62.3398 111.619 62.5909L111.469 62.6626C110.928 62.923 110.596 63.0088 110.117 62.9327C109.525 62.8386 109.141 62.6664 108.807 62.392C108.784 62.3729 108.761 62.3538 108.737 62.3332L108.538 62.1537C108.399 62.0294 108.304 61.9683 108.176 61.9292L108.097 61.9055C107.766 61.8083 107.007 62.0605 106.453 62.2443C106.106 62.3596 105.84 62.448 105.811 62.4064C105.749 62.3167 107.517 61.2564 108.177 61.4341ZM108.733 66.6149L108.588 66.5746C107.888 66.3969 106.017 67.4572 106.083 67.5469C106.113 67.5885 106.395 67.5001 106.762 67.3848L106.762 67.3848L106.762 67.3848C107.348 67.201 108.152 66.9488 108.503 67.046L108.587 67.0697C108.722 67.1088 108.822 67.1699 108.97 67.2942L109.181 67.4737C109.206 67.4943 109.23 67.5134 109.254 67.5325C109.609 67.8069 110.014 67.9791 110.642 68.0732C111.149 68.1493 111.5 68.0635 112.074 67.8031L112.232 67.7314C112.797 67.4802 113.104 67.4227 113.61 67.5327C114.042 67.6264 114.183 67.7471 114.338 68.0494L114.39 68.1504C114.629 68.6007 115.829 68.811 115.848 68.6809C115.856 68.6252 115.701 68.5375 115.507 68.4279C115.248 68.2817 114.92 68.0965 114.819 67.8959L114.765 67.7922C114.553 67.4008 114.291 67.1928 113.723 67.0693C113.057 66.9247 112.644 67.0149 111.934 67.3386L111.776 67.4101C111.337 67.6035 111.082 67.6578 110.72 67.6036C110.182 67.5227 109.859 67.3856 109.573 67.1647C109.532 67.1325 109.491 67.0989 109.439 67.0541L109.331 66.9616L109.247 66.8913C109.076 66.7543 108.929 66.6712 108.733 66.6149ZM110.067 71.3311L110.217 71.3456C110.419 71.3673 110.578 71.4236 110.771 71.5289L110.867 71.5835L110.989 71.656C111.048 71.691 111.094 71.717 111.14 71.7416C111.46 71.9098 111.801 71.9888 112.346 71.9751C112.712 71.966 112.953 71.8683 113.352 71.6018L113.496 71.504C114.138 71.0623 114.529 70.902 115.21 70.9291C115.791 70.9523 116.085 71.1119 116.362 71.4605L116.433 71.5534C116.568 71.7333 116.923 71.859 117.203 71.9582C117.413 72.0325 117.582 72.0919 117.583 72.1482C117.588 72.2796 116.369 72.2803 116.055 71.8782L115.987 71.7878C115.781 71.5169 115.621 71.4226 115.18 71.405C114.662 71.3844 114.37 71.4941 113.857 71.8394L113.714 71.9373C113.194 72.2931 112.863 72.4384 112.35 72.4513C111.716 72.4672 111.287 72.3679 110.89 72.159L110.807 72.1138L110.569 71.9735C110.402 71.8767 110.292 71.834 110.152 71.8189L110.066 71.81C109.703 71.775 108.955 72.1626 108.41 72.4451C108.069 72.6222 107.807 72.7581 107.769 72.7224C107.689 72.6455 109.347 71.2772 110.067 71.3311ZM113.489 74.8343L113.369 74.8459C112.794 74.9129 111.65 76.1743 111.723 76.2194C111.756 76.2404 111.947 76.1007 112.195 75.9185L112.195 75.9185C112.592 75.6279 113.135 75.2293 113.426 75.2014L113.495 75.1952C113.608 75.1856 113.699 75.201 113.843 75.248L114.049 75.3167L114.12 75.3379C114.458 75.4339 114.81 75.4438 115.309 75.3378C115.712 75.2521 115.956 75.0952 116.323 74.7541L116.425 74.6601C116.788 74.3278 117.005 74.2029 117.417 74.1414C117.768 74.0889 117.906 74.135 118.101 74.3054L118.166 74.3624C118.463 74.6141 119.426 74.4325 119.406 74.3357C119.398 74.2942 119.258 74.2751 119.083 74.2511C118.849 74.2192 118.554 74.1787 118.425 74.0653L118.358 74.0069C118.096 73.7894 117.845 73.7146 117.383 73.7838C116.842 73.8648 116.553 74.0417 116.098 74.465L115.997 74.5588C115.714 74.8158 115.535 74.9241 115.248 74.9852C114.819 75.0763 114.539 75.0684 114.267 74.9911C114.227 74.9798 114.187 74.9673 114.136 74.9501L114.031 74.9144L113.949 74.8881C113.784 74.8386 113.652 74.8204 113.489 74.8343ZM116.353 77.2808L116.473 77.2692C116.636 77.2553 116.768 77.2735 116.933 77.323L117.015 77.3493L117.12 77.3849C117.171 77.4021 117.211 77.4146 117.251 77.4259C117.523 77.5033 117.803 77.5111 118.232 77.4201C118.519 77.359 118.698 77.2507 118.981 76.9937L119.083 76.8999C119.537 76.4766 119.826 76.2997 120.367 76.2187C120.829 76.1495 121.08 76.2243 121.342 76.4418L121.409 76.5002C121.538 76.6136 121.833 76.6541 122.067 76.686C122.242 76.71 122.382 76.7291 122.39 76.7706C122.41 76.8674 121.447 77.049 121.15 76.7973L121.085 76.7403C120.89 76.5699 120.752 76.5238 120.401 76.5763C119.989 76.6378 119.772 76.7627 119.409 77.095L119.307 77.189C118.94 77.5301 118.697 77.687 118.293 77.7727C117.794 77.8787 117.442 77.8688 117.104 77.7728L117.033 77.7515L116.827 77.6829C116.684 77.6359 116.592 77.6204 116.479 77.6301L116.41 77.6363C116.119 77.6642 115.576 78.0628 115.18 78.3533L115.179 78.3533L115.179 78.3533C114.931 78.5355 114.74 78.6752 114.707 78.6543C114.634 78.6092 115.778 77.3478 116.353 77.2808ZM120.293 79.9018L120.199 79.928C119.748 80.0624 119.012 81.2316 119.077 81.2574C119.107 81.2694 119.239 81.1309 119.412 80.9503C119.688 80.6624 120.066 80.2674 120.294 80.2041L120.349 80.1895C120.438 80.1659 120.513 80.1654 120.635 80.1827L120.809 80.2087L120.868 80.2157C121.153 80.2449 121.435 80.2034 121.819 80.0485C122.13 79.9233 122.302 79.7636 122.547 79.4393L122.615 79.3499C122.859 79.0332 123.015 78.9028 123.335 78.7958C123.608 78.7045 123.725 78.7219 123.905 78.8307L123.965 78.8671C124.238 79.0266 124.982 78.7462 124.953 78.6715C124.94 78.6395 124.826 78.6439 124.682 78.6493C124.491 78.6566 124.249 78.6658 124.13 78.5932L124.068 78.556C123.829 78.4189 123.617 78.3944 123.257 78.5147C122.836 78.6555 122.63 78.8376 122.327 79.2398L122.259 79.329C122.069 79.5743 121.942 79.686 121.72 79.7752C121.39 79.9083 121.166 79.9413 120.937 79.9178C120.903 79.9144 120.87 79.9099 120.827 79.9034L120.738 79.8896L120.668 79.8802C120.53 79.8638 120.421 79.8679 120.293 79.9018ZM123.214 82.1138L123.309 82.0876C123.436 82.0537 123.545 82.0496 123.684 82.066L123.753 82.0754L123.842 82.0892C123.885 82.0958 123.919 82.1002 123.952 82.1036C124.181 82.1271 124.406 82.0941 124.736 81.961C124.957 81.8718 125.085 81.7601 125.274 81.5148L125.342 81.4256C125.645 81.0234 125.852 80.8413 126.273 80.7005C126.632 80.5802 126.844 80.6047 127.084 80.7418L127.146 80.779C127.264 80.8517 127.507 80.8424 127.698 80.8351C127.841 80.8297 127.956 80.8253 127.968 80.8573C127.997 80.932 127.253 81.2125 126.981 81.0529L126.921 81.0165C126.74 80.9077 126.623 80.8903 126.35 80.9816C126.03 81.0886 125.874 81.219 125.631 81.5357L125.563 81.6251C125.318 81.9494 125.145 82.1091 124.834 82.2344C124.45 82.3892 124.168 82.4307 123.884 82.4015L123.824 82.3945L123.65 82.3685C123.528 82.3512 123.453 82.3517 123.364 82.3753L123.31 82.39C123.081 82.4532 122.703 82.8482 122.428 83.1362C122.255 83.3167 122.122 83.4552 122.092 83.4432C122.027 83.4174 122.764 82.2482 123.214 82.1138ZM126.836 84.252L126.741 84.2781C126.29 84.4125 125.554 85.5818 125.619 85.6076C125.649 85.6195 125.781 85.4811 125.954 85.3005C126.23 85.0126 126.608 84.6175 126.837 84.5543L126.891 84.5397C126.98 84.5161 127.055 84.5155 127.177 84.5329L127.351 84.5589L127.411 84.5659C127.695 84.5951 127.977 84.5536 128.361 84.3987C128.672 84.2734 128.844 84.1137 129.09 83.7894L129.157 83.7001C129.401 83.3834 129.557 83.253 129.877 83.1459C130.15 83.0546 130.267 83.072 130.447 83.1809L130.508 83.2172C130.78 83.3768 131.524 83.0963 131.495 83.0216C131.483 82.9897 131.368 82.994 131.225 82.9995C131.033 83.0068 130.791 83.016 130.673 82.9434L130.61 82.9062C130.371 82.769 130.159 82.7446 129.8 82.8648C129.378 83.0056 129.172 83.1877 128.869 83.5899L128.801 83.6792C128.611 83.9244 128.484 84.0361 128.263 84.1254C127.933 84.2584 127.708 84.2915 127.479 84.268C127.446 84.2646 127.412 84.2601 127.369 84.2535L127.28 84.2398L127.211 84.2303C127.072 84.2139 126.963 84.218 126.836 84.252Z" fill="#FFB61D"/>
</svg>
