<svg width="196" height="173" viewBox="0 0 196 173" fill="none" xmlns="http://www.w3.org/2000/svg">
<path fill-rule="evenodd" clip-rule="evenodd" d="M149.882 138.631C180.095 110.878 141.088 95.0418 148.277 71.5886C155.466 48.1354 173.662 12.8647 105.769 19.0787C37.8751 25.2927 -18.4909 95.8915 5.71349 129.118C29.9179 162.344 119.67 166.384 149.882 138.631Z" fill="#FF7FA0"/>
<path fill-rule="evenodd" clip-rule="evenodd" d="M93.8333 81.7341C95.7945 82.7146 97.7558 83.6951 99.717 84.6756C102.807 86.2202 105.95 87.8021 108.441 90.2312C110.932 92.6603 112.714 96.1156 112.341 99.6206C111.902 103.741 108.728 106.915 105.748 109.713C101.863 113.361 97.9788 117.009 94.094 120.657C92.3916 122.255 90.5273 124.532 91.4442 126.705C93.8254 132.347 95.9822 138.766 93.8171 144.499C93.2057 146.118 91.9401 147.789 90.2496 147.709C88.9917 147.65 87.9942 146.636 87.1851 145.646C83.969 141.711 81.5826 137.067 80.2362 132.122C78.5121 125.789 78.7226 118.368 82.9183 113.398C86.1786 109.536 91.7966 106.939 92.1436 101.843C85.7917 96.3097 76.6031 94.4241 68.665 97.0248C60.7269 99.6255 54.3048 106.626 52.2553 114.911C51.1391 119.424 53.6376 124.069 56.7108 127.494C59.7841 130.919 63.5539 133.759 65.9186 137.733C70.6742 145.724 68.5981 155.956 66.3728 165.036C65.6006 168.187 60.9408 168.713 58.621 166.501C56.3012 164.289 55.9018 160.676 56.1476 157.437C56.3934 154.197 57.1306 150.923 56.5123 147.737C54.9165 139.513 45.5322 135.759 40.9338 128.826C37.4487 123.572 36.9686 116.698 38.259 110.483C39.5493 104.267 42.435 98.5413 45.2898 92.9014C39.9772 84.558 37.7469 74.2019 39.1385 64.3391C39.8407 59.3627 33.4555 55.5337 34.1204 50.5519C34.6511 46.5757 39.1983 44.7804 43.0419 44.0324C50.3574 42.6086 57.8385 42.0823 65.275 42.4681C66.9377 42.5544 67.6694 40.0765 66.8366 38.5976C66.0039 37.1187 64.3779 36.3574 63.0313 35.3532C60.3183 33.3301 58.6137 30.1403 57.6738 26.8375C56.4677 22.5989 56.4654 17.7862 58.7056 14.0159C59.2654 13.0736 60.2279 11.677 61.6923 13.0304C62.1318 10.6682 66.7966 8.39773 69.7792 9.66588C71.5668 10.426 73.4717 8.86723 74.6077 7.26022C75.7438 5.6532 76.8426 3.71271 78.7305 3.27665C82.1109 2.49585 84.2757 7.13618 83.8864 10.6682C83.497 14.2001 81.9829 17.9315 83.4695 21.1422C84.0347 22.3629 85.0138 23.4199 85.2015 24.7576C85.3643 25.918 85.0725 25.4655 84.4379 28.1372C83.8033 30.8089 82.2743 31.667 81.644 33.1451C80.6739 35.4201 80.8197 37.4184 78.7925 39.4319C78.4514 39.7706 79.1461 40.5471 78.9007 41.1224C83.8933 41.1959 87.6861 45.4668 91.5503 48.7106C96.3559 52.7448 102.235 55.5668 108.422 56.1143C114.608 56.6617 121.082 54.7995 125.701 50.5424C127.509 48.8759 131.823 51.053 132.138 48.5804C132.198 47.9398 132.033 47.664 131.442 47.5064C131.135 47.4248 130.412 47.5944 130.187 47.2979C129.528 46.4285 133.364 44.9302 133.202 46.1238C133.161 46.4294 132.986 46.6552 133.008 46.8534C133.073 47.4291 133.392 47.6067 133.885 47.7083C134.925 47.7749 136.414 47.0437 137.035 46.1238C137.452 45.5075 137.29 45.344 136.963 45.3168C136.429 45.2723 135.456 45.592 135.854 44.8925C136.345 44.0324 137.608 43.2167 138.81 43.9655C139.07 44.1272 138.978 44.441 138.845 44.7493C138.601 45.3149 138.216 45.8618 139.596 45.4171C141.729 44.7299 141.851 44.8587 142.402 45.0266C142.953 45.1946 143.762 46.1915 144.28 47.1227C145.345 49.039 146.438 51.0489 146.538 53.2527C146.638 55.4565 145.398 57.8933 143.291 58.334C143.272 58.9753 143.578 59.5796 144.042 60.0046C144.547 60.4676 145.846 60.1855 145.628 60.5993C144.919 61.9436 143.192 62.2884 141.832 61.818C141.459 61.6889 142.32 61.0272 142.402 60.5686C142.532 59.8344 142.384 59.0438 141.948 58.4438C140.718 58.9778 139.489 59.5117 138.259 60.0456C138.616 60.5138 138.453 61.0694 138.81 61.5375C139.147 61.9794 140.012 61.8675 140.157 62.4949C140.315 63.177 139.037 63.4632 138.378 63.527C137.655 63.597 136.53 63.6731 136.193 63.177C135.81 62.613 137.01 62.4323 137.065 61.8421C137.125 61.1979 136.896 60.5092 136.345 60.1976C135.288 59.6004 133.773 60.7 133.97 61.9205C134.467 64.9951 133.225 68.3013 130.846 70.2391C128.466 72.1769 125.046 72.6679 122.239 71.4745C119.701 70.3955 116.891 71.7835 114.265 72.6108C108.312 74.4864 101.519 73.2902 96.516 69.4854C96.2272 73.7389 95.4333 78.3459 92.7828 81.4821C93.2126 81.7341 92.9916 81.7341 93.8333 81.7341Z" fill="white"/>
<ellipse cx="67.3536" cy="34.2001" rx="1.44683" ry="1.48469" fill="#FFB61D"/>
<ellipse cx="77.7344" cy="31.2209" rx="1.44683" ry="1.48959" fill="#FFB61D"/>
<path fill-rule="evenodd" clip-rule="evenodd" d="M86.1839 97.5718C85.5327 97.2713 84.8804 96.9703 84.2239 96.6771C79.4189 94.5311 73.6555 92.9877 69.1218 95.6843C68.4294 91.147 73.1714 87.6816 77.5351 86.6552C78.7319 86.3737 79.9669 86.174 81.2019 85.9743C84.4699 85.4459 87.7386 84.9174 90.304 82.872C94.1129 79.8351 95.1286 74.422 95.4638 69.4853C100.466 73.2901 107.259 74.4863 113.212 72.6107C113.667 72.4675 114.127 72.3076 114.59 72.1465C116.803 71.3769 119.088 70.5821 121.187 71.4744C123.993 72.6678 127.414 72.1768 129.793 70.2389C132.173 68.3011 133.415 64.995 132.918 61.9203C132.721 60.6999 134.236 59.6003 135.292 60.1975C135.844 60.5091 136.073 61.1977 136.013 61.842C135.988 62.1061 135.734 62.2882 135.495 62.4594C135.2 62.6707 134.929 62.8653 135.14 63.1768C135.477 63.673 136.603 63.5968 137.326 63.5269C137.985 63.4631 139.262 63.1768 139.105 62.4948C139.022 62.1352 138.702 62.0185 138.381 61.9012C138.142 61.8138 137.902 61.7261 137.758 61.5374C137.579 61.3033 137.531 61.0474 137.482 60.7914C137.434 60.5355 137.385 60.2796 137.207 60.0455L140.896 58.4437C141.332 59.0437 141.48 59.8343 141.35 60.5684C141.314 60.7657 141.135 61.0005 140.972 61.2143C140.756 61.4977 140.567 61.7443 140.78 61.8179C142.14 62.2882 143.867 61.9435 144.576 60.5992C144.687 60.3887 144.405 60.3583 144.035 60.3183C143.678 60.2796 143.238 60.232 142.99 60.0045C142.526 59.5794 142.22 58.9752 142.239 58.3339C144.346 57.8932 145.585 55.4564 145.486 53.2526C145.386 51.0488 144.293 49.0389 143.227 47.1226C142.71 46.1914 141.901 45.1944 141.35 45.0265C141.315 45.0161 141.283 45.0058 141.251 44.9958C140.776 44.8457 140.544 44.7725 138.544 45.417C137.305 45.8162 137.489 45.4163 137.716 44.9212C137.742 44.8648 137.768 44.8071 137.793 44.7492C137.926 44.4409 138.017 44.1271 137.758 43.9654C136.556 43.2166 135.292 44.0322 134.802 44.8924C134.509 45.406 134.956 45.3701 135.426 45.3324C135.596 45.3187 135.769 45.3048 135.911 45.3166C136.237 45.3438 136.4 45.5073 135.983 46.1236C135.362 47.0436 133.872 47.7747 132.833 47.7082C132.34 47.6065 132.02 47.429 131.956 46.8533C131.944 46.7479 131.988 46.6348 132.038 46.506C132.082 46.3924 132.13 46.2668 132.15 46.1236C132.312 44.9301 128.476 46.4284 129.135 47.2977C129.281 47.491 129.639 47.4863 129.956 47.4822C130.125 47.4799 130.283 47.4779 130.389 47.5063C130.98 47.6639 131.146 47.9397 131.086 48.5803C130.914 49.9305 129.549 49.8942 128.052 49.8544C126.807 49.8213 125.47 49.7858 124.649 50.5423C120.03 54.7994 113.556 56.6616 107.369 56.1142C101.183 55.5667 95.3037 52.7446 90.4981 48.7105C89.8348 48.1537 89.1737 47.5667 88.5082 46.9758C85.2965 44.1242 81.9841 41.1832 77.8485 41.1223C77.9699 40.8377 77.8612 40.5039 77.7617 40.1982C77.66 39.8859 77.5679 39.6029 77.7403 39.4318C78.8079 38.3713 79.3534 36.3054 79.8257 34.5164C80.2502 32.9086 80.6157 31.5243 81.2482 31.2943C82.5138 30.834 82.8851 29.6854 83.3134 28.3603C83.3372 28.2864 83.3613 28.212 83.3857 28.1371C83.5318 27.6886 83.6621 27.3264 83.7732 27.0179C84.1128 26.0741 84.2719 25.632 84.1492 24.7575C84.0269 23.8853 83.568 23.1324 83.1068 22.3756C82.8607 21.9718 82.6139 21.5668 82.4172 21.1421C81.3357 18.8063 81.8424 16.1949 82.3487 13.5852C82.5384 12.6078 82.728 11.6305 82.8341 10.668C83.2234 7.13606 81.0586 2.49573 77.6782 3.27653C76.0309 3.65703 74.9844 5.18299 73.9897 6.63335C73.8444 6.84515 73.7002 7.05533 73.5555 7.26009C72.4195 8.86711 70.5146 10.4258 68.7269 9.66576C65.7444 8.39761 61.0795 10.668 60.6401 13.0303C59.1756 11.6769 58.2132 13.0735 57.6533 14.0157C55.4131 17.7861 55.4155 22.5988 56.6216 26.8374C57.5615 30.1402 59.2661 33.33 61.979 35.3531C62.3239 35.6103 62.6871 35.8515 63.0506 36.093C64.1065 36.7943 65.1649 37.4974 65.7844 38.5975C66.6171 40.0764 65.8855 42.5543 64.2227 42.468C56.7862 42.0822 49.3052 42.6085 41.9897 44.0322C38.146 44.7803 33.5989 46.5756 33.0682 50.5517C32.7364 53.0373 34.1596 55.2358 35.5819 57.4331C37.0104 59.6399 38.4381 61.8454 38.0863 64.339C36.6946 74.2018 38.925 84.5579 44.2376 92.9013C41.3827 98.5412 38.4971 104.267 37.2067 110.483C35.9163 116.698 36.3964 123.572 39.8815 128.826C41.6977 131.564 44.2603 133.806 46.7947 136.024C50.6776 139.421 54.4945 142.761 55.46 147.737C55.9139 150.076 55.6373 152.462 55.3609 154.847C55.2608 155.711 55.1607 156.575 55.0953 157.437C54.8495 160.676 55.249 164.289 57.5688 166.501C58.8935 167.764 60.9813 168.134 62.6725 167.633C62.6581 167.899 62.6431 168.147 62.6289 168.381C62.552 169.651 62.5016 170.484 62.7186 171.472C62.7751 171.729 62.8671 172.022 63.1073 172.116C63.5857 172.302 63.9046 171.551 63.8723 171.041C63.7498 169.108 63.5152 168.018 63.2893 167.402C64.2731 166.952 65.0448 166.161 65.3206 165.036C67.5458 155.956 69.622 145.724 64.8663 137.733C63.2953 135.093 61.1039 132.953 58.9087 130.81C57.7999 129.727 56.69 128.643 55.6586 127.494C52.5853 124.068 50.0868 119.424 51.203 114.911C53.2526 106.625 59.6747 99.6254 67.6128 97.0247C75.5509 94.424 84.7394 96.3096 91.0913 101.843C90.855 105.314 88.1732 107.626 85.4567 109.968C84.185 111.064 82.9057 112.167 81.8661 113.398C77.6703 118.368 77.4599 125.789 79.184 132.122C80.5304 137.067 82.9168 141.711 86.1328 145.646C86.9419 146.635 87.9394 147.65 89.1973 147.709C90.8879 147.789 92.1535 146.118 92.7648 144.499C94.9299 138.766 92.7731 132.347 90.392 126.704C89.4751 124.532 91.3394 122.255 93.0418 120.657L104.696 109.713C107.676 106.914 110.85 103.74 111.289 99.6205C111.662 96.1155 109.88 92.6602 107.389 90.2311C104.897 87.802 101.755 86.2201 98.6648 84.6754L92.781 81.734C94.7205 84.2912 97.6479 85.7268 100.53 87.1402C101.087 87.4133 101.642 87.6855 102.188 87.9648C105.561 89.6901 109.023 92.2081 109.795 95.992C110.744 100.64 107.297 104.907 104.101 108.344C100.055 112.695 95.9731 117.078 91.166 120.52C89.5303 121.692 87.7166 122.781 85.7232 122.855C83.7298 122.928 81.5611 121.646 81.2482 119.625C80.9656 117.801 82.1908 116.129 83.343 114.709L91.8632 104.21C93.1581 102.614 94.8638 102.198 96.8932 101.704C97.607 101.531 98.361 101.347 99.1511 101.099C94.3701 101.349 90.2994 99.4708 86.1839 97.5718ZM51.7013 69.353C52.0453 72.5309 52.9996 75.7132 54.9349 78.2196C56.8703 80.7261 59.8858 82.4709 62.9998 82.3324C64.0425 82.286 64.3766 80.6945 63.7574 79.8325C63.2204 79.0848 62.3324 78.7445 61.4714 78.4146C61.3397 78.3641 61.2087 78.3139 61.0796 78.2625C60.1066 77.8751 59.0691 77.2268 58.8935 76.1713C61.6391 78.3626 65.7381 78.5659 68.677 76.6566C69.6999 79.6684 73.0931 81.4767 76.1641 80.9794C79.2352 80.4821 81.802 77.9641 82.8206 74.9508C82.8401 74.8932 82.8593 74.8351 82.8785 74.7767C83.0333 74.3077 83.1924 73.8257 83.544 73.4935C83.8715 73.1841 84.3182 73.0526 84.7474 72.9309L93.1443 70.5488C93.3528 70.4897 93.5892 70.434 93.7741 70.5491C93.9713 70.6718 94.0258 70.9357 94.0547 71.1705C94.6356 75.8961 92.0496 80.8597 87.8968 82.9901C85.6702 84.1324 83.1257 84.5057 80.6029 84.8758C77.3114 85.3586 74.0571 85.8361 71.5946 88.0088C70.2544 89.1913 69.3247 90.7446 68.3931 92.301C67.9481 93.0445 67.5026 93.7887 67.0118 94.4936C64.002 98.8158 58.4742 101.743 53.5649 100.054C50.747 99.0844 48.5568 96.7904 46.7566 94.3646C41.3372 87.062 38.4766 77.8032 38.8061 68.6315C38.8659 66.9674 39.0324 65.2826 39.6191 63.7299C43.3395 68.1653 47.6413 72.0868 52.3723 75.3556C52.207 74.4753 51.6124 73.7528 51.0206 73.0931C49.3273 71.2054 47.4585 69.4376 45.5917 67.6718C41.2505 63.5654 36.9204 59.4695 34.8354 53.9009C34.3771 52.6768 34.038 51.3404 34.3204 50.0615C34.9608 47.1608 38.284 45.9534 41.1259 45.3645C47.951 43.9503 54.9164 43.2498 61.8793 43.2773C62.2492 47.7018 65.8378 51.6588 70.1293 52.2414C74.4208 52.8239 78.9435 49.8776 80.1484 45.6124C80.1842 45.4859 80.2177 45.3577 80.2513 45.2291C80.4011 44.6558 80.5523 44.0769 80.9103 43.6181C81.3485 43.0564 82.2397 42.7802 82.7512 43.2725C86.5425 46.9212 90.5209 50.4291 95.0546 53.0386C99.5883 55.648 104.739 57.331 109.933 57.0951C101.062 60.4152 91.9937 63.1828 82.7959 65.3776C82.0926 65.5454 81.2214 65.6555 80.7694 65.0778C79.1674 63.0306 76.5549 61.8623 74.0024 62.0517C71.4499 62.241 69.0285 63.7826 67.7302 66.045C67.2601 66.864 66.0872 66.7612 65.195 66.505C63.339 65.9721 61.429 65.1526 60.3323 63.5269C60.1471 63.2524 59.9867 62.9571 59.8266 62.6624C59.5132 62.0854 59.201 61.5106 58.7065 61.0986C58.007 60.5158 57.0909 60.3737 56.1836 60.233C55.9314 60.1939 55.6798 60.1549 55.4338 60.1066C52.633 59.5563 50.1527 57.5131 49.0242 54.8265C51.6645 53.0127 55.2301 53.8735 58.1453 55.1707C58.6044 55.375 59.0646 55.5896 59.5267 55.8051C61.9982 56.9574 64.5199 58.1332 67.1858 57.882C69.4526 57.6684 71.431 56.4583 73.4179 55.243C75.1744 54.1686 76.9376 53.0901 78.9124 52.6927C83.979 51.6731 88.9521 55.5435 91.3241 60.248C91.3423 60.2839 91.3604 60.3201 91.3787 60.3564C91.7667 61.1287 92.1864 61.964 92.9644 62.2882C92.1706 57.7093 88.8179 53.6929 84.5296 52.1837C80.2413 50.6744 75.1911 51.7335 71.8242 54.848C69.735 56.7806 66.5604 56.9172 63.8338 56.2069C62.298 55.8068 60.8343 55.1803 59.3696 54.5535C58.2338 54.0674 57.0974 53.581 55.9264 53.1997C53.245 52.3267 50.1481 52.0684 47.7615 53.5961C47.045 51.9765 46.0865 50.4698 44.9296 49.145C46.0762 55.8946 52.0771 61.4439 58.7401 61.9161L55.0427 63.3572C54.1787 63.6939 53.2834 64.0517 52.6494 64.7415C51.5638 65.9226 51.5267 67.7396 51.7013 69.353ZM49.8778 116.564C49.5185 118.421 49.3213 120.434 50.1313 122.136C50.5678 123.053 51.265 123.807 51.9505 124.548L51.9974 124.599C56.1207 129.057 59.9938 133.759 63.5911 138.673C61.9938 140.247 60.2158 141.628 58.3055 142.778C57.7733 143.098 57.1986 143.409 56.5818 143.398C55.6625 143.381 54.9154 142.668 54.2687 141.997C49.7516 137.315 45.3511 132.515 41.0728 127.603C39.7126 126.041 38.3295 124.405 37.7113 122.409C36.9255 119.872 37.4818 117.127 38.0428 114.528C39.5896 107.36 41.2169 99.9966 45.2505 93.9325C47.5165 98.1066 51.7131 101.119 56.3121 101.873C53.1233 106.188 50.9049 111.253 49.8778 116.564ZM78.6133 36.653C77.9386 38.1003 76.8004 39.3787 75.3244 39.9089C73.3565 40.6157 71.1922 39.9085 69.2656 39.0909C68.2644 38.666 67.2529 38.1947 66.4775 37.4184C65.8194 36.7595 65.3685 35.9173 64.9508 35.0768C63.6503 32.4595 62.5755 29.7242 61.7433 26.9133C61.055 24.5888 60.7004 21.6475 62.5323 20.108C64.6249 21.7555 67.4392 22.1688 70.0594 21.8562C72.3889 21.5783 74.6206 20.7839 76.8404 19.9938C77.1174 19.8952 77.3941 19.7967 77.6709 19.6992C77.987 19.588 78.3611 19.4852 78.634 19.6831C78.8427 19.8346 78.9164 20.1124 78.9731 20.3682C79.8159 24.1717 80.0615 28.1138 79.6974 31.9964C79.5477 33.5933 79.288 35.2058 78.6133 36.653ZM87.0215 145.311C83.2704 140.181 80.7577 134.106 79.7683 127.774C79.3434 125.055 79.206 122.206 80.0893 119.606C80.9326 123.011 84.9275 125.186 88.1493 123.993C88.9902 125.77 89.7547 127.585 90.4398 129.432C92.2398 134.282 93.4651 139.801 91.4716 144.571C90.9924 145.718 90.0457 146.939 88.8427 146.756C88.0629 146.637 87.4946 145.958 87.0215 145.311ZM62.0458 12.8541C62.9941 11.1116 65.0806 10.2264 67.0191 10.3939C67.4715 10.4329 67.9221 10.4919 68.3636 10.5496C69.7627 10.7326 71.0711 10.9038 72.0592 10.3939C73.5636 9.6175 74.1922 8.53823 74.8321 7.43968C75.2592 6.70636 75.6914 5.96444 76.3924 5.29831C76.8358 4.87689 77.3302 4.47247 77.9206 4.33926C79.128 4.06683 80.2873 5.01002 80.9749 6.06391C82.4508 8.32581 82.6456 11.4044 81.467 13.843C80.1692 16.5285 77.4935 18.2091 74.8166 19.411C72.8894 20.2763 70.8499 20.9782 68.7466 21.0228C66.6433 21.0674 64.4545 20.3841 63.0043 18.8208C61.554 17.2574 61.0203 14.7384 62.0458 12.8541ZM56.1153 154.186C56.0253 153.499 55.9542 152.733 56.36 152.18C58.0232 152.334 59.7398 151.715 60.9442 150.529C60.5779 149.753 59.4438 149.806 58.7274 150.256C58.4525 150.429 58.2 150.641 57.9482 150.853C57.544 151.192 57.1417 151.531 56.6515 151.701C56.1777 151.22 56.2626 150.371 56.6567 149.82C57.0508 149.268 57.67 148.943 58.2662 148.637L62.02 146.711C61.2988 145.979 60.0966 145.969 59.1761 146.407C58.2557 146.846 57.5514 147.641 56.8736 148.415C56.1212 147.067 56.6582 145.133 57.99 144.393L62.853 141.693C63.2308 141.483 63.6315 141.268 64.0609 141.281C64.9906 141.309 65.5517 142.342 65.806 143.26C66.5418 145.915 66.3174 148.737 66.0869 151.487C65.748 155.531 65.4035 159.606 64.2978 163.504C63.9168 164.847 63.3154 166.31 62.0495 166.831C60.6764 167.396 59.0612 166.538 58.24 165.276C57.4188 164.014 57.2005 162.451 57.003 160.947L56.1153 154.186ZM120.949 62.4948C121.476 62.4287 121.932 61.8046 121.675 61.3284L119.867 57.9738C119.629 57.5319 119.386 57.0713 119.354 56.5673C119.322 56.0634 119.568 55.5032 120.036 55.3473C120.706 55.1243 121.322 55.7892 121.711 56.3926C122.528 57.664 123.241 59.0061 123.839 60.4001C124.549 59.43 123.773 58.0903 123.065 57.1193C122.357 56.1482 121.737 54.6591 122.623 53.8559C123.498 53.0625 124.888 53.8757 125.559 54.8567C125.911 55.3719 126.2 55.9435 126.489 56.5129C127.047 57.6162 127.602 58.7113 128.6 59.3731C129.031 59.1028 128.816 58.4252 128.555 57.9815L125.205 52.2927C124.905 51.784 125.401 51.0942 125.974 51.0083C126.547 50.9224 127.1 51.237 127.579 51.5715C129.883 53.1803 131.718 55.6432 132.151 58.4674C132.583 61.2917 131.408 64.4293 128.992 65.8549C128.262 66.2861 127.448 66.5547 126.62 66.7198C121.584 67.7243 116.073 64.4168 114.458 59.4215C114.211 58.6571 114.151 57.6126 114.853 57.2506C115.387 56.9746 116.033 57.3026 116.478 57.7128C117.122 58.3056 117.581 59.0642 118.041 59.8232C118.484 60.5543 118.927 61.2857 119.535 61.8699C119.922 62.242 120.423 62.5609 120.949 62.4948ZM68.4134 68.1075C69.032 68.1271 69.6732 68.1474 70.1875 68.4891C70.7548 68.8659 71.002 69.8198 70.4646 70.2403C70.2613 70.3993 69.9975 70.4457 69.745 70.4873C67.3978 70.8734 64.7201 71.1738 62.8955 69.6107C62.4852 69.8028 62.3655 70.3817 62.5329 70.8112C62.7003 71.2408 63.073 71.5465 63.4459 71.8066C65.1017 72.9616 67.0841 73.6177 69.0858 73.6731C67.7748 74.8379 65.856 75.2342 64.2078 74.6806C63.5608 74.4633 62.6508 74.2154 62.3645 74.849C63.6339 76.0938 65.5713 76.1895 67.3272 76.2129C64.1904 77.7463 60.0748 76.7476 57.9402 73.935C57.7882 73.7348 57.4454 73.837 57.3248 74.0586C57.2041 74.2801 57.2369 74.5525 57.2732 74.8035C57.4579 76.0815 57.7115 77.4865 58.7003 78.2866C59.2236 78.7101 59.873 78.8946 60.5228 79.0792C60.782 79.1528 61.0414 79.2265 61.2928 79.3154C62.1744 79.627 63.0856 80.3109 63.094 81.2675C60.254 81.5186 57.4738 79.8674 55.7544 77.5351C54.0351 75.2027 53.2453 72.2788 52.881 69.3786C52.7869 68.6289 52.7206 67.8527 52.933 67.1288C53.3558 65.6876 54.7435 64.8164 56.0226 64.0791C56.9504 63.5444 58.2299 63.0516 58.9658 63.8401C61.3636 66.4093 64.758 67.9717 68.2231 68.1011C68.2862 68.1034 68.3497 68.1055 68.4134 68.1075ZM74.5044 73.2879L110.85 62.9665C112.432 62.517 114.306 62.1239 115.572 63.1963C101.182 67.7583 86.6076 71.7084 71.8988 75.033C71.098 75.214 69.9566 75.1777 69.8169 74.3488C70.3003 74.3671 70.2984 73.8112 70.2964 73.2233C70.2944 72.6445 70.2923 72.0346 70.7531 71.9112L113.108 60.5632C113.364 60.4945 113.689 60.4487 113.846 60.6672C114.101 61.0223 113.578 61.4192 113.164 61.5374L72.7689 73.0577C73.1356 73.5744 73.9039 73.4584 74.5044 73.2879ZM115.483 70.3138C112.861 72.1163 109.532 72.5894 106.397 72.2081C103.263 71.8269 100.275 70.6566 97.3704 69.3895L114.759 64.3894C115.369 64.2141 116.122 64.0762 116.552 64.5528C120.08 68.4637 126.501 69.1616 130.75 66.0962C130.254 68.53 128.109 70.5098 125.697 70.7584C124.323 70.9 122.971 70.5342 121.625 70.1703C121.268 70.0738 120.911 69.9774 120.555 69.8906C118.855 69.4768 116.934 69.3163 115.483 70.3138ZM67.4295 40.3637C67.6778 39.999 68.2123 39.7979 68.5565 40.0685C70.5744 41.655 73.3796 42.1235 75.7839 41.2755C76.5513 41.0048 77.4242 41.5652 77.741 42.3316C78.0578 43.0979 77.9299 43.9859 77.6516 44.7678C76.8042 47.1487 74.5233 48.92 72.0595 49.1106C69.5956 49.3012 67.0816 47.9008 65.8957 45.6771C65.5297 44.9907 65.4075 43.9147 66.1136 43.6188C66.818 43.3236 67.0197 42.4141 67.0959 41.6375L67.0982 41.614C67.1408 41.1784 67.1856 40.7219 67.4295 40.3637ZM134.627 59.4231C134.343 59.5019 134.043 59.5793 133.758 59.5013C133.474 59.4234 133.224 59.1305 133.295 58.8378C135.837 58.4239 138.29 57.4495 140.441 56C141.279 55.4354 142.168 54.4515 141.745 53.5193C141.465 52.9012 140.713 52.6633 140.048 52.6911C139.087 52.7314 138.191 53.1739 137.326 53.6077L132.662 55.948C132.445 55.6846 132.535 55.2609 132.765 55.0089C132.986 54.7659 133.299 54.6413 133.602 54.5209L133.636 54.5075C135.753 53.6645 137.726 52.4406 139.436 50.9085C139.937 50.4597 139.677 49.5352 139.105 49.1872C138.533 48.8391 137.814 48.9078 137.16 49.0331C135.263 49.3965 133.438 50.1472 131.822 51.2285C131.026 51.7608 129.897 52.3504 129.246 51.6406C131.002 49.8143 133.41 48.8396 135.743 47.9142L140.256 46.1236C140.57 45.9991 140.91 45.8727 141.236 45.9583C141.679 46.0748 141.939 46.5348 142.14 46.9568C143.28 49.3518 144.119 51.8971 144.631 54.5102C144.705 54.8894 144.766 55.3082 144.576 55.6421C144.404 55.9447 144.067 56.0996 143.751 56.2336C140.78 57.4945 137.73 58.5605 134.627 59.4231ZM113.279 59.5829C113.11 59.7674 112.858 59.8394 112.62 59.9035L71.1687 71.037C71.8122 69.4424 73.7036 68.897 75.3473 68.529C86.784 65.9684 97.9875 62.4372 109.179 58.9098C109.815 58.7092 110.452 58.5086 111.088 58.3082C111.64 58.1343 112.241 57.9613 112.782 58.169C113.323 58.3768 113.675 59.1511 113.279 59.5829ZM57.1779 17.1223C57.4318 16.2695 57.847 15.0911 58.4966 14.4987C58.8279 14.1966 59.2764 13.8744 59.6751 14.0731C59.9257 14.1979 60.0486 14.4867 60.1514 14.7523C60.305 15.1496 60.5245 15.6823 60.7439 16.2151C60.9634 16.7478 61.1828 17.2805 61.3365 17.6778C61.552 18.2351 61.7605 19.1012 61.3652 19.3826C59.6751 20.5862 60.0597 24.98 60.8166 27.0017C60.9973 27.4844 61.1523 28.4736 60.9965 29.1947C60.8407 29.9158 60.0597 30.5645 59.4209 30.2236C59.0545 30.028 58.4733 28.9917 58.2628 28.6163C58.2435 28.582 58.2274 28.5533 58.2148 28.5311C55.1013 23.0658 56.8272 18.129 57.1379 17.2402C57.1572 17.185 57.1711 17.1455 57.1779 17.1223ZM70.8371 76.2997C73.6051 75.7735 76.3445 75.0896 79.0386 74.2521C79.0803 74.2392 79.1221 74.2262 79.1639 74.2131C80.0026 73.9517 80.8535 73.6865 81.7286 73.6909C81.6187 75.1118 80.8493 76.428 79.7939 77.3551C78.7385 78.2821 77.417 78.8467 76.0633 79.1678C75.0369 79.4114 73.9545 79.5208 72.9345 79.2504C71.9145 78.98 70.9632 78.2806 70.5754 77.2757C70.4364 76.9156 70.4659 76.3702 70.8371 76.2997ZM74.2689 67.8228C72.5036 68.0794 70.6376 67.9479 69.0485 67.1186C68.7126 66.9433 68.8866 66.4163 69.1238 66.1159C70.3438 64.5717 72.1918 63.5668 74.1225 63.3979C76.0531 63.229 78.0403 63.8984 79.4976 65.2085C79.7384 65.425 79.9832 65.7677 79.8206 66.0507C79.735 66.1998 79.5637 66.2685 79.4049 66.327C77.7268 66.9447 76.0342 67.5662 74.2689 67.8228ZM68.8296 51.0242C67.26 50.5192 66.0317 49.2377 65.1343 47.8234C64.5903 46.9661 64.1451 46.0502 63.6998 45.1339C63.4105 44.5385 63.1211 43.943 62.8044 43.3633C63.386 43.2642 63.9522 43.671 64.2747 44.1772C64.505 44.5386 64.6446 44.9478 64.7842 45.357C64.8401 45.521 64.8961 45.6851 64.9579 45.8461C66.1184 48.8689 69.5748 50.6816 72.6875 50.0825C75.8002 49.4834 78.3245 46.6706 78.8642 43.4693C78.9209 43.1329 79.0238 42.7169 79.3502 42.6501C79.7028 42.9523 79.7186 43.4984 79.6563 43.9654C79.2047 47.3547 76.2095 49.905 73.0097 50.8681C71.652 51.2767 70.1797 51.4585 68.8296 51.0242ZM131.052 53.0535C133.014 51.4831 135.325 50.3762 137.758 49.8424C138.051 49.7783 138.489 49.8442 138.462 50.1495C138.454 50.246 138.393 50.3279 138.333 50.4025C137.124 51.8979 135.355 52.773 133.643 53.6035C133.164 53.8362 132.658 54.0743 132.128 54.0407C131.599 54.0071 131.052 53.5977 131.052 53.0535ZM139.54 53.8062C139.792 53.7236 140.068 53.646 140.316 53.7413C140.563 53.8366 140.727 54.1857 140.553 54.3898C139.051 56.1483 136.804 57.0161 134.612 57.655C134.039 57.822 133.197 57.8178 133.099 57.2148C135.041 55.7215 137.228 54.5642 139.54 53.8062ZM80.5746 28.0436C80.7014 27.2389 80.8528 26.2774 80.8528 25.6556C80.8528 24.8013 80.9792 23.7564 81.7556 23.4522C82.5 23.1606 83.3411 23.8603 83.4844 24.6644C83.6277 25.4684 82.7424 28.7148 82.3027 29.3965C82.1018 29.708 81.8682 30.0188 81.5376 30.1754C81.207 30.332 80.7569 30.2813 80.5545 29.9708C80.4491 29.8092 80.4255 29.6073 80.4075 29.4137C80.3894 29.2197 80.4743 28.6808 80.5746 28.0436ZM80.5919 17.9313C80.6306 17.9885 80.6474 18.0579 80.663 18.1257C80.9854 19.5301 81.1105 20.982 81.0332 22.4226C80.6633 22.5933 80.3569 22.0868 80.2483 21.6859L79.7834 19.9712C79.6004 19.2963 79.453 18.4704 79.9415 17.9809C80.1188 17.8032 80.4503 17.7225 80.5919 17.9313ZM61.0217 33.2111C60.541 32.8704 60.1514 32.5942 60.1514 31.7512C60.1514 30.7539 61.2018 29.782 61.4308 29.9708C62.2632 30.657 63.7593 34.0601 63.8342 35.1529C63.2078 34.8905 62.7461 34.5327 61.9031 33.8793C61.7197 33.737 61.5181 33.5808 61.2929 33.4086C61.2007 33.338 61.1097 33.2735 61.0217 33.2111ZM66.4841 72.0896L68.1818 71.7213C68.3935 71.6754 68.6508 71.6439 68.7924 71.8117C69.0654 72.1353 68.5278 72.544 68.1108 72.5519C67.5404 72.5628 66.9678 72.4001 66.4841 72.0896ZM118.016 56.0884C118.324 56.1241 118.583 56.5263 118.381 56.7663L118.362 56.7879C118.097 56.9958 117.792 57.2153 117.462 57.1665C117.131 57.1176 116.899 56.6212 117.172 56.4249C117.425 56.2431 117.709 56.0527 118.016 56.0884ZM120.459 61.2951L120.073 61.2371L120.036 61.2333L119.219 59.9433C119.935 59.7053 120.734 60.5755 120.459 61.2951ZM118.664 58.967C118.35 58.9826 118.098 58.5809 118.241 58.2941C118.385 58.0072 118.85 57.9842 119.021 58.2554C119.191 58.5266 118.978 58.9514 118.664 58.967ZM75.8138 16.895L72.8629 18.3284C70.6083 19.4235 67.7762 19.1398 65.7708 17.6179C65.4877 17.5505 65.2423 17.8977 65.2902 18.1917C65.3381 18.4856 65.5709 18.708 65.8043 18.8855C67.4211 20.1149 69.6319 20.2689 71.5822 19.7594C73.5325 19.2499 75.2816 18.1529 76.9761 17.039C76.8533 16.5979 76.218 16.6987 75.8138 16.895ZM73.0398 23.5451C72.7973 23.7676 72.3774 23.4655 72.3814 23.1318C72.3853 22.798 72.6491 22.5297 72.9211 22.3466C74.062 21.579 75.6976 21.6981 76.7212 22.6235C76.4953 23.0045 75.9673 22.9162 75.5224 22.8417L75.5216 22.8416L75.5193 22.8412L75.5185 22.8411C75.485 22.8355 75.452 22.83 75.4196 22.8248C74.5752 22.6885 73.6768 22.9605 73.0398 23.5451ZM67.5741 24.8063C67.9612 24.7156 68.3709 24.4117 68.3341 24.0061C68.303 23.6641 67.9678 23.4371 67.6453 23.3451C66.8849 23.1281 66.0118 23.4102 65.51 24.035C65.0081 24.6599 64.9052 25.5929 65.2583 26.317C65.4283 26.1611 65.5668 25.9691 65.7046 25.7782C65.9091 25.4948 66.1119 25.2137 66.4134 25.0563C66.6418 24.937 66.8974 24.9053 67.1541 24.8735C67.2953 24.856 67.4367 24.8384 67.5741 24.8063ZM75.2804 29.3072C75.7487 29.3003 76.0646 28.8041 76.1823 28.3391C76.4244 27.3827 76.1781 26.3108 75.5452 25.5661C75.2586 25.2289 74.7704 24.9483 74.4059 25.1938C74.2931 25.2697 74.2121 25.3863 74.1468 25.5075C73.6895 26.3552 73.9185 27.4152 74.274 28.3128C74.4608 28.7846 74.7841 29.3144 75.2804 29.3072ZM69.3595 29.3092L69.22 27.8179C69.1669 27.2504 69.0486 26.5832 68.5445 26.3432C67.8558 26.0153 67.1283 26.8009 66.9478 27.5575C66.754 28.37 66.8659 29.2551 67.2554 29.99C67.6087 30.6565 68.4881 31.215 69.0499 30.7215C69.4221 30.3945 69.4063 29.8097 69.3595 29.3092ZM68.196 141.084C72.078 140.965 75.96 140.848 79.8421 140.733C80.2686 140.72 80.7265 140.716 81.0804 140.961C81.4087 141.187 81.5882 141.621 81.5196 142.02L70.1232 142.24C69.6999 142.249 69.2618 142.254 68.8723 142.084C68.4829 141.913 68.1542 141.516 68.196 141.084ZM72.1836 34.1355C71.7675 34.0136 71.9636 33.38 72.1592 32.984C72.7913 31.7048 72.4352 30.1358 71.8023 28.857L71.7866 28.8253C71.6461 28.542 71.496 28.2394 71.5459 27.9275C71.5977 27.6039 71.9953 27.3348 72.2437 27.5411C72.3184 27.6032 72.3638 27.694 72.4069 27.7821C72.8822 28.7533 73.3484 29.7516 73.5031 30.8266C73.6579 31.9017 73.4585 33.0817 72.7399 33.8802C72.5945 34.0417 72.3896 34.1959 72.1836 34.1355ZM72.8047 38.2098C74.7533 37.8894 76.3161 35.943 76.2493 33.9197C76.2453 33.7993 76.2348 33.6741 76.1745 33.5707C76.0053 33.2811 75.5452 33.3486 75.328 33.6024C75.1493 33.8111 75.0814 34.0878 75.0145 34.3607L75.0145 34.3607C75 34.4194 74.9857 34.478 74.9702 34.5357C74.7098 35.5096 74.0616 36.3681 73.2075 36.8704C73.1664 36.8946 73.1244 36.9183 73.0822 36.9422L73.0814 36.9427L73.0811 36.9428L73.0809 36.943L73.0807 36.9431C72.8312 37.0844 72.5747 37.2297 72.4438 37.484C72.2906 37.7819 72.4805 38.2631 72.8047 38.2098ZM84.702 160.06C84.7852 162.463 85.0454 170.088 84.7413 171.472C84.6848 171.729 84.5928 172.022 84.3526 172.116C83.8743 172.302 83.5936 171.566 83.5877 171.041C83.5395 166.787 83.4914 161.788 83.4433 156.789C83.3951 151.79 83.347 146.791 83.2988 142.537C84.0919 142.537 84.3526 145.408 84.3526 147.261C84.3526 153.49 84.702 160.06 84.702 160.06ZM57.4117 107.227C57.2956 107.157 57.1605 107.088 57.022 107.016C56.4695 106.732 55.8618 106.419 56.1816 105.978C64.6385 106.354 73.1149 106.267 81.5628 105.717C83.9553 105.562 86.6542 105.202 88.0763 103.223C88.1333 103.143 88.1882 103.061 88.2432 102.979C88.4324 102.697 88.6224 102.413 88.9005 102.23C89.2595 101.994 89.834 102.024 90.0135 102.421C89.7601 104.543 87.8209 106.313 85.7366 106.323C84.8245 106.328 84.5154 107.549 84.3998 108.477C84.2842 109.405 83.6602 110.594 82.8041 110.271C83.0203 109.51 83.1601 108.727 83.2209 107.936C83.2413 107.671 83.236 107.364 83.0361 107.195C82.881 107.064 82.6605 107.063 82.4594 107.069L60.1386 107.722C59.9971 107.726 59.8412 107.736 59.7401 107.838C59.6168 107.962 59.6281 108.165 59.6482 108.342L61.2324 122.197C61.2673 122.502 61.388 122.891 61.6872 122.893L74.3406 122.964C75.0132 122.968 75.9705 123.496 75.5596 124.042C75.3914 124.265 75.0758 124.286 74.8005 124.287L61.9231 124.341C61.3793 124.343 61.2255 125.101 61.2455 125.659L61.4505 131.36C59.9036 130.229 59.7975 127.959 59.7867 126.011C59.7552 120.333 59.2605 114.658 58.3094 109.064C58.1907 108.366 58.0087 107.583 57.4117 107.227Z" fill="#00160A"/>
<path fill-rule="evenodd" clip-rule="evenodd" d="M86.0624 134.142C86.5923 132.909 87.8266 132.029 89.1376 131.948C89.4783 131.927 89.8652 131.978 90.0732 132.256C90.2813 132.534 90.1026 133.061 89.7642 133.015C88.9516 132.906 88.1406 133.331 87.5704 133.935C87.0002 134.539 86.6282 135.306 86.2652 136.06C85.7436 135.621 85.7904 134.775 86.0624 134.142Z" fill="#00160A"/>
<path fill-rule="evenodd" clip-rule="evenodd" d="M176.583 59.1847C179.116 59.4232 181.463 57.9604 183.562 56.528C189.399 52.5459 195.686 47.1164 195.303 40.0754C195.181 37.8393 194.373 35.7355 193.563 33.6293C193.217 32.7278 192.871 31.826 192.578 30.9131C191.048 26.146 190.991 21.1197 190.935 16.0804C190.888 11.947 190.841 7.80495 189.982 3.79006C189.673 2.35026 189.056 0.71465 187.638 0.305189C186.839 0.0744775 185.987 0.308856 185.189 0.542423L159.69 8.00229C154.89 9.40654 153.862 15.6199 153.725 20.6054L153.35 34.1703C151.835 34.3596 150.396 33.7674 148.958 33.1751C148.409 32.9491 147.86 32.723 147.306 32.5404C141.858 30.7425 135.269 33.7656 133.095 39.061C130.921 44.3564 133.492 51.1181 138.641 53.6454C143.79 56.1727 150.732 54.0809 153.616 49.1337C155.574 45.7743 155.69 41.6954 155.754 37.8105L155.875 30.5159C155.92 27.7897 158.987 26.278 161.58 25.4113C169.566 22.7418 177.626 20.2916 185.748 18.0645C186.551 17.8445 187.548 17.6793 188.097 18.3037C188.393 18.6411 188.458 19.1163 188.509 19.5617L189.621 29.112C189.786 30.5283 189.625 32.4329 188.227 32.7332C181.476 34.1833 175.474 38.7804 172.329 44.9107C170.989 47.5223 170.143 50.5219 170.737 53.395C171.331 56.268 173.654 58.909 176.583 59.1847ZM186.897 4.55382C187.183 4.84228 187.264 5.26716 187.333 5.66562L188.107 10.1488C188.312 11.3329 188.505 12.6049 187.99 13.6919C187.175 15.4089 185.013 15.9255 183.137 16.2944C178.803 17.1466 174.526 18.2775 170.339 19.6777C166.84 20.8479 163.409 22.2049 159.978 23.5613C159.688 23.6759 159.399 23.7905 159.109 23.9051C158.295 24.2265 157.172 24.4583 156.706 23.7223C156.589 23.5379 156.541 23.32 156.5 23.106C155.682 18.7588 157.696 14.0168 161.403 11.5621C163.445 10.21 165.859 9.54678 168.227 8.904L184.87 4.38582C185.558 4.19912 186.398 4.04898 186.897 4.55382ZM153.317 40.3036C153.247 44.5055 152.232 49.3096 148.494 51.3431C145.529 52.9564 141.657 52.181 138.966 50.1547C135.806 47.775 134.07 43.0362 136.38 39.8477C137.342 38.5195 138.845 37.6587 140.401 37.0955C143.974 35.8018 148.057 35.9318 151.538 37.4502C152.094 37.6925 152.661 37.9919 152.982 38.4994C153.316 39.0259 153.327 39.6834 153.317 40.3036ZM20.6503 13.6118C20.7639 13.9709 21.2589 13.9572 21.6172 13.8709L24.8751 13.0865C24.7842 12.2156 24.6194 11.3529 24.3831 10.5113C24.3135 10.2633 24.2295 10.0039 24.04 9.8341C23.7465 9.5712 23.3072 9.60757 22.9208 9.65917L17.9167 10.3274C17.5732 10.3733 17.1147 10.6025 17.2454 10.9316C18.391 13.8151 19.2946 16.7998 19.9429 19.8417C20.0669 20.4237 20.046 21.2408 19.4788 21.3685C17.8363 21.7381 16.4309 23.0606 15.9305 24.7076C15.7766 25.2142 15.7067 25.7769 15.9058 26.2666C16.0137 26.5321 16.1948 26.7603 16.3978 26.9587C17.372 27.9108 18.9258 28.1756 20.1477 27.5977C21.3696 27.0198 22.1825 25.6357 22.1093 24.2575C22.0817 23.7369 21.9405 23.2306 21.8002 22.7295L18.6013 11.3064L22.8367 10.9654C23.2621 10.9899 23.4419 11.61 23.2171 11.9813C22.9924 12.3527 22.5459 12.5071 22.1281 12.5933C22.068 12.6057 22.0072 12.6174 21.9463 12.6292C21.5844 12.6992 21.2161 12.7703 20.9226 12.9924C20.7326 13.1362 20.5774 13.3814 20.6503 13.6118Z" fill="#FFB61D"/>
<path fill-rule="evenodd" clip-rule="evenodd" d="M85.3652 130.447C85.2381 130.617 84.951 130.568 84.8285 130.395C84.7061 130.222 84.717 129.982 84.7837 129.78C84.9032 129.417 85.1737 129.128 85.4572 128.879C86.1695 128.252 87.0175 127.789 87.9219 127.532C88.2784 127.431 88.6942 127.373 88.9893 127.601C89.2844 127.83 89.2369 128.441 88.8685 128.475C87.5033 128.6 86.2014 129.333 85.3652 130.447Z" fill="#00160A"/>
</svg>
