<svg width="16" height="15" viewBox="0 0 16 15" fill="none" xmlns="http://www.w3.org/2000/svg">
<path d="M0.416992 14.9519C0.416992 13.449 1.01401 12.0077 2.07672 10.945C3.13943 9.88226 4.58077 9.28524 6.08366 9.28524C7.58655 9.28524 9.02789 9.88226 10.0906 10.945C11.1533 12.0077 11.7503 13.449 11.7503 14.9519H0.416992ZM6.08366 8.5769C3.73553 8.5769 1.83366 6.67503 1.83366 4.3269C1.83366 1.97878 3.73553 0.0769043 6.08366 0.0769043C8.43178 0.0769043 10.3337 1.97878 10.3337 4.3269C10.3337 6.67503 8.43178 8.5769 6.08366 8.5769ZM11.2991 10.1586C12.3826 10.4371 13.3506 11.0503 14.0654 11.9109C14.7801 12.7715 15.2052 13.8357 15.28 14.9519H13.167C13.167 13.1032 12.4587 11.4202 11.2991 10.1586ZM9.86616 8.54645C10.4597 8.01553 10.9344 7.36518 11.2591 6.63802C11.5838 5.91085 11.7512 5.12327 11.7503 4.3269C11.7518 3.35894 11.5042 2.40688 11.0314 1.56228C11.8336 1.72349 12.5554 2.15754 13.0738 2.79067C13.5923 3.42379 13.8755 4.21692 13.8753 5.03524C13.8755 5.5399 13.7678 6.03877 13.5595 6.49842C13.3511 6.95807 13.047 7.36788 12.6673 7.70037C12.2877 8.03287 11.8413 8.28037 11.3582 8.42629C10.8751 8.57221 10.3664 8.61318 9.86616 8.54645Z" fill="#5B60FD"/>
</svg>
